<svg xmlns="http://www.w3.org/2000/svg" xmlns:xlink="http://www.w3.org/1999/xlink" width="77.763" height="93.225" viewBox="0 0 77.763 93.225"><defs><clipPath id="a"><rect width="77.763" height="93.225" fill="none"/></clipPath><clipPath id="c"><rect width="16.188" height="13.248" fill="none"/></clipPath><clipPath id="d"><rect width="75.544" height="53.127" fill="none"/></clipPath><clipPath id="e"><rect width="34.616" height="24.851" fill="none"/></clipPath></defs><g transform="translate(38)"><g transform="translate(-38)" clip-path="url(#a)"><g clip-path="url(#a)"><path d="M88.542,16.589a8.4,8.4,0,1,1,10.107-6.257,8.414,8.414,0,0,1-10.107,6.257M91.655,3.356a5.188,5.188,0,1,0,3.863,6.238,5.194,5.194,0,0,0-3.863-6.238" transform="translate(-40.78 0)" fill="#7d5533"/><g transform="translate(41.904 3.564)" opacity="0.39" style="mix-blend-mode:multiply;isolation:isolate"><g clip-path="url(#c)"><path d="M97.937,7.085A8.392,8.392,0,0,1,83.3,15.075a8.4,8.4,0,1,0,14.638-7.99" transform="translate(-83.299 -7.085)" fill="#634329"/></g></g><path d="M76.727,78.823a38.471,38.471,0,1,0-46.257,28.64,38.471,38.471,0,0,0,46.257-28.64" transform="translate(-0.397 -15.671)" fill="#7c5533"/><circle cx="38.471" cy="38.471" r="38.471" transform="matrix(0.517, -0.856, 0.856, 0.517, -13.944, 67.361)" fill="none" stroke="#7d5533" stroke-miterlimit="10" stroke-width="1.599"/><g transform="translate(1.814 39.695)" opacity="0.39" style="mix-blend-mode:multiply;isolation:isolate"><g clip-path="url(#d)"><path d="M76.238,78.909A38.468,38.468,0,0,1,3.605,103.861,38.469,38.469,0,1,0,76.238,78.909" transform="translate(-3.605 -78.909)" fill="#634329"/></g></g><path d="M76.829,84.079A31.546,31.546,0,1,0,38.9,107.564,31.546,31.546,0,0,0,76.829,84.079" transform="translate(-7.24 -22.513)" fill="#ffeabe"/><line x1="0.742" y2="3.152" transform="translate(44.75 27.129)" fill="none" stroke="#2a435f" stroke-linecap="round" stroke-miterlimit="10" stroke-width="3.197"/><line x1="2.753" y2="1.705" transform="translate(60.474 39.89)" fill="none" stroke="#2a435f" stroke-linecap="round" stroke-miterlimit="10" stroke-width="1.599"/><line x1="3.152" y1="0.741" transform="translate(63.592 60.713)" fill="none" stroke="#2a435f" stroke-linecap="round" stroke-miterlimit="10" stroke-width="3.197"/><line x1="1.704" y1="2.753" transform="translate(52.279 76.436)" fill="none" stroke="#2a435f" stroke-linecap="round" stroke-miterlimit="10" stroke-width="1.599"/><line y1="3.152" x2="0.741" transform="translate(32.419 79.554)" fill="none" stroke="#2a435f" stroke-linecap="round" stroke-miterlimit="10" stroke-width="3.197"/><line y1="1.704" x2="2.753" transform="translate(14.683 68.241)" fill="none" stroke="#2a435f" stroke-linecap="round" stroke-miterlimit="10" stroke-width="1.599"/><line x2="3.152" y2="0.742" transform="translate(11.166 48.381)" fill="none" stroke="#2a435f" stroke-linecap="round" stroke-miterlimit="10" stroke-width="3.197"/><line x2="1.705" y2="2.753" transform="translate(23.928 30.646)" fill="none" stroke="#2a435f" stroke-linecap="round" stroke-miterlimit="10" stroke-width="1.599"/><path d="M64.524,95.1,57.652,76.867,70.511,91.225S68.6,88.036,65.578,90.17A3.454,3.454,0,0,0,64.524,95.1" transform="translate(-28.65 -38.199)" fill="#f14d24"/><path d="M71.143,109.3l13.121,14.408-6.946-17.98s1.971,3.152-1.3,4.874a3.453,3.453,0,0,1-4.873-1.3" transform="translate(-35.354 -52.542)" fill="#f14d24"/><path d="M65.093,89.554,57.652,76.867,70.061,90.722Z" transform="translate(-28.65 -38.199)" fill="#b8401e"/><path d="M81.88,112.924,89.6,125.415l-6.291-16.253Z" transform="translate(-40.69 -54.248)" fill="#b8401e"/><path d="M77.3,105.122a4.363,4.363,0,1,1-4.232-4.49,4.363,4.363,0,0,1,4.232,4.49" transform="translate(-34.081 -50.008)" fill="#2a435f"/><path d="M77.28,107.075a2.326,2.326,0,1,1-2.256-2.394,2.326,2.326,0,0,1,2.256,2.394" transform="translate(-36.093 -52.021)" fill="#ffeabe"/><path d="M77.271,107.943a1.42,1.42,0,1,1-1.378-1.461,1.42,1.42,0,0,1,1.378,1.461" transform="translate(-36.988 -52.915)" fill="#f14d24"/><path d="M92.371,28.3h0a2.219,2.219,0,0,1-1.652-2.669l.977-4.154a2.219,2.219,0,0,1,4.321,1.016l-.977,4.155A2.219,2.219,0,0,1,92.371,28.3" transform="translate(-45.053 -9.822)" fill="#a87244"/><g transform="translate(14.551 25.68)" opacity="0.65"><g clip-path="url(#e)"><path d="M50.8,72.927c-9.217,4.454-18.735,3.833-21.257-1.388s2.905-13.063,12.123-17.516S60.4,50.19,62.923,55.41,60.018,68.473,50.8,72.927" transform="translate(-28.925 -51.049)" fill="#fff9f8"/></g></g></g></g></g></svg>