<svg xmlns="http://www.w3.org/2000/svg" xmlns:xlink="http://www.w3.org/1999/xlink" width="55" height="41" viewBox="0 0 55 41"><defs><clipPath id="a"><rect width="37.563" height="22.035" transform="translate(0 0)" fill="none"/></clipPath></defs><g transform="translate(-922 -2584)"><rect width="55" height="41" transform="translate(922 2584)" fill="#fff"/><g transform="translate(930 2593)"><g clip-path="url(#a)"><path d="M.65,0H.641C.628,0,.616,0,.6,0A.808.808,0,0,0,.517.015L.51.017l-.017,0a.219.219,0,0,0-.034.01A.646.646,0,0,0,.3.1L.293.108A.66.66,0,0,0,.162.224S.152.231.149.236L.144.244.125.267.12.275A.569.569,0,0,0,.063.37L.058.383.054.4a.188.188,0,0,0-.012.03A.439.439,0,0,0,.021.486v0a.12.12,0,0,0,0,.02A.635.635,0,0,0,0,.6V.607C0,.619,0,.629,0,.64A.692.692,0,0,0,0,.731l0,.018,0,.026L.019.806a.377.377,0,0,0,.01.043l0,.007a.76.76,0,0,0,.043.1l0,.008,0,0,0,.009L12.1,21.71a.654.654,0,0,0,.507.323.553.553,0,0,0,.058,0,.651.651,0,0,0,.5-.232L20.1,13.571l7.582,2.879.039.014a.632.632,0,0,0,.23.042.645.645,0,0,0,.614-.854L27.856,5.587,37.177,1.43A.652.652,0,0,0,36.915.182L.654,0ZM21,12.514l.565-.67,1.744-2.069,3.042,4.771ZM33.882,1.471l-6.8,3.03L8.584,1.344ZM26.558,5.735l.537,7.556L23.929,8.327a.487.487,0,0,0-.04-.05.477.477,0,0,0-.045-.054.4.4,0,0,0-.044-.039l-.035-.029c-.013-.01-.026-.02-.04-.029a.676.676,0,0,0-.081-.04c-.016-.007-.03-.017-.046-.023h0L8.069,2.58ZM22.272,8.978,12.764,20.253,2.1,1.857Z" fill="#272525"/></g></g></g></svg>