<svg xmlns="http://www.w3.org/2000/svg" xmlns:xlink="http://www.w3.org/1999/xlink" width="53" height="53" viewBox="0 0 53 53"><defs><clipPath id="a"><rect width="37.326" height="30.723" fill="none"/></clipPath></defs><g transform="translate(-212 -2279)"><circle cx="26.5" cy="26.5" r="26.5" transform="translate(212 2279)" fill="#fff"/><g transform="translate(220 2290)"><g transform="translate(0 0)" clip-path="url(#a)"><path d="M24.927,3.178c-.161-.022-.319-.038-.48-.049a5.405,5.405,0,0,0-5.541,1.043l-.057.049L18.07,5a5.155,5.155,0,0,0-5.925-.333L9.221,1.747,0,10.969l3.5,3.5a8.938,8.938,0,0,0,1.666,4.8,12.722,12.722,0,0,0,1.53,1.856c.723.731,1.451,1.452,2.176,2.177a2.114,2.114,0,0,0,.372,2.95,2.412,2.412,0,0,0,2.788.654.024.024,0,0,1,.027.01c.828,1.24,1.591,1.84,2.414,1.906.341.332.68.668,1.023,1a3.2,3.2,0,0,0,3.8.5,2.176,2.176,0,0,0,.893-.984c2.076,1.741,3.46,1.773,5.091-.671a.027.027,0,0,1,.028-.01,2.409,2.409,0,0,0,2.787-.656,2.132,2.132,0,0,0,.229-3.145c-.007-.009-.257-.334-.245-.334a1.94,1.94,0,0,0,1.539-.808,2.369,2.369,0,0,0-.108-3.2c.376-.379.756-.753,1.133-1.133a12.645,12.645,0,0,0,1.53-1.857,8.935,8.935,0,0,0,1.666-4.8l3.5-3.5L28.106,0ZM7.252,19.778a8.5,8.5,0,0,1-2.2-3.761,6.417,6.417,0,0,1-.163-.963,6.712,6.712,0,0,1-.025-.826L1.315,10.684,8.936,3.062l2.443,2.443.162.162-.01.024,1.181.1.076-.191c.466-.317,2.4-1.389,4.979.577l3.412,3.43a.907.907,0,0,1,.264.649.9.9,0,0,1-.267.644l-.225.225a.918.918,0,0,1-1.294,0L16.165,7.612l-.849.593.944,1.107.409.413q-.6.6-1.2,1.2a.7.7,0,0,0-.185.319l-.059.062Q11.7,14.833,8.181,18.355a3.615,3.615,0,0,0-.928,1.423M18.57,29.288a1.169,1.169,0,0,1-.952.382,2.027,2.027,0,0,1-1.214-.735c-.165-.163-.328-.326-.494-.49a7.429,7.429,0,0,0,1.235-.865,2.184,2.184,0,0,0,.893.985,3.041,3.041,0,0,0,.745.3.89.89,0,0,1-.213.42m5.031-.473c-.524.616-1.123.669-1.888-.04-.119-.11-.235-.222-.354-.333a3.219,3.219,0,0,0,.476-.377c.438-.422.87-.851,1.307-1.275l.14.139c.719.722.815,1.305.319,1.887m3.647-1.907a1.25,1.25,0,0,1-2.062.017q-.541-.539-1.079-1.079c.593-.579,1.189-1.156,1.78-1.738.333.334.669.667,1,1,.644.648.754,1.257.358,1.8m1.477-4.272a1.221,1.221,0,0,1-1.7.639,1.857,1.857,0,0,1-.179-.113c.571-.565,1.139-1.138,1.707-1.708a1.112,1.112,0,0,1,.176,1.182m7.287-13.7-3.545,3.545a6.932,6.932,0,0,1-.024.824,6.569,6.569,0,0,1-.164.963,8.491,8.491,0,0,1-2.219,3.776c-1.448,1.523-2.964,2.981-4.451,4.467-1.56,1.561-3.113,3.127-4.685,4.675a2.032,2.032,0,0,1-1.215.734,1.166,1.166,0,0,1-.952-.382,1.4,1.4,0,0,1-.225-1.17,2.693,2.693,0,0,1,.75-1.057c.71-.727,1.435-1.442,2.153-2.163.35-.35.7-.7,1.043-1.059.367-.379,1.44-1.178.838-1.743-.553-.516-1.344.48-1.675.814-.35.353-.7.7-1.056,1.051-1.651,1.611-3.28,3.246-4.971,4.815-.765.71-1.364.656-1.887.04-.5-.583-.4-1.167.319-1.887q2.8-2.812,5.614-5.617a1.341,1.341,0,0,0,.538-.836c.036-.3-.073-.56-.378-.606a1.091,1.091,0,0,0-1.07.45q-3.3,3.3-6.609,6.606a1.25,1.25,0,0,1-2.062-.017c-.4-.54-.286-1.151.358-1.8Q13.788,20,17.154,16.646c.367-.363.654-.772.206-1.192-.429-.4-.8-.045-1.126.282q-2.583,2.593-5.176,5.176a3.542,3.542,0,0,1-.753.616,1.222,1.222,0,0,1-1.7-.641c-.275-.69.079-1.127.516-1.563q4.3-4.279,8.563-8.583l1.174,1.177a2.046,2.046,0,0,0,2.893.007l.225-.224a2.037,2.037,0,0,0,.069-2.818l-2.6-2.626-.512-.513.695-.7A5.046,5.046,0,0,1,22.449,3.9a5.1,5.1,0,0,1,2.729.626l.769-.77L28.39,1.314Z" transform="translate(0 0)" fill="#272525"/></g></g></g></svg>