<svg xmlns="http://www.w3.org/2000/svg" xmlns:xlink="http://www.w3.org/1999/xlink" width="634" height="421.404" viewBox="0 0 634 421.404"><defs><clipPath id="a"><rect width="634" height="421.404" fill="none"/></clipPath><clipPath id="b"><rect width="633.999" height="421.404" fill="none"/></clipPath><clipPath id="c"><rect width="86.239" height="98.616" fill="none"/></clipPath><clipPath id="d"><rect width="74.255" height="238.996" fill="none"/></clipPath><clipPath id="e"><rect width="86.239" height="7.187" fill="none"/></clipPath><clipPath id="f"><rect width="55.494" height="245.977" fill="none"/></clipPath><clipPath id="g"><rect width="67.864" height="107.004" fill="none"/></clipPath></defs><g clip-path="url(#a)"><g clip-path="url(#b)"><path d="M599.12,319.886a85.476,85.476,0,0,1,10.465,4.358c6.2,3.089,15.323,7.444,19.749,17.466q2.856,6.638-.646,12.052c-16.381,18.749-33.094,36.432-49.7,54.442H59.015c-1.434-3.6-53.21-99.282,1.913-162.288a39.519,39.519,0,0,1-4.811-3.461,27.928,27.928,0,0,1-7.65-10.086,16.279,16.279,0,0,1-.6-1.569c-2.5-7.726,2.768-12.76,6.027-15.038,17.977-12.56,35.545-27.017,53.034-41.8-4.434-5.475-9.587-25.477-8.194-34.49.95-6.136,5.2-14.362,12.1-23.975,2.413-3.365,5.149-6.9,8.185-10.58,6.142-7.444,13.492-15.464,21.821-23.808q5.2-5.215,10.894-10.58a652.911,652.911,0,0,1,61.354-50.765q8.106-7.309,17.1-8.325l10.891-.294c11.491,1.108,23.166,6.022,33.614,15.25A63.93,63.93,0,0,1,284.878,37.6q6.621-6.7,13.172-13.642c6.613-7.018,13.683-8.837,21.2-9.628,11.482-1.205,23.143.508,34.452,4.288.514.17,1.031.347,1.549.526,8.649-4.761,17.747-5.519,26.7-5.061a86.183,86.183,0,0,1,34.208,8.855c5.366,2.671,12.908,6.292,17.709,13.7,2.475.949,4.931,2.016,7.361,3.227,6.21,3.089,15.329,7.444,19.752,17.466a14.709,14.709,0,0,1,1.1,3.644,95.456,95.456,0,0,1,14.964,5.975c1.769.879,3.771,1.86,5.834,3.047q2.2-1.622,4.411-3.2c8.291-5.9,18.524-5.763,27.184-5.322a86.193,86.193,0,0,1,34.211,8.857c.126.065.259.129.388.194,4.567,2.266,10.565,5.243,15.137,10.58a26.956,26.956,0,0,1,4.227,6.692q2.856,6.634-.65,12.052c-.743.738-1.493,1.476-2.236,2.213,1.549.658,3.091,1.361,4.626,2.124.47.236.961.476,1.46.726,4.558,2.28,10.227,5.325,14.512,10.58a26.955,26.955,0,0,1,3.777,6.16q2.861,6.634-.643,12.052-7.243,8.782-14.624,17.125a84.944,84.944,0,0,1,9.845,4.138c6.2,3.089,15.326,7.444,19.748,17.469,3.609,8.173-1.375,13.545-4.852,16.184,8.144,2.859,16.793,6.842,23.931,14.779,2.477,2.753,8.826,12.4,3.558,18.326q-4.05,4.558-8.117,9.069-5.282,5.863-10.58,11.656-4.069,4.452-8.149,8.875a84.516,84.516,0,0,1,13.113,5.208c6.206,3.086,15.329,7.444,19.748,17.466q2.862,6.635-.643,12.052Q615.5,302.29,599.12,319.886" transform="translate(-17.895 -5.604)" fill="#701a27"/><path d="M613.167,504.346c-.243-.121-.486-.235-.729-.354H53.052c-41.9,62.615,4.607,148.614,5.965,152.02H578.986c16.61-18.009,33.324-35.692,49.7-54.441q3.5-5.414.646-12.052c-4.426-10.021-13.545-14.377-19.748-17.466a85.4,85.4,0,0,0-10.466-4.358q16.381-17.58,33.15-33.832,3.5-5.417.644-12.052c-4.42-10.021-13.542-14.38-19.749-17.465" transform="translate(-17.897 -253.413)" fill="#d8903a"/><path d="M637.735,29.539c0,16.313-32.8,29.538-73.27,29.538S491.2,45.852,491.2,29.539,524,0,564.465,0s73.27,13.225,73.27,29.538" transform="translate(-246.978 -0.001)" fill="#3f0d17"/><path d="M549.209,60.379H537.493V59l1.115-.106a3.1,3.1,0,0,0,1.008-.212,1.557,1.557,0,0,0,.779-.7,2.507,2.507,0,0,0,.214-1.106V48.218h-9.258v8.462a2.542,2.542,0,0,0,.222,1.08,1.558,1.558,0,0,0,.757.743,5,5,0,0,0,.992.3,8.452,8.452,0,0,0,1.146.194v1.381H522.752V59q.383-.018,1.123-.115a4.479,4.479,0,0,0,1.077-.239,1.372,1.372,0,0,0,.764-.7,2.634,2.634,0,0,0,.214-1.106V39.066a2.544,2.544,0,0,0-.191-1.045,1.679,1.679,0,0,0-.787-.743,5.619,5.619,0,0,0-1.16-.416,8.389,8.389,0,0,0-1.039-.221V35.26h11.717v1.381a8.44,8.44,0,0,0-1.131.177,8.836,8.836,0,0,0-1.008.265,1.272,1.272,0,0,0-.787.735,2.987,2.987,0,0,0-.191,1.071v7.506h9.258V39.066a2.459,2.459,0,0,0-.2-1.045,1.723,1.723,0,0,0-.794-.743,5.387,5.387,0,0,0-1.061-.4,8.2,8.2,0,0,0-1.062-.239V35.26h11.716v1.381a9.8,9.8,0,0,0-1.1.15,7.134,7.134,0,0,0-1.1.292,1.3,1.3,0,0,0-.779.726,2.869,2.869,0,0,0-.2,1.08v17.79a2.627,2.627,0,0,0,.2,1.08,1.617,1.617,0,0,0,.779.743,4.693,4.693,0,0,0,1.062.319,9.812,9.812,0,0,0,1.138.177Z" transform="translate(-262.846 -17.729)" fill="#230910"/><path d="M600.263,37.359a12.544,12.544,0,0,1,2.544,4.107,15.02,15.02,0,0,1,.939,5.488,17.008,17.008,0,0,1-.794,5.222,12.509,12.509,0,0,1-2.292,4.266,11.3,11.3,0,0,1-3.7,2.894,11.429,11.429,0,0,1-5.057,1.036,11.243,11.243,0,0,1-4.476-.9,10.919,10.919,0,0,1-3.712-2.62,12.38,12.38,0,0,1-2.52-4.09,14.752,14.752,0,0,1-.931-5.363,16.28,16.28,0,0,1,.908-5.585,13.119,13.119,0,0,1,2.5-4.293,10.766,10.766,0,0,1,3.735-2.7,11.711,11.711,0,0,1,9.166-.026,11.065,11.065,0,0,1,3.689,2.567m-3.926,17.98a14.956,14.956,0,0,0,.993-3.652,31.322,31.322,0,0,0,.305-4.61,33.2,33.2,0,0,0-.266-4.246,15.291,15.291,0,0,0-.909-3.679,6.92,6.92,0,0,0-1.742-2.589,3.9,3.9,0,0,0-2.7-.975q-2.765,0-4.2,3.041a20.633,20.633,0,0,0-1.435,8.59,30.145,30.145,0,0,0,.313,4.45,14.774,14.774,0,0,0,.985,3.652,6.5,6.5,0,0,0,1.742,2.455,3.918,3.918,0,0,0,2.6.878,3.974,3.974,0,0,0,2.6-.886,6.068,6.068,0,0,0,1.726-2.429" transform="translate(-291.765 -17.031)" fill="#230910"/><path d="M651.075,42.448h-1.192A16.473,16.473,0,0,0,648.367,39q-1.043-1.841-1.928-1.983-.487-.07-1.2-.124T644,36.836h-.716v19.7a2.96,2.96,0,0,0,.2,1.124,1.491,1.491,0,0,0,.78.77,6.068,6.068,0,0,0,1.091.328q.741.169,1.261.239V60.38H634.531V59l1.245-.151a3.912,3.912,0,0,0,1.092-.239,1.5,1.5,0,0,0,.795-.761,2.957,2.957,0,0,0,.2-1.133V36.836h-.716q-.518,0-1.235.053t-1.2.124q-.884.142-1.928,1.983a16.528,16.528,0,0,0-1.516,3.452h-1.191V35.261h21Z" transform="translate(-316.807 -17.73)" fill="#230910"/><path d="M694.051,41.668h-1.16a9.778,9.778,0,0,0-1.528-2.893,4.164,4.164,0,0,0-2.154-1.728,5.847,5.847,0,0,0-1.275-.15q-.818-.027-1.352-.027h-3.147v9.683h2.23a4.772,4.772,0,0,0,1.527-.23,2.85,2.85,0,0,0,1.252-.885,4.665,4.665,0,0,0,.711-1.433,9.619,9.619,0,0,0,.465-1.788h1.161V52.7h-1.161a10.108,10.108,0,0,0-.465-1.867,5.471,5.471,0,0,0-.711-1.549,2.588,2.588,0,0,0-1.191-.877,4.838,4.838,0,0,0-1.589-.239h-2.23v7.241a8.779,8.779,0,0,0,.145,1.8,1.84,1.84,0,0,0,.542,1.018,2.03,2.03,0,0,0,1.047.442,12.01,12.01,0,0,0,1.81.106q.535,0,1.283-.018a10.035,10.035,0,0,0,1.313-.106,7.148,7.148,0,0,0,1.2-.265,1.706,1.706,0,0,0,.832-.514,14.54,14.54,0,0,0,1.65-2.647,20.456,20.456,0,0,0,1.207-2.663h1.115l-.412,7.824H674.835V59c.284-.023.672-.071,1.161-.142a4.151,4.151,0,0,0,1.039-.247,1.553,1.553,0,0,0,.779-.717,2.67,2.67,0,0,0,.2-1.107V39.065a2.824,2.824,0,0,0-.168-1.053,1.625,1.625,0,0,0-.809-.752,5.018,5.018,0,0,0-1.115-.39q-.719-.177-1.085-.23V35.26h19.216Z" transform="translate(-339.315 -17.729)" fill="#230910"/><path d="M740.606,52.325l-.428,8.054H720.213V59q.535-.053,1.253-.168a4.349,4.349,0,0,0,.947-.221,1.473,1.473,0,0,0,.764-.691,2.6,2.6,0,0,0,.214-1.133V39.066a2.837,2.837,0,0,0-.168-1.053,1.626,1.626,0,0,0-.81-.753,4.722,4.722,0,0,0-1.138-.4q-.665-.15-1.062-.221V35.26h11.9v1.381c-.327.035-.71.085-1.153.15a5.992,5.992,0,0,0-1.152.274,1.31,1.31,0,0,0-.8.717,2.906,2.906,0,0,0-.2,1.107V55.405a9.72,9.72,0,0,0,.136,1.841,1.64,1.64,0,0,0,.535.991,2.125,2.125,0,0,0,1.107.434,15.252,15.252,0,0,0,1.964.1,16.412,16.412,0,0,0,2.375-.169,2.663,2.663,0,0,0,1.657-.734,12.462,12.462,0,0,0,1.6-2.54,27.974,27.974,0,0,0,1.307-3Z" transform="translate(-362.131 -17.729)" fill="#230910"/><path d="M542.139,60.381H530.518V59.011l1.106-.105a3.076,3.076,0,0,0,1-.211A1.547,1.547,0,0,0,533.4,58a2.482,2.482,0,0,0,.212-1.1V48.318h-9.181v8.393a2.514,2.514,0,0,0,.22,1.071,1.544,1.544,0,0,0,.75.738,5.033,5.033,0,0,0,.984.3,8.473,8.473,0,0,0,1.137.193v1.369H515.9V59.011q.378-.017,1.114-.114a4.469,4.469,0,0,0,1.068-.237,1.364,1.364,0,0,0,.757-.694,2.617,2.617,0,0,0,.212-1.1V39.241a2.522,2.522,0,0,0-.189-1.036,1.665,1.665,0,0,0-.78-.737,5.612,5.612,0,0,0-1.151-.413,8.483,8.483,0,0,0-1.03-.219V35.466h11.62v1.369a8.448,8.448,0,0,0-1.121.176,8.755,8.755,0,0,0-1,.264,1.261,1.261,0,0,0-.781.729,2.973,2.973,0,0,0-.189,1.062V46.51h9.181V39.241a2.43,2.43,0,0,0-.2-1.036,1.708,1.708,0,0,0-.788-.737,5.29,5.29,0,0,0-1.053-.4,8.213,8.213,0,0,0-1.053-.237V35.466h11.621v1.369a9.751,9.751,0,0,0-1.091.149,7.064,7.064,0,0,0-1.091.29,1.289,1.289,0,0,0-.773.72,2.845,2.845,0,0,0-.2,1.071V56.711a2.6,2.6,0,0,0,.2,1.071,1.6,1.6,0,0,0,.773.738,4.675,4.675,0,0,0,1.053.316,9.837,9.837,0,0,0,1.129.176Z" transform="translate(-259.399 -17.833)" fill="#ffad40"/><path d="M592.775,37.547a12.45,12.45,0,0,1,2.523,4.073,14.9,14.9,0,0,1,.931,5.443,16.88,16.88,0,0,1-.787,5.18,12.424,12.424,0,0,1-2.273,4.231,11.211,11.211,0,0,1-3.667,2.871,11.334,11.334,0,0,1-5.015,1.027,11.142,11.142,0,0,1-4.438-.9,10.815,10.815,0,0,1-3.682-2.6,12.265,12.265,0,0,1-2.5-4.056,14.63,14.63,0,0,1-.924-5.32,16.147,16.147,0,0,1,.9-5.54,13,13,0,0,1,2.477-4.257,10.673,10.673,0,0,1,3.7-2.678,11.62,11.62,0,0,1,9.09-.026,10.968,10.968,0,0,1,3.659,2.546m-3.894,17.834a14.822,14.822,0,0,0,.985-3.623,31.026,31.026,0,0,0,.3-4.572,32.739,32.739,0,0,0-.266-4.212,15.1,15.1,0,0,0-.9-3.649,6.865,6.865,0,0,0-1.727-2.567,3.865,3.865,0,0,0-2.682-.967q-2.742,0-4.167,3.015A20.454,20.454,0,0,0,579,47.328a29.935,29.935,0,0,0,.31,4.414,14.618,14.618,0,0,0,.977,3.623,6.446,6.446,0,0,0,1.727,2.435,3.891,3.891,0,0,0,2.575.871,3.937,3.937,0,0,0,2.575-.88,6.015,6.015,0,0,0,1.712-2.409" transform="translate(-288.082 -17.14)" fill="#ffad40"/><path d="M643.172,42.595H641.99a16.38,16.38,0,0,0-1.5-3.424q-1.037-1.826-1.912-1.966-.484-.069-1.195-.123t-1.224-.053h-.71V56.571a2.925,2.925,0,0,0,.2,1.115,1.482,1.482,0,0,0,.773.764,6.017,6.017,0,0,0,1.083.325q.735.167,1.25.237v1.369H626.764V59.011L628,58.862a3.873,3.873,0,0,0,1.083-.237,1.488,1.488,0,0,0,.788-.755,2.929,2.929,0,0,0,.2-1.124V37.029h-.711q-.514,0-1.224.053t-1.194.123q-.877.141-1.912,1.966a16.355,16.355,0,0,0-1.5,3.424H622.34V35.466h20.832Z" transform="translate(-312.92 -17.833)" fill="#ffad40"/><path d="M685.8,41.822h-1.152a9.687,9.687,0,0,0-1.515-2.869A4.126,4.126,0,0,0,681,37.239a5.823,5.823,0,0,0-1.265-.149q-.81-.027-1.341-.026H675.27v9.6h2.211A4.754,4.754,0,0,0,679,46.44a2.841,2.841,0,0,0,1.243-.878,4.653,4.653,0,0,0,.7-1.422,9.611,9.611,0,0,0,.462-1.773h1.151V52.761h-1.151a10.03,10.03,0,0,0-.462-1.853,5.458,5.458,0,0,0-.7-1.536,2.577,2.577,0,0,0-1.182-.869,4.783,4.783,0,0,0-1.577-.238H675.27v7.181a8.723,8.723,0,0,0,.144,1.782,1.828,1.828,0,0,0,.538,1.009,2.018,2.018,0,0,0,1.038.439,11.971,11.971,0,0,0,1.8.105q.53,0,1.273-.017a9.979,9.979,0,0,0,1.3-.105,7.155,7.155,0,0,0,1.189-.264,1.689,1.689,0,0,0,.826-.509,14.5,14.5,0,0,0,1.636-2.625,20.281,20.281,0,0,0,1.2-2.643h1.106l-.409,7.761H666.74V59.011q.424-.035,1.151-.14a4.08,4.08,0,0,0,1.03-.246,1.543,1.543,0,0,0,.773-.711,2.646,2.646,0,0,0,.2-1.1V39.241a2.818,2.818,0,0,0-.167-1.045,1.615,1.615,0,0,0-.8-.746,4.924,4.924,0,0,0-1.106-.386q-.713-.175-1.075-.228v-1.37H685.8Z" transform="translate(-335.244 -17.833)" fill="#ffad40"/><path d="M731.975,52.392l-.424,7.989h-19.8v-1.37c.353-.035.768-.09,1.242-.167a4.343,4.343,0,0,0,.939-.219,1.462,1.462,0,0,0,.758-.685,2.579,2.579,0,0,0,.212-1.124V39.241a2.818,2.818,0,0,0-.167-1.045,1.616,1.616,0,0,0-.8-.747,4.7,4.7,0,0,0-1.129-.395q-.659-.148-1.053-.219v-1.37h11.8v1.37q-.486.052-1.144.149a5.851,5.851,0,0,0-1.144.272,1.3,1.3,0,0,0-.789.71,2.889,2.889,0,0,0-.2,1.1V55.447a9.535,9.535,0,0,0,.136,1.827,1.622,1.622,0,0,0,.53.982,2.1,2.1,0,0,0,1.1.43,15.02,15.02,0,0,0,1.947.1,16.276,16.276,0,0,0,2.356-.167,2.637,2.637,0,0,0,1.645-.729,12.354,12.354,0,0,0,1.584-2.52,27.781,27.781,0,0,0,1.295-2.976Z" transform="translate(-357.875 -17.833)" fill="#ffad40"/><path d="M634,790.879c0,.529-.374,1.055-1.1,1.574-13.523,9.623-149.788,17.182-315.9,17.182S14.627,802.076,1.1,792.453c-.73-.519-1.1-1.045-1.1-1.574,0-10.359,141.928-18.756,317-18.756s317,8.4,317,18.756" transform="translate(0 -388.232)" fill="#282f39"/><path d="M1058.811,674.707c-4.659-1.583-5.807-3.428-11.862-3.108-2.876.152-25.792,1.523-18.965,7.208h45.567a17.659,17.659,0,0,1-1.19-3.007c-4.063-.576-9.745.2-13.551-1.093" transform="translate(-516.247 -337.669)" fill="#2d0705"/><path d="M1121.011,685.4h-.1c.123.307.178.37.1,0" transform="translate(-563.607 -344.626)" fill="#2d0705"/><path d="M1071.786,681.75l-6.38,54.828H1027.12l-.7-5.6-6.172-49.231Z" transform="translate(-512.992 -342.792)" fill="#a3a898"/><path d="M1054.765,681.75c-.594,27.446-12.262,49.344-26.567,49.344a14.131,14.131,0,0,1-1.78-.113l-6.171-49.231Z" transform="translate(-512.992 -342.792)" fill="#c0c4b3"/><path d="M1063.742,560.586c.941-7.677-9.74-7.5-14.043-4.647-.3-5.919-9.652-7.3-11.777-1.725-.651-11.331-19.77-6.274-16.466,4.976-6.247-3.349-13.367,1.071-9.533,8.627-6.759-4.132-9.089,5.564-5.259,6.425-3.438.263-6.578,4.665-2.438,7.165-3.909-1.516-5.45,15.207,3.968,11.833-8.062,4.654,5.449,17.489,11.17,11.476-.685,7.463,12.516,12.77,15.3,4.609,5.441,8.262,18.623-.168,17.2-8.637,2.7,6.577,18.024-2.406,9.963-10.418,12.481,1.892,12.481-15.109,3.829-16.976,8.558,2.859,7.306-16.7-1.915-12.707m-56.129,13.693c.1-.011.2-.026.3-.047l.705.353a3.782,3.782,0,0,0-1-.306" transform="translate(-503.4 -275.455)" fill="#6c8c34"/><path d="M1035.692,569.648c.52-4.249-5.391-4.148-7.772-2.572-.168-3.276-5.341-4.038-6.518-.955-.36-6.271-10.941-3.472-9.113,2.753-3.457-1.853-7.4.594-5.275,4.774-3.741-2.286-5.031,3.08-2.911,3.556-1.9.146-3.641,2.582-1.349,3.966-2.164-.839-3.016,8.416,2.2,6.548-4.461,2.576,3.016,9.678,6.182,6.352-.379,4.13,6.926,7.067,8.465,2.551,3.011,4.572,10.307-.094,9.521-4.78,1.493,3.639,9.975-1.332,5.515-5.766,6.906,1.047,6.906-8.361,2.119-9.395,4.736,1.583,4.043-9.243-1.059-7.032m-31.063,7.578c.053-.006.108-.014.165-.026l.39.195a2.085,2.085,0,0,0-.554-.169" transform="translate(-503.346 -282.876)" fill="#84a53c"/><path d="M1066.719,649.556c.789,3.817,5.861,2.008,7.456-.046,1.1,2.778,5.787,1.927,5.9-1.076,2.138,5.307,10.453-.193,7.061-5.033,3.524.592,6.211-2.668,3.162-5.658,3.894.883,3.443-4.124,1.475-3.916,1.6-.681,2.39-3.289.008-3.815,2.112.093.149-8.141-3.8-5.011,3.1-3.524-5.423-7.473-7.186-3.679-.877-3.674-8.037-4.079-8.049.267-3.931-3.068-8.866,3.085-6.823,6.9-2.349-2.705-8.219,4.058-3.078,6.583-6.266,1.11-3.523,9.229.911,8.725-4.549.015-.8,9.155,2.964,5.76m24.6-15.595c-.045.021-.09.044-.135.071l-.393-.055a1.91,1.91,0,0,0,.528-.016" transform="translate(-532.565 -310.962)" fill="#84a53c"/><path d="M1090.054,584.217c.674,3.26,5,1.714,6.366-.04.939,2.372,4.939,1.645,5.04-.919,1.825,4.53,8.924-.165,6.028-4.3,3.009.5,5.3-2.279,2.7-4.831,3.324.754,2.939-3.521,1.258-3.344,1.366-.581,2.041-2.808.007-3.257,1.8.08.128-6.951-3.248-4.278,2.647-3.007-4.629-6.38-6.135-3.14-.748-3.137-6.861-3.483-6.871.227-3.356-2.619-7.57,2.634-5.824,5.891-2.006-2.31-7.018,3.464-2.629,5.62-5.349.947-3.007,7.879.778,7.449-3.883.013-.679,7.815,2.531,4.917m21-13.314c-.038.018-.077.037-.115.06l-.336-.046a1.621,1.621,0,0,0,.451-.013" transform="translate(-544.853 -280.397)" fill="#84a53c"/><path d="M189.825,674.707c-4.659-1.583-5.806-3.428-11.861-3.108-2.876.152-25.793,1.523-18.964,7.208h45.566a17.661,17.661,0,0,1-1.19-3.007c-4.064-.576-9.745.2-13.551-1.093" transform="translate(-79.311 -337.669)" fill="#2d0705"/><path d="M252.025,685.4h-.1c.123.307.178.37.1,0" transform="translate(-126.671 -344.626)" fill="#2d0705"/><path d="M202.8,681.75l-6.379,54.828H158.135l-.7-5.6-6.171-49.231Z" transform="translate(-76.056 -342.792)" fill="#a3a898"/><path d="M185.78,681.75c-.594,27.446-12.262,49.344-26.568,49.344a14.152,14.152,0,0,1-1.78-.113l-6.171-49.231Z" transform="translate(-76.056 -342.792)" fill="#c0c4b3"/><path d="M194.757,560.586c.94-7.677-9.74-7.5-14.043-4.647-.3-5.919-9.651-7.3-11.777-1.725-.651-11.331-19.77-6.274-16.466,4.976-6.247-3.349-13.367,1.071-9.534,8.627-6.759-4.132-9.088,5.564-5.259,6.425-3.438.263-6.578,4.665-2.437,7.165-3.909-1.516-5.45,15.207,3.967,11.833-8.062,4.654,5.449,17.489,11.17,11.476-.685,7.463,12.516,12.77,15.3,4.609,5.44,8.262,18.623-.168,17.2-8.637,2.7,6.577,18.024-2.406,9.963-10.418,12.481,1.892,12.481-15.109,3.828-16.976,8.558,2.859,7.306-16.7-1.914-12.707m-56.129,13.693c.1-.011.2-.026.3-.047l.7.353a3.77,3.77,0,0,0-1-.306" transform="translate(-66.464 -275.455)" fill="#6c8c34"/><path d="M166.705,569.648c.521-4.249-5.391-4.148-7.772-2.572-.168-3.276-5.342-4.038-6.518-.955-.36-6.271-10.941-3.472-9.112,2.753-3.457-1.853-7.4.594-5.276,4.774-3.741-2.286-5.03,3.08-2.91,3.556-1.9.146-3.641,2.582-1.349,3.966-2.164-.839-3.017,8.416,2.195,6.548-4.461,2.576,3.016,9.678,6.183,6.352-.379,4.13,6.927,7.067,8.465,2.551,3.011,4.572,10.307-.094,9.522-4.78,1.493,3.639,9.975-1.332,5.514-5.766,6.907,1.047,6.907-8.361,2.12-9.395,4.736,1.583,4.043-9.243-1.06-7.032m-31.063,7.578c.054-.006.108-.014.165-.026l.39.195a2.083,2.083,0,0,0-.555-.169" transform="translate(-66.409 -282.876)" fill="#84a53c"/><path d="M197.733,649.556c.79,3.817,5.861,2.008,7.456-.046,1.1,2.778,5.787,1.927,5.9-1.076,2.139,5.307,10.453-.193,7.061-5.033,3.523.592,6.21-2.668,3.161-5.658,3.894.883,3.443-4.124,1.475-3.916,1.6-.681,2.389-3.289.008-3.815,2.112.093.15-8.141-3.8-5.011,3.1-3.524-5.423-7.473-7.186-3.679-.877-3.674-8.038-4.079-8.049.267-3.931-3.068-8.866,3.085-6.822,6.9-2.349-2.705-8.22,4.058-3.078,6.583-6.266,1.11-3.523,9.229.91,8.725-4.548.015-.795,9.155,2.964,5.76m24.6-15.595c-.044.021-.089.044-.134.071l-.394-.055a1.908,1.908,0,0,0,.528-.016" transform="translate(-95.629 -310.962)" fill="#84a53c"/><path d="M221.068,584.217c.674,3.26,5,1.714,6.366-.04.939,2.372,4.94,1.645,5.04-.919,1.826,4.53,8.925-.165,6.028-4.3,3.008.5,5.3-2.279,2.7-4.831,3.325.754,2.94-3.521,1.259-3.344,1.366-.581,2.04-2.808.007-3.257,1.8.08.128-6.951-3.247-4.278,2.646-3.007-4.63-6.38-6.135-3.14-.748-3.137-6.862-3.483-6.872.227-3.356-2.619-7.57,2.634-5.825,5.891-2.006-2.31-7.018,3.464-2.628,5.62-5.349.947-3.007,7.879.778,7.449-3.883.013-.679,7.815,2.53,4.917m21-13.314c-.038.018-.077.037-.115.06l-.336-.046a1.623,1.623,0,0,0,.451-.013" transform="translate(-107.917 -280.397)" fill="#84a53c"/><rect width="114.974" height="328.956" transform="translate(253.512 62.022)" fill="#231715"/><rect width="121.362" height="328.956" transform="translate(368.486 62.022)" fill="#6b382b"/><rect width="6.388" height="328.956" transform="translate(368.486 62.022)" fill="#231715"/><rect width="86.231" height="269.339" transform="translate(387.649 80.12)" fill="#ace5e8"/><g transform="translate(387.205 251.207)" style="mix-blend-mode:multiply;isolation:isolate"><g clip-path="url(#c)"><path d="M865.027,603.87H778.788V505.254Z" transform="translate(-778.788 -505.254)" fill="#93cece"/></g></g><g transform="translate(387.649 110.463)" style="mix-blend-mode:multiply;isolation:isolate"><g clip-path="url(#d)"><rect width="74.255" height="238.996" fill="#ace5e8"/></g></g><rect width="90.364" height="5.29" transform="translate(387.792 247.706)" fill="#231715"/><rect width="5.29" height="101.384" transform="translate(390.436 248.147)" fill="#231715"/><rect width="5.29" height="100.943" transform="translate(407.187 248.588)" fill="#231715"/><rect width="5.29" height="100.502" transform="translate(423.937 249.029)" fill="#231715"/><rect width="5.289" height="100.062" transform="translate(440.688 249.47)" fill="#231715"/><rect width="5.29" height="99.621" transform="translate(457.438 249.91)" fill="#231715"/><rect width="94.332" height="5.29" transform="translate(387.792 247.706)" fill="#7c4e3e"/><rect width="5.289" height="101.384" transform="translate(394.404 248.147)" fill="#7c4e3e"/><rect width="5.29" height="100.943" transform="translate(411.154 248.588)" fill="#7c4e3e"/><rect width="5.289" height="100.502" transform="translate(427.905 249.029)" fill="#7c4e3e"/><rect width="5.29" height="100.062" transform="translate(444.655 249.47)" fill="#7c4e3e"/><rect width="5.289" height="99.621" transform="translate(461.406 249.91)" fill="#7c4e3e"/><g transform="translate(387.47 80.192)" style="mix-blend-mode:multiply;isolation:isolate"><g clip-path="url(#e)"><rect width="86.239" height="7.187" transform="translate(0 0)" fill="#93cece"/></g></g><path d="M762.706,451.242c.508,0,1.016,0,1.523-.008.742-.017,1.482-.064,2.221-.121.3-.024.6-.055.9-.086-.517.052.479-.069.575-.083a39.2,39.2,0,0,0,4.55-.946c.68-.181,1.351-.389,2.017-.606.063-.02.554-.194.647-.224q.341-.131.678-.266a36.77,36.77,0,0,0,4-1.9c.591-.323,1.164-.668,1.731-1.021.044-.027.327-.215.473-.311.215-.148.429-.3.641-.45a33.18,33.18,0,0,0,3.265-2.7c.474-.442.924-.9,1.365-1.366l.129-.135.1-.118c.211-.241.412-.486.615-.732a29.51,29.51,0,0,0,2.361-3.354c.329-.538.628-1.088.918-1.642l.049-.095c.022-.049.053-.116.1-.208.133-.284.255-.571.377-.858a26.633,26.633,0,0,0,1.28-3.855c.132-.518.238-1.041.335-1.565.01-.075.09-.56.1-.62.041-.316.07-.633.1-.95a26.191,26.191,0,0,0,.026-4.176c-.037-.536-.1-1.069-.173-1.6,0,.023-.1-.557-.11-.624-.059-.309-.13-.615-.2-.922a26.5,26.5,0,0,0-1.235-3.871c-.116-.29-.242-.576-.367-.863-.021-.047-.184-.39-.244-.52-.248-.486-.513-.965-.788-1.438a29.382,29.382,0,0,0-2.322-3.377c-.2-.249-.4-.493-.606-.737-.031-.038-.25-.282-.361-.408-.39-.42-.8-.829-1.21-1.232a33.253,33.253,0,0,0-3.234-2.731c-.263-.2-.534-.387-.8-.578l-.157-.111-.138-.09c-.558-.362-1.136-.7-1.718-1.035a36.548,36.548,0,0,0-3.972-1.934c-.161-.068-1.116-.429-1.187-.463-.591-.205-1.191-.394-1.794-.572a38.929,38.929,0,0,0-4.158-.964c-.356-.064-.713-.118-1.07-.173-.063-.01-.521-.068-.675-.091-.635-.066-1.272-.115-1.91-.153-.878-.052-1.759-.065-2.639-.055v-6.805a46.821,46.821,0,0,1,16.179,2.832c11.435,4.2,19.974,13.683,22.246,24.152,2.4,11.072-1.824,22.588-11.265,30.4-7.335,6.07-17.178,9.245-27.16,9.192Z" transform="translate(-383.497 -196.848)" fill="#f9b25d"/><path d="M329.019,437.409c-.508,0-1.016,0-1.523-.008-.742-.016-1.482-.064-2.221-.121-.3-.024-.6-.054-.9-.086.517.052-.479-.069-.575-.083a39.086,39.086,0,0,1-4.55-.946c-.68-.181-1.351-.389-2.017-.606-.062-.02-.554-.194-.646-.224q-.341-.131-.679-.265a36.707,36.707,0,0,1-4-1.9c-.591-.323-1.164-.668-1.731-1.021l-.473-.311c-.215-.149-.429-.3-.64-.451a33.233,33.233,0,0,1-3.266-2.7c-.474-.442-.924-.9-1.365-1.366l-.129-.135-.1-.118c-.211-.241-.412-.487-.615-.732a29.465,29.465,0,0,1-2.361-3.355c-.328-.537-.628-1.087-.917-1.641-.019-.036-.034-.067-.05-.095-.022-.049-.053-.116-.1-.208-.133-.284-.255-.571-.377-.859a26.621,26.621,0,0,1-1.28-3.855c-.132-.518-.238-1.041-.335-1.564-.009-.075-.089-.56-.1-.621-.041-.316-.07-.632-.1-.95a26.2,26.2,0,0,1-.026-4.176c.037-.535.1-1.069.173-1.6,0,.024.1-.557.111-.624.059-.308.129-.615.2-.921a26.441,26.441,0,0,1,1.235-3.872c.116-.29.241-.576.367-.863.021-.047.184-.39.244-.521.248-.486.513-.965.788-1.438a29.308,29.308,0,0,1,2.323-3.377c.2-.249.4-.493.605-.737.031-.037.25-.282.361-.408.39-.42.795-.829,1.21-1.232a33.076,33.076,0,0,1,3.235-2.731c.263-.2.533-.388.8-.578l.157-.111.139-.089c.558-.362,1.136-.7,1.718-1.035a36.549,36.549,0,0,1,3.971-1.934c.161-.068,1.116-.429,1.187-.463.592-.205,1.191-.394,1.794-.572a39.054,39.054,0,0,1,4.158-.964c.356-.064.714-.118,1.071-.172.063-.01.521-.069.675-.091.635-.066,1.272-.115,1.91-.153.878-.052,1.759-.066,2.639-.055v-6.805a46.839,46.839,0,0,0-16.179,2.832c-11.434,4.2-19.973,13.684-22.246,24.152-2.4,11.073,1.824,22.588,11.265,30.4,7.335,6.07,17.178,9.246,27.16,9.193Z" transform="translate(-145.782 -189.893)" fill="#f9b25d"/><rect width="80.11" height="310.325" transform="translate(288.376 79.587)" fill="#140d0c"/><path d="M437.024,159.7V421.048H369.158l-.405-270.733Z" transform="translate(-185.413 -75.58)" fill="#9dd6d6"/><rect width="7.186" height="339.368" transform="translate(168.916 51.577)" fill="#231715"/><rect width="75.725" height="5.29" transform="translate(184.719 243.592)" fill="#231715"/><rect width="4.432" height="101.384" transform="translate(186.936 244.033)" fill="#231715"/><rect width="4.432" height="100.943" transform="translate(200.973 244.474)" fill="#231715"/><rect width="4.433" height="100.502" transform="translate(215.009 244.915)" fill="#231715"/><rect width="4.433" height="100.062" transform="translate(229.046 245.355)" fill="#231715"/><rect width="4.433" height="99.621" transform="translate(243.083 245.796)" fill="#231715"/><rect width="79.049" height="5.29" transform="translate(179.136 243.592)" fill="#7c4e3e"/><rect width="4.433" height="101.384" transform="translate(184.676 244.033)" fill="#7c4e3e"/><rect width="4.433" height="100.943" transform="translate(198.713 244.474)" fill="#7c4e3e"/><rect width="4.433" height="100.502" transform="translate(212.75 244.915)" fill="#7c4e3e"/><rect width="4.433" height="100.062" transform="translate(226.787 245.355)" fill="#7c4e3e"/><rect width="4.433" height="99.621" transform="translate(240.824 245.796)" fill="#7c4e3e"/><g transform="translate(196.116 99.49)" style="mix-blend-mode:multiply;isolation:isolate"><g clip-path="url(#f)"><path d="M394.45,200.105l.367,245.977h55.126V207.73Z" transform="translate(-394.45 -200.105)" fill="#93cece"/></g></g><g transform="translate(183.745 238.463)" style="mix-blend-mode:multiply;isolation:isolate"><g clip-path="url(#g)"><path d="M369.568,572.49v14.136h67.864v-107Z" transform="translate(-369.568 -479.623)" fill="#93cece"/></g></g><path d="M353.853,103.738l-.344,339.4h84.632V114.182ZM429.36,397.629H361.493L361.088,126.9l68.271,9.384Z" transform="translate(-177.748 -52.161)" fill="#6b382b"/><path d="M508.836,301.879c-6.32,7.93-13.01,16.021-21.328,21.892-1.543,1.089-6.965,3.808-7.526,5.8-.643,2.274,2.743,7.045,4.664,7.782,6.987,2.684,18.092-3.485,24.025-7.354,6.391-4.168,10.4-6.964,15.2-12.761l-1.455-30.291c-5.689,4.329-9.094,9.3-13.582,14.936" transform="translate(-241.3 -144.278)" fill="#4c543c"/><path d="M697.411,369.293c-5.433,3.458-11.16,2.033-13.474-1.9a40.3,40.3,0,0,1-3.128-6.734c-4.279-11.758-4.416-26.23-5.3-37.729l6.865-36.994c4.168-1.386,7.411,8.96,8.172,11.683,1.906,6.806,2.619,13.707,3.263,20.771a215.574,215.574,0,0,0,5.538,31.182c.64,2.71,1.308,5.459,1.987,8.28.882,3.661.15,8.848-3.923,11.441" transform="translate(-339.654 -143.708)" fill="#4c543c"/><path d="M701.047,396.419c-5.433,3.458-11.16,2.033-13.474-1.9a40.3,40.3,0,0,1-3.128-6.734c.393-2.84-.81-6.841-1.04-9.346-.392-4.285-.663-8.467-.663-12.82,0-6.868.458-19.251,1.743-25.861,1.961,9.98-.776,25.959,3.886,35.406,2.272,4.6,6.129,6.684,11.058,4.174a13.942,13.942,0,0,0,3.554-2.641c.64,2.71,1.308,5.459,1.987,8.28.882,3.661.15,8.848-3.923,11.441" transform="translate(-343.29 -170.835)" fill="#2b3020"/><path d="M704.326,423.038c-3.051,3.7-4.018,7.328,1.253,10.842,4.413,2.942,9.643-1.907,10.3-8.009Z" transform="translate(-352.888 -212.708)" fill="#e5804e"/><path d="M710.161,428.234l-5.393-1.471a14.962,14.962,0,0,1,2.079,3.4c.385,1,.356,3.334,1.357,3.926,1.464.866,2.418-1.313,2.619-2.46.176-1-.71-3.271-.662-3.391" transform="translate(-354.365 -214.581)" fill="#ffb278"/><path d="M583.582,810.667c.493-3.084-.423-7.113-.44-10.46h-4.577c-2.6,3.078-5.918,6.492-8.094,10.46Z" transform="translate(-286.839 -402.353)" fill="#fff"/><path d="M678.258,810.667c.494-3.084-.423-7.113-.44-10.46h-4.577c-2.6,3.078-5.919,6.492-8.094,10.46Z" transform="translate(-334.444 -402.353)" fill="#fff"/><path d="M633.026,604.32l-7.172,0c-.395-2.125-2.438-12.115-5.263-25.817-7.825-38-21.644-104.569-22.925-111.217-.012-.069-.026-.134-.035-.193.715,5.691-2.043,26.909-2.24,33.182-.287,8.95-2.5,34.023-4.707,57.83-1.794,19.355-3.582,37.879-4.325,46.218l-7.25,0c-1.308-39.553-1.722-136.165-3.655-164.088l47.6-32.862c3.534.9,2.651,23.16,2.857,27.38.615,12.687,6.845,136.165,7.109,169.573" transform="translate(-289.345 -204.829)" fill="#342344"/><path d="M610.953,515.763c-.012-.069-.026-.134-.035-.193.715,5.691-2.044,26.909-2.24,33.182-.288,8.95-2.5,34.023-4.707,57.83V604.7l4.707-90.976-6.8-9.934,7.842,5.23,9.934-2.615-4.184,7.319,18.44,113.253-.033.007c-7.825-38-21.643-104.569-22.924-111.217" transform="translate(-302.632 -253.309)" fill="#251a33"/><path d="M565.849,313.916c2.288,17.652,3.319,51.182,11.111,58.032,4.956,4.354,45.441,5.711,42.826-6.711-1.387-6.587-3.923-12.422-1.792-29.209.027-.213.074-.444.121-.689.1-.55.23-1.148.382-1.78,2.384-10.168,10.658-39.146,13.489-47.312.572-1.65-10.483-10.895-25.444-12.4l-27.951.084c-3.452,1.885-7.117,1.646-9.9,5.049-5.757,7.044-5.513,14.351-2.844,34.94" transform="translate(-283.603 -137.691)" fill="#e23023"/><path d="M596.554,247.082c2.747,2.049,3.573,7.115,6.579,8.021,3.3.993,16.9-5.979,19.552-8.724,3.149-3.259-2.817-5.281-2.978-10.255-.034-.949-2.468-20.668-1.429-21.711L598.354,231.2a38.731,38.731,0,0,1,.278,9.355,17.113,17.113,0,0,1-2.078,6.522" transform="translate(-299.954 -107.809)" fill="#ffb278"/><path d="M600.452,240.56c1.208.645-.788,1.938.571,2.41,20.2,7.035,18.036-27.513,19.075-28.557l-19.924,16.792a38.754,38.754,0,0,1,.278,9.355" transform="translate(-301.774 -107.809)" fill="#e5804e"/><path d="M627.759,266.347c1.65.861,5.282,4.1,6.87,5.181-2.472,5.171-12.84,13.68-12.84,13.68s-11-3.252-12.327-3.675l-.311-.323c5.4-1.948,15.758-9.346,18.608-14.863" transform="translate(-306.288 -133.922)" fill="#aa0f0f"/><path d="M597.159,266.21s-.366,6.709.173,8.228a61.643,61.643,0,0,0,3.68,6.708,16.089,16.089,0,0,1-5.714,1.166c-.989-3.154-2.961-11.757-2.961-11.757s4.216-4.444,4.822-4.345" transform="translate(-297.834 -133.853)" fill="#aa0f0f"/><path d="M660.253,312.34c-4.233,21.506.332,50.564,2.833,72.024-7.642,2.086-21.362,4.332-29.42,3.923-.382-9.065-.49-18.741-.372-28.518.477-40.063,4.743-81.8,9.45-90.011.026-.046.049-.088.075-.131,0,0,17.587,6.878,20.267,8.826,4.874,3.546,5,6.914,4.249,12.422-1.262,9.238-5.265,12.215-7.082,21.466" transform="translate(-318.405 -135.572)" fill="#4c543c"/><path d="M645.186,287.673a35.17,35.17,0,0,1,6.544,3.988c-3.259,3.985-16.5,54.561-18.018,65.7-.094.706-.235,1.7-.372,2.537.477-40.063,4.743-81.8,9.45-90.012,4.651,1.177,9.015,4.514,11.556,6.734-3.311,3.249-6.917,6.982-9.16,11.049" transform="translate(-318.451 -135.704)" fill="#2b3020"/><path d="M575.8,272.258l-3.6,1.961c-6.613,2.909-14.407,4.394-14.383,13.4.025,9.364,1.355,18.3,2.216,27.467,1.347,14.367,2.982,29.074,3.667,43.459a103.727,103.727,0,0,1-1.96,24.525c-.4,2.117,12.472,4.245,15.037,3.922-.1-1.941.985-113.959-.98-114.737" transform="translate(-280.479 -136.894)" fill="#4c543c"/><path d="M595.151,436.828c.019,1.139.041,2.273.073,3.4,0-1.163-.028-2.287-.073-3.4" transform="translate(-299.249 -219.642)" fill="#b74e67"/><path d="M585.365,268.97c-2.942,1.961-10.442,4.974-12.422,9.153,2.14,1.883,5.119,3.929,6.9,6.212-1.112,2.115-4.858,1.97-5.589,4.248-.721,2.246,10.382,73.209,10.46,75.184-.171-10.627.654-94.8.654-94.8" transform="translate(-288.082 -135.241)" fill="#2b3020"/><path d="M577.058,184.937l3.851,1.323c.256.441-1.234,5.06-1.517,6.215-.573,2.354-1.3,5.176-.971,7.588-1.1-1.536-3.7-5.045-4.106-6.909-.6-2.791.818-7.626,2.743-8.217" transform="translate(-288.702 -92.988)" fill="#441d10"/><path d="M581.36,224.863c1.177-4.2-4.743-11.576-6.766-6.255-.751,1.974.24,6.654,2.082,8.466,1.959,1.924,3.906.521,5.031.707Z" transform="translate(-288.785 -108.984)" fill="#ffb278"/><path d="M578.377,221.507l.074.132c.425-.406,1.6.078,2.07.808.584.911.272,1.275-.069,1.894-.362.659-1.555,3.463.579,2.643,2.993-1.149-.967-8.517-2.653-5.477" transform="translate(-290.815 -111.009)" fill="#e5804e"/><path d="M583.586,207.764c-1.818-7.038-2.962-11.422-2.31-20.558.431-6.051,3.005-14.815,6.895-17.305,8.081-5.173,13.874-.963,20.678,5.7,0,0,3.09,25.963.95,29.994-7.021,13.226-13.607,13.513-19.42,12.967-5.747-.538-5.8-6.938-6.792-10.8" transform="translate(-292.179 -84.266)" fill="#ffb278"/><path d="M618.341,221.9q1.531.3,3,.728c-.1.985-.875,1.257-1.364,1.663a3.263,3.263,0,0,1-2.4.741,4.337,4.337,0,0,1-3.775-2.057,16.828,16.828,0,0,1,4.537-1.075" transform="translate(-308.628 -111.576)" fill="#e5804e"/><path d="M613.858,218.977q.951-.16,1.9-.268l.03,0a34.766,34.766,0,0,1,3.743-.213l.042,0q.9,0,1.79.045c.407-1-.149-2.58-1.223-3.65a4.029,4.029,0,0,0-1.268-.887,2.547,2.547,0,0,0-1.2-.239,3.364,3.364,0,0,0-2.725,1.522,5.086,5.086,0,0,0-.266.443s0,0,0,.005a9.979,9.979,0,0,0-.83,3.247" transform="translate(-308.655 -107.479)" fill="#fff"/><path d="M615.525,215.726s0,0,0,.005a20.035,20.035,0,0,0,1.072,2.979l.03,0a34.889,34.889,0,0,1,3.743-.212l.042,0a15.64,15.64,0,0,0,.567-3.6,4.02,4.02,0,0,0-1.268-.887,2.535,2.535,0,0,0-1.2-.239,3.364,3.364,0,0,0-2.725,1.521,5.158,5.158,0,0,0-.266.443" transform="translate(-309.493 -107.479)" fill="#30241b"/><path d="M622.738,218.311c-.164.612-.127,1.142.064,1.186s.477-.413.653-1.02.167-1.139-.036-1.187-.516.41-.68,1.021" transform="translate(-313.068 -109.254)" fill="#fff"/><path d="M587.088,222.592c.757.2,1.5.433,2.211.694a4.61,4.61,0,0,1-1.185,1.667,2.188,2.188,0,0,1-1.832.751,2.976,2.976,0,0,1-2.691-2.125,11.675,11.675,0,0,1,3.5-.986" transform="translate(-293.437 -111.922)" fill="#e5804e"/><path d="M583.625,219.6q.719-.128,1.441-.216l.023,0a27.033,27.033,0,0,1,2.837-.188l.032,0q.682-.007,1.359.019a4.193,4.193,0,0,0-.523-3.584,2.758,2.758,0,0,0-.873-.884,1.536,1.536,0,0,0-.9-.254,2.821,2.821,0,0,0-2.276,1.449c-.085.141-.17.285-.245.436,0,0,0,0,0,.005a11.22,11.22,0,0,0-.875,3.221" transform="translate(-293.453 -107.847)" fill="#fff"/><path d="M585.385,216.374v0a20.206,20.206,0,0,0,.565,3.005l.023,0a27.176,27.176,0,0,1,2.838-.187l.031,0a26.059,26.059,0,0,0,.836-3.565,2.756,2.756,0,0,0-.873-.883,1.541,1.541,0,0,0-.9-.254,2.824,2.824,0,0,0-2.276,1.45c-.085.14-.17.285-.245.436" transform="translate(-294.338 -107.846)" fill="#30241b"/><path d="M590.65,219.028c-.189.606-.211,1.134-.069,1.177s.4-.408.6-1.01.256-1.128.1-1.177-.448.4-.636,1.009" transform="translate(-296.905 -109.62)" fill="#fff"/><path d="M620.421,205.275l.331,3.025c-.279.562-7.513,2.279-9.089,2.754-.692-1.032-2.3-3.557-1.174-4.253.906-1.187,7.7-2.165,9.933-1.526" transform="translate(-306.765 -103.113)" fill="#5b2a15"/><path d="M582.022,204.708l-.427,3.011c.2.566,6.107,2.453,7.388,2.963a6.518,6.518,0,0,0,1.191-4.217c-1.308-2.111-7.245-2.674-8.152-1.758" transform="translate(-292.433 -102.716)" fill="#5b2a15"/><path d="M600.484,220.656c-.051.357-.093.715-.132,1.074s-.1.708-.131,1.059-.114.7-.156,1.051l-.192,1.038-.235,1.022c-.1.334-.187.673-.285,1.007l-.342.987-.388.972-.119.3.212.17c.209.167.42.333.633.491a2.058,2.058,0,0,0,.343.209l.354.191a4.554,4.554,0,0,0,.74.29,7.611,7.611,0,0,0,.759.186,3.215,3.215,0,0,0,.38.058l.38.047c.25.028.5.047.751.065s.495.045.745.06c.246.034.5.058.748.085-.233-.094-.467-.19-.708-.277s-.483-.146-.725-.215c-.486-.132-.971-.246-1.433-.392a7.141,7.141,0,0,1-.674-.245l-.319-.152a1.559,1.559,0,0,1-.311-.161l-.295-.187a1.526,1.526,0,0,1-.286-.2c-.176-.156-.356-.3-.536-.451l.091.467.43-1.012c.123-.346.23-.7.346-1.046.091-.355.186-.709.265-1.067l.177-1.083q.051-.545.09-1.09c.014-.363.014-.726.014-1.088s-.035-.725-.057-1.085c-.039-.357-.081-.714-.133-1.071" transform="translate(-300.934 -110.948)" fill="#e5804e"/><path d="M604.684,255.58s-.015-.066-.049-.17a1.18,1.18,0,0,0-.263-.4,1.675,1.675,0,0,0-.547-.385,2.306,2.306,0,0,0-.725-.194,2.375,2.375,0,0,0-1.34.25,1.581,1.581,0,0,0-.376.261,1.689,1.689,0,0,0-.123.13s.068.014.174.027.255.031.424.047c.337.04.754.07,1.159.11l.3.031c.1.012.2.023.288.037s.184.029.272.041.173.026.248.049a3.41,3.41,0,0,1,.391.105,1.679,1.679,0,0,0,.169.057" transform="translate(-302.321 -127.926)" fill="#e5804e"/><path d="M569.77,166.07a28.5,28.5,0,0,0,3.589,6.579c2.523,2.906,16.452-1.118,19.79-2,.552,2.422.867,3.666,3.482,4.129,2.723.48,7.089,1.106,6.542,3.963-1.67,8.742.443,10.8,1.374,14.013l4.473-4.44c1.5-3.311,3.708-15.652,2.729-17.068s-7.052-4.074-8.229-4.912a12.942,12.942,0,0,1-1.426-2.473c-1.863-3.443-5.56-9-13.279-7.19-2.258.529-19.16,4.81-19.622,6.229a5.839,5.839,0,0,0,.578,3.169" transform="translate(-286.161 -78.599)" fill="#5b2a15"/><path d="M570.426,173.7a28.5,28.5,0,0,0,3.589,6.579c2.523,2.906,16.452-1.118,19.79-2,.552,2.422.867,3.666,3.482,4.129,2.723.48,7.089,1.106,6.542,3.963-1.67,8.742.443,10.8,1.374,14.013l4.473-4.44c1.5-3.311,3.708-15.652,2.729-17.068s-7.052-4.074-8.229-4.912a12.947,12.947,0,0,1-1.426-2.473,9.1,9.1,0,0,1-4.131,3.382c-5.123,2.159-11.621,2.828-17.158,2.5a24.075,24.075,0,0,1-11.033-3.672" transform="translate(-286.817 -86.228)" fill="#441d10"/><path d="M639.272,221.824c-1.183-4.3,5-11.232,7.052-5.743.76,2.036-.3,6.65-2.225,8.321-2.042,1.777-4.043.218-5.211.32Z" transform="translate(-321.24 -107.628)" fill="#ffb278"/><path d="M646.237,218.8l-.078.127c-.435-.44-1.658-.046-2.148.65-.61.868-.292,1.256.056,1.9.369.689,1.579,3.591-.622,2.6-3.086-1.383,1.071-8.459,2.792-5.283" transform="translate(-322.974 -109.605)" fill="#e5804e"/><path d="M607.413,240.831c-1.164,2.069-2.337,4.429-4.92,5.038a6.637,6.637,0,0,1-4.361-.88,5.839,5.839,0,0,1-2.177-1.935v-.164a4.427,4.427,0,0,0,2.369,1.193,10.938,10.938,0,0,0,9.088-3.253" transform="translate(-299.653 -121.093)" fill="#e5804e"/><path d="M609.615,240.831c-1.164,2.069-2.337,4.429-4.92,5.038a6.637,6.637,0,0,1-4.361-.88,7.864,7.864,0,0,0,.192-.9,10.938,10.938,0,0,0,9.088-3.253" transform="translate(-301.855 -121.093)" fill="#fff"/><path d="M678.145,541.5V435.639c0-6.013,5.869-10.9,13.084-10.9h19.049c7.214,0,13.085,4.892,13.085,10.9V541.5c0,6.013-5.871,10.9-13.085,10.9H691.229c-7.215,0-13.084-4.891-13.084-10.9m13.084-113.862c-5.615,0-10.182,3.589-10.182,8V541.5c0,4.412,4.567,8,10.182,8h19.049c5.614,0,10.181-3.59,10.181-8V435.639c0-4.412-4.567-8-10.181-8Z" transform="translate(-340.979 -213.562)" fill="#110c0c"/><path d="M693.647,425.253a2.909,2.909,0,0,0,2.908,2.909H718.95a2.908,2.908,0,1,0,0-5.817H696.555a2.908,2.908,0,0,0-2.908,2.908" transform="translate(-348.774 -212.36)" fill="#1f587f"/><path d="M805.638,803.689a6.62,6.62,0,1,0,6.62-6.621,6.62,6.62,0,0,0-6.62,6.621" transform="translate(-405.084 -400.775)" fill="#160e0e"/><path d="M703.962,803.689a6.62,6.62,0,1,0,6.621-6.621,6.62,6.62,0,0,0-6.621,6.621" transform="translate(-353.96 -400.775)" fill="#160e0e"/><path d="M678.145,580.328v96.314a10.821,10.821,0,0,0,10.82,10.82h60.6a10.821,10.821,0,0,0,10.82-10.82V580.328a10.821,10.821,0,0,0-10.82-10.82h-60.6a10.821,10.821,0,0,0-10.82,10.82" transform="translate(-340.979 -286.355)" fill="#1f587f"/><path d="M719.3,580.328v96.314c0,5.975,5.673,10.82,12.672,10.82h36.438c7,0,12.672-4.845,12.672-10.82V580.328c0-5.976-5.674-10.82-12.672-10.82H731.971c-7,0-12.672,4.845-12.672,10.82" transform="translate(-361.672 -286.355)" fill="#2883b5"/><path d="M724.539,737.684c0,4.2,2.695,7.6,6.018,7.6h51.756c3.323,0,6.017-3.4,6.017-7.6V692.1c0-4.2-2.695-7.6-6.017-7.6H730.557c-3.324,0-6.018,3.4-6.018,7.6Z" transform="translate(-364.307 -344.174)" fill="#31a7db"/><path d="M730.2,611.155a4.772,4.772,0,0,0,4.8,4.739h41.331a4.772,4.772,0,0,0,4.806-4.739V582.72a4.773,4.773,0,0,0-4.806-4.74H735.006a4.773,4.773,0,0,0-4.8,4.74Z" transform="translate(-367.153 -290.615)" fill="#31a7db"/><path d="M709.713,418.24c-2.648-.959-6.919,1.97-6.919,1.97,1.27.517,2.951.466,4.193.932.076,1.345-.395,5.609,1.432,5.474,2.072-.154,1.985-3.463,2.131-4.853.083-.785.053-3.2-.838-3.523" transform="translate(-353.373 -210.199)" fill="#ffb278"/><path d="M717.753,419.218c-3.071-2.171-7.462,1.215-7.462,1.215,1.27.517,2.951.466,4.193.932.076,1.345-.395,5.609,1.432,5.474,2.073-.154,1.986-3.463,2.131-4.853.083-.785.478-2.222-.295-2.768" transform="translate(-357.142 -210.422)" fill="#ffb278"/><path d="M725.249,419.107c-2.984-1.689-7.462,1.215-7.462,1.215,1.27.516,2.951.466,4.193.932.077,1.345-.395,5.609,1.433,5.474,2.073-.154,1.985-3.462,2.131-4.852.083-.785.529-2.3-.295-2.768" transform="translate(-360.911 -210.466)" fill="#ffb278"/><path d="M730.793,418.423c-2.648-.959-6.447,1.4-6.447,1.4,1.27.516,2.95.466,4.194.932.076,1.345-.4,5.609,1.432,5.474,2.072-.154,1.985-3.463,2.131-4.853.083-.785-.42-2.626-1.311-2.948" transform="translate(-364.209 -210.272)" fill="#ffb278"/><path d="M561.316,409.366h-2.942v-4.9a218.141,218.141,0,0,0-2.018-32.47c-.15-1.007-.293-2.187-.443-3.437-1-8.261-2.5-20.748-10.321-21.8l.394-2.916C556.061,345.2,557.8,359.6,558.833,368.2c.148,1.228.288,2.388.432,3.353a220.919,220.919,0,0,1,2.05,32.906Z" transform="translate(-274.33 -172.886)" fill="#661e0e"/><path d="M499.688,587.623c-.532,1.638-1.507,9.417-2.759,20.175-2.929,25.167-7.412,68.584-11.416,85.729h-3.861c-.409-19.956-.106-67.185-.6-95.2-.122-6.714-.275-12.441-.481-16.586Z" transform="translate(-241.636 -292.505)" fill="#ffb278"/><path d="M548,695.058h-3.6c-3.7-16.724-10.565-55.708-16.37-83.294-2.363-11.226-4.478-20.888-6-26.981l19.9,2.049c-.228,1.89.48,11.254,1.5,23.85,2.125,26.262,5.41,68.521,4.563,84.376" transform="translate(-262.483 -294.036)" fill="#ffb278"/><path d="M480.569,581.738l19.119,5.884c-.532,1.639-1.506,9.418-2.758,20.176a49.089,49.089,0,0,1-15.88-9.472c-.121-6.715-.275-12.442-.481-16.587" transform="translate(-241.636 -292.504)" fill="#e5804e"/><path d="M543.434,610.683a36.857,36.857,0,0,1-15.4,1.082c-2.363-11.226-4.478-20.888-6-26.981l19.9,2.05c-.228,1.889.481,11.254,1.5,23.85" transform="translate(-262.483 -294.036)" fill="#e5804e"/><path d="M482.583,813.936c1.209-.989-.751-4.76-.939-7.355h-3.861c-1.641,2.241-4.031,4.857-4.911,7.355Z" transform="translate(-237.765 -405.558)" fill="#fff"/><path d="M565.98,813.936c1.209-.989-1.12-4.76-1.308-7.355h-3.6c-1.641,2.241-5,5.021-5.884,7.518Z" transform="translate(-279.157 -405.558)" fill="#fff"/><path d="M520.255,542.139c-.539,5.284-22.555,14.5-58.271,5.288.274-2.363.686-6.4,1.179-11.33,1.887-18.859,4.956-50.82,6.1-52.485l33.094-6.039,8.09-1.478c6.286,4.113,6.593,16.746,7.462,23.6,1.193,9.39,2.815,37.853,2.344,42.446" transform="translate(-232.291 -239.385)" fill="#e84b74"/><path d="M520.255,542.139c-.539,5.284-22.555,14.5-58.271,5.288.274-2.363.686-6.4,1.179-11.33.854.469,1.732.885,2.609,1.267,9.6,4.207,20.113,3.033,27.518-5.48,7.757-8.921,9.96-22.728,10.509-34.56.307-6.677-.853-13.231-1.441-19.75l8.09-1.478c6.286,4.113,6.593,16.746,7.462,23.6,1.193,9.39,2.815,37.853,2.344,42.446" transform="translate(-232.291 -239.385)" fill="#c63260"/><path d="M429.808,807.249a5,5,0,1,0,5-5,5,5,0,0,0-5,5" transform="translate(-216.112 -403.38)" fill="#160e0e"/><path d="M350.944,807.249a5,5,0,1,0,5-5,5,5,0,0,0-5,5" transform="translate(-176.459 -403.38)" fill="#160e0e"/><path d="M332.63,704.4a9.021,9.021,0,0,0,9.022,9.021H381.8a9.022,9.022,0,0,0,9.021-9.021V629.738c0-4.982-4.455-7.03-9.021-9.021-12.309-5.367-30.238-4.69-40.151,0-4.5,2.131-9.022,4.04-9.022,9.021Z" transform="translate(-167.25 -310.205)" fill="#ce4274"/><path d="M354.4,704.4a9.022,9.022,0,0,0,9.021,9.021h40.151A9.021,9.021,0,0,0,412.6,704.4L409.184,640.6c0-4.983-1.041-17.9-5.608-19.888-12.308-5.367-30.237-4.69-40.151,0-4.5,2.131-9.021,4.04-9.021,9.021Z" transform="translate(-178.198 -310.205)" fill="#a83d5e"/><path d="M381.178,600.781V505.633a9.943,9.943,0,0,1,10.059-9.8h14.642a9.944,9.944,0,0,1,10.059,9.8v95.148a9.944,9.944,0,0,1-10.059,9.8H391.237a9.943,9.943,0,0,1-10.059-9.8m10.059-102.339c-4.316,0-7.827,3.225-7.827,7.191v95.148c0,3.966,3.511,7.191,7.827,7.191h14.642c4.317,0,7.827-3.225,7.827-7.191V505.633c0-3.966-3.511-7.191-7.827-7.191Z" transform="translate(-191.661 -249.31)" fill="#110c0c"/><path d="M393.1,496.3a2.447,2.447,0,0,0,2.236,2.614h17.215a2.646,2.646,0,0,0,0-5.228H395.331A2.448,2.448,0,0,0,393.1,496.3" transform="translate(-197.653 -248.229)" fill="#ce4274"/><path d="M494.778,264.451,460.364,268.3c-.314,1.978-1.8,33.758-.687,41.848.171,4.18-1.81,8.339.044,9.543,3.257,2.113,4.715-7.158,8.469-7.213a47.381,47.381,0,0,0,14.729-2.606c4.418-1.515,19.773,11.211,23.435,6.33-.858-2.7-10.178-47.338-11.576-51.748" transform="translate(-230.752 -132.969)" fill="#441500"/><path d="M460.728,349.839c-5.586.252-7.118,12.507-7.774,16.753-1.377,8.919-1.877,17.955-3.587,26.8-1.142,5.909-1.672,4.166-2.041,10.052-.69,10.977,7.471,7.771,10.46,3.6,2.816-3.933,3.555-6.406,4.985-11.113a46.387,46.387,0,0,0,1.481-6.131c.155-.956.361-4.248.726-3.35Z" transform="translate(-224.9 -175.903)" fill="#fff"/><path d="M513.781,412.971a68.46,68.46,0,0,1-16.014,5.829,70.769,70.769,0,0,1-21.408,1.481c-3.1-.258-6.188-.781-9.241-1.34-.64-.118-1.278-.255-1.916-.4-.294-.072-.588-.147-.879-.232l.036.007c-.036-.026-.624-.21-.673-.229l-.079-.029c4.785-10.718,7.283-24.232.2-34.886a28.068,28.068,0,0,0-2.428-3.023c-3.527-3.945-4.74-6.4-3.38-11.431.876-3.233,3.6-22.741,5.884-24.844,2.883-1.847,6.237-4.845,9.123-6.367l12.14-2.785c3.71,2.449,8.113,3.334,12.533,3.933,4.227.578,6.652-.115,9.9,2.478.026.153.487.987.5,1.154a23.074,23.074,0,0,1-.056,8.081c-1.572,10.487-7.43,23.987-7.08,32.509.3,7.221,3.962,13.262,7.594,19.424a85.545,85.545,0,0,1,5.246,10.676" transform="translate(-230.011 -168.3)" fill="#fff"/><path d="M502,333.278c-1.639,3.348-18.8,2.824-21.549,2.126a24.23,24.23,0,0,0,.755-3.86v0a19.318,19.318,0,0,0,.116-2.947,11.045,11.045,0,0,0-1.766-5.983c-.018-.028-.038-.056-.055-.083-.379-.523-.98-1.321-1.71-2.221-.283-.35-.59-.715-.9-1.085l17.05-1.51c.161.564.322,1.143.5,1.724.214.691.436,1.378.706,2.016a7.11,7.11,0,0,0,1.52,2.449c1.539,1.473,6.814,6.36,5.339,9.375" transform="translate(-239.782 -159.75)" fill="#ffb278"/><path d="M492.966,318.05c-.008.076-.014.149-.023.215-.779,5.953-6.472,11.428-10.731,13.821a1.319,1.319,0,0,1-.093-.372v0a19.324,19.324,0,0,0,.116-2.947,11.047,11.047,0,0,0-1.767-5.983c-.018-.028-.038-.056-.055-.082-.379-.524-.98-1.321-1.71-2.221l1-1.254Z" transform="translate(-240.698 -159.919)" fill="#e5804e"/><path d="M479.266,241.163l-2.8,7.138-.267.679a10.75,10.75,0,0,0-2.256.922c-3.22,1.719-6.537,5.026-8.7,7.433a42.578,42.578,0,0,0-3.1,4.19c-1.936,2.825-3.69,5.389-4.339,4-4.834-10.334-6.147-19.774-.5-24.054,2.832-2.145,1.2-7.852,10.529-6.45.611.092,6.043.883,9.081,3.272,1.612,1.269.543,2.741,2.348,2.87" transform="translate(-228.074 -118.061)" fill="#6d2400"/><path d="M486.741,261.872a23.492,23.492,0,0,1-4.9-3.34c-.328-.268-.645-.561-.959-.868-1.345-1.318-2.582-2.9-3.942-4.171a16.759,16.759,0,0,0-8.741,1.529c-2.833,1.435-4.338,5.541-5.1,10.827a103.872,103.872,0,0,0-.705,15.4c.053,4.389,5.461,9.1,8.578,12.457,3.214,3.461,12.106-4.187,14.829-7.221s3.849-5.672,3.935-9.289c0-.356,0-.722-.008-1.1a39.5,39.5,0,0,0-2.983-14.227" transform="translate(-232.487 -127.425)" fill="#ffb278"/><path d="M495.991,289.249a.645.645,0,0,0,.185.817c-.7-.119-1.382-.624-1.236-1.1-.091.263-.177.557.08.8a1.742,1.742,0,0,1-1.326-.595c.254.807.956.836,1.626,1.3l2.034.937c-.154-.729-1.6-1.39-1.364-2.154" transform="translate(-248.235 -145.294)" fill="#5b2500"/><path d="M492.38,292.026a6.4,6.4,0,0,0-1.44,2.924c-.116.256-.19.216-.185.494a21.457,21.457,0,0,1,6.968.833c-.025-1.592-2.839-6.66-5.342-4.25" transform="translate(-246.757 -146.513)" fill="#e5804e"/><path d="M497.124,295.641a5.014,5.014,0,0,0-1.3-.343,22.042,22.042,0,0,0-4.206-.186,2.285,2.285,0,0,0-.491.067,2.23,2.23,0,0,1,.132-.582v0c.348-1.082,1.323-3.062,2.268-2.882a4.007,4.007,0,0,1,2.355,1.749,13.034,13.034,0,0,1,1.239,2.181" transform="translate(-246.946 -146.67)" fill="#fff"/><path d="M496.018,293.459a3.989,3.989,0,0,1-.057,1.838,22.085,22.085,0,0,0-4.206-.186,5.994,5.994,0,0,1-.36-.515v0c.348-1.082,1.323-3.063,2.268-2.882a4,4,0,0,1,2.355,1.749" transform="translate(-247.079 -146.669)" fill="#192e42"/><path d="M497.6,295.313c.082.263,0,.488-.191.5s-.408-.186-.489-.449,0-.489.191-.5.407.186.489.449" transform="translate(-249.842 -148.261)" fill="#fff"/><path d="M467.132,287.986a.739.739,0,0,0,.2.817c-.606-.127-1.21-.637-1.107-1.114a.78.78,0,0,0,.1.8,1.518,1.518,0,0,1-1.16-.608c.255.806.855.844,1.448,1.315l1.782.956c-.164-.728-1.433-1.4-1.263-2.162" transform="translate(-233.89 -144.653)" fill="#5b2500"/><path d="M464.9,290.655a6.1,6.1,0,0,0-.416,2.8c-.031.244-.094.214-.027.468a13.69,13.69,0,0,1,5.363.172c-.374-1.459-3.6-5.867-4.92-3.444" transform="translate(-233.518 -145.786)" fill="#e5804e"/><path d="M469.093,293.635a3.556,3.556,0,0,0-1.04-.2,13.5,13.5,0,0,0-3.167.187,1.332,1.332,0,0,0-.35.1,2.449,2.449,0,0,1-.032-.545v0c.017-1.023.3-2.922,1.04-2.837a3.759,3.759,0,0,1,2.141,1.4,15.426,15.426,0,0,1,1.408,1.9" transform="translate(-233.558 -145.983)" fill="#fff"/><path d="M467.686,291.739a4.731,4.731,0,0,1,.368,1.691,13.5,13.5,0,0,0-3.167.187c-.131-.139-.258-.285-.382-.443h0c.017-1.023.3-2.922,1.04-2.837a3.756,3.756,0,0,1,2.141,1.4" transform="translate(-233.558 -145.983)" fill="#192e42"/><path d="M468.677,293.47c.12.234.107.448-.03.478s-.343-.136-.463-.37-.106-.449.03-.479.343.137.463.371" transform="translate(-235.367 -147.372)" fill="#fff"/><path d="M476.5,303a8.55,8.55,0,0,0,.785-4.9s-.994,4.071-1.919,5.163c1.036.426,2.04,1.26,3.072.306A1.669,1.669,0,0,1,476.5,303" transform="translate(-239.021 -149.89)" fill="#e5804e"/><path d="M508.315,254.476a16.524,16.524,0,0,1-.2,4.272c-1.066,5.775-5.08,10.255-8.768,14.619-.7-5.444,1-9.949-2.3-15.16-1.814-2.869-3.979-3.128-6.722-4.638-.173-.093-.34-.2-.51-.311a7.23,7.23,0,0,1-2.3-2.389c-.441-.771-2.289-3.486-2.354-3.531a10.581,10.581,0,0,1,1.064-1.447c.041-.047.083-.1.123-.146a13.478,13.478,0,0,1,2.706-2.379c2.774-1.832,7.025-3.041,12.734-.192a11.588,11.588,0,0,1,5.391,6.271,17.341,17.341,0,0,1,1.142,5.032" transform="translate(-243.941 -121.417)" fill="#6d2400"/><path d="M477.664,251.288a16.759,16.759,0,0,0-8.741,1.529c-2.833,1.435-4.338,5.541-5.1,10.827,0,0-.1-6.91.593-8.654a10.355,10.355,0,0,1,6.015-5.445,5.8,5.8,0,0,1,5.061.148,9.788,9.788,0,0,1,2.176,1.595" transform="translate(-233.211 -125.22)" fill="#441500"/><path d="M508.315,258.793a16.524,16.524,0,0,1-.2,4.272c-1.066,5.775-5.08,10.255-8.768,14.619-3.141-8.621,1-9.949-2.3-15.16-1.814-2.869-3.979-3.128-6.722-4.638-.173-.093-.34-.2-.51-.311a7.23,7.23,0,0,1-2.3-2.389c-.441-.771-2.289-3.486-2.354-3.531a10.581,10.581,0,0,1,1.064-1.447c.041-.047.083-.1.123-.146,2.8,1.411,3.965,4.942,6.813,6.549a11.625,11.625,0,0,0,12.087-.941,12.377,12.377,0,0,0,1.931-1.908,17.341,17.341,0,0,1,1.142,5.032" transform="translate(-243.941 -125.734)" fill="#441500"/><path d="M522.715,295.7c-.357-1.827-2.252-3.154-3.931-2.231-4.924,2.709-2.764,7.219-2.764,7.219.529,1.8,3.367,1.3,4.5.431a6.346,6.346,0,0,0,2.2-5.419" transform="translate(-259.223 -147.408)" fill="#ffb278"/><path d="M519.741,296.753c-.44.94-1.165,3.013-1.165,3.013.016,1.5,2.991.72,2.883-1.048-.049-.791-.981-1.329-.1-2.007a1.26,1.26,0,0,1,1.746.445c-.083-1.695-2.668-1.88-3.359-.4" transform="translate(-260.746 -148.709)" fill="#e5804e"/><path d="M466.864,248.766a8.029,8.029,0,0,1,4.993-2.858l5.256,2.047c-1.217.332-4.544,4.07-5.049,5.519-1.046,3,.189,6.746,1.441,9.48-2.187-2.047-5.8-5.661-4.936-9.043-1.348,1.238-1.054,4.886-.435,6.528-2.269-1.043-3.177-4.5-3.18-6.765a7.632,7.632,0,0,1,1.91-4.909" transform="translate(-233.784 -123.645)" fill="#6d2400"/><path d="M471.858,314.08a29.688,29.688,0,0,1,2.574,3.366c.068.1.137.2.2.293.74.985,1.478,1.1,2.78.945,2.1-.247,2.636-3.447,4.449-4.723a17.531,17.531,0,0,1-7.693.682,14.674,14.674,0,0,1-2.314-.563" transform="translate(-237.256 -157.863)" fill="#e5804e"/><path d="M476.513,314.643a7.167,7.167,0,0,1,.464,3.1c.74.985,1.478,1.1,2.78.946,2.1-.247,2.636-3.447,4.449-4.723a17.538,17.538,0,0,1-7.693.682" transform="translate(-239.596 -157.863)" fill="#fff"/><path d="M495.111,280.994c1.669.47,3.34,2.109,3.379,3.615l-.082-.192a3.683,3.683,0,0,0-3.145-2.132c-1.274-.062-2.664,2.125-3.384.714-.852-1.671,1.93-2.371,3.232-2" transform="translate(-247.242 -141.239)" fill="#441500"/><path d="M465.842,280.289a4.024,4.024,0,0,0-2.923,3.209l.08-.181a2.754,2.754,0,0,1,2.621-1.763c1,.083,1.905,2.412,2.579,1.092.8-1.564-1.314-2.574-2.357-2.357" transform="translate(-232.761 -140.918)" fill="#441500"/><path d="M472.629,337.583c1.9-1.877,6.344-6.208,6.062-5.279-.63,2.073.024,5.052,1.9,6.273,5.2,3.38,12.462-5.852,12.146-11.711,0,0,9.6,5.169,12.172,6.933,1.413.968,3.434,2.8,1.785,4.565-1.336,1.43-4.305.252-5.872-.116,1.792,1.944,2.576,5.022.368,7.058-2.5,2.309-5.23.863-7.626-.681-.068,3-1.361,6.338-4.26,7.952-4.019,2.238-6.91-1.347-7.466-4.977-.811,3.338-4.43,5.494-7.37,3.116-3.076-2.487-1.773-5.333-.111-7.883-3.9,1.963-3.708-3.3-1.732-5.25" transform="translate(-236.951 -164.352)" fill="#d6e1e5"/><path d="M517.749,428.792a68.46,68.46,0,0,1-16.014,5.829,70.769,70.769,0,0,1-21.408,1.481c-3.1-.258-6.187-.781-9.241-1.34-.64-.118-1.278-.255-1.916-.4-.294-.072-.588-.147-.879-.232l.036.007c-.036-.026-.625-.21-.673-.229l-.079-.029c4.785-10.718,7.283-24.232.2-34.886a28.072,28.072,0,0,0-2.428-3.023c10.767,3.194,22.483,2.658,31.665-4.253,6.3-4.743,12.579-15.449,14.981-25.53-1.572,10.487-7.43,23.987-7.08,32.509.3,7.221,3.962,13.262,7.594,19.424a85.536,85.536,0,0,1,5.246,10.676" transform="translate(-233.98 -184.121)" fill="#d6e1e5"/><path d="M525.933,492.469c-.438-5.764-1.223-30.023-10.477-29.685-5.394.2-10.777,25.08-9.89,32.974A18.874,18.874,0,0,0,521,500.549c5.1-.7,5.275-3.554,4.931-8.08" transform="translate(-254.155 -232.692)" fill="#a02a0a"/><path d="M560.113,480.71c-1.034,2.178-21.75,10.976-28.059,12.049.39-5.347.748-11.831-.153-17.52-.8-5.042-1.095-17.115-6.346-19.915,0,0,1.429-.5,3.581-1.233,5.881-2.01,17.169-5.8,19.514-6.111,5.7-.746,8.846,9.649,10.371,18.924,1.14,6.916,1.373,13.213,1.092,13.806" transform="translate(-264.255 -225.23)" fill="#d33d09"/><path d="M562.642,466.9c-.155,3.7-4.912,4.51-8.133,5.605-4.318,1.474-9.614,3.739-13.913,4.775.7-7.626-1.385-18.122-7.838-23.192,5.881-2.01,17.169-5.8,19.514-6.111,5.7-.746,8.846,9.649,10.371,18.923" transform="translate(-267.876 -225.231)" fill="#a02a0a"/><path d="M555.2,497.071q1.668-.489,3.322-1.026c.266-7.53-1.458-14.857-3-21.41l-3.181.751c1.576,6.682,3.348,14.2,2.863,21.685" transform="translate(-277.723 -238.652)" fill="#a02a0a"/><path d="M575.385,489.491q1.685-.627,3.362-1.278c.373-7.723-1.394-15.247-2.977-21.959l-3.182.75c1.633,6.921,3.469,14.736,2.8,22.487" transform="translate(-287.904 -234.438)" fill="#a02a0a"/><path d="M520.977,500.589a2.4,2.4,0,1,1-4.795,0v-2.832a2.4,2.4,0,1,1,4.795,0Z" transform="translate(-259.542 -249.072)" fill="#d33d09"/><path d="M532.675,341.393c-2.615-1.089-4.863-.643-6.906,2.083-10.982,14.643-10.512,65.755-8.782,79.2h2.958c-.789-5.548-1.344-19.94-.587-35.194,1.048-21.1,4.16-36.105,8.764-42.245,1.5-2,3.07-2.987,4.808-3.03Z" transform="translate(-259.473 -171.38)" fill="#661e0e"/><path d="M560.922,389.557c.546-7.4-1.3-18.428-2.517-25.879-.62-3.8-.648-7.74-2.009-11.44a14.869,14.869,0,0,0-2.7-4.884c-1.045-1.141-2.418-1.775-4.393-2.838l-3.277,17.659c.1.531.266,1.034.41,1.592,2.532,9.736,1.615,19.993,4.73,29.715.974,3.043,3.708,8.348,6.608,3.936,1.767-2.687,2.908-4.6,3.15-7.862" transform="translate(-274.548 -173.227)" fill="#fff"/><path d="M529.613,356.3a15.775,15.775,0,0,0-1.662-5.664c-.7-1.565-3.487-2.95-3.106-.129-1.317-.27-3.281,2.092-2.029,3.523-1.432.179-3.779,1.726-2.026,3.109-2.17.778-.418,1.875.141,2.615.963,1.277.634,2.7,1.35,4.131,1.449,2.9,4.85,4.52,5.874,4.422,1.156-.11,1.748-.917,2.67-1.652Z" transform="translate(-261.328 -175.418)" fill="#ffb278"/><path d="M551.489,399.71c-2.326-3.036-8.4-8.794-10.617-12.071-1.552-2.3-2.954-5.58-4.759-7.513-1.1,1.257-6.276,3.13-5.9,4.2.874,2.474,2.9,11.69,3.921,14.1,2.434,5.728,3.448,10.377,6.887,15.16,2.449,3.408,9.944,6.7,11.828.466.861-2.846.3-12.178-1.363-14.343" transform="translate(-266.589 -191.132)" fill="#fff"/><path d="M550.216,383.137c-2.758-3.743-1.49-8.385-2.632-12.19-.3,2.418-1.221,4.711-1.379,7.076-.351.088-.441-.1-.608-.213l-.182.143c.841,1.3,1.048,2.876,2.088,4.2a51.506,51.506,0,0,1,3.11,4.494c1.883,2.978,4.072,6.04,4.426,9.708.926-5.359-1.853-9.19-4.824-13.221" transform="translate(-274.241 -186.516)" fill="#d6e1e5"/><path d="M414.117,488.566c-3.8,1.271-6.887.31-11.005.763-2.536.279-8.281,1.035-4.2,1.853.966.193,3.984,1.455,5.067,1.853,1.571.576-.077,2.971,1.471,3.7,3.105,1.472,8.8-1.755,10.788-3.6Z" transform="translate(-199.863 -245.657)" fill="#ffb278"/><path d="M429.38,472.383c1.216.732,7.767-4.82,9.807-7.845,4.63-6.868,8.926-11.845,11.865-19.245l-12.084-5.6c-3.6,13.281-10.619,21.059-12.639,25.061,0,2.4,1.866,6.915,3.051,7.627" transform="translate(-214.363 -221.083)" fill="#fff"/><path d="M411.742,496.455c-.226,2.007-4.821,3.631-2.905,5.348.78.7,4.343-1.222,6.338-1.753Z" transform="translate(-205.333 -249.623)" fill="#ffb278"/></g></g></svg>