<svg xmlns="http://www.w3.org/2000/svg" width="113" height="113" viewBox="0 0 113 113"><g transform="translate(-0.093)"><rect width="113" height="113" transform="translate(0.093)" fill="none"/><g transform="translate(22.923 8.817)"><g transform="translate(0 0)"><path d="M65.938,94.97c-3.945-1.253-6.126-3.985-6.1-7.588.026-3.514,2.246-6.245,6.1-7.422,0-1.139-.013-2.307,0-3.473.044-3.3-.054-6.616.189-9.9a22.6,22.6,0,0,1,5.327-12.792,2.475,2.475,0,0,0,.593-1.714c-.022-4.443-.012-8.886-.012-13.428-.579,0-1.109.014-1.639,0a4.546,4.546,0,0,1-4.449-4.45c-.042-3.114-.037-6.228,0-9.342a4.542,4.542,0,0,1,4.495-4.5c1.3-.028,2.605-.006,3.908-.006H78.28a9.734,9.734,0,0,1,2.661-4.985,1.837,1.837,0,0,0,.357-.94,9.131,9.131,0,0,1,9.257-7.8q5.957-.019,11.915,0a5.935,5.935,0,0,1,6,4.6,1.245,1.245,0,0,0,.511.71,10.35,10.35,0,0,1,5.657,8.085,1.866,1.866,0,0,0,.128.33c2.39,0,4.8,0,7.206,0a4.6,4.6,0,0,1,4.974,4.99q.006,4.1,0,8.2c0,3.289-1.832,5.109-5.138,5.116h-.916c-.017.3-.044.578-.044.851,0,4.226-.02,8.453.022,12.679A2.647,2.647,0,0,0,121.4,53.7a24.031,24.031,0,0,1,5.528,15.268c.043,10.55.014,21.1.014,31.65v.574h-.954q-27.5,0-55,0c-3.21,0-5.05-1.863-5.054-5.1,0-.378,0-.757,0-1.117m33.687-43.22c-4.543,1.379-7.5.348-10.1-3.488a.948.948,0,0,0-.744-.348c-1.226.146-2.44.385-3.665.546-.7.092-.9.41-.9,1.124.028,8.32.017,16.64.02,24.96,0,.258.034.515.067.975A85.329,85.329,0,0,0,99.8,51.9q.013-.112.027-.223l-.2.071m8.973,6.313c-.691,1.4-1.263,2.618-1.887,3.81a85.4,85.4,0,0,1-13.059,19.11c-.61.651-1.054,1.135-.512,2.076a3.567,3.567,0,0,1,.24,1.673c.022,2.826.01,5.652.01,8.478v4.873H108.6ZM105.58,23.4c-1.324,0-2.557,0-3.79,0a30.7,30.7,0,0,1-11.678-2.32c-1.365-.561-1.772-.451-2.383.9a4.456,4.456,0,0,0-.419,1.734c-.037,3.525-.058,7.051,0,10.575a6.015,6.015,0,0,0,5.754,5.869c2.252.073,4.51.073,6.762,0a5.98,5.98,0,0,0,5.734-5.684c.092-3.647.022-7.3.022-11.071m3.064-.1,2.506.529c1.352-3.218-.148-7.452-3.027-8.727-1.55,2.3-3.194,3.418-5.146,3.464-.148-.43-.308-.874-.454-1.322s-.273-.887-.424-1.383c.532-.187.979-.336,1.42-.5a2.906,2.906,0,0,0-.955-5.689c-4.1-.013-8.191-.026-12.286,0A5.989,5.989,0,0,0,84.3,15.2a2.971,2.971,0,0,1-1.1,2.26,4.319,4.319,0,0,0-.529.548,6.167,6.167,0,0,0-1.183,5.951l2.748-.693a6.986,6.986,0,0,1,3.932-5.8,1.681,1.681,0,0,1,1.28-.015,23.813,23.813,0,0,0,8.14,2.5c3.281.263,6.583.273,9.875.389.368.013.738,0,1.184,0Zm6.1,74.8V65.356c0-4.288,0-8.575-.009-12.863,0-.324-.021-.805-.22-.943-.862-.6-1.794-1.1-2.771-1.673V98.1Zm9.1-21.261h-6V98.11h6ZM114.555,23.4a10.855,10.855,0,0,1-.5,1.54,2.03,2.03,0,0,0,.078,2.008,5.751,5.751,0,0,1-.61,6.189,6.6,6.6,0,0,1-3.617,2.411c4.135.052,8.25.062,12.364.045a1.486,1.486,0,0,0,1.615-1.6q.032-4.472,0-8.945a1.486,1.486,0,0,0-1.58-1.636c-2.568-.024-5.136-.008-7.75-.008M82.763,35.6l.03-.149-.3-.1a6.09,6.09,0,0,1-3.676-8.6,1.361,1.361,0,0,0,.054-.893c-.192-.794-.449-1.573-.7-2.441-2.588,0-5.218-.041-7.846.024A1.358,1.358,0,0,0,69,24.926q-.031,4.575,0,9.151a1.439,1.439,0,0,0,1.512,1.509c4.083.023,8.166.01,12.248.01M75.127,50.11a24.7,24.7,0,0,1,14-5.347,11.061,11.061,0,0,0,.414-1.687,1.06,1.06,0,0,0-.369-.857,10.262,10.262,0,0,1-3.471-3.187.854.854,0,0,0-.577-.364c-3.322-.022-6.643-.016-10-.016Zm28.609-5.343a24.618,24.618,0,0,1,14,5.324V38.65c-3.32,0-6.584-.012-9.847.022a1.435,1.435,0,0,0-.8.487c-.789.772-1.524,1.6-2.328,2.354-.465.436-1.323.686-1.462,1.175-.166.58.251,1.326.434,2.08M79.784,82.892c.014.129,0,.2.029.241a7.309,7.309,0,0,1,.353,8.087,7.53,7.53,0,0,1-7.231,3.873c-1.292-.03-2.585,0-3.944,0,0,.552-.02,1.021,0,1.489a1.488,1.488,0,0,0,1.571,1.551q6.045.03,12.09,0a1.463,1.463,0,0,0,1.572-1.547q.031-6.094,0-12.187A1.4,1.4,0,0,0,82.8,82.906c-1-.061-2.006-.014-3.015-.014M75.026,73.7V54.4C70.5,58.514,67.959,66.833,69.1,73.7Zm48.83,0c.446-8.593-2.118-16.715-6-19.2V73.7ZM81.189,49.862c-.8.447-1.432.854-2.111,1.172a1.61,1.61,0,0,0-.96,1.725c.035,8.548.021,17.1.021,25.644v1.241c.785-.371,1.423-.691,2.077-.978a1.571,1.571,0,0,0,1-1.695c-.041-8.643-.025-17.286-.025-25.93v-1.18m23.5-2c-.269.743-.44,1.359-.708,1.928q-2.548,5.417-5.135,10.816c-.185.388-.515.7-.032,1.156.965.916,1.869,1.9,2.886,2.942,2.812-5.2,5.543-10.28,6.911-16.084l-3.922-.758M67.477,92.036a4.575,4.575,0,1,0-4.588-4.609,4.6,4.6,0,0,0,4.588,4.609m25.141-21.3-8.443,9.181c-.111-.145-.094-.1-.077-.1,1.988.074,3.976.151,5.965.206a.718.718,0,0,0,.486-.222c1.777-1.965,3.541-3.941,5.256-5.857l-3.187-3.2M87.2,82.929v15.21h.911c1.81,0,2.231-.423,2.232-2.245,0-3.366-.071-6.735.021-10.1.083-3.022-.79-3-3.11-2.889a.1.1,0,0,0-.054.023m5.481-39.7c-.217.867-.45,1.686-.615,2.519a1.473,1.473,0,0,0,.1.9,4.771,4.771,0,0,0,8.551.009,1.17,1.17,0,0,0,.141-.714c-.191-.914-.436-1.818-.658-2.713ZM73.606,91.989a4.529,4.529,0,0,0,4.53-4.692,4.458,4.458,0,0,0-4.517-4.327,7.615,7.615,0,0,1-.013,9.019M96.8,64.138,94.457,67.75l3.267,3.3,2.359-3.634L96.8,64.138M75.026,76.845H69.052v2.961h5.974Zm9.18-44.334V26.483a3.014,3.014,0,1,0,0,6.028m24.459-.006a3.022,3.022,0,0,0,3.028-3.132,2.931,2.931,0,0,0-3.028-2.832Z" transform="translate(-59.839 -6.611)" fill="#010101"/><path d="M205.361,208.66v40.021H190.153v-4.873c0-2.826.012-5.652-.01-8.478a3.57,3.57,0,0,0-.24-1.673c-.541-.941-.1-1.425.512-2.076a85.4,85.4,0,0,0,13.059-19.11c.624-1.192,1.2-2.412,1.887-3.81" transform="translate(-156.601 -157.209)" fill="#b3dc7e"/><path d="M185.883,64.8c0,3.773.071,7.424-.022,11.071a5.98,5.98,0,0,1-5.734,5.684c-2.252.073-4.51.073-6.762,0a6.015,6.015,0,0,1-5.754-5.868c-.054-3.524-.034-7.05,0-10.575a4.456,4.456,0,0,1,.419-1.734c.611-1.349,1.018-1.459,2.383-.9a30.7,30.7,0,0,0,11.677,2.32c1.233,0,2.466,0,3.79,0M172.2,78.517c2.2,0,4.321.073,6.435-.019a4.465,4.465,0,0,0,4.172-4.5q-1.463,0-2.927,0c-.5,1.282-.791,1.485-2.175,1.486-1.827,0-3.653,0-5.506,0Zm-1.551-10.662a1.523,1.523,0,1,0,1.495-1.527,1.534,1.534,0,0,0-1.495,1.527m10.65-1.527a1.525,1.525,0,1,0,1.547,1.476,1.528,1.528,0,0,0-1.547-1.476" transform="translate(-140.143 -48.016)" fill="#eeceb2"/><path d="M171.13,32.221V29.265c-.447,0-.816.011-1.184,0-3.293-.116-6.594-.126-9.875-.389a23.813,23.813,0,0,1-8.14-2.5,1.68,1.68,0,0,0-1.28.015,6.986,6.986,0,0,0-3.932,5.8l-2.748.693a6.166,6.166,0,0,1,1.183-5.951,4.319,4.319,0,0,1,.529-.548,2.971,2.971,0,0,0,1.1-2.26,5.989,5.989,0,0,1,5.979-5.526c4.1-.029,8.191-.017,12.286,0A2.906,2.906,0,0,1,166,24.281c-.441.165-.887.313-1.42.5.152.5.281.942.425,1.383s.306.892.454,1.322c1.952-.047,3.6-1.165,5.146-3.464,2.879,1.275,4.379,5.509,3.027,8.727l-2.506-.529" transform="translate(-122.325 -15.531)" fill="#646c77"/><path d="M171.172,172.786A85.347,85.347,0,0,1,155.68,196.4c-.033-.46-.067-.717-.067-.975,0-8.32.008-16.64-.02-24.96,0-.713.2-1.031.9-1.124,1.224-.162,2.439-.4,3.665-.546a.948.948,0,0,1,.744.348c2.6,3.836,5.554,4.867,10.1,3.488l.176.152" transform="translate(-131.21 -127.496)" fill="#b2db7e"/><path d="M266.663,224.734h-3V176.511c.977.576,1.909,1.074,2.771,1.673.2.138.219.62.22.943.014,4.288.009,8.575.009,12.863v32.744Z" transform="translate(-211.76 -133.247)" fill="#959ea9"/><rect width="5.997" height="21.272" transform="translate(58.006 70.227)" fill="#efcfb3"/><path d="M261.1,72.517c2.614,0,5.182-.016,7.75.008a1.486,1.486,0,0,1,1.58,1.636q.028,4.472,0,8.945a1.486,1.486,0,0,1-1.614,1.6q-6.171.026-12.364-.045a6.6,6.6,0,0,0,3.617-2.411,5.751,5.751,0,0,0,.61-6.189,2.029,2.029,0,0,1-.078-2.008,10.933,10.933,0,0,0,.5-1.54" transform="translate(-206.384 -55.731)" fill="#fdc529"/><path d="M109.529,84.735c-4.083,0-8.165.013-12.248-.01a1.439,1.439,0,0,1-1.512-1.509q-.04-4.576,0-9.151a1.358,1.358,0,0,1,1.318-1.489c2.628-.065,5.258-.024,7.846-.024.255.868.512,1.647.7,2.441a1.359,1.359,0,0,1-.054.893,6.09,6.09,0,0,0,3.676,8.6l.3.1-.03.149" transform="translate(-86.605 -55.751)" fill="#fdc529"/><path d="M119.874,143.887V132.428c3.358,0,6.68-.006,10,.016a.851.851,0,0,1,.577.364,10.264,10.264,0,0,0,3.471,3.187,1.059,1.059,0,0,1,.369.857,11.06,11.06,0,0,1-.413,1.687,24.7,24.7,0,0,0-14,5.347" transform="translate(-104.586 -100.388)" fill="#fad56f"/><path d="M230.842,138.539c-.183-.754-.6-1.5-.434-2.08.14-.488,1-.739,1.462-1.175.8-.754,1.539-1.582,2.328-2.354a1.436,1.436,0,0,1,.8-.487c3.263-.034,6.527-.022,9.847-.022v11.442a24.616,24.616,0,0,0-14-5.324" transform="translate(-186.945 -100.383)" fill="#fad56f"/><path d="M106.549,306.116c1.01,0,2.016-.047,3.015.014a1.4,1.4,0,0,1,1.426,1.488q.039,6.093,0,12.187a1.463,1.463,0,0,1-1.571,1.547q-6.045.029-12.09,0A1.488,1.488,0,0,1,95.76,319.8c-.025-.468,0-.937,0-1.489,1.36,0,2.653-.025,3.944,0a7.531,7.531,0,0,0,7.231-3.873,7.31,7.31,0,0,0-.353-8.087c-.028-.043-.015-.112-.029-.241" transform="translate(-86.604 -229.836)" fill="#cacfd7"/><path d="M101.33,213.565H95.4c-1.138-6.867,1.4-15.185,5.929-19.3Z" transform="translate(-86.144 -146.477)" fill="#b3db7e"/><path d="M293.667,213.875h-6v-19.2c3.883,2.482,6.447,10.6,6,19.2" transform="translate(-229.651 -146.788)" fill="#b3db7e"/><path d="M134.693,176.456v1.181c0,8.643-.016,17.287.025,25.929a1.57,1.57,0,0,1-1,1.695c-.653.287-1.292.607-2.077.978V205c0-8.548.014-17.1-.022-25.644a1.61,1.61,0,0,1,.961-1.725c.678-.319,1.315-.726,2.111-1.173" transform="translate(-113.343 -133.206)" fill="#959ea9"/><path d="M218.036,168.6l3.922.758c-1.368,5.8-4.1,10.881-6.911,16.084-1.017-1.045-1.921-2.026-2.886-2.942-.483-.458-.153-.768.032-1.156q2.578-5.4,5.135-10.816c.268-.569.438-1.185.708-1.928" transform="translate(-173.185 -127.354)" fill="#cc9c74"/><path d="M76.406,315.293a4.575,4.575,0,1,1,4.559-4.543,4.6,4.6,0,0,1-4.559,4.543m.02-3.052a1.523,1.523,0,1,0-1.557-1.465,1.537,1.537,0,0,0,1.557,1.465" transform="translate(-68.767 -229.868)" fill="#67d3f0"/><path d="M163.589,258.415l3.187,3.2c-1.716,1.916-3.479,3.892-5.256,5.857a.719.719,0,0,1-.486.222c-1.989-.055-3.977-.132-5.965-.206-.018,0-.034-.042.077.1l8.443-9.18" transform="translate(-130.809 -194.294)" fill="#cc9c74"/><path d="M167.275,306.145a.1.1,0,0,1,.054-.023c2.319-.109,3.192-.133,3.11,2.889-.092,3.364-.021,6.732-.021,10.1,0,1.822-.422,2.245-2.232,2.245h-.911Z" transform="translate(-139.917 -229.828)" fill="#a9b1bb"/><path d="M186.917,150.422h7.521c.222.9.467,1.8.658,2.713a1.17,1.17,0,0,1-.141.714,4.771,4.771,0,0,1-8.551-.009,1.474,1.474,0,0,1-.1-.9c.166-.832.4-1.652.615-2.519" transform="translate(-154.078 -113.801)" fill="#edcdb2"/><path d="M113.9,315.469a7.615,7.615,0,0,0,.013-9.019,4.458,4.458,0,0,1,4.517,4.327,4.528,4.528,0,0,1-4.53,4.692" transform="translate(-100.137 -230.092)" fill="#4dbde4"/><path d="M198.126,232.518l3.284,3.277-2.358,3.634-3.267-3.3,2.342-3.612" transform="translate(-161.166 -174.992)" fill="#fbe6a4"/><rect width="5.974" height="2.961" transform="translate(9.213 70.234)" fill="#efcfb3"/><path d="M146.685,90.677a3.014,3.014,0,1,1,0-6.028Z" transform="translate(-122.318 -64.777)" fill="#eacbb0"/><path d="M251.579,90.827V84.862a2.931,2.931,0,0,1,3.028,2.832,3.022,3.022,0,0,1-3.028,3.132" transform="translate(-202.753 -64.933)" fill="#eacbb0"/><path d="M216.081,183.662l.2-.071c-.009.074-.018.148-.027.223l-.176-.152" transform="translate(-176.295 -138.524)" fill="#b2db7e"/><path d="M185.715,113.146v-3.038c1.852,0,3.679,0,5.506,0,1.385,0,1.679-.2,2.175-1.485h2.926a4.465,4.465,0,0,1-4.172,4.5c-2.115.092-4.237.019-6.435.019" transform="translate(-153.661 -82.645)" fill="#010101"/><path d="M179.626,80.047a1.523,1.523,0,1,1,1.5,1.521,1.529,1.529,0,0,1-1.5-1.521" transform="translate(-149.123 -60.209)" fill="#0b0a08"/><path d="M217.061,78.521a1.525,1.525,0,1,1-1.5,1.523,1.534,1.534,0,0,1,1.5-1.523" transform="translate(-175.908 -60.21)" fill="#0b0a08"/><path d="M85.355,321.174a1.523,1.523,0,1,1,1.488-1.535,1.535,1.535,0,0,1-1.488,1.535" transform="translate(-77.696 -238.801)" fill="#050a0b"/></g></g></g></svg>