<svg xmlns="http://www.w3.org/2000/svg" width="111" height="111" viewBox="0 0 111 111"><g transform="translate(-771 -1154)"><rect width="111" height="111" transform="translate(771 1154)" fill="none"/><g transform="translate(747.509 1163.263)"><g transform="translate(44.491 0.737)"><path d="M112.771,33.311a1.537,1.537,0,0,1,1.335,1.769q-.016,26.023-.005,52.046a4.152,4.152,0,0,1-3.283,4.279H58.049a2.452,2.452,0,0,0-.406-.284,3.94,3.94,0,0,1-2.516-3.809c-.022-1.089,0-2.179,0-3.359-.571-.035-1.118-.051-1.661-.106a3.865,3.865,0,0,1-3.614-3.691c-.077-1.232-.014-2.473-.014-3.8-.521,0-.986.013-1.451,0a3.947,3.947,0,0,1-3.843-3.573,9.168,9.168,0,0,1-.042-.971q0-26.719,0-53.439c0-1.411.154-1.642,1.333-2.034,1.176.394,1.331.626,1.331,2.037q0,26.678,0,53.356c0,1.61.363,1.969,1.973,1.969H95.944c.294,0,.589-.018.883-.027.855.009,1.711.041,2.565.021A1.318,1.318,0,0,0,100.8,72.32c.017-.205.007-.413.007-.619q0-33.155,0-66.309c0-.207.01-.414-.007-.62A1.316,1.316,0,0,0,99.392,3.4c-.854-.019-1.71.012-2.565.022a2.614,2.614,0,0,0-.264-.026q-23.894,0-47.788,0c-1.133,0-1.6.464-1.608,1.618-.015,2.242.005,4.484-.01,6.726-.007,1.083-.268,1.378-1.332,1.652a1.437,1.437,0,0,1-1.332-1.659c.013-2.272-.019-4.544.011-6.815A3.969,3.969,0,0,1,48.749.74q25.224,0,50.448,0a3.989,3.989,0,0,1,4.275,4.246c.017,1.056,0,2.113,0,3.289.5,0,.93-.014,1.359,0a3.891,3.891,0,0,1,3.919,3.766c.074,1.2.013,2.417.013,3.747.471,0,.9-.007,1.326,0a3.855,3.855,0,0,1,3.957,3.721c.1,3.153.046,6.312.039,9.468a1.33,1.33,0,0,1-1.3,1.409c-1.086-.253-1.355-.57-1.359-1.715-.011-2.713,0-5.427,0-8.14,0-1.877-.763-2.447-2.634-1.937v1.139q0,29.818,0,59.635c0,2.9-1.582,4.508-4.463,4.525-2.566.015-5.132-.006-7.7.008a1.39,1.39,0,1,1,.011-2.677c2.478.033,4.956.013,7.435.01,1.72,0,2.053-.341,2.053-2.091q0-33.059,0-66.117c0-1.9-.728-2.444-2.665-1.945v1.034q0,29.828,0,59.656c0,3.03-1.548,4.579-4.562,4.579H52.5c0,1.281-.034,2.485.013,3.687a1.164,1.164,0,0,0,1.137,1.15,8.585,8.585,0,0,0,1.059.046q17.7,0,35.4,0c1.279,0,1.544.195,1.843,1.308-.29,1.137-.6,1.352-2,1.352q-15.532,0-31.064,0H57.9a1.56,1.56,0,0,0-.089.286c-.008.855-.017,1.71-.016,2.566,0,1.665.339,2,2.034,2h49.03c2.466,0,2.569-.1,2.569-2.613q0-25.4,0-50.8c0-1.4.18-1.666,1.343-2.024" transform="translate(-44.491 -0.737)" fill="#060606"/><path d="M50.132,21.982c1.064-.274,1.325-.569,1.332-1.652.015-2.242-.005-4.484.01-6.726.008-1.154.475-1.618,1.607-1.618q23.894,0,47.788,0a2.62,2.62,0,0,1,.264.026V82.255c-.294.009-.589.026-.883.026q-23.4,0-46.808,0c-1.61,0-1.973-.359-1.973-1.969q0-26.678,0-53.356c0-1.411-.155-1.643-1.331-2.037l-.006-2.939M78.54,15.621H75.886c-3.156,0-6.311-.028-9.467.008a4.431,4.431,0,1,0,.256,8.851q11.9,0,23.8,0a7.649,7.649,0,0,0,.881-.068,4.1,4.1,0,0,0,2.853-1.593,4.225,4.225,0,0,0,.556-4.648,4.224,4.224,0,0,0-4.1-2.545c-4.04-.009-8.08,0-12.121,0M70.869,30.279q.017-.141.033-.281a7.747,7.747,0,0,0-2.126-.7c-2.917-.081-5.838-.046-8.757-.029a2.031,2.031,0,0,0-2.266,2.315q-.012,4.291,0,8.581c0,1.531.729,2.348,2.228,2.367q4.423.056,8.846,0a2.039,2.039,0,0,0,2.2-2.3c.01-1.946.028-3.893-.013-5.839a1.389,1.389,0,0,1,.6-1.259c.675-.522,1.319-1.087,1.958-1.655a1.35,1.35,0,0,0,.324-2.007,1.336,1.336,0,0,0-2.027-.026c-.34.274-.671.561-1.006.842M64.393,46.436c-1.5,0-3.006-.024-4.508.007a1.991,1.991,0,0,0-2.129,2.179q-.022,4.42,0,8.84a1.989,1.989,0,0,0,2.084,2.229q4.551.075,9.1,0a2,2,0,0,0,2.087-2.227q.018-4.375,0-8.751a2.046,2.046,0,0,0-2.306-2.276c-1.444-.016-2.888,0-4.331,0m6.64,23.808c0-1.473.012-2.947,0-4.42a2.011,2.011,0,0,0-2.195-2.2q-4.42-.033-8.84,0a2.016,2.016,0,0,0-2.241,2.247q-.017,4.376,0,8.751a2.011,2.011,0,0,0,2.15,2.26q4.463.067,8.928,0a2.04,2.04,0,0,0,2.2-2.3c.01-1.444,0-2.888,0-4.331M86.88,31.38c-3.482,0-6.964-.008-10.446.005a1.326,1.326,0,0,0-1.5,1.273c-.025.768.518,1.3,1.415,1.377.205.018.413.01.619.01q9.915,0,19.83,0a4.452,4.452,0,0,0,1.053-.087,1.3,1.3,0,0,0-.084-2.529,4.816,4.816,0,0,0-.881-.044q-5,0-10,0m.091,5.667c-3.512,0-7.023-.008-10.535,0a1.326,1.326,0,0,0-1.5,1.271A1.351,1.351,0,0,0,76.345,39.7c.235.02.472.01.708.01q9.827,0,19.653,0a4.986,4.986,0,0,0,1.141-.088,1.3,1.3,0,0,0-.081-2.528,4.771,4.771,0,0,0-.881-.044q-4.958,0-9.915,0m-.115,14.175q4.913,0,9.827,0a7.046,7.046,0,0,0,.884-.028,1.315,1.315,0,0,0-.038-2.628c-.176-.016-.354-.008-.531-.008q-10.136,0-20.273,0a3.911,3.911,0,0,0-.705.037,1.3,1.3,0,0,0-.045,2.552,4.608,4.608,0,0,0,.967.072q4.958.007,9.915,0m-.011,5.667q5,0,10,0c.352,0,.806.069,1.032-.116a2.47,2.47,0,0,0,.907-1.241,1.094,1.094,0,0,0-.988-1.251,4.225,4.225,0,0,0-.88-.052q-10.048,0-20.1,0c-.294,0-.678-.08-.863.07a2.718,2.718,0,0,0-.987,1.181,1.092,1.092,0,0,0,.9,1.313,3.993,3.993,0,0,0,1.052.1q4.958.01,9.915,0m.1,8.845h-10c-1.388,0-2,.395-2.011,1.3-.015.928.639,1.364,2.057,1.364q9.915,0,19.83,0a5.485,5.485,0,0,0,.794-.036,1.288,1.288,0,0,0,1.211-1.374,1.263,1.263,0,0,0-1.255-1.242c-.234-.022-.472-.012-.708-.012H86.946M86.88,71.4c-3.482,0-6.964-.008-10.446.005a1.326,1.326,0,0,0-1.5,1.273c-.025.768.518,1.3,1.416,1.377.205.018.413.009.619.009q9.915,0,19.83,0c.381,0,.87.072,1.117-.127.391-.313.862-.836.848-1.256s-.533-.877-.93-1.2c-.206-.165-.626-.08-.949-.08q-5-.006-10,0" transform="translate(-48.797 -9.324)" fill="#f2f2f2"/><path d="M137.8,139.613a1.535,1.535,0,0,0,1.761,1.354c2.566-.013,5.132.008,7.7-.008,2.881-.017,4.463-1.621,4.463-4.525q0-29.818,0-59.635V75.66c1.871-.509,2.633.06,2.634,1.937,0,2.713-.007,5.427,0,8.14,0,1.145.273,1.462,1.359,1.715q-.009,1.461-.019,2.921c-1.164.357-1.343.622-1.343,2.024q0,25.4,0,50.8c0,2.508-.1,2.613-2.569,2.613h-49.03c-1.695,0-2.033-.33-2.034-2,0-.855.008-1.71.016-2.566a1.564,1.564,0,0,1,.089-.286h.985q15.532,0,31.064,0c1.4,0,1.713-.215,2-1.352l2.917,0" transform="translate(-87.425 -57.8)" fill="#bcbcbc"/><path d="M120.67,115.376l-2.917,0c-.3-1.113-.564-1.308-1.843-1.308q-17.7,0-35.4,0a8.585,8.585,0,0,1-1.059-.046,1.164,1.164,0,0,1-1.137-1.15c-.047-1.2-.013-2.406-.013-3.686H124.7c3.014,0,4.562-1.549,4.562-4.579q0-29.828,0-59.656V43.909c1.937-.5,2.664.049,2.664,1.945q0,33.058,0,66.117c0,1.75-.334,2.089-2.053,2.091-2.478,0-4.957.023-7.435-.01a1.523,1.523,0,0,0-1.772,1.324" transform="translate(-70.291 -33.563)" fill="#ccc"/><path d="M265.719,82.254V12.011c.855-.009,1.711-.041,2.565-.022a1.316,1.316,0,0,1,1.413,1.368c.017.205.007.413.007.62V80.286c0,.207.01.414-.007.619a1.318,1.318,0,0,1-1.413,1.369c-.854.019-1.71-.012-2.565-.021" transform="translate(-213.383 -9.323)" fill="#e0e0e0"/><path d="M116.508,27.323c4.04,0,8.08-.006,12.121,0a4.424,4.424,0,0,1,3.548,7.193,4.1,4.1,0,0,1-2.853,1.593,7.65,7.65,0,0,1-.881.068q-11.9.006-23.8,0a4.431,4.431,0,1,1-.256-8.851c3.155-.037,6.311-.008,9.467-.008h2.654m.018,2.664q-5.8,0-11.6,0a6.656,6.656,0,0,0-.883.033,1.738,1.738,0,0,0-.129,3.415,6.489,6.489,0,0,0,1.232.087q11.374.007,22.748,0a6.826,6.826,0,0,0,1.145-.07,1.685,1.685,0,0,0,1.433-1.91c-.1-.985-.8-1.551-2-1.554-3.983-.009-7.966,0-11.949,0" transform="translate(-86.765 -21.025)" fill="#050507"/><path d="M95.445,85.15c.335-.281.665-.568,1.006-.842a1.336,1.336,0,0,1,2.027.026,1.35,1.35,0,0,1-.324,2.007c-.639.568-1.282,1.133-1.958,1.655a1.389,1.389,0,0,0-.6,1.259c.042,1.946.023,3.892.013,5.839a2.039,2.039,0,0,1-2.2,2.3q-4.423.06-8.846,0c-1.5-.019-2.225-.837-2.228-2.367q-.009-4.291,0-8.581A2.031,2.031,0,0,1,84.6,84.135c2.919-.017,5.84-.052,8.757.029a7.749,7.749,0,0,1,2.126.705l-.033.281M92.91,90.832c-.658.556-1.184,1.022-1.733,1.458a1.3,1.3,0,0,1-2.023-.111q-1.017-1.044-1.98-2.14a1.322,1.322,0,1,1,1.937-1.792c.416.409.8.848,1.247,1.32.849-.975,2.045-1.484,2.737-2.714H85.016v7.859H92.91Z" transform="translate(-73.374 -64.195)" fill="#040203"/><path d="M88.961,157.585c1.444,0,2.888-.013,4.331,0a2.046,2.046,0,0,1,2.306,2.276q.015,4.376,0,8.751a2,2,0,0,1-2.087,2.227q-4.551.074-9.1,0a1.989,1.989,0,0,1-2.084-2.229q-.017-4.42,0-8.84a1.992,1.992,0,0,1,2.129-2.179c1.5-.031,3.005-.007,4.508-.008m3.949,2.717h-7.9v7.864h7.9Z" transform="translate(-73.366 -120.474)" fill="#030404"/><path d="M95.6,236.825c0,1.444.008,2.888,0,4.332a2.04,2.04,0,0,1-2.2,2.3q-4.463.059-8.928,0a2.011,2.011,0,0,1-2.15-2.26q-.016-4.375,0-8.751a2.017,2.017,0,0,1,2.241-2.247q4.42-.027,8.84,0a2.011,2.011,0,0,1,2.194,2.2c.015,1.473,0,2.946,0,4.42m-10.587,3.95h7.878v-7.856H85.016Z" transform="translate(-73.369 -175.905)" fill="#040302"/><path d="M166.907,93.965q5,0,10,0a4.794,4.794,0,0,1,.881.044,1.3,1.3,0,0,1,.084,2.529,4.427,4.427,0,0,1-1.053.087q-9.915.007-19.83,0c-.207,0-.414.008-.619-.009-.9-.077-1.441-.609-1.415-1.377a1.325,1.325,0,0,1,1.5-1.273c3.482-.013,6.964-.005,10.446-.005" transform="translate(-128.824 -71.908)" fill="#080808"/><path d="M167,117.917q4.958,0,9.915,0a4.775,4.775,0,0,1,.881.044,1.3,1.3,0,0,1,.081,2.528,4.975,4.975,0,0,1-1.142.088q-9.827.007-19.653,0c-.236,0-.473.01-.708-.01a1.351,1.351,0,0,1-1.413-1.378,1.326,1.326,0,0,1,1.5-1.271c3.512-.013,7.023,0,10.535-.005" transform="translate(-128.825 -90.195)" fill="#080808"/><path d="M166.915,169.238q-4.958,0-9.915,0a4.61,4.61,0,0,1-.967-.072,1.3,1.3,0,0,1,.045-2.552,3.933,3.933,0,0,1,.705-.037q10.136,0,20.273,0c.177,0,.355-.009.531.007a1.315,1.315,0,0,1,.038,2.629,7.089,7.089,0,0,1-.884.028q-4.913,0-9.827,0" transform="translate(-128.857 -127.339)" fill="#080808"/><path d="M166.9,193.136q-4.958,0-9.915,0a4,4,0,0,1-1.052-.1,1.093,1.093,0,0,1-.9-1.313,2.719,2.719,0,0,1,.987-1.18c.185-.15.569-.071.863-.071q10.048,0,20.1,0a4.194,4.194,0,0,1,.88.052,1.093,1.093,0,0,1,.987,1.251,2.47,2.47,0,0,1-.907,1.241c-.226.185-.68.115-1.031.116q-5,.01-10,0" transform="translate(-128.848 -145.571)" fill="#080808"/><path d="M166.975,239.18h9.915c.236,0,.474-.011.708.012a1.263,1.263,0,0,1,1.255,1.242,1.288,1.288,0,0,1-1.211,1.374,5.419,5.419,0,0,1-.794.036q-9.915,0-19.83,0c-1.418,0-2.072-.436-2.057-1.365.014-.905.623-1.3,2.011-1.3h10" transform="translate(-128.826 -182.77)" fill="#080808"/><path d="M166.907,263.078q5,0,10,0c.323,0,.743-.085.949.08.4.318.917.78.93,1.2s-.458.943-.848,1.256c-.248.2-.736.126-1.117.127q-9.915.009-19.83,0c-.206,0-.414.008-.619-.009-.9-.077-1.441-.609-1.416-1.377a1.326,1.326,0,0,1,1.5-1.273c3.482-.013,6.964-.005,10.446-.005" transform="translate(-128.825 -201.002)" fill="#080808"/><path d="M125.228,38.613c3.983,0,7.966-.006,11.949,0,1.2,0,1.9.568,2,1.553a1.685,1.685,0,0,1-1.433,1.91,6.851,6.851,0,0,1-1.145.07q-11.374.005-22.748,0a6.489,6.489,0,0,1-1.232-.087,1.738,1.738,0,0,1,.129-3.415,6.615,6.615,0,0,1,.883-.033q5.8,0,11.6,0" transform="translate(-95.467 -29.652)" fill="#889af8"/><path d="M101.6,100.494v3.88H93.7V96.515h8.079c-.692,1.229-1.889,1.739-2.737,2.714-.444-.472-.831-.91-1.247-1.32A1.322,1.322,0,1,0,95.862,99.7q.962,1.094,1.98,2.14a1.3,1.3,0,0,0,2.023.111c.549-.436,1.074-.9,1.733-1.458" transform="translate(-82.062 -73.857)" fill="#f83b77"/><rect width="7.901" height="7.864" transform="translate(11.643 39.828)" fill="#8aeffb"/><rect width="7.878" height="7.856" transform="translate(11.648 57.014)" fill="#fbc727"/></g></g></g></svg>