<svg xmlns="http://www.w3.org/2000/svg" width="111" height="111" viewBox="0 0 111 111"><g transform="translate(-778 -954)"><rect width="111" height="111" transform="translate(778 954)" fill="none"/><g transform="translate(788 963.285)"><g transform="translate(0 0.714)"><path d="M89.737,91.678H29.676a2.384,2.384,0,0,1-1.263-2.4c.037-6.8.019-13.6.019-20.406V67.864c-3.6-.412-7.15-.832-10.7-1.221A10.579,10.579,0,0,1,8.347,59.5c-2.155-5.613-4.265-11.242-6.4-16.861C1.311,40.978.649,39.326,0,37.669V34.826c.115-.289.246-.572.342-.867a7.158,7.158,0,0,1,4.2-4.638,1.091,1.091,0,0,0,.808-1.213c-.029-8.379-.02-16.759-.018-25.138,0-1.643.608-2.253,2.243-2.254q10.217,0,20.435,0c1.959,0,2.716,1.278,1.777,3C28.825,5.484,27.831,7.229,26.9,9a1.287,1.287,0,0,0-.07,1.025c1.1,2.112,2.267,4.195,3.319,6.116,1.346-.066,2.574-.148,3.8-.178s2.465-.007,3.736-.007c0-1.118,0-2.123,0-3.127A9.328,9.328,0,0,1,47.37,3.171q6.353-.011,12.705,0a10.226,10.226,0,0,1,1.769.112,9.291,9.291,0,0,1,7.823,9.266c.014,1.114,0,2.229,0,3.413,1.9,0,3.7-.03,5.5.007a5.654,5.654,0,0,1,.706,11.241c-.707.108-1.427.126-2.2.191A11.225,11.225,0,0,1,75.929,38.6a1.435,1.435,0,0,0,.171.889c.449,1.024,1.038,2,1.384,3.053a13.839,13.839,0,0,1-.67,9.8c.225.1.438.2.654.29A21.632,21.632,0,0,1,90.981,73.018c0,5.419-.021,10.837.019,16.255a2.4,2.4,0,0,1-1.263,2.4M38.7,70.611c-1.35-.267-1.775-.779-1.777-2.191q-.008-6.389,0-12.777v-.991H32.043v33.42h4.874c0-.963,0-1.875,0-2.786.006-1.485.337-1.913,1.777-2.308,1.417.415,1.769.874,1.775,2.337,0,.91,0,1.82,0,2.767H66.8V80.137c-2.094,0-4.132.008-6.17,0a1.808,1.808,0,0,1-1.97-1.725,1.839,1.839,0,0,1,1.977-1.822c1.006-.017,2.013,0,3.02,0h3.2V61.348C65.447,63.2,64.226,65.106,62.99,67c-.881,1.349-2.023,1.476-3.16.352q-2.368-2.342-4.712-4.708c-.473-.476-.925-.972-1.343-1.413a1.543,1.543,0,0,0-.23.107q-2.989,2.976-5.978,5.953c-1.218,1.209-2.331,1.087-3.275-.361-1.114-1.709-2.212-3.429-3.322-5.14-.111-.172-.259-.32-.5-.611,0,2.564.009,4.931,0,7.3C40.46,69.794,40,70.33,38.7,70.611M8.921,18.506v10.31c3.267.754,4.985,2.968,6.032,6.006,1.778,5.159,3.733,10.256,5.567,15.4a1.085,1.085,0,0,0,1.262.852c2.309-.046,4.619-.018,6.928-.018h1.348c-.084-.3-.134-.463-.18-.631a13.221,13.221,0,0,1,1.416-11,1.414,1.414,0,0,0,.075-1.045,11.2,11.2,0,0,1,2.444-11.065c-2.531.166-4.655-.357-6.09-2.4a5.7,5.7,0,0,1-.192-6.411ZM41.939,27.36c0,1.892-.016,3.72,0,5.548a11.721,11.721,0,0,0,22.926,3.265c.889-2.9.377-5.853.54-8.813ZM6.048,43.15a1.193,1.193,0,0,0,0,.281C7.974,48.509,9.866,53.6,11.843,58.658a6.584,6.584,0,0,0,5.426,4.329c3.68.527,7.387.865,11.115,1.288V54.605c-2.794,0-5.54,0-8.287,0-1.462,0-1.832-.268-2.343-1.665Q15.627,47.117,13.5,41.294c-.128-.351-.27-.7-.421-1.085L6.048,43.15M87.414,88.124c0-5.427.133-10.756-.035-16.076a17.5,17.5,0,0,0-7.944-14.337,3.492,3.492,0,0,0-.49-.241V88.124h8.469Zm-21.3-72.207c0-1.22.021-2.4,0-3.573a5.684,5.684,0,0,0-5.614-5.608c-4.53-.04-9.06-.029-13.59,0a5.655,5.655,0,0,0-5.265,3.686c-.672,1.8-.336,3.656-.373,5.5Zm-12.464,3.6h-20.6c-.3,0-.593-.01-.888.014a2.1,2.1,0,0,0-.439,4.107,4.688,4.688,0,0,0,1.227.138q20.735.01,41.469,0a4.558,4.558,0,0,0,1.226-.145,2.068,2.068,0,0,0,1.475-1.994,2.092,2.092,0,0,0-1.46-2.013,4.652,4.652,0,0,0-1.23-.1q-10.39-.008-20.779,0M70.471,54.554V88.075H75.3V55.507l-4.833-.953m-9.7-3.505c.425,0,.773-.008,1.119,0,3.633.1,7.266.207,10.9.274a.987.987,0,0,0,.756-.477c1.488-3.608,1.437-7.081-1.058-10.282a2.1,2.1,0,0,1-.286-2.308,11.2,11.2,0,0,0,.741-2.534,7.329,7.329,0,0,0-3.994-7.414c0,1.261-.008,2.492,0,3.723a15.283,15.283,0,0,1-7.7,13.959c-.2.122-.449.362-.454.553-.038,1.471-.021,2.943-.021,4.5M38.382,28.262A7.56,7.56,0,0,0,35.1,38.14a2.1,2.1,0,0,1-.192,2.392c-2.372,3-2.552,6.3-1.333,9.8a.957.957,0,0,0,1.1.734c3.7-.028,7.4-.013,11.093-.016.252,0,.5-.037.8-.06,0-1.488.024-2.9-.023-4.319a1.081,1.081,0,0,0-.5-.7,15.215,15.215,0,0,1-7.656-13.539c-.013-1.352,0-2.7,0-4.167M25.4,14.891c-.777-1.412-1.489-2.763-2.257-4.082a2.192,2.192,0,0,1,0-2.415c.769-1.319,1.481-2.671,2.252-4.073H8.941v10.57ZM51.063,58.55c-1.205-1.193-2.5-2.48-3.806-3.758a.624.624,0,0,0-.385-.178c-2.049-.011-4.1-.008-6.3-.008l5.655,8.769,4.838-4.825M66.76,54.6c-2.141,0-4.061,0-5.981.007a1.046,1.046,0,0,0-.659.151c-1.329,1.283-2.631,2.593-3.785,3.739l4.8,4.833L66.76,54.6M53.652,56.221c1.149-1.162,2.191-2.21,3.223-3.268.137-.14.315-.329.318-.5.024-1.606.014-3.212.014-4.646H50.122c0,1.4-.012,2.905.013,4.409a1.121,1.121,0,0,0,.286.69c1.035,1.091,2.1,2.156,3.231,3.312M11.885,36.853c-.313-.836-.555-1.594-.875-2.318a3.864,3.864,0,0,0-3.77-2.288A3.918,3.918,0,0,0,3.7,35.121c-.518,1.767.493,3.162.991,4.743l7.192-3.012" transform="translate(0 -0.714)" fill="#020202"/><path d="M163.047,264.913c1.3-.281,1.764-.817,1.771-2.136.013-2.367,0-4.735,0-7.3.239.291.387.439.5.611,1.11,1.712,2.208,3.431,3.322,5.14.944,1.449,2.057,1.57,3.275.361q2.994-2.971,5.978-5.953a1.609,1.609,0,0,1,.231-.107c.418.441.87.938,1.343,1.413q2.349,2.361,4.712,4.708c1.137,1.125,2.279,1,3.16-.352,1.236-1.893,2.457-3.8,3.867-5.651v15.235h-3.2c-1.007,0-2.014-.013-3.02,0a1.839,1.839,0,0,0-1.977,1.822,1.807,1.807,0,0,0,1.97,1.725c2.038.011,4.076,0,6.17,0v7.944h-26.33c0-.946,0-1.856,0-2.767-.007-1.463-.358-1.923-1.775-2.337q0-2.185,0-4.371a1.822,1.822,0,0,0,1.653-1.242c.37-1.105-.224-1.958-1.656-2.383q0-2.185,0-4.369" transform="translate(-124.352 -195.016)" fill="#65dff6"/><path d="M176.693,112.989h23.47c-.163,2.96.348,5.917-.54,8.813a11.721,11.721,0,0,1-22.926-3.265c-.019-1.827,0-3.656,0-5.548m11.7,12.266a3.5,3.5,0,0,0,2.6-1.136,1.713,1.713,0,0,0,.111-2.2,1.663,1.663,0,0,0-2.115-.58,1.046,1.046,0,0,1-1.113.022,1.644,1.644,0,0,0-2.128.52,1.724,1.724,0,0,0,.118,2.27,3.5,3.5,0,0,0,2.522,1.1" transform="translate(-134.754 -86.343)" fill="#f1c8a5"/><path d="M25.461,170.072l7.033-2.94c.151.389.293.735.421,1.085q2.128,5.821,4.252,11.644c.51,1.4.88,1.663,2.343,1.665,2.747,0,5.493,0,8.287,0V191.2c-3.728-.423-7.435-.761-11.115-1.288a6.584,6.584,0,0,1-5.426-4.329c-1.977-5.057-3.869-10.149-5.793-15.227a1.193,1.193,0,0,1,0-.281" transform="translate(-19.414 -127.637)" fill="#65ddf4"/><path d="M341.112,270.515h-8.469V239.861a3.487,3.487,0,0,1,.49.241,17.5,17.5,0,0,1,7.944,14.337c.168,5.319.035,10.649.035,16.076" transform="translate(-253.698 -183.105)" fill="#65dff6"/><path d="M198.552,35.186H173.706c.037-1.841-.3-3.7.373-5.5A5.655,5.655,0,0,1,179.343,26c4.53-.027,9.06-.038,13.59,0a5.684,5.684,0,0,1,5.614,5.608c.026,1.176,0,2.353,0,3.573" transform="translate(-132.441 -19.983)" fill="#fccb68"/><path d="M150.727,79.928q10.39,0,20.779,0a4.651,4.651,0,0,1,1.23.1,2.092,2.092,0,0,1,1.46,2.013,2.069,2.069,0,0,1-1.476,1.994,4.555,4.555,0,0,1-1.226.145q-20.734.011-41.469,0a4.667,4.667,0,0,1-1.227-.138,2.1,2.1,0,0,1,.439-4.107c.294-.023.592-.014.888-.014h20.6" transform="translate(-97.08 -61.127)" fill="#fbca67"/><path d="M141.672,251.939q0,2.185,0,4.371c-1.44.4-1.771.823-1.777,2.308,0,.911,0,1.823,0,2.786h-4.874v-33.42h4.874v.991q0,6.389,0,12.777c0,1.413.427,1.924,1.777,2.191q0,2.185,0,4.37c-1.3.363-1.807.912-1.767,1.916.038.938.6,1.481,1.77,1.709" transform="translate(-102.973 -174.047)" fill="#fb7c95"/><path d="M296.938,227.574l4.833.953V261.1h-4.833Z" transform="translate(-226.467 -173.734)" fill="#fb7b94"/><path d="M256.043,139.731c0-1.56-.017-3.032.021-4.5,0-.191.257-.432.454-.553a15.283,15.283,0,0,0,7.7-13.959c-.009-1.231,0-2.463,0-3.724a7.329,7.329,0,0,1,3.994,7.414,11.2,11.2,0,0,1-.741,2.534,2.1,2.1,0,0,0,.285,2.308c2.495,3.2,2.546,6.674,1.058,10.282a.988.988,0,0,1-.756.477c-3.634-.067-7.267-.177-10.9-.275-.347-.009-.694,0-1.119,0" transform="translate(-195.274 -89.396)" fill="#cf9f83"/><path d="M143.908,116.789c0,1.462-.011,2.815,0,4.167a15.215,15.215,0,0,0,7.656,13.54,1.081,1.081,0,0,1,.5.7c.048,1.414.023,2.831.023,4.319-.3.023-.547.06-.8.06-3.7,0-7.4-.011-11.093.017a.958.958,0,0,1-1.1-.734c-1.218-3.5-1.039-6.8,1.333-9.8a2.1,2.1,0,0,0,.192-2.392,7.56,7.56,0,0,1,3.28-9.879" transform="translate(-105.526 -89.241)" fill="#cf9f83"/><path d="M54.135,26.483H37.675V15.913h16.45c-.771,1.4-1.483,2.754-2.252,4.073a2.192,2.192,0,0,0,0,2.415c.769,1.319,1.481,2.67,2.257,4.082" transform="translate(-28.734 -12.306)" fill="#fe7c96"/><path d="M181.437,231.736l-4.838,4.825-5.655-8.769c2.2,0,4.253,0,6.3.008a.623.623,0,0,1,.385.178c1.3,1.278,2.6,2.565,3.806,3.758" transform="translate(-130.374 -173.9)" fill="#f9f9f9"/><path d="M247.8,227.78l-5.628,8.73-4.8-4.832c1.154-1.147,2.456-2.457,3.785-3.739a1.047,1.047,0,0,1,.659-.151c1.92-.011,3.84-.007,5.981-.007" transform="translate(-181.039 -173.891)" fill="#f9f9f9"/><path d="M214.715,207.568c-1.134-1.156-2.2-2.221-3.231-3.312a1.123,1.123,0,0,1-.286-.69c-.025-1.5-.013-3.009-.013-4.409h7.085c0,1.434.01,3.04-.014,4.646,0,.169-.181.358-.318.5-1.032,1.058-2.074,2.105-3.223,3.268" transform="translate(-161.063 -152.06)" fill="#eec5a3"/><path d="M23.32,138.156l-7.192,3.012c-.5-1.581-1.509-2.977-.991-4.743a3.918,3.918,0,0,1,3.537-2.874,3.864,3.864,0,0,1,3.77,2.288c.321.724.563,1.482.875,2.318" transform="translate(-11.435 -102.017)" fill="#efc6a3"/><path d="M157.365,317.269c-1.17-.228-1.732-.772-1.77-1.709-.04-1,.466-1.553,1.767-1.916,1.433.425,2.026,1.278,1.656,2.383a1.821,1.821,0,0,1-1.653,1.242" transform="translate(-118.666 -239.377)" fill="#040405"/><path d="M216.332,151.518a3.5,3.5,0,0,1-2.522-1.1,1.724,1.724,0,0,1-.118-2.27,1.644,1.644,0,0,1,2.128-.52,1.047,1.047,0,0,0,1.113-.022,1.663,1.663,0,0,1,2.115.58,1.713,1.713,0,0,1-.111,2.2,3.5,3.5,0,0,1-2.6,1.136" transform="translate(-162.694 -112.606)" fill="#050403"/></g></g></g></svg>