<svg xmlns="http://www.w3.org/2000/svg" width="130" height="130" viewBox="0 0 130 130"><g transform="translate(-0.032)"><rect width="130" height="130" transform="translate(0.032)" fill="none"/><g transform="translate(13.415 12.559)"><g transform="translate(0 0)"><path d="M112.628,105.451c.624,0,1.159-.022,1.691,0a1.7,1.7,0,0,1,1.771,1.769c.033,1.253.057,2.511-.013,3.761a5.172,5.172,0,0,1-4.865,4.771c-.36.021-.723.011-1.085.011H17.888c-3.963,0-5.969-2.007-5.97-5.967,0-.753-.006-1.5,0-2.257.015-1.476.621-2.077,2.106-2.095.425-.005.85,0,1.365,0V104.22q0-29.936,0-59.872c0-2.065.47-2.537,2.53-2.537q22.68,0,45.36.018a2.4,2.4,0,0,0,1.877-.781,37.956,37.956,0,0,0,7.8-11.277c-1.764,0-3.412-.018-5.058.007a1.871,1.871,0,0,1-2.02-1.112,1.808,1.808,0,0,1,.641-2.1Q73.2,19.957,79.876,13.343c1.065-1.053,1.926-1.061,2.988-.012q6.686,6.6,13.355,13.222a1.82,1.82,0,0,1,.653,2.1,1.873,1.873,0,0,1-2.013,1.123c-2.818-.021-5.637-.008-8.3-.008L83.873,41.811h26.333c1.909,0,2.422.515,2.422,2.429q0,29.99,0,59.98v1.231m-.037,4.731V108.95H15.427v1.231c-.024,1.607.561,2.147,2.345,2.147H73.277q18.538,0,37.076,0c1.677,0,2.26-.567,2.238-2.145M89.237,24.6l-7.786-7.464-9.275,9.2c.911,0,2.028-.02,3.144.005a1.717,1.717,0,0,1,1.726,2.547,37.207,37.207,0,0,1-1.777,4.024c-7.22,13.379-18.441,20.928-33.7,22.452-2.31.231-4.663.032-7.046.032V74.243c1.524-.207,2.916-.413,4.312-.582A49.306,49.306,0,0,0,67.783,60.119,48.425,48.425,0,0,0,82.875,28.983c.223-2.266.553-2.651,2.844-2.651h5.39L89.237,24.6M79.772,50.38c-.12.176-.249.346-.358.528-7.49,12.525-18.271,20.881-32.472,24.638-4.508,1.193-9.223,1.627-13.853,2.349-1.332.208-2.068-.607-2.069-2.094q-.008-10.9,0-21.8c0-1.809.744-2.4,2.576-2.178a36.789,36.789,0,0,0,15.216-1.237,36.374,36.374,0,0,0,11.13-5.26H18.932v60.057h3.4v-1.244q0-26.383,0-52.767a9.747,9.747,0,0,1,.015-1.074A1.572,1.572,0,0,1,23.86,48.73c1.793-.08,3.591-.024,5.459-.024v1.706c-.027.557-.053,1.114-.084,1.756H25.874v53.218h76.273V52.1H84.81V50.412l.081-1.721h18.177c2.153,0,2.615.452,2.615,2.563q0,26.485,0,52.97V105.4h3.427v-60.1H82.3L79.772,50.38" transform="translate(-11.916 -12.549)" fill="#010101"/><path d="M161.632,16.272V12.893h3.407v3.379l.031-.03H161.6Z" transform="translate(-118.19 -12.794)"/><path d="M153.317,28h-3.378V24.586h3.38l-.031-.03v3.47Z" transform="translate(-109.91 -21.109)"/><path d="M173.575,24.586h3.379v3.409h-3.378l.03.032v-3.47Z" transform="translate(-126.691 -21.108)"/><path d="M165.041,36.532v3.38h-3.41v-3.38l-.03.031h3.469Z" transform="translate(-118.19 -29.646)"/><rect width="3.316" height="3.355" transform="translate(90.471 6.946)"/><rect width="3.316" height="3.355" transform="translate(36.522 13.826)"/><path d="M347.3,64.192V60.813H350.7v3.379l.031-.03h-3.47Z" transform="translate(-249.973 -46.954)"/><path d="M338.792,75.914h-3.454V72.506h3.456l-.031-.03v3.47Z" transform="translate(-241.471 -55.269)"/><path d="M359.238,72.506h3.456v3.409h-3.454l.03.032v-3.47Z" transform="translate(-258.508 -55.269)"/><path d="M350.7,84.451q.007,1.28.015,2.559c0,.248,0,.5,0,.9h-3.425V84.451l-.03.031h3.469Z" transform="translate(-249.973 -63.805)"/><path d="M119.2,144.334v1.685h17.4v53.29H60.061V146.09h3.373c.031-.642.057-1.2.084-1.756q9.207,0,18.414.006a8.08,8.08,0,0,1,1.147.163,37.039,37.039,0,0,1-15.269,1.237c-1.838-.222-2.584.369-2.585,2.178q0,10.9,0,21.8c0,1.488.739,2.3,2.076,2.094,4.646-.722,9.378-1.156,13.9-2.349,14.25-3.757,25.07-12.113,32.586-24.638.109-.182.239-.352.359-.528l5.056.032M84.391,194.181c0-5.62,0-11.134,0-16.648,0-1.675-.581-2.239-2.3-2.241q-4.683-.006-9.365,0c-1.705,0-2.275.567-2.277,2.257q0,7.739,0,15.478v1.225h-6.9v3.33h69.558v-3.428h-6.9v-1.266q0-18.649,0-37.3c0-2.246-.426-2.659-2.746-2.659q-4.356,0-8.712,0c-1.989,0-2.482.494-2.482,2.486q0,18.81,0,37.621v1.1H105.3V192.9q0-11.931,0-23.862c0-1.815-.545-2.342-2.411-2.343q-4.574,0-9.147,0c-1.848,0-2.38.531-2.38,2.371q0,11.985,0,23.97v1.149Z" transform="translate(-46.237 -106.471)" fill="#cbecfe"/><path d="M89.908,83.5V66.772c2.36,0,4.691.2,6.978-.032,15.11-1.525,26.222-9.073,33.373-22.453a37.306,37.306,0,0,0,1.76-4.023,1.715,1.715,0,0,0-1.709-2.547c-1.106-.026-2.212-.005-3.115-.005l9.186-9.2,7.711,7.464c-2.365.005-4.729.032-7.093,0-.7-.009-.929.221-.928.923a11.224,11.224,0,0,1-.239,2.654c-.888,3.626-1.642,7.3-2.825,10.834a48.122,48.122,0,0,1-10.964,17.588,51.4,51.4,0,0,1-11.265,8.816,3.924,3.924,0,0,1-1.13.272L107.887,74.1a29.357,29.357,0,0,1-12.9,4.761V75.6H91.6c0,1.79-.042,3.532.017,5.272a1.618,1.618,0,0,0,1.734,1.545c.712,0,1.424-.087,2.135-.136a5.271,5.271,0,0,1-1.194.542c-1.456.264-2.924.459-4.387.679m1.719-11.464h3.331V68.744H91.627Z" transform="translate(-67.057 -23.929)" fill="#fd8d31"/><path d="M65.709,131.944a7.831,7.831,0,0,0-1.131-.163q-9.087-.015-18.174-.006v-1.706c-1.85,0-3.631-.056-5.406.024a1.566,1.566,0,0,0-1.494,1.564,9.835,9.835,0,0,0-.014,1.074q0,26.383,0,52.767v1.244H36.118V126.684H76.733a35.871,35.871,0,0,1-11.024,5.26" transform="translate(-29.169 -93.911)" fill="#bce7fe"/><path d="M250.956,131.707l-4.99-.032,2.508-5.086h26.548v60.1h-3.394v-1.174q0-26.485,0-52.97c0-2.111-.457-2.562-2.59-2.563h-18c-.029.607-.055,1.164-.081,1.721" transform="translate(-177.761 -93.844)" fill="#bce7fe"/><path d="M89.908,102.031c1.464-.221,2.932-.415,4.387-.679a5.278,5.278,0,0,0,1.194-.542,32.748,32.748,0,0,0,14.159-5.215,3.916,3.916,0,0,0,1.13-.272,51.394,51.394,0,0,0,11.265-8.816,48.125,48.125,0,0,0,10.964-17.587c1.183-3.531,1.936-7.208,2.825-10.834a11.226,11.226,0,0,0,.239-2.654c0-.7.224-.932.928-.923,2.364.03,4.729,0,7.093,0l1.854,1.735h-5.338c-2.269,0-2.6.385-2.817,2.651a49.532,49.532,0,0,1-43.613,44.678c-1.383.169-2.762.375-4.271.582Z" transform="translate(-67.039 -42.459)" fill="#f37d1b"/><path d="M24.029,349.51v-1.231h97.232v1.232a10.9,10.9,0,0,1-2.092.408q-46.525.031-93.049,0a10.874,10.874,0,0,1-2.091-.41" transform="translate(-20.551 -251.878)" fill="#2198e9"/><path d="M24.027,352.567a10.876,10.876,0,0,0,2.091.41q46.525.031,93.049,0a10.911,10.911,0,0,0,2.091-.409c.021,1.578-.562,2.145-2.24,2.145q-18.551,0-37.1,0H26.374c-1.785,0-2.37-.54-2.346-2.147" transform="translate(-20.549 -254.935)" fill="#148bdd"/><path d="M92.921,215.606H99.9v-1.149q0-11.985,0-23.97c0-1.84.533-2.369,2.383-2.371q4.58,0,9.16,0c1.868,0,2.413.528,2.414,2.344q0,11.931,0,23.862v1.243h6.979v-1.1q0-18.81,0-37.62c0-1.992.493-2.485,2.485-2.486h8.723c2.323,0,2.749.413,2.749,2.659q0,18.648,0,37.3v1.266H141.7v3.427H72.053v-3.329h6.91v-1.226q0-7.739,0-15.478c0-1.69.572-2.255,2.28-2.257q4.688-.006,9.377,0c1.716,0,2.3.566,2.3,2.241,0,5.514,0,11.028,0,16.648m-10.437-3.845v3.8h6.875V200.191H82.484Zm20.937,0v3.794H110.3V191.592h-6.876Zm20.938,0v3.791h6.877V177.832h-6.908c0,1.9,0,3.685,0,5.472q.014,14.228.031,28.457" transform="translate(-54.785 -127.895)"/><path d="M113.82,190.251a32.743,32.743,0,0,1-14.159,5.215c-.712.049-1.424.14-2.135.136a1.618,1.618,0,0,1-1.734-1.545c-.059-1.739-.017-3.482-.017-5.272h3.38v3.266a29.356,29.356,0,0,0,12.9-4.761l1.761,2.961" transform="translate(-71.403 -137.115)" fill="#030201"/><rect width="3.331" height="3.294" transform="translate(24.355 44.815)"/><path d="M255,186.46h3.376v37.721H251.6v-3.791A4.925,4.925,0,0,0,255,215.738q.006-14.639,0-29.278" transform="translate(-182.062 -136.523)" fill="#dd3a3a"/><path d="M254.922,186.46q0,14.639,0,29.278a4.926,4.926,0,0,1-3.406,4.651q-.016-14.229-.03-28.458c0-1.786,0-3.573,0-5.471Z" transform="translate(-182.008 -136.523)" fill="#fe5252"/><path d="M183.13,234.38h3.375v23.964h-6.777V254.55a4.925,4.925,0,0,0,3.405-4.642q.01-7.763,0-15.528" transform="translate(-131.043 -170.684)" fill="#dd3a3a"/><path d="M111.26,264.33h3.374V279.7h-6.776v-3.8c1.427-.129,3.433-2.475,3.413-4.52-.023-2.35-.009-4.7-.011-7.05" transform="translate(-80.024 -192.034)" fill="#dd3a3a"/><path d="M183.13,234.38q0,7.764,0,15.528a4.925,4.925,0,0,1-3.405,4.642V234.38Z" transform="translate(-131.06 -170.684)" fill="#fe5252"/><path d="M111.26,264.33c0,2.35-.012,4.7.011,7.05.02,2.044-1.986,4.391-3.413,4.52V264.33Z" transform="translate(-80.033 -192.034)" fill="#fe5252"/></g></g></g></svg>