<svg xmlns="http://www.w3.org/2000/svg" width="130" height="130" viewBox="0 0 130 130"><g transform="translate(-297.114 -6423)"><rect width="130" height="130" transform="translate(297.114 6423)" fill="none"/><g transform="translate(309.523 6435.522)"><g transform="translate(0 0)"><path d="M107,68.08q-4.128,0-8.257,0c-1.69,0-2.256-.531-2.222-2.2.17-8.257-2.259-15.672-7.954-21.784-8.671-9.306-19.5-12.682-31.9-9.434C44.224,37.923,36.6,46.181,33.779,58.523a46.152,46.152,0,0,0-.662,7.4c-.1,1.553-.625,2.158-2.2,2.16q-8.421.008-16.843,0c-1.449,0-2.092-.629-2.107-2.022C11.79,50.514,17.347,37.3,28.9,26.646A51.03,51.03,0,0,1,58.368,13.2c21.723-2.464,41.734,7.5,52.558,26.144a50.253,50.253,0,0,1,6.721,26.88c-.028,1.226-.721,1.842-2.063,1.848-2.862.012-5.725,0-8.587,0M29.564,64.586A34.271,34.271,0,0,1,38.551,41.66l-10-9.807A47.926,47.926,0,0,0,15.469,64.586Zm70.514-.048h14.069a48.01,48.01,0,0,0-12.992-32.585L91.149,41.734a34.372,34.372,0,0,1,8.929,22.8M88.289,38.886l9.959-9.84A49.659,49.659,0,0,0,66.621,16.24V30.148a35.812,35.812,0,0,1,11.546,2.521,35.082,35.082,0,0,1,10.122,6.217M62.974,30.047V16.23A49.76,49.76,0,0,0,31.359,29.108l9.979,9.8a35.7,35.7,0,0,1,21.636-8.864" transform="translate(-11.961 -12.834)" fill="#020203"/><path d="M126.294,151.962V155.4c.523,0,1.064-.015,1.6,0,1.2.04,1.925.663,1.93,1.787.02,4.715.071,9.431-.027,14.144a5.365,5.365,0,0,1-10.682-.121c-.066-4.642-.032-9.286-.017-13.929a1.751,1.751,0,0,1,1.946-1.882c.512-.017,1.025,0,1.582,0v-3.422c-8.667-.756-15.771-4.317-21.04-11.015a26.045,26.045,0,0,1-5.678-18.816c1.233-14.784,14.185-25.91,29.508-25.426,15.063.476,27.228,12.264,27.693,26.618.476,14.666-10.891,27.462-26.82,28.625m1.736-3.743a24.251,24.251,0,0,0,12.792-5.548l-2.307-2.388.693-.929,2.079-1.751,2.133,2.57a23.956,23.956,0,0,0,6.112-14.156h-3.518v-3.472h3.524a24.064,24.064,0,0,0-6.323-14.248l-2.176,2.559-1.345-1.041-1.274-1.487,2.359-2.335a20.87,20.87,0,0,0-6.452-3.876c-1.886-.677-3.89-1.047-5.841-1.554l-2.253-.4v3.343h-3.574v-3.3a25.537,25.537,0,0,0-14.725,5.957l2.566,2.109-2.577,2.649-2.279-2.549A23.714,23.714,0,0,0,99.5,122.606h3.4V126.1H99.5a23.888,23.888,0,0,0,6.24,14.237l2.29-2.585,2.623,2.644-2.573,2.245a25.577,25.577,0,0,0,14.632,5.848V145.1h3.581v3.423l1.735-.3m-1.788,10.693h-3.552c0,4.1-.03,8.151.023,12.2a1.6,1.6,0,0,0,1.69,1.552,1.655,1.655,0,0,0,1.82-1.536c.045-4.049.019-8.1.019-12.214" transform="translate(-71.619 -70.508)" fill="#030303"/><path d="M46.539,269.464A17.281,17.281,0,1,1,29.4,252.238a17.3,17.3,0,0,1,17.141,17.226m-16.445-13.68c-.393-.027-.787-.082-1.18-.078a13.839,13.839,0,0,0-13.157,16.746c1.551,6.749,7.89,11.524,14.339,10.8a1.452,1.452,0,0,0,.316.042,13.851,13.851,0,0,0,12-18.017c-1.729-5.413-7.124-9.572-12.319-9.5" transform="translate(-11.973 -181.169)" fill="#030303"/><path d="M286.139,269.453a17.281,17.281,0,1,1-17.151-17.215,17.3,17.3,0,0,1,17.151,17.215m-16.445-13.669c-.393-.027-.787-.082-1.18-.078a13.839,13.839,0,0,0-13.158,16.746c1.552,6.749,7.89,11.524,14.339,10.8a1.452,1.452,0,0,0,.316.042,13.851,13.851,0,0,0,12-18.017c-1.729-5.413-7.124-9.572-12.319-9.5" transform="translate(-180.448 -181.17)" fill="#030303"/><path d="M37.721,111.493H23.893A48.425,48.425,0,0,1,36.723,78.76l9.815,9.806a34.72,34.72,0,0,0-6.466,10.546,35.2,35.2,0,0,0-2.351,12.38" transform="translate(-20.45 -59.204)" fill="#84b8e2"/><path d="M290.009,111.688a34.739,34.739,0,0,0-8.76-22.8l9.817-9.781a48.511,48.511,0,0,1,12.746,32.585Z" transform="translate(-201.559 -59.446)" fill="#1f577e"/><path d="M219.1,47.284a34.431,34.431,0,0,0-21.258-8.738V24.637a48.236,48.236,0,0,1,31.029,12.807l-9.771,9.84" transform="translate(-142.737 -21.232)" fill="#356aa9"/><path d="M108.943,38.421a34.673,34.673,0,0,0-21.226,8.864l-9.791-9.8A48.335,48.335,0,0,1,108.943,24.6Z" transform="translate(-58.371 -21.208)" fill="#498bdb"/><path d="M146.475,147.888l-.669.929a2.887,2.887,0,0,0-.667.46,24.933,24.933,0,0,1-6.507,5.657c-.987.6-1.964,1.212-2.945,1.819l-1.674.3v-3.423h-3.455v3.391a24.219,24.219,0,0,1-14.121-5.848l2.483-2.245-2.531-2.644-2.21,2.584a24.316,24.316,0,0,1-6.023-14.237h3.277V131.14h-3.281a24.147,24.147,0,0,1,5.93-14.233l2.2,2.549,2.487-2.649-2.476-2.109a24.185,24.185,0,0,1,14.211-5.957v3.3h3.45V108.7l2.175.4a3.336,3.336,0,0,0,.675.6,26.1,26.1,0,0,1,7.737,5.939c.383.415.783.815,1.175,1.223l1.23,1.487a6.381,6.381,0,0,0,.427,1.171,25.782,25.782,0,0,1-.159,26.852,16.381,16.381,0,0,0-.737,1.518m-15.956-27.124c0,1.985.008,3.885,0,5.784-.01,1.865.458,3.933-.2,5.536-.642,1.567-2.437,2.664-3.732,3.961-1.39,1.391-2.788,2.776-4.063,4.045l2.452,2.48c2.786-2.787,5.649-5.613,8.45-8.5a2.5,2.5,0,0,0,.528-1.564c.057-2.228.024-4.458.024-6.687v-5.056Z" transform="translate(-79.487 -80.041)" fill="#f3f3f1"/><path d="M240.989,167.942a16.376,16.376,0,0,1,.737-1.518,25.781,25.781,0,0,0,.158-26.852,6.444,6.444,0,0,1-.426-1.171l1.3,1.041,2.1-2.559a24.485,24.485,0,0,1,6.1,14.248h-3.4V154.6h3.4a24.393,24.393,0,0,1-5.9,14.156L243,166.191l-2.007,1.751" transform="translate(-173.504 -100.098)" fill="#b5b4b5"/><path d="M189.136,312.329c0,4.116.025,8.165-.018,12.214a1.616,1.616,0,0,1-1.757,1.536,1.566,1.566,0,0,1-1.631-1.552c-.051-4.047-.022-8.1-.022-12.2Z" transform="translate(-134.576 -223.924)" fill="#e14021"/><path d="M203.592,255.693c.981-.607,1.959-1.221,2.945-1.819a24.938,24.938,0,0,0,6.507-5.657,2.874,2.874,0,0,1,.667-.46l2.226,2.388a23.01,23.01,0,0,1-12.346,5.548" transform="translate(-147.096 -178.565)" fill="#b4b3b4"/><path d="M214.707,117.842c-.392-.407-.792-.808-1.176-1.223a26.089,26.089,0,0,0-7.737-5.939,3.313,3.313,0,0,1-.675-.6c1.883.507,3.817.877,5.637,1.554a20.013,20.013,0,0,1,6.227,3.875l-2.277,2.335" transform="translate(-148.179 -81.438)" fill="#b5b4b5"/><path d="M38.586,291.807c-6.449.722-12.788-4.053-14.34-10.8A13.839,13.839,0,0,1,37.4,264.259c.393,0,.786.051,1.18.078.238.238.464.49.717.712a32.764,32.764,0,0,1,3.182,2.822,17.1,17.1,0,0,1,1.721,2.945l-1.039-.509-7.541,12.028-3.547-3.716-2.447,2.455q2.383,2.371,4.744,4.72c1.376,1.367,2.4,1.246,3.443-.412q3.816-6.06,7.626-12.122a22.218,22.218,0,0,1,.89,4.235,15.318,15.318,0,0,1-6.94,13.533,6.877,6.877,0,0,0-.807.78" transform="translate(-20.462 -189.722)" fill="#f1f1ef"/><path d="M74.775,292a6.872,6.872,0,0,1,.807-.78,15.318,15.318,0,0,0,6.94-13.533,22.22,22.22,0,0,0-.89-4.235l.6-1.134-1.487-1.164-.357-.223,0,.078a17.085,17.085,0,0,0-1.721-2.946,32.752,32.752,0,0,0-3.182-2.822c-.253-.222-.479-.474-.717-.712,5.195-.076,10.59,4.082,12.319,9.5a13.851,13.851,0,0,1-12,18.017,1.432,1.432,0,0,1-.316-.042" transform="translate(-56.252 -189.913)" fill="#b5b4b5"/><path d="M278.186,291.807c-6.449.722-12.788-4.053-14.339-10.8A13.839,13.839,0,0,1,277,264.259c.393,0,.786.051,1.18.078.238.238.465.49.717.712a32.691,32.691,0,0,1,3.182,2.822,17.083,17.083,0,0,1,1.721,2.945l-1.039-.509-7.541,12.028-3.547-3.716-2.442,2.45q2.38,2.373,4.739,4.724c1.375,1.368,2.4,1.247,3.444-.412q3.815-6.059,7.626-12.122a22.216,22.216,0,0,1,.89,4.235,15.318,15.318,0,0,1-6.94,13.534,6.849,6.849,0,0,0-.808.779" transform="translate(-188.937 -189.722)" fill="#f1f1ef"/><path d="M319.994,271.008a17.083,17.083,0,0,0-1.721-2.946,32.75,32.75,0,0,0-3.182-2.823c-.253-.221-.479-.473-.717-.711,5.2-.076,10.59,4.082,12.319,9.5a13.851,13.851,0,0,1-12,18.017,1.453,1.453,0,0,1-.316-.042,6.872,6.872,0,0,1,.808-.78,15.317,15.317,0,0,0,6.939-13.533,22.235,22.235,0,0,0-.89-4.235l.6-1.134-1.486-1.164-.357-.223Z" transform="translate(-225.127 -189.914)" fill="#b5b4b5"/><path d="M165.959,150.52h3.458v5.056c0,2.229.033,4.459-.024,6.687a2.5,2.5,0,0,1-.528,1.564c-2.8,2.886-5.664,5.712-8.45,8.5l-2.452-2.48c1.275-1.269,2.673-2.653,4.063-4.044,1.3-1.3,3.09-2.394,3.732-3.961.657-1.6.19-3.671.2-5.536.011-1.9,0-3.8,0-5.784" transform="translate(-114.927 -109.826)" fill="#020202"/><path d="M58.664,285.879l1.487,1.164-.6,1.134q-3.813,6.062-7.626,12.123c-1.044,1.659-2.068,1.779-3.444.412q-2.368-2.353-4.744-4.72l2.447-2.455,3.547,3.716,7.541-12.028,1.039.509,0-.078.357.223" transform="translate(-34.568 -204.64)" fill="#050505"/><path d="M94.6,286.941l-.357-.223.357.223" transform="translate(-70.046 -206.174)" fill="#f1f1ef"/><path d="M298.276,285.879l1.487,1.164-.6,1.134q-3.813,6.062-7.626,12.122c-1.044,1.659-2.068,1.781-3.443.412q-2.367-2.355-4.74-4.724l2.442-2.449,3.547,3.716,7.541-12.028,1.039.508,0-.078.358.223" transform="translate(-203.055 -204.641)" fill="#050505"/><path d="M334.2,286.941l-.357-.223.357.223" transform="translate(-238.98 -206.174)" fill="#f1f1ef"/></g></g></g></svg>