<svg id="Grupo_927926" data-name="Grupo 927926" xmlns="http://www.w3.org/2000/svg" xmlns:xlink="http://www.w3.org/1999/xlink" width="369.058" height="344.139" viewBox="0 0 369.058 344.139">
  <defs>
    <clipPath id="clip-path">
      <rect id="Rect치ngulo_339273" data-name="Rect치ngulo 339273" width="369.058" height="344.139" fill="none"/>
    </clipPath>
  </defs>
  <g id="Grupo_927925" data-name="Grupo 927925" clip-path="url(#clip-path)">
    <path id="Trazado_641354" data-name="Trazado 641354" d="M90.677,323.988c-.617.319-1.214.841-1.887.761a.908.908,0,0,1-.508-1.606c-1.519-.832-3.345-.352-3.585-1.3-.561-2.221,1.317-2.5,2.109-2.664a2.893,2.893,0,0,0-2.652.042c-.975.752-1.913,1.676-2.913,2.384a4.411,4.411,0,0,0-2.007,3.148,7.739,7.739,0,0,1-1.283-5.2c-1.084,1.3-.575,2.618-.782,3.821-.147.855-.192,1.6-.846,2.039a1.5,1.5,0,0,1-2.091-.755A2.955,2.955,0,0,1,74.393,322c-1.811.8-1.626,2.156-2.657,2.94a1.565,1.565,0,0,1-1.5.429c-1.028-.448-1.31-2.128-.712-3.4a9.109,9.109,0,0,0-3.107,3.392,19.727,19.727,0,0,1-1.032-6.115,10.62,10.62,0,0,0-1.419,6.67c-.214-.295-.461-.61-.792-.654a.519.519,0,0,0-.5.711,23.15,23.15,0,0,1-4.112-5.359,12.784,12.784,0,0,0,.593,6.526l-2.472-1.373a4.035,4.035,0,0,0,1.258,2.794,14.637,14.637,0,0,0-5.019-1.748A26.922,26.922,0,0,1,59.7,334.4l29.342-1.762c1.335-3.043,1.525-8.291,4.68-8.679a3.383,3.383,0,0,0-3.046.029" fill="#c1ac30"/>
    <path id="Trazado_641355" data-name="Trazado 641355" d="M106.463,298.146s-16.61-.708-33.629,18.651l2.038,6.065c1.653-10.551,17.75-22.709,31.9-23.772Z" fill="#824125"/>
    <path id="Trazado_641356" data-name="Trazado 641356" d="M44.562,289.2s5.1,18.576,26.445,31.012l4.173-4.242c-9.033,1.64-24.285-12.143-29.965-27.42Z" fill="#824125"/>
    <path id="Trazado_641357" data-name="Trazado 641357" d="M76.086,297.2h-1.24a108.1,108.1,0,0,0-3.207,21.012h2.653A74.259,74.259,0,0,1,76.086,297.2" fill="#824125"/>
    <path id="Trazado_641358" data-name="Trazado 641358" d="M83.205,309.071a70.643,70.643,0,0,0,29.023-7.143l.452.375s-11.5,8.4-31.677,8.551Z" fill="#824125"/>
    <path id="Trazado_641359" data-name="Trazado 641359" d="M36.81,300.748a38.286,38.286,0,0,0,20.4,7.143l1.548,1.782a32.961,32.961,0,0,1-22.271-8.55Z" fill="#824125"/>
    <path id="Trazado_641360" data-name="Trazado 641360" d="M65.055,290.979c.588,7.871,4.264,15.847,7.871,20.028l-.249,2.456C64.119,303.812,64.53,290.9,64.53,290.9Z" fill="#824125"/>
    <path id="Trazado_641361" data-name="Trazado 641361" d="M27.209,306.291c9.022-1.18,68.834-7.878,86.739-.708,13.328-21.485,27.887-51.468,19.07-70.592s-51.949-35.459-61.791-35.223-59.9,19.873-62.883,43.723c-1.509,12.078,11.893,52.176,18.865,62.8" fill="#d1c042"/>
    <path id="Trazado_641362" data-name="Trazado 641362" d="M77.961,315.027l-1.538-1.3-3.735,2.765-6.123-2.127.056,3.165a23.564,23.564,0,0,1,6.43,18.269l2.585.16c-3.6-13.591,2.325-20.934,2.325-20.934" fill="#9e5632"/>
    <path id="Trazado_641363" data-name="Trazado 641363" d="M107.8,334.229c0-2.26-16.7-6.632-34.176-7.24S44.5,329.765,44.5,332.025s14.169,4.586,31.647,5.194,31.647-.73,31.647-2.99" fill="#c1ac30"/>
    <path id="Trazado_641364" data-name="Trazado 641364" d="M30.087,339.423h87.641s1.437-4.258.656-5.286-84.424-5.26-87.518-5.726c-1.949-.294-.779,11.012-.779,11.012" fill="#f2e6c9"/>
    <path id="Trazado_641365" data-name="Trazado 641365" d="M56.328,337.033a10.746,10.746,0,0,1,2.785-6.91c-14.924-.851-27.1-1.539-28.246-1.712-1.95-.293-.78,11.012-.78,11.012H56.659a9.163,9.163,0,0,1-.331-2.39" fill="#e8d9b5"/>
    <path id="Trazado_641366" data-name="Trazado 641366" d="M107.4,301.895c-43.169,0-78.164-24.8-78.164-55.395,0-17.874,11.957-33.76,30.5-43.889-18.2,6.29-49.068,22.305-51.389,40.88-1.508,12.078,11.894,52.176,18.865,62.8,9.023-1.181,68.835-7.878,86.739-.708q1.233-1.988,2.473-4.067c-2.962.242-5.969.379-9.022.379" fill="#c1ac30"/>
    <path id="Trazado_641367" data-name="Trazado 641367" d="M112.536,315.135c-.044-.208-.088-.417-.131-.625a.562.562,0,0,1,.131.625" fill="#c1ac30"/>
    <path id="Trazado_641368" data-name="Trazado 641368" d="M110.954,308.576a12,12,0,0,1,.746,2.578q.353,1.677.7,3.355a1.482,1.482,0,0,0-.524-.38l-4.479-1.912a2.907,2.907,0,0,1-1.266-.84,3.71,3.71,0,0,1-.557-1.686,27.464,27.464,0,0,1-.3-3.911l.93.194a4.312,4.312,0,0,1,4.747,2.6" fill="#c1ac30"/>
    <path id="Trazado_641369" data-name="Trazado 641369" d="M58.423,273.158l-.435.4c.077-.24.215-.419.435-.4" fill="#c1ac30"/>
    <path id="Trazado_641370" data-name="Trazado 641370" d="M53.945,277.6a10.133,10.133,0,0,1,1.707-1.875l2.336-2.165a1.957,1.957,0,0,0-.075.708q.2,2.736.406,5.472a3.908,3.908,0,0,1-.121,1.674,3.228,3.228,0,0,1-1.087,1.3,20.534,20.534,0,0,1-2.944,1.982l-.244-1.05a5.785,5.785,0,0,1,.022-6.045" fill="#c1ac30"/>
    <path id="Trazado_641371" data-name="Trazado 641371" d="M.057,227.638c.035.211.071.421.106.632a.569.569,0,0,1-.106-.632" fill="#c1ac30"/>
    <path id="Trazado_641372" data-name="Trazado 641372" d="M1.369,234.275a12.134,12.134,0,0,1-.64-2.615q-.283-1.7-.567-3.39a1.519,1.519,0,0,0,.509.408l4.4,2.153a2.957,2.957,0,0,1,1.23.907,3.747,3.747,0,0,1,.487,1.715,27.6,27.6,0,0,1,.142,3.922L6,237.131a4.375,4.375,0,0,1-4.635-2.856" fill="#c1ac30"/>
    <path id="Trazado_641373" data-name="Trazado 641373" d="M84.114,194.939l-.554,0a.392.392,0,0,1,.554,0" fill="#d1c042"/>
    <path id="Trazado_641374" data-name="Trazado 641374" d="M78.259,195.137a7.909,7.909,0,0,1,2.329-.217l2.972.016a1.6,1.6,0,0,0-.436.5l-2.6,4.588a3.2,3.2,0,0,1-.987,1.224,2.512,2.512,0,0,1-1.538.22,17.984,17.984,0,0,1-3.348-.6l.369-1a4.994,4.994,0,0,1,3.239-4.723" fill="#d1c042"/>
    <path id="Trazado_641375" data-name="Trazado 641375" d="M68.547,188.768c-.043.207-.086.413-.13.62a.55.55,0,0,1,.13-.62" fill="#d1c042"/>
    <path id="Trazado_641376" data-name="Trazado 641376" d="M67.37,195.373a11.887,11.887,0,0,1,.351-2.659l.7-3.326a1.726,1.726,0,0,0,.323.6q1.64,1.98,3.281,3.959a3.406,3.406,0,0,1,.809,1.384,3.747,3.747,0,0,1-.167,1.774,25.725,25.725,0,0,1-1.281,3.613l-.762-.642a4.977,4.977,0,0,1-3.25-4.706" fill="#d1c042"/>
    <path id="Trazado_641377" data-name="Trazado 641377" d="M21.5,228.4l-.189.6a.539.539,0,0,1,.189-.6" fill="#d1c042"/>
    <path id="Trazado_641378" data-name="Trazado 641378" d="M19.692,234.816a11.756,11.756,0,0,1,.606-2.6L21.312,229a1.811,1.811,0,0,0,.262.641L24.452,234a3.537,3.537,0,0,1,.669,1.48,3.705,3.705,0,0,1-.338,1.742,24.9,24.9,0,0,1-1.622,3.429l-.7-.738a5.17,5.17,0,0,1-2.773-5.1" fill="#d1c042"/>
    <path id="Trazado_641379" data-name="Trazado 641379" d="M49.328,196.629l-.531.183c.147-.189.331-.295.531-.183" fill="#c1ac30"/>
    <path id="Trazado_641380" data-name="Trazado 641380" d="M43.771,198.783a8.437,8.437,0,0,1,2.175-.989l2.851-.982a1.777,1.777,0,0,0-.291.624q-.663,2.629-1.327,5.259a3.576,3.576,0,0,1-.635,1.5,2.693,2.693,0,0,1-1.417.727,18.151,18.151,0,0,1-3.36.545l.1-1.083a5.449,5.449,0,0,1,1.9-5.6" fill="#c1ac30"/>
    <path id="Trazado_641381" data-name="Trazado 641381" d="M73.745,282.7l-.417.4a.442.442,0,0,0,.417-.4" fill="#c1ac30"/>
    <path id="Trazado_641382" data-name="Trazado 641382" d="M69.212,286.717a8.884,8.884,0,0,0,1.881-1.5l2.235-2.129a1.308,1.308,0,0,1-.611-.062l-4.556-1.571a2.626,2.626,0,0,0-1.436-.211,2.76,2.76,0,0,0-1.286.932,21.762,21.762,0,0,0-2.187,2.836l.846.485a4.117,4.117,0,0,0,5.114,1.217" fill="#c1ac30"/>
    <path id="Trazado_641383" data-name="Trazado 641383" d="M135.377,219.3l-.378.445a.459.459,0,0,0,.378-.445" fill="#d1c042"/>
    <path id="Trazado_641384" data-name="Trazado 641384" d="M131.238,223.85a9.326,9.326,0,0,0,1.734-1.717L135,219.745a1.315,1.315,0,0,1-.614.012l-4.674-1.009a2.6,2.6,0,0,0-1.448-.035,2.885,2.885,0,0,0-1.193,1.082,22.732,22.732,0,0,0-1.914,3.086l.885.38a4.066,4.066,0,0,0,5.2.589" fill="#d1c042"/>
    <path id="Trazado_641385" data-name="Trazado 641385" d="M127.28,299.972l-.378.445a.459.459,0,0,0,.378-.445" fill="#d1c042"/>
    <path id="Trazado_641386" data-name="Trazado 641386" d="M123.141,304.523a9.326,9.326,0,0,0,1.734-1.717l2.027-2.389a1.288,1.288,0,0,1-.614.012l-4.674-1.008a2.6,2.6,0,0,0-1.448-.035,2.885,2.885,0,0,0-1.193,1.082,22.734,22.734,0,0,0-1.914,3.086l.885.38a4.066,4.066,0,0,0,5.2.589" fill="#d1c042"/>
    <path id="Trazado_641387" data-name="Trazado 641387" d="M126.852,209.067c.007.207.015.415.022.622a.54.54,0,0,0-.022-.622" fill="#d1c042"/>
    <path id="Trazado_641388" data-name="Trazado 641388" d="M126.89,215.656a11.66,11.66,0,0,0,.1-2.63q-.06-1.668-.119-3.337a1.672,1.672,0,0,1-.413.523q-1.923,1.611-3.844,3.224a3.258,3.258,0,0,0-1.015,1.188,3.66,3.66,0,0,0-.135,1.743,25.5,25.5,0,0,0,.638,3.72l.847-.481a4.79,4.79,0,0,0,3.937-3.95" fill="#d1c042"/>
    <path id="Trazado_641389" data-name="Trazado 641389" d="M27.5,314.82q.1-.288.2-.576a.515.515,0,0,0-.2.576" fill="#c1ac30"/>
    <path id="Trazado_641390" data-name="Trazado 641390" d="M29.828,308.818a10.736,10.736,0,0,0-1.037,2.339L27.7,314.244a1.413,1.413,0,0,1,.564-.278l4.656-1.1a2.772,2.772,0,0,0,1.351-.6,3.329,3.329,0,0,0,.747-1.518,25.2,25.2,0,0,0,.753-3.683l-.944.034a4.179,4.179,0,0,0-5,1.71" fill="#c1ac30"/>
    <path id="Trazado_641391" data-name="Trazado 641391" d="M36.156,237.932a6.672,6.672,0,0,1,2.341-3.953,8.723,8.723,0,0,1,1.866-.952l5.242-2.168a6.471,6.471,0,0,0-2.786,3.175,20.273,20.273,0,0,0-1.223,4.108c-.146.671-.344,1.422-.821,1.6a1.1,1.1,0,0,1-.653-.03,19.825,19.825,0,0,1-4.35-1.647Z" fill="#c1ac30"/>
    <path id="Trazado_641392" data-name="Trazado 641392" d="M17.7,294.133a5.03,5.03,0,0,1-4.143-.323,9.472,9.472,0,0,1-1.658-1.371l-4.277-4.106a5.374,5.374,0,0,0,3.787,1.159,14.05,14.05,0,0,0,3.691-.865c.576-.2,1.237-.378,1.611,0a1.524,1.524,0,0,1,.309.663,28.246,28.246,0,0,1,.973,5.151Z" fill="#c1ac30"/>
    <path id="Trazado_641393" data-name="Trazado 641393" d="M22.642,302.81a5.392,5.392,0,0,1-3.8,1.928,8.128,8.128,0,0,1-2.021-.329l-5.443-1.356a5.328,5.328,0,0,0,3.823-1,16.558,16.558,0,0,0,2.926-2.741c.432-.48.945-1,1.431-.858a1.269,1.269,0,0,1,.54.424,24.593,24.593,0,0,1,2.934,4.049Z" fill="#c1ac30"/>
    <path id="Trazado_641394" data-name="Trazado 641394" d="M288.418,19.229,211.5,4.964c-2.3-.426-4.521.763-4.521,2.423V8.444c0,1.2,1.183,2.248,2.849,2.534l76.917,13.208c2.283.392,4.454-.794,4.454-2.434,0-1.178-1.148-2.22-2.782-2.523" fill="#dbcfad"/>
    <rect id="Rect치ngulo_339272" data-name="Rect치ngulo 339272" width="3.424" height="268.15" transform="translate(298.431 22.811)" fill="#605355"/>
    <path id="Trazado_641395" data-name="Trazado 641395" d="M304.358,23.638h-5.926v10.6h3.423Z" fill="#4c3f42"/>
    <path id="Trazado_641396" data-name="Trazado 641396" d="M305.449,220.619l-7.018-12.079v47.409h7.018Z" fill="#605355"/>
    <path id="Trazado_641397" data-name="Trazado 641397" d="M306.348,246.128l-12.41-18.439V335.5h12.41Z" fill="#6d5f61"/>
    <path id="Trazado_641398" data-name="Trazado 641398" d="M300.143,20.889,216.976.437c-7.027-1.728-14.4,1.888-14.4,7.06l97.571,17.67Z" fill="#605355"/>
    <path id="Trazado_641399" data-name="Trazado 641399" d="M294.993,23.526c.1,2.009,2.73,3.638,5.873,3.638s5.611-1.628,5.511-3.638-2.729-3.638-5.873-3.638-5.611,1.629-5.511,3.638" fill="#605355"/>
    <path id="Trazado_641400" data-name="Trazado 641400" d="M298.112,23.49c.048.926,1.237,1.677,2.655,1.677s2.529-.751,2.48-1.677-1.236-1.677-2.654-1.677-2.529.751-2.481,1.677" fill="#b7a1a6"/>
    <path id="Trazado_641401" data-name="Trazado 641401" d="M227.691,10.481c24.82,5.108,47.619,7.879,62.731,8.017L216.977.437c-5.72-1.407-11.67.727-13.686,4.359,7.571,1.986,15.767,3.908,24.4,5.685" fill="#6d5f61"/>
    <path id="Trazado_641402" data-name="Trazado 641402" d="M293.938,231.043V335.5h5.632Z" fill="#827476"/>
    <path id="Trazado_641403" data-name="Trazado 641403" d="M301.9,209.671h-3.47v6.587l5.421,1.561Z" fill="#827476"/>
    <path id="Trazado_641404" data-name="Trazado 641404" d="M254.466,343.961a30.7,30.7,0,0,0,4.887-16.817c.064-14.521-9.177-26.327-20.638-26.369s-20.8,11.7-20.866,26.216a30.667,30.667,0,0,0,4.741,16.853Z" fill="#aaa341"/>
    <path id="Trazado_641405" data-name="Trazado 641405" d="M302.623,344.139a53.04,53.04,0,0,0,7.939-28.3c.106-24.432-14.891-44.293-33.5-44.362s-33.775,19.682-33.881,44.114a52.984,52.984,0,0,0,7.692,28.354Z" fill="#bdbb48"/>
    <path id="Trazado_641406" data-name="Trazado 641406" d="M278,315.394a54.45,54.45,0,0,1-26.2-29.049,55.006,55.006,0,0,0-.917,57.6l51.747.19a52.577,52.577,0,0,0,7.856-26.145c-9.362,3.7-21.046,3.144-32.483-2.6" fill="#aaa341"/>
    <path id="Trazado_641407" data-name="Trazado 641407" d="M167.009,343.964a27.553,27.553,0,0,1-5.615-16.715c-.063-14.436,10.582-26.178,23.777-26.226s23.942,11.614,24,26.05a27.521,27.521,0,0,1-5.47,16.756Z" fill="#aaa341"/>
    <path id="Trazado_641408" data-name="Trazado 641408" d="M119.958,344.139a52.69,52.69,0,0,1-7.9-28.13c-.106-24.289,14.815-44.034,33.326-44.1s33.6,19.566,33.709,43.854a52.656,52.656,0,0,1-7.653,28.188Z" fill="#cdc84d"/>
    <path id="Trazado_641409" data-name="Trazado 641409" d="M144.46,315.563a54.139,54.139,0,0,0,26.069-28.879,54.642,54.642,0,0,1,.913,57.264l-51.484.191a52.251,52.251,0,0,1-7.816-25.992c9.315,3.676,20.939,3.125,32.318-2.584" fill="#bdbb48"/>
    <path id="Trazado_641410" data-name="Trazado 641410" d="M11.382,326.651s6.629,9,7.09,17.488h340c-.016-8.5,10.585-27.539,10.585-27.539-.519,1.868-13.509,7.19-13.509,7.19.159-1.928-.341-10.349-.341-10.349-.615,3.327-3.962,10.046-3.962,10.046,1-5.255-.679-18.36-.679-18.36.067,2.719-2.849,12.744-2.849,12.744-.126-2.147-5.47-12.855-5.47-12.855,1.36,3.223.409,18.266.409,18.266-.867-5.565-6.854-13.871-6.854-13.871,1.545,3.466,1.2,15.888,1.2,15.888-.64-2.67-2.718-5.685-4.5-7.9,1.288-11.73,3.421-25.155,3.421-25.155-1.927,2.689-11.51,30.6-11.51,30.6.376-2.95-.276-17.689-.276-17.689-1.363,6.693-7.083,18.256-7.083,18.256,1.344-8.047-3.081-32.7-3.081-32.7.513,6.154-3,25.753-3,25.753-.54-3.214-11.232-18.716-11.232-18.716,3,5.029,5.416,27.049,5.416,27.049-2.314-6.691-11.892-16.032-11.892-16.032,2.939,4.276,6.127,19.005,6.127,19.005-2.519-5.082-10.358-10.679-10.358-10.679a18.984,18.984,0,0,1,4.632,8.395c-3.616-5.7-7.665-11.246-7.665-11.246-.175,2.626,2.257,15.423,2.257,15.423-.457-1.483-5.277-8.892-5.277-8.892.528,3.367-1.93,9.193-1.93,9.193-.929-4.049-12.329-16.432-12.329-16.432,2.253,3.092,4.276,12.953,4.276,12.953-1.45-1.615-16.538-9.386-16.538-9.386,4.422,2.522,13.071,13.588,13.071,13.588a39.615,39.615,0,0,0-6.9-3.947c-.63-1.753-1.08-2.981-1.08-2.981,0,.338.138,1.4.318,2.621-1.374-.642-2.742-1.245-3.976-1.772-.649-1.545-1.189-2.705-1.189-2.705a10.465,10.465,0,0,1,.315,2.335c-2.284-.959-3.926-1.587-3.926-1.587a26.367,26.367,0,0,1,3.976,2.733c.049,1.567.022,3.02.022,3.02-.422-1.094-5.3-6.537-5.3-6.537.727.9,1.62,3.617,2.278,5.886-1.019-.339-1.846-.6-2.342-.752-1.556-1.611-3.019-2.879-3.019-2.879,1.471,1.762,3.28,8.092,3.28,8.092a17.9,17.9,0,0,0-3.928-4.014c-1.142-5.98-2.061-12.826-2.061-12.826-.7,1.375-1.82,15.622-1.82,15.622-.256-1.5-3.028-9.013-3.028-9.013.281,3.414-1.214,9.32-1.214,9.32-.512-4.1-7.111-16.654-7.111-16.654,1.3,3.134,2.4,13.13,2.4,13.13-.839-1.637-9.647-9.511-9.647-9.511,2.58,2.556,7.572,13.771,7.572,13.771-2.446-3.4-9.6-8.142-9.6-8.142,2.423,2.173,6.687,9.67,6.687,9.67-2.307-2.584-7.83-5.417-7.83-5.417a14.685,14.685,0,0,1,4.087,4.267c-3.052-2.894-6.335-5.712-6.335-5.712a40.221,40.221,0,0,0,2.292,4.931c-.231.09-.552.218-.936.374-1.071-1.033-2.077-1.97-2.077-1.97a6.268,6.268,0,0,1,.5,2.63c-.452.194-.927.4-1.4.623-.412-.4-.893-.827-1.415-1.275a12.812,12.812,0,0,1,2.935-2.832s-1.907.974-3.879,2.039c-1.285-1.06-2.688-2.144-3.844-3.018.026-.057.051-.118.08-.168l-.115.142c-1.4-1.056-2.425-1.8-2.425-1.8a13.809,13.809,0,0,1,1.976,2.361c-.431.548-1.055,1.364-1.687,2.255-3.189-1.321-6.933-2.769-6.933-2.769a37.967,37.967,0,0,1,6.122,3.956c-.231.353-.45.7-.648,1.043-1.137-.416-2.295-.81-3.318-1.145a2.463,2.463,0,0,1-.118-.448s-.067.136-.172.353c-.819-.266-1.531-.489-2.051-.65a12.685,12.685,0,0,0-.524-2.433s-1.495,2.535-2.717,5.119a5.635,5.635,0,0,1,1.4-3.786s-3.682,2.679-4.363,4.962c0,0-.406-6.483.641-8.43,0,0-4.116,4.357-4.432,7.33,0,0-1.966-9.615-1-11.891,0,0-3.819,7.061-3.641,8.471,0,0-5.031-8.374-5.675-11.056,0,0,1.208,10.82,3.216,14.261,0,0-5.079-4.822-6.891-7.676,0,0,1.876,6.4,2.545,7.67,0,0-9.815-11.778-11.342-12.88,0,0,3.288,5.745,5.826,10.783a6.765,6.765,0,0,0-1.395,3.567s-2.1-5.369-1.735-6.92a17.608,17.608,0,0,0-1.7,4.224l-.847.33c-.276-.679-.6-1.495-.895-2.318a17.252,17.252,0,0,1,2.232-1.43s-.978.451-2.351,1.1a10.1,10.1,0,0,1-.837-3.6s-.843,2.785-1.134,4.529l-.717.343c-.624-.849-1.564-2.156-2.224-3.2a6.777,6.777,0,0,1,.528-.587s-.22.18-.589.487a6.9,6.9,0,0,1-.663-1.25s.113.626.314,1.542c-.68.569-1.662,1.4-2.724,2.33-.537-.963-1.009-1.778-1.206-2.045,0,0,.3,1.008.738,2.457-2.275,2.012-4.749,4.346-5.306,5.442,0,0-.67-2.936.089-4.7,0,0-3.821,4.015-4.287,4.8,0,0,3.134-6.728,3.38-8.085,0,0-3.119,3.024-6,6.107a14.868,14.868,0,0,1,3.84-4.52s-5.354,3.181-7.511,5.907c0,0,3.835-7.756,6.132-10.079,0,0-6.875,5.186-9.126,8.74,0,0,4.353-11.514,6.785-14.23,0,0-8.351,8.423-9.1,10.11,0,0,.542-10.048,1.663-13.26,0,0-5.883,12.95-6.164,17.078,0,0-1.824-5.8-1.734-9.225,0,0-2.346,7.673-2.517,9.191,0,0-1.919-14.15-2.694-15.478,0,0-.533,6.892-1.337,12.935a18.056,18.056,0,0,0-3.695,4.258s.568-2.524,1.33-4.865c.4-.214.818-.419,1.248-.611,0,0-.452.166-1.2.454a13.23,13.23,0,0,1,1.437-3.266,51,51,0,0,0-3.789,4.205c-.493.2-1.016.422-1.559.655.333-1.523.791-3.433,1.276-4.911a17.128,17.128,0,0,1,1.717-1.2s-.593.27-1.557.73a6.78,6.78,0,0,1,.708-1.529s-.652.82-1.482,1.9c-1,.483-2.25,1.1-3.6,1.793a14.92,14.92,0,0,1,.173-3.344s-.738,1.857-1.463,4.016c-.774.409-1.563.837-2.342,1.274a5.768,5.768,0,0,1-.031-.811s-.132.412-.32,1.008q-.434.246-.859.494c.159-1.651.3-3.3.282-3.786,2.328-2.9,4.933-5.84,6.814-7.073,0,0-14.625,8.722-15.981,10.426,0,0,1.465-9.973,3.54-13.2,0,0-10.683,13.09-11.384,17.191,0,0-2.78-5.658-2.442-9.053,0,0-4.4,7.7-4.769,9.214,0,0,1.71-12.93,1.388-15.54,0,0-3.729,5.8-7.018,11.714a19.149,19.149,0,0,1,4.15-8.674s-7.51,6.087-9.74,11.321c0,0,2.356-14.906,5.049-19.362,0,0-9.037,9.936-10.97,16.763,0,0,1.178-22.135,3.888-27.346,0,0-9.8,16.156-10.162,19.4,0,0-4.609-19.339-4.443-25.515,0,0-3.033,24.889-1.239,32.835,0,0-6.359-11.176-8.1-17.77,0,0,.176,14.754.718,17.675,0,0-11.134-27.253-13.209-29.814,0,0,2.884,13.265,4.828,24.891-1.652,2.323-3.557,5.466-4.045,8.171,0,0-1.043-12.378.3-15.935,0,0-5.509,8.673-6.063,14.284,0,0-1.793-14.956-.617-18.26,0,0-4.733,11.031-4.738,13.182,0,0-3.474-9.821-3.559-12.54,0,0-.936,13.19.352,18.371,0,0-3.718-6.493-4.519-9.775,0,0-.025,8.438.241,10.352,0,0-9.541-5.987-10.164-7.819" fill="#c1c449"/>
    <path id="Trazado_641411" data-name="Trazado 641411" d="M180.6,327.869c.436.557.863,1.118,1.265,1.659-.059.583-.133,1.154-.2,1.628l-.376-.232c-.166-.921-.418-2-.689-3.055" fill="#edd756"/>
    <path id="Trazado_641412" data-name="Trazado 641412" d="M183.085,331.2c.045.415.083.757.109.984l-.026-.019c-.063-.317-.161-.75-.276-1.235l.193.27" fill="#edd756"/>
    <path id="Trazado_641413" data-name="Trazado 641413" d="M184.5,333.263c0-.009,0-.019-.007-.028l.04.058-.033-.03" fill="#edd756"/>
    <path id="Trazado_641414" data-name="Trazado 641414" d="M178.048,332.231a20.512,20.512,0,0,0-2.155-4.112,12.974,12.974,0,0,1,1.63,1.192c.312,1.633.525,2.92.525,2.92" fill="#edd756"/>
    <path id="Trazado_641415" data-name="Trazado 641415" d="M144.228,333.263c-.13.4-.29.916-.44,1.417-.214-.086-.415-.165-.6-.237-.054-.672-.12-1.429-.192-2.145.382.272.8.6,1.231.965" fill="#edd756"/>
    <path id="Trazado_641416" data-name="Trazado 641416" d="M146.4,335.216c-.059.2-.109.384-.145.556-.2-.1-.406-.2-.612-.292a14.951,14.951,0,0,1-.806-1.691c.548.481,1.088.978,1.563,1.427" fill="#edd756"/>
    <path id="Trazado_641417" data-name="Trazado 641417" d="M150.47,333.229l-.256.216c-.326-.238-.771-.537-1.284-.867a21.339,21.339,0,0,1,.145-2.652c.575,1.245,1.1,2.555,1.4,3.3" fill="#edd756"/>
    <path id="Trazado_641418" data-name="Trazado 641418" d="M154.367,334.63c-.029.6-.075,1-.075,1a4.385,4.385,0,0,0-.264-.529q.163-.232.339-.471" fill="#edd756"/>
    <path id="Trazado_641419" data-name="Trazado 641419" d="M156.106,332.6c.251.725.488,1.393.669,1.9l-.182.088c-.285-.437-.642-.96-1-1.478.176-.191.348-.366.514-.513" fill="#edd756"/>
    <path id="Trazado_641420" data-name="Trazado 641420" d="M157.124,335.479a7.519,7.519,0,0,0-.449-.758c.045-.036.094-.069.14-.1.188.528.309.861.309.861" fill="#edd756"/>
    <path id="Trazado_641421" data-name="Trazado 641421" d="M143.341,336.49s-.053-.812-.138-1.88c.174.1.343.214.51.326a9.68,9.68,0,0,0-.372,1.554" fill="#edd756"/>
    <path id="Trazado_641422" data-name="Trazado 641422" d="M115.807,334.194c-.152-.416-.319-.872-.49-1.334.1-.26.2-.529.305-.8.1.507.239,1.26.386,1.983-.069.051-.136.1-.2.152" fill="#edd756"/>
    <path id="Trazado_641423" data-name="Trazado 641423" d="M117.35,333.061c-.233.167-.462.333-.683.494-.363-.579-.718-1.182-.969-1.69.323-.823.676-1.66,1.018-2.347.154,1.02.372,2.328.634,3.543" fill="#edd756"/>
    <path id="Trazado_641424" data-name="Trazado 641424" d="M118.878,333.023c0,.048.008.092.014.129l-.046-.091.032-.038" fill="#edd756"/>
    <path id="Trazado_641425" data-name="Trazado 641425" d="M118.007,335.471l-.047.031c-.113-.162-.289-.416-.5-.731l.234-.295c.1.366.206.7.314.995" fill="#edd756"/>
    <path id="Trazado_641426" data-name="Trazado 641426" d="M121.481,333.675a7.816,7.816,0,0,0-.053,1.673s-.152-.515-.367-1.287q.213-.2.42-.386" fill="#edd756"/>
    <path id="Trazado_641427" data-name="Trazado 641427" d="M115.447,337.4l.165-.222.012.059c-.061.055-.121.109-.177.163" fill="#edd756"/>
    <path id="Trazado_641428" data-name="Trazado 641428" d="M114.449,335.333s.186-.571.477-1.393c.056.265.112.535.169.808a5.262,5.262,0,0,0-.646.585" fill="#edd756"/>
    <path id="Trazado_641429" data-name="Trazado 641429" d="M219.417,242.887l-2.392,14.933-14.891-4.393,3.324-12.948Z" fill="#c4b19f"/>
    <path id="Trazado_641430" data-name="Trazado 641430" d="M208.951,247.5a20.586,20.586,0,0,1-.3-5.883c.36-2.794,1.854-4.98,4.651-4.8s3.518,2.513,3.158,5.307a19.123,19.123,0,0,1-2.273,6.037,7.927,7.927,0,0,0,3.69-5.945c.49-3.808-.492-6.984-4.3-7.234s-5.848,2.731-6.339,6.539a7.145,7.145,0,0,0,1.721,5.976" fill="#c4b19f"/>
    <path id="Trazado_641431" data-name="Trazado 641431" d="M219.074,245.03a18.381,18.381,0,0,0-7.867-1.68,18.928,18.928,0,0,0-6.8,1.22l-2.274,8.856,14.892,4.394Z" fill="#d3c2b4"/>
    <path id="Trazado_641432" data-name="Trazado 641432" d="M219.346,250.506c.642-4.1.664-7.493.048-7.568s-1.636,3.192-2.278,7.3-.664,7.493-.048,7.568,1.636-3.192,2.278-7.3" fill="#c4b19f"/>
    <path id="Trazado_641433" data-name="Trazado 641433" d="M208.783,251.542a8.38,8.38,0,0,0-4.875,1.378l10.8,3.187a2.2,2.2,0,0,0,.253-1c0-1.968-2.768-3.563-6.181-3.563" fill="#e5d6ca"/>
    <path id="Trazado_641434" data-name="Trazado 641434" d="M214.529,225.747h-2.157v10.614c0,1.841,2.157,1.841,2.157,0Z" fill="#543a40"/>
    <path id="Trazado_641435" data-name="Trazado 641435" d="M275.3,120.84c-4.166-2.777-14.956-7.536-25.275-9.971s-33.274-5.449-49.543-.445l8.239,28.295s41.42-1.532,54.637,5.541,23.768-15.536,11.942-23.42" fill="#eda845"/>
    <path id="Trazado_641436" data-name="Trazado 641436" d="M249.282,110.7a132.933,132.933,0,0,0-22.188-2.861,3.922,3.922,0,0,0-3.631,5.749,23.378,23.378,0,0,1,2.63,10.85,23.079,23.079,0,0,1-4.749,14.155c9.807.092,23.344.655,33.2,2.764a24.61,24.61,0,0,0,3.134-12,25.285,25.285,0,0,0-8.393-18.657" fill="#e59433"/>
    <path id="Trazado_641437" data-name="Trazado 641437" d="M209.4,136.144l-10.435,3.942s-9.927-6.828-8.691-17.108c1.389-11.545,11.625-12.931,11.625-12.931Z" fill="#ea722f"/>
    <path id="Trazado_641438" data-name="Trazado 641438" d="M214.962,122.739c-1.908-9.082-8.785-14.5-14.486-12.315-4.939,1.9-7.185,8.983-5.6,15.971,1.569,6.91,6.6,12.454,11.842,12.454,6.029,0,10.121-7.16,8.241-16.11" fill="#ea8e3b"/>
    <path id="Trazado_641439" data-name="Trazado 641439" d="M208.67,124.37c-1.006-3.315-3.317-5.294-4.911-4.5-1.382.693-1.71,3.279-.9,5.83.8,2.521,2.568,4.545,4.13,4.545,1.8,0,2.673-2.614,1.682-5.88" fill="#ea722f"/>
    <path id="Trazado_641440" data-name="Trazado 641440" d="M207.865,124.878c-.676-2.223-2.226-3.551-3.295-3.015-.927.465-1.147,2.2-.6,3.91.537,1.692,1.722,3.049,2.77,3.049,1.206,0,1.793-1.753,1.129-3.944" fill="#ea8e3b"/>
    <path id="Trazado_641441" data-name="Trazado 641441" d="M202.37,157.245c-5.049-.151-6.145-11.13-2.435-14.492s29.217-11.71,42.318-6.493-24.347,21.449-39.883,20.985" fill="#bc5168"/>
    <path id="Trazado_641442" data-name="Trazado 641442" d="M242.253,136.26c-6.9-2.75-17.253-1.73-26.042.34a23.6,23.6,0,0,0-1.2,7.486,23.056,23.056,0,0,0,2.544,10.651c16.332-4.682,34.418-14.608,24.7-18.477" fill="#6d4f54"/>
    <path id="Trazado_641443" data-name="Trazado 641443" d="M207.354,168.612c-8.886,1.025-7.308-10.759-6.035-11.952,2.162-2.028,16.67-7.044,27.379-4.909s2.626,15.367,2.626,15.367-21.194,1.174-23.97,1.494" fill="#543a40"/>
    <path id="Trazado_641444" data-name="Trazado 641444" d="M193.558,223.407c5.034,6.623,32.308,8.038,36.173,4.483s-1.237-62.762-4.483-64.308-29.526,2.319-32.308,10.512-2.319,45.448.618,49.313" fill="#6d4f54"/>
    <path id="Trazado_641445" data-name="Trazado 641445" d="M200.734,225.445a18.815,18.815,0,0,1-6.2-1.047c6.852,5.764,31.534,6.863,35.2,3.493,1.762-1.621,1.66-14.808.721-28.825-5.508,15.717-17.871,26.379-29.718,26.379" fill="#543a40"/>
    <path id="Trazado_641446" data-name="Trazado 641446" d="M212.029,167.763c-2.443,9.277-.433,51.46,2.665,55.836,1.82,2.571,6.23,4.449,11.389,5.644a7.869,7.869,0,0,0,3.648-1.353c3.865-3.555-1.236-62.761-4.483-64.307-1.208-.576-5.609-.4-10.8.468a8.048,8.048,0,0,0-2.419,3.712" fill="#543a40"/>
    <path id="Trazado_641447" data-name="Trazado 641447" d="M249.472,341.1c-8.007-46.465-5.069-133.31-5.069-133.31l30.544.553c-1.94,50.2-14.98,98.637-25.475,132.757" fill="#ce4a67"/>
    <path id="Trazado_641448" data-name="Trazado 641448" d="M259.343,208.057l-14.94-.27s-2.938,86.845,5.069,133.31c.2-.638.4-1.291.593-1.939,2.6-47.139,10.858-88.054,9.278-131.1" fill="#bc3558"/>
    <path id="Trazado_641449" data-name="Trazado 641449" d="M239.929,341.1c-12.616-43.146-17.469-109.8-12.94-134.693l39.79,2.212L262.9,238.486l-8.087,1.383c-4.39,36.512-9.021,69.955-14.881,101.227" fill="#ce4a67"/>
    <path id="Trazado_641450" data-name="Trazado 641450" d="M235.239,269.583c3.718-35.477,9.226-43.115,22-45.562,8.112-1.553,15.015-.777,16.717.35l.887-14.243L226.989,206.4c-4.529,24.892.323,91.548,12.94,134.694.019-.1.037-.206.056-.308-2.961-12.039-6.59-53.616-4.746-71.206" fill="#bc3558"/>
    <path id="Trazado_641451" data-name="Trazado 641451" d="M235.076,344.139h9.867s-3.871-5.807-5.661-5.393-4.206,5.393-4.206,5.393" fill="#f4dfbd"/>
    <path id="Trazado_641452" data-name="Trazado 641452" d="M248.34,344.139h16.013s-12.443-5.668-14.234-5.255-1.779,5.255-1.779,5.255" fill="#f4dfbd"/>
    <path id="Trazado_641453" data-name="Trazado 641453" d="M325.81,193.154c-.937-3.7-20.9-17.353-28.834-17.2-7,.132-12.04,1.829-13.14,6.8-1.064,4.813.882,11.866,3.462,13.664,5.246,3.656,29.352,4.528,31.227,5.25s8.222-4.814,7.285-8.512" fill="#edb984"/>
    <path id="Trazado_641454" data-name="Trazado 641454" d="M309.115,197.23c-11.253-4.709-18.723-13.293-18.529-20.526-3.582.921-6.025,2.769-6.75,6.047-1.064,4.814.882,11.867,3.462,13.665,5.246,3.655,29.352,4.527,31.226,5.249.7.268,2-.326,3.327-1.364a39.772,39.772,0,0,1-12.736-3.071" fill="#e79b69"/>
    <path id="Trazado_641455" data-name="Trazado 641455" d="M259.949,138.808c14.187,6.147,23.231,27.132,39.147,37.362-7.685-1.187-15.684,17.132-10.467,20.8-7.42-2.976-23.69-11.787-27.246-27.091s-1.434-31.074-1.434-31.074" fill="#f4dfbd"/>
    <path id="Trazado_641456" data-name="Trazado 641456" d="M246.562,140.286c10.835,2.054,29.37,20.686,10.08,62.5l2.692,4.548s21.706-29.679,14.7-52.521c-6.508-21.216-23.551-20.173-23.551-20.173Z" fill="#6d4f54"/>
    <path id="Trazado_641457" data-name="Trazado 641457" d="M246.562,140.286c10.835,2.054,29.37,20.686,10.08,62.5l2.692,4.548s21.706-29.679,14.7-52.521c-6.508-21.216-23.551-20.173-23.551-20.173Z" fill="#7f6269"/>
    <path id="Trazado_641458" data-name="Trazado 641458" d="M225.248,216.3c4.483-.309,49.662,1.043,49.776-.618,1.392-20.251-.309-64.926-13.6-75.747s-32.166-7.4-36.173,2.319c-6.184,14.994,0,74.046,0,74.046" fill="#f4dfbd"/>
    <path id="Trazado_641459" data-name="Trazado 641459" d="M261.421,139.931c-10.116-8.234-23.454-8.216-31.022-3.458a42.813,42.813,0,0,0,11.971,5.552c8.544,2.537,16.621,2.439,21.289.18a15.877,15.877,0,0,0-2.238-2.274" fill="#e5c9a8"/>
    <path id="Trazado_641460" data-name="Trazado 641460" d="M236.784,133.9l.4-11.1,8.026.259,2.071,12.685Z" fill="#d27558"/>
    <path id="Trazado_641461" data-name="Trazado 641461" d="M268.548,214.356c-29.339,0-35.012-30.829-40.557-57.47a47.173,47.173,0,0,1-.678-17.858,11.16,11.16,0,0,0-2.064,3.222c-6.184,14.995,0,74.047,0,74.047,4.482-.31,49.662,1.042,49.776-.619.057-.833.107-1.721.153-2.632a15.863,15.863,0,0,1-6.63,1.31" fill="#e5c9a8"/>
    <path id="Trazado_641462" data-name="Trazado 641462" d="M213.291,122.481c-1.5-7.531-6.921-12.027-11.412-10.212-3.892,1.574-5.66,7.449-4.41,13.244,1.236,5.729,5.2,10.326,9.33,10.326,4.75,0,7.974-5.937,6.492-13.358m-6.274,12.882c-3.646,0-7.383-4.3-8.77-9.65-1.4-5.415-.144-10.9,3.211-12.376,3.871-1.7,8.887,2.505,10.6,9.543,1.691,6.935-.849,12.483-5.043,12.483" fill="#ea722f"/>
    <path id="Trazado_641463" data-name="Trazado 641463" d="M228.031,137.767c-8.622,5.286-25.715,48.027-19.632,61.061,1.082,2.319,22.817,2.8,23.187-1.391.741-8.386.2-21.289,8.194-32,9.723-13.025-5.649-31.411-11.749-27.671" fill="#f4dfbd"/>
    <path id="Trazado_641464" data-name="Trazado 641464" d="M228.031,137.767c-1.519.931-3.3,3.042-5.174,5.931,7.167,3.021,9.779,14.872,5.787,27.07-4.121,12.592-13.7,20.756-21.4,18.236-.012,0-.023-.011-.035-.015-.258,4.009.071,7.433,1.194,9.839,1.082,2.319,22.817,2.8,23.187-1.391.741-8.386.2-21.289,8.194-32,9.723-13.025-5.649-31.411-11.749-27.671" fill="#e5c9a8"/>
    <path id="Trazado_641465" data-name="Trazado 641465" d="M219.374,142.416c13.092,1.715,27.381,20.714,1.855,63.219l2.319,4.579s27.049-30.122,22.106-53.175-18.242-20.974-18.242-20.974Z" fill="#6d4f54"/>
    <path id="Trazado_641466" data-name="Trazado 641466" d="M229.9,188.674a129.565,129.565,0,0,1-8.673,16.961l2.318,4.579a124.465,124.465,0,0,0,14.115-20.048,24.438,24.438,0,0,0-7.76-1.492" fill="#543a40"/>
    <path id="Trazado_641467" data-name="Trazado 641467" d="M235.588,138.5a21.326,21.326,0,0,0-9.967,6.121c5.568,3.339,10.031,10.366,9.722,21.623a30.1,30.1,0,0,0,9.06,1.374c.516,0,1.021-.029,1.528-.054a30.942,30.942,0,0,0-.277-10.528c-2.284-10.651-6.351-15.931-10.066-18.536" fill="#7f6269"/>
    <path id="Trazado_641468" data-name="Trazado 641468" d="M235.373,177.8c-3.586-5.6-14.039-8.142-20.672-3.657s-11.244,18.151-7.657,23.755,15.611,6.674,22.244,2.189,9.671-16.683,6.085-22.287" fill="#ce4a67"/>
    <path id="Trazado_641469" data-name="Trazado 641469" d="M216.8,176.8c5.12-6.076,29.7-11.765,33.226-9.836s1.881,11.549.075,12.445-15.959,18.051-22.3,19.4c-3.117.661-13.239,1.315-16.32-2.916-3.182-4.37.795-13.724,5.315-19.089" fill="#edb984"/>
    <path id="Trazado_641470" data-name="Trazado 641470" d="M219.04,187.961c-2.518-3.318-1.695-8.579,1.6-14.041A13.979,13.979,0,0,0,216.8,176.8c-4.52,5.365-8.5,14.719-5.315,19.09,3.081,4.23,13.2,3.576,16.32,2.915,4.321-.917,12.275-9.184,17.472-14.635-10.6,7.462-22.121,9.218-26.242,3.789" fill="#e79b69"/>
    <path id="Trazado_641471" data-name="Trazado 641471" d="M257.1,164.705c-3.646-2.222.247-7.864-.433-9.422-.527-1.209-1.9-2.407-2.528-.8-2.882,7.436-8.31,8.52-7.48,10.26.751,1.573,6.432.333,10.441-.042" fill="#edb984"/>
    <path id="Trazado_641472" data-name="Trazado 641472" d="M301.459,165.438l-46.066-8.966a213.2,213.2,0,0,1-5.566,41.738c14.86,2.3,28.376,4.721,38.956,7.42,5.685-15.646,9.584-25.2,12.676-40.192" fill="#d8be8f"/>
    <path id="Trazado_641473" data-name="Trazado 641473" d="M255.075,161.265a249.376,249.376,0,0,1-4.944,35.6,28.858,28.858,0,0,0,8.052-6.9c7.418-9.057,9.019-20.731,3.576-26.077a9.478,9.478,0,0,0-6.684-2.628" fill="#c1a374"/>
    <path id="Trazado_641474" data-name="Trazado 641474" d="M237.47,108.708c-3.343,3.7-1.71,6.954-1.71,6.954a1.945,1.945,0,0,0-1.932,1.623c-.232,1.623,2.473,2.937,2.473,2.937s-.463,4.792,2.319,4.638a6.163,6.163,0,0,0,4.329-2.242V105.459s-4.027,1.641-5.479,3.249" fill="#634931"/>
    <path id="Trazado_641475" data-name="Trazado 641475" d="M239.281,115.687c-.85,7.961-4.019,20.637,3.092,24.038a14.69,14.69,0,0,0,12.83.232s7.961,1.237,11.208-3.71,1.236-8.5,1.236-8.5c-.541,3.014-5.487,3.091-5.642.773s-.927-9.044-1.932-10.435c0,0,3.4-1.7.7-5.1,0,0,1.865-6.57-4.323-8.734s-17.164,11.439-17.164,11.439" fill="#634931"/>
    <path id="Trazado_641476" data-name="Trazado 641476" d="M256.552,104.609c1.411,5.681,1.9,11.648,1.21,12.885-.306.544-2.611-1.719-5.264-1.553-3.382.212-8.016,3.4-8.622,2.407-1.64-2.694-1.854-11.263-1.314-12.58s13.513-3.082,13.99-1.159" fill="#edb984"/>
    <path id="Trazado_641477" data-name="Trazado 641477" d="M254.525,108.3a16.687,16.687,0,0,1,2.775.233,39.563,39.563,0,0,0-.748-3.928c-.478-1.923-13.45-.157-13.99,1.16-.355.864-.381,4.853.105,8.256,2.253-3.4,6.715-5.721,11.858-5.721" fill="#e79b69"/>
    <path id="Trazado_641478" data-name="Trazado 641478" d="M239.582,112.591c-1.709-.507-2.9.46-2.671,2.16a5.337,5.337,0,0,0,3.518,3.994c1.709.507,1.048-1.084.814-2.784s.048-2.863-1.661-3.37" fill="#edb984"/>
    <path id="Trazado_641479" data-name="Trazado 641479" d="M235.978,110.916a11.956,11.956,0,0,1,2.2-13.227,7.8,7.8,0,0,1,10.746-.443c2.2,2.2,3.827,6.516,3.827,6.516-7.817.7-13.507,3-16.768,7.154" fill="#edcb98"/>
    <path id="Trazado_641480" data-name="Trazado 641480" d="M248.919,97.246a7.839,7.839,0,0,0-8.484-1.193,14.649,14.649,0,0,0,1.759,7.751,17.528,17.528,0,0,0,1.192,1.973,34.777,34.777,0,0,1,9.36-2.015s-1.624-4.313-3.827-6.516" fill="#f4dfbd"/>
    <path id="Trazado_641481" data-name="Trazado 641481" d="M235.978,110.916c4.535-12.163,19.781-23.351,31.9-22.307s-8.163,18.078-8.163,18.078c-5.518-4.977-17.743-1.318-23.734,4.229" fill="#bc5168"/>
    <path id="Trazado_641482" data-name="Trazado 641482" d="M268.393,89.731A4.708,4.708,0,0,1,271.683,91c-.209-1.281-1.315-2.179-3.808-2.394-12.115-1.043-27.361,10.145-31.9,22.307a20.124,20.124,0,0,1,1.563-1.285c5.505-11.187,19.541-20.874,30.852-19.9" fill="#a3415b"/>
    <path id="Trazado_641483" data-name="Trazado 641483" d="M257.4,242.314l8.282-5.243-8.174,1.6-7.108-1.012Z" fill="#bc3558"/>
    <path id="Trazado_641484" data-name="Trazado 641484" d="M242.3,171.992c3.743,8.383,15.019,5.806,16.8,4.378s2.044-9.089,1.925-10.993-6.042,1.611-8.35-3.764c-.9-2.1-12.546,5.526-10.379,10.379" fill="#edb984"/>
    <path id="Trazado_641485" data-name="Trazado 641485" d="M258.047,170.445c2.42-1,4.018-1.975,4.632-2.9a2.471,2.471,0,0,0-.613-2.992c-.691-.307-4.172.287-4.172.287Z" fill="#edb984"/>
    <path id="Trazado_641486" data-name="Trazado 641486" d="M259.591,173.284c2.3-.061,3.044-2.663,2.485-4.205-1.041-2.873-7.4,4.335-2.485,4.205" fill="#edb984"/>
    <path id="Trazado_641487" data-name="Trazado 641487" d="M256.159,177.086c2.137,1.241,4.923-2.4,4.6-3.663-.974-3.818-7.525,1.964-4.6,3.663" fill="#edb984"/>
    <path id="Trazado_641488" data-name="Trazado 641488" d="M239.525,113.716c-1.044-.31-1.775.281-1.633,1.32a3.264,3.264,0,0,0,2.151,2.441c1.044.31.64-.663.5-1.7s.029-1.75-1.015-2.06" fill="#d27558"/>
    <path id="Trazado_641489" data-name="Trazado 641489" d="M240.048,115.128c-.726-.214-1.235.2-1.135.919a2.262,2.262,0,0,0,1.494,1.694c.726.214.445-.461.346-1.183s.021-1.216-.705-1.43" fill="#edb984"/>
    <path id="Trazado_641490" data-name="Trazado 641490" d="M252.454,109.08c1.294,3.452,2.915,7.384,2.288,8.062-.517.561-4.947-.592-4.947-.592Z" fill="#d27558"/>
    <path id="Trazado_641491" data-name="Trazado 641491" d="M251.807,108.519c1.294,3.452,2.915,7.384,2.288,8.062-.517.561-4.947-.592-4.947-.592Z" fill="#edb984"/>
    <path id="Trazado_641492" data-name="Trazado 641492" d="M267.767,219.238l-8.849.462-1.14,5.378,8.849-.462Z" fill="#bc3558"/>
    <path id="Trazado_641493" data-name="Trazado 641493" d="M266.594,219.5l-5.7.3-.734,3.465,5.7-.3Z" fill="#ead0ac"/>
    <path id="Trazado_641494" data-name="Trazado 641494" d="M207.439,201.126l-13.833,3.237.961,14.594a15.663,15.663,0,0,0,13.832-3.236Z" fill="#825f67"/>
    <path id="Trazado_641495" data-name="Trazado 641495" d="M204.347,149.119c0-2.907-1.2-5.264-2.675-5.264S199,146.212,199,149.119s1.2,5.264,2.675,5.264,2.675-2.357,2.675-5.264" fill="#6d4f54"/>
    <path id="Trazado_641496" data-name="Trazado 641496" d="M209.091,146.79c0-1.5-.618-2.714-1.379-2.714s-1.379,1.215-1.379,2.714.617,2.714,1.379,2.714,1.379-1.215,1.379-2.714" fill="#6d4f54"/>
    <path id="Trazado_641497" data-name="Trazado 641497" d="M319.99,191.3c.943,1.425,1.327,6.409-4.118,8.045,1.974,2.573,9.485,6.422,11.29,6.174,2.552-.351,7.227-7.612,8.211-9.522s-6.775-1.932-5.9-8.464c.341-2.552-8.772-2.179-9.479,3.767" fill="#e79b69"/>
    <path id="Trazado_641498" data-name="Trazado 641498" d="M331.149,198.6c2.088.788,3.443.991,4.568.454a2.782,2.782,0,0,0,1.135-3.248c-.491-.7-4.2-2.132-4.2-2.132-5.016-1.529-6.518,3.4-1.5,4.926" fill="#edb984"/>
    <path id="Trazado_641499" data-name="Trazado 641499" d="M330.587,191.933c-.9-3.123,6.152-6.316,6.394-8.216.188-1.474-.452-3.428-1.986-2.231-7.081,5.529-16.809,4.039-17.011,6.2-.1,1.03-1.19,6.51,1.217,7.8,2.161,1.16,7.607-1.69,11.386-3.555" fill="#edb984"/>
    <path id="Trazado_641500" data-name="Trazado 641500" d="M329.418,202.821c2.2,1.37,5.539-.925,4.833-2.633-2.235-5.4-13.521-2.781-4.833,2.633" fill="#edb984"/>
    <path id="Trazado_641501" data-name="Trazado 641501" d="M323.9,204.516c2.148,1.771,6.768.574,6.566-.886-.73-5.262-14.075-5.306-6.566.886" fill="#edb984"/>
    <path id="Trazado_641502" data-name="Trazado 641502" d="M248.479,112.7c-.022-1.077-.545-1.974-1.169-2s-1.113.821-1.091,1.9.546,1.974,1.17,2,1.112-.821,1.09-1.9" fill="#5a4949"/>
    <path id="Trazado_641503" data-name="Trazado 641503" d="M248.773,107.039l-4.641.956a.74.74,0,0,0-.565.871l.294,1.513a.722.722,0,0,0,.848.582L249.35,110a.741.741,0,0,0,.565-.872l-.294-1.513a.722.722,0,0,0-.848-.581" fill="#634931"/>
    <path id="Trazado_641504" data-name="Trazado 641504" d="M256.521,112.554c-.013-.971-.479-1.78-1.039-1.807s-1,.737-.991,1.708.479,1.78,1.04,1.807,1-.737.99-1.708" fill="#5a4949"/>
    <path id="Trazado_641505" data-name="Trazado 641505" d="M258.178,107.245l-4.5-.739a.679.679,0,0,0-.768.63l-.174,1.546a.769.769,0,0,0,.6.856l4.5.739a.679.679,0,0,0,.767-.63l.174-1.547a.768.768,0,0,0-.6-.855" fill="#634931"/>
    <path id="Trazado_641506" data-name="Trazado 641506" d="M247.406,118.356l-.475.173c-.561,2.545,3.209,4.453,8.371,2.416,0,0-7.68,2.2-7.9-2.589" fill="#423020"/>
    <path id="Trazado_641507" data-name="Trazado 641507" d="M251.282,122.845c0-.329-.56-.076-1.25-.17s-1.25-.5-1.25-.17.559.671,1.25.765,1.25-.1,1.25-.425" fill="#423020"/>
    <path id="Trazado_641508" data-name="Trazado 641508" d="M94.442,282.807l-10.708.422a7.947,7.947,0,0,0-6.963,5.061l-7.515,21.887a2.221,2.221,0,0,0,1.951,3.077l11.729,1.254Z" fill="#827799"/>
    <path id="Trazado_641509" data-name="Trazado 641509" d="M81.331,312.537l-9.624,1.407a5.668,5.668,0,0,0-4.934,5.214l-.784,20.377a2.525,2.525,0,0,0,2.625,2.576H79.63Z" fill="#827799"/>
    <path id="Trazado_641510" data-name="Trazado 641510" d="M73.735,258.988A17.052,17.052,0,0,0,72.9,276.9l10.6-.693,10.509-22.431c-2.331-2.141-14.1-4.327-20.276,5.209" fill="#9b962d"/>
    <path id="Trazado_641511" data-name="Trazado 641511" d="M82.2,261.022a28.15,28.15,0,0,1,7.895,1.107l3.913-8.35c-2.331-2.141-14.1-4.327-20.276,5.209a19.116,19.116,0,0,0-2.012,4.068,27.14,27.14,0,0,1,10.48-2.034" fill="#898125"/>
    <path id="Trazado_641512" data-name="Trazado 641512" d="M126.918,263.4v-.011c-.129,0-.265-.009-.4-.013-.077,0-.153-.009-.231-.007-7.541-.235-17.745-1.327-33.15-10.22l-5.427,26.432L122,284.427a6.286,6.286,0,0,0,3.008.5c.094-.008.185-.029.277-.04l.081.012,0-.023c4.392-.581,8.186-5.443,8.46-11.267.262-5.569-2.77-9.868-6.906-10.212" fill="#9b962d"/>
    <path id="Trazado_641513" data-name="Trazado 641513" d="M113.008,270.956c-12.152-4.844-20.62-12.559-19.7-17.713-.057-.033-.11-.06-.166-.093l-5.428,26.432L122,284.428a6.3,6.3,0,0,0,3.009.5c.093-.007.184-.028.277-.039l.08.011,0-.023c4.157-.549,7.773-4.936,8.381-10.342-5.148.775-12.792-.415-20.737-3.582" fill="#898125"/>
    <path id="Trazado_641514" data-name="Trazado 641514" d="M99.862,265.659c.36-7.649-4.323-13.371-10.318-12.53-5.828.818-10.4,7.528-10.366,14.763.037,6.978,4.38,12.121,9.829,11.7,5.593-.434,10.508-6.566,10.855-13.93" fill="#b5b140"/>
    <path id="Trazado_641515" data-name="Trazado 641515" d="M82.2,268.306c-.062-5.9,3.4-11.3,7.843-11.868,4.261-.546,7.675,3.541,7.925,9.146.2-6.147-3.587-10.717-8.431-10.037-4.761.668-8.5,6.149-8.468,12.06.02,3.842,1.643,7,4.059,8.543a11.182,11.182,0,0,1-2.928-7.844" fill="#9b962d"/>
    <path id="Trazado_641516" data-name="Trazado 641516" d="M94.815,265.332c-.318,4.283-3.16,7.982-6.418,8.122-3.123.134-5.347-3.04-5.183-7.119-.526,4.445,1.94,7.991,5.494,7.8,3.494-.191,6.543-3.936,6.884-8.223a7.278,7.278,0,0,0-2.417-6.445,8.138,8.138,0,0,1,1.64,5.868" fill="#9b962d"/>
    <path id="Trazado_641517" data-name="Trazado 641517" d="M91.6,265.98c.429-2.282-.241-4.323-1.5-4.559s-2.621,1.423-3.049,3.705.241,4.323,1.5,4.558,2.62-1.422,3.049-3.7" fill="#9b962d"/>
    <path id="Trazado_641518" data-name="Trazado 641518" d="M90.826,266.7c.271-1.443-.132-2.731-.9-2.875s-1.612.908-1.884,2.352.133,2.73.9,2.875,1.612-.909,1.883-2.352" fill="#b5b140"/>
    <path id="Trazado_641519" data-name="Trazado 641519" d="M68.423,343.986h68.569l-7.964-60.849c-20.922-5.586-35.677-6.4-44.9-1.788-11.047,18.661-18.32,38.908-15.7,62.637" fill="#5d546d"/>
    <path id="Trazado_641520" data-name="Trazado 641520" d="M84.737,281.872a124.323,124.323,0,0,0-12.331,27.269c6.591,2.9,15.012,4.005,23.883,2.651,18.576-2.834,28.6-25.657,28.53-25.994-19.127-4.779-31.366-8.28-40.082-3.926" fill="#6d667c"/>
    <path id="Trazado_641521" data-name="Trazado 641521" d="M129.409,283.026c-11.727-3.131-21.46-4.678-29.6-4.683a193.377,193.377,0,0,0,1,65.643h36.182Z" fill="#463f51"/>
    <path id="Trazado_641522" data-name="Trazado 641522" d="M123.9,283.942l-2.048-.5c11.511,22.987,14.795,47.223,11.653,52.97s-15.18,2.873-15.18,2.873,10.921,8.15,19.287.875c13.361-11.619-13.712-56.218-13.712-56.218" fill="#78708e"/>
    <path id="Trazado_641523" data-name="Trazado 641523" d="M106.891,280.837l-2.082-.526c13.084,24.192,18.027,49.7,15.279,55.746s-14.983,3.024-14.983,3.024,11.479,8.577,19.347.92c12.566-12.227-17.561-59.164-17.561-59.164" fill="#827799"/>
    <path id="Trazado_641524" data-name="Trazado 641524" d="M167.417,233.581c-.66-2.887-1.539-5.663-3.683-7.356-.714-4.268-2.531-5.014-9.162-4.868-3.668.08-7.179,2.574-10.678,4.339-4.242,2.141-12.363,7.189-9.991,20.588.371,2.1.785,4.176,1.178,6.264a11.259,11.259,0,0,1,.1,5.435,20.088,20.088,0,0,0-.971,2.857,4.158,4.158,0,0,0,1.089,3.318,12.485,12.485,0,0,0,2.678,2.035,36.326,36.326,0,0,1,10.992,11.245c1.635-4.727,4.437-8.987,7.2-13.169a61.187,61.187,0,0,1,5.732-7.758,40.6,40.6,0,0,0,4.536-5.127,16.231,16.231,0,0,0,2.335-8.964,41.581,41.581,0,0,0-1.354-8.839" fill="#7a3d22"/>
    <path id="Trazado_641525" data-name="Trazado 641525" d="M98.183,182c-2.458,15.7,9.856,68.386,46.118,91.987l-1.354-18.846C106.968,234.669,98.183,182,98.183,182" fill="#edb984"/>
    <path id="Trazado_641526" data-name="Trazado 641526" d="M142.947,255.137a67,67,0,0,1-12.683-9.426,3.925,3.925,0,0,1-6.87,2.17C107.433,229.207,100.449,203.9,98.549,183.9c-.252-1.227-.366-1.908-.366-1.908-2.458,15.7,9.856,68.387,46.118,91.987Z" fill="#e79b69"/>
    <path id="Trazado_641527" data-name="Trazado 641527" d="M167.1,252.275l.461,12.7c22.083-14.991,38.756-34.806,46.634-47.689a1.156,1.156,0,0,0-1.848-1.373c-8.411,9.353-24.683,25.5-45.247,36.366" fill="#edb984"/>
    <path id="Trazado_641528" data-name="Trazado 641528" d="M174.1,248.275c-2.273,1.39-4.6,2.734-7,4l.461,12.7c20.321-13.794,36.056-31.67,44.578-44.473a177.645,177.645,0,0,1-31.662,30.814,3.987,3.987,0,0,1-6.38-3.036" fill="#e79b69"/>
    <path id="Trazado_641529" data-name="Trazado 641529" d="M174.24,313.714c-12.17-21.33-12.3-47.37-12.3-47.37l-23.816-5.627s3.047,35.689,1.851,53.241c10.637,6.921,22.771,4.965,34.266-.244" fill="#f7c257"/>
    <path id="Trazado_641530" data-name="Trazado 641530" d="M174.632,316.855c0-2.409-7.46-4.362-16.663-4.362s-16.662,1.953-16.662,4.362,7.46,4.362,16.662,4.362,16.663-1.953,16.663-4.362" fill="#e79b69"/>
    <path id="Trazado_641531" data-name="Trazado 641531" d="M175.417,318.687c0-2.409-7.46-4.362-16.663-4.362s-16.662,1.953-16.662,4.362,7.46,4.362,16.662,4.362,16.663-1.953,16.663-4.362" fill="#edb984"/>
    <path id="Trazado_641532" data-name="Trazado 641532" d="M141.408,314.811c-1-13.021,4.937-24.208,14.156-25.764a14.378,14.378,0,0,1,9.872,2.094,115.451,115.451,0,0,1-3.5-24.8l-23.816-5.627s3.047,35.69,1.851,53.242c.474.308.954.578,1.434.852" fill="#f4ac45"/>
    <path id="Trazado_641533" data-name="Trazado 641533" d="M161.4,343.986c-43.659,0-60.592-34.349-51.232-44.317,13.434-14.307,30.687,18.123,48.664,16.724s37.736-33.645,51.274-21.482c14.518,13.046-19.771,49.075-48.706,49.075" fill="#dd3a59"/>
    <path id="Trazado_641534" data-name="Trazado 641534" d="M210.1,294.911a9.978,9.978,0,0,0-6.339-2.718c-3.023,17.241-28.074,32.426-43.7,32.426-14.443,0-37.878-13.253-42.762-28.586a10.372,10.372,0,0,0-7.138,3.636c-9.36,9.967,7.573,44.317,51.233,44.317,28.934,0,63.224-36.03,48.705-49.075" fill="#c6284e"/>
    <path id="Trazado_641535" data-name="Trazado 641535" d="M155.309,343.986c15.619-8.637,51.389-25.948,55.383-34.7,2.447-5.362-.508-13.563-3.22-14.788-5.026-2.27-10.059.07-13.6,2.46s-38.566,47.025-38.566,47.025" fill="#edb984"/>
    <path id="Trazado_641536" data-name="Trazado 641536" d="M199.463,318.87c-11.766,6.849-23.635,9.682-30.49,7.86-7.454,9.341-13.663,17.256-13.663,17.256,12.63-6.985,38.431-19.64,49.957-28.854-1.821,1.294-3.759,2.548-5.8,3.738" fill="#e79b69"/>
    <path id="Trazado_641537" data-name="Trazado 641537" d="M132.049,246.25l-.588,24.493,8.955,4.063,2.44-20.883Z" fill="#f7c257"/>
    <path id="Trazado_641538" data-name="Trazado 641538" d="M141.017,269.661a32.88,32.88,0,0,0-1.853-3.068,28.9,28.9,0,0,0-7.421-7.625l-.283,11.775,8.956,4.063Z" fill="#f4ac45"/>
    <path id="Trazado_641539" data-name="Trazado 641539" d="M170.365,249.28l2.043,19.943-9.16,3.4L158.862,253.8Z" fill="#f7c257"/>
    <path id="Trazado_641540" data-name="Trazado 641540" d="M163.248,272.625l9.16-3.4-1.011-9.867a20.017,20.017,0,0,0-9.038,7.962c-.089.142-.162.287-.247.43Z" fill="#f4ac45"/>
    <path id="Trazado_641541" data-name="Trazado 641541" d="M140.174,285.712A97.032,97.032,0,0,0,168.8,281.7s-6.753-28.957-7.919-28.7c-3.874.866-7.8,1.477-22.158-2.012-2.764-.671,1.447,34.721,1.447,34.721" fill="#f7c257"/>
    <path id="Trazado_641542" data-name="Trazado 641542" d="M138.726,250.991l-5.176-3.675c3.509,8,10.431,13.445,18.4,13.445,7.125,0,13.412-4.354,17.172-10.993L160.885,253c-3.875.867-7.8,1.478-22.159-2.011" fill="#f4ac45"/>
    <path id="Trazado_641543" data-name="Trazado 641543" d="M142.628,251.9c.664,9.474,2.568,23.933,10.809,24.394,6.732.376,6.134-14.1,5.167-22.848-2.9.428-7.968.136-15.976-1.546" fill="#edb984"/>
    <path id="Trazado_641544" data-name="Trazado 641544" d="M159.083,259.223c-.108-2.047-.286-4.03-.48-5.782-3.039.45-7.526-.047-15.942-1.539l-.034-.007c.142,2.02.341,4.267.644,6.556a17.7,17.7,0,0,0,8.679,2.309,17.505,17.505,0,0,0,7.133-1.537" fill="#e79b69"/>
    <path id="Trazado_641545" data-name="Trazado 641545" d="M158.6,253.441c-.134.02-.277.036-.42.053.814,8.8,1.027,21.875-4.97,21.517-7.353-.438-9.321-13.568-10.029-23-.186-.039-.367-.074-.557-.114.664,9.474,2.568,23.933,10.809,24.394,6.732.376,6.134-14.1,5.167-22.848" fill="#e79b69"/>
    <path id="Trazado_641546" data-name="Trazado 641546" d="M145.512,252.356l-1.762-23.044,9.6,7.546,1.55,16.663s-.453,2.459-4.077,2.524c-2.1.038-5.307-3.689-5.307-3.689" fill="#d27558"/>
    <path id="Trazado_641547" data-name="Trazado 641547" d="M156.308,252.451c-7.021-2.878-12.494-10.587-13.11-21.252-.572-9.887,8.35-10.689,11.37-10.389a9.808,9.808,0,0,1,8.258,9.081c.694,6.665-1.8,18.042-6.518,22.56" fill="#edb984"/>
    <path id="Trazado_641548" data-name="Trazado 641548" d="M143.848,236.274c3.985-6.443,10.408-10.024,16.375-8.435a11.1,11.1,0,0,1,2.445.993,9.711,9.711,0,0,0-8.1-8.022c-3.019-.3-11.941.5-11.37,10.389a37.541,37.541,0,0,0,.65,5.075" fill="#e79b69"/>
    <path id="Trazado_641549" data-name="Trazado 641549" d="M141.157,223.733c-1.94,2.212-1.495,7.239-.783,10.094l3.661,11.147a16.4,16.4,0,0,1,.656-7.023c.466-1.165,7.882-16.613,3.246-17.734-1.941-.47-5.381,1.921-6.78,3.516" fill="#7a3d22"/>
    <path id="Trazado_641550" data-name="Trazado 641550" d="M143.828,234.315c-1.653-1.612-3.481-1.849-4.081-.529s.252,3.7,1.906,5.309,3.48,1.849,4.081.529-.253-3.7-1.906-5.309" fill="#edb984"/>
    <path id="Trazado_641551" data-name="Trazado 641551" d="M159.142,217.364c-3.344-4.591-11.394-3.061-14.4-1.247s-7.085,4.535-5.254,12.379c6.938-6.123,15.062-9.208,22.154-4.711,0,0,.842-1.83-2.5-6.421" fill="#f4ac45"/>
    <path id="Trazado_641552" data-name="Trazado 641552" d="M144.744,216.117a20.98,20.98,0,0,0-2.2,1.481c.7,2.1,2.983,3.923,6.2,5.12,4.359-1.588,8.8-1.532,12.9,1.067,0,0,.843-1.83-2.5-6.421s-11.394-3.061-14.4-1.247" fill="#f7c257"/>
    <path id="Trazado_641553" data-name="Trazado 641553" d="M144,225.082c5.34-9.639,16.853-19.728,25.5-14.874,6.485,3.642-5.759,16.018-5.759,16.018-6.009-6.6-13.265-4.781-19.736-1.144" fill="#dd3a59"/>
    <path id="Trazado_641554" data-name="Trazado 641554" d="M143.418,235.219c-1.027-1-2.164-1.15-2.54-.329s.151,2.3,1.177,3.3,2.164,1.149,2.54.329-.151-2.3-1.177-3.3" fill="#d27558"/>
    <path id="Trazado_641555" data-name="Trazado 641555" d="M144.177,236.873c-.677-.517-1.382-.482-1.575.078a2.008,2.008,0,0,0,.876,1.949c.677.517,1.382.482,1.575-.078a2.009,2.009,0,0,0-.876-1.949" fill="#edb984"/>
    <path id="Trazado_641556" data-name="Trazado 641556" d="M167.755,343.986c-15.725-7.614-52.585-23.177-57.144-31.45-2.8-5.09-.187-12.945,2.539-14.13,5.032-2.189,10.284.008,14,2.251s40.607,43.329,40.607,43.329" fill="#edb984"/>
    <path id="Trazado_641557" data-name="Trazado 641557" d="M140.156,327.166c-11.991-10.765-20.364-22.23-22.3-29.66a11.01,11.01,0,0,0-4.71.9c-2.725,1.185-5.341,9.041-2.538,14.131,3.382,6.136,24.526,16.279,41.644,24.218a121.478,121.478,0,0,1-12.1-9.588" fill="#e79b69"/>
    <path id="Trazado_641558" data-name="Trazado 641558" d="M169.66,343.986h-4.449s-1.4-.785-.96-2.006,9.008-11.123,9.008-11.123Z" fill="#f4dfc6"/>
    <path id="Trazado_641559" data-name="Trazado 641559" d="M153.251,343.986h4.7s1.239-2.617.777-3.838-14.983,3.991-14.983,3.991Z" fill="#f4dfc6"/>
    <path id="Trazado_641560" data-name="Trazado 641560" d="M94.024,321.7H73.218s-1.165,15.979,2.916,18.317,16.949,1.039,17.788-.13.1-18.187.1-18.187" fill="#827799"/>
    <path id="Trazado_641561" data-name="Trazado 641561" d="M108.687,279.636a.505.505,0,1,1-.613-.8,11.841,11.841,0,0,0,4.456-11.475c-.648-3.872-2.969-6.923-5.777-7.591-.83-.2-.518-1.2.312-1.006,3.178.756,5.79,4.117,6.5,8.361a12.917,12.917,0,0,1-4.879,12.507" fill="#ccc26a"/>
    <path id="Trazado_641562" data-name="Trazado 641562" d="M121.315,281.8a.51.51,0,1,1-.662-.763,10.517,10.517,0,0,0,3.736-11.008c-.89-3.715-3.4-6.642-6.252-7.283-.842-.189-.593-1.154.249-.964,3.226.725,6.048,3.949,7.024,8.02a11.468,11.468,0,0,1-4.1,12" fill="#ccc26a"/>
    <path id="Trazado_641563" data-name="Trazado 641563" d="M94.46,320.17H73.2a1.25,1.25,0,0,0-1.25,1.25v1.862a1.25,1.25,0,0,0,1.25,1.25H94.46Z" fill="#a797af"/>
    <path id="Trazado_641564" data-name="Trazado 641564" d="M99.773,191.21c-1.545-3.3-1.985-7.33-3.3-7.819s-5.656,2.578-3.286,5.511a37.549,37.549,0,0,0,5.179,5.156Z" fill="#edb984"/>
    <path id="Trazado_641565" data-name="Trazado 641565" d="M99.518,188.11c-4.371-4.956-3.966-10.831-4.541-11.226s-1.588,4.216.2,7.684,4.343,3.542,4.343,3.542" fill="#edb984"/>
    <path id="Trazado_641566" data-name="Trazado 641566" d="M98.282,189.417c-4.837-4.476-5.509-11.244-6.248-11.638s-.586,4.935,1.684,8.157a8.493,8.493,0,0,0,4.564,3.481" fill="#edb984"/>
    <path id="Trazado_641567" data-name="Trazado 641567" d="M96.923,191.415c-5.079-5.016-5.792-10.237-6.272-10.439-.461-.193-.409,3.533,1.469,6.418a9.137,9.137,0,0,0,4.8,4.021" fill="#edb984"/>
    <path id="Trazado_641568" data-name="Trazado 641568" d="M209.867,218.59c2.329-3.294,3.55-7.63,5.108-7.893s5.881,4.009,2.692,6.732a41.015,41.015,0,0,1-6.741,4.578c2.769-6.819,3.1-9.2-1.059-3.417" fill="#e79b69"/>
    <path id="Trazado_641569" data-name="Trazado 641569" d="M209.842,218.374c.469-4.34-2.06-10.626-1.183-11.088.835-.44,5.046,7.655,4.761,9.023-.295,1.421-3.767,3.814-3.578,2.065" fill="#edb984"/>
    <path id="Trazado_641570" data-name="Trazado 641570" d="M217.292,211.636c-.792-.4-3.241,3.643-2.853,4.155.356.47,1.293,1.177,2.937-1.6.834-1.408.665-2.177-.084-2.555" fill="#edb984"/>
    <path id="Trazado_641571" data-name="Trazado 641571" d="M215.915,209.862c-.792-.4-3.241,3.643-2.853,4.156.356.469,1.293,1.176,2.937-1.6.834-1.408.665-2.177-.084-2.555" fill="#edb984"/>
    <path id="Trazado_641572" data-name="Trazado 641572" d="M218.559,214.155c-.77-.452-3.227,2.74-2.854,3.237.342.455,1.25,1.194,2.9-1,.837-1.114.682-1.805-.046-2.233" fill="#edb984"/>
    <path id="Trazado_641573" data-name="Trazado 641573" d="M73.011,193.136c-7.75-14.454-13.21-30.58-16.924-47.981q43.872-13.1,86.191-24.078a195.739,195.739,0,0,0,10.469,49.552c-29.147,6.546-56.153,13.889-79.736,22.507" fill="#eae0c1"/>
    <path id="Trazado_641574" data-name="Trazado 641574" d="M140.79,125.325c.184-1.337.345-2.665.491-3.987q-31.64,8.188-64.207,17.644c.447,22.509,6.678,40.575,16.572,47.2q12.789-4,26.559-7.63c9.564-11.214,17.458-30.558,20.585-53.223" fill="#f2e9ce"/>
    <path id="Trazado_641575" data-name="Trazado 641575" d="M100.048,190.514c-.879-3.841,1.107-10.683.291-11.029-.775-.328-3.686,7.557-3.29,8.758.412,1.246,3.353,3.819,3,2.271" fill="#edb984"/>
    <path id="Trazado_641576" data-name="Trazado 641576" d="M154.033,235.776c.1-1.171-.406-2.162-1.13-2.211s-1.4.867-1.493,2.046.413,2.165,1.138,2.207,1.386-.872,1.485-2.042" fill="#473939"/>
    <path id="Trazado_641577" data-name="Trazado 641577" d="M160.937,235.569c.072-.965-.37-1.8-.989-1.864s-1.185.672-1.257,1.643.376,1.8,1,1.862,1.177-.677,1.249-1.641" fill="#473939"/>
    <path id="Trazado_641578" data-name="Trazado 641578" d="M149.569,233.143l-.129-.249a.917.917,0,0,1,.411-1.226l3.746-1.96a.924.924,0,0,1,1.26.366l.079.154Z" fill="#84473d"/>
    <path id="Trazado_641579" data-name="Trazado 641579" d="M156.856,236.594s-.14.219-.329.565c.875,1.761,1.847,4.718-1,4.2.017.076.015.159.039.232,4.794,1.585,2.043-3.892,1.292-5" fill="#d27558"/>
    <path id="Trazado_641580" data-name="Trazado 641580" d="M158.266,243.936c-.029.188-.057.375-.1.566-.512,2.043-2.155,3.137-3.448,2.773-1.193-.335-1.625-1.749-1.325-3.626Z" fill="#443239"/>
    <path id="Trazado_641581" data-name="Trazado 641581" d="M157.973,230.484l.039-.14a.528.528,0,0,1,.813-.366l2.768,1.711a1.075,1.075,0,0,1,.418,1.143l-.04.143Z" fill="#84473d"/>
    <path id="Trazado_641582" data-name="Trazado 641582" d="M157.441,245.375a1.97,1.97,0,0,0,.33-.736,4.205,4.205,0,0,0,.071-.436l-4.206-.338c-.092.685.007,1.049.244,1.28Z" fill="#f4e9d6"/>
  </g>
</svg>
