<svg xmlns="http://www.w3.org/2000/svg" width="139" height="129" viewBox="0 0 139 129">
  <g id="Grupo_929833" data-name="Grupo 929833" transform="translate(-285 -3820)">
    <rect id="Rectángulo_340121" data-name="Rectángulo 340121" width="139" height="129" transform="translate(285 3820)" fill="none"/>
    <g id="Grupo_929827" data-name="Grupo 929827" transform="translate(294 3807.96)">
      <g id="Grupo_927915" data-name="Grupo 927915" transform="translate(0 23.04)">
        <path id="Trazado_641296" data-name="Trazado 641296" d="M0,143.587c.2-.81.425-1.614.6-2.429,1.142-5.383,3.982-9.926,7.231-14.212,2.648-3.493,5.532-6.808,8.317-10.2.366-.446.765-.865,1.152-1.3-4.908-3.861-2.716-9.892,1.927-11.059-1.235-1.22-2.414-2.349-3.552-3.519a5.837,5.837,0,0,1-1.452-6.386A5.543,5.543,0,0,1,19.3,90.554a20.459,20.459,0,0,1,4.253.627c.889-2.824,2.893-4.813,6.278-4.673A5.9,5.9,0,0,1,35.482,91.1a25.565,25.565,0,0,1,4.753-.455,5.329,5.329,0,0,1,4.627,3.828,5.654,5.654,0,0,1-1.14,6.033c-1.188,1.293-2.551,2.426-4.009,3.793,2.69.9,4.35,2.4,4.77,4.954a5.943,5.943,0,0,1-2.732,6.121l4.819,5.5c0-3.366,0-6.482,0-9.6,0-2.429.456-2.888,2.872-2.889q5.88,0,11.761,0c2.028,0,2.587.561,2.588,2.575q0,24.054,0,48.107v1.376h7.781v-1.285q0-16.937,0-33.875c0-2.188.529-2.725,2.686-2.727q5.939,0,11.878,0c2.18,0,2.719.533,2.719,2.692q0,16.937,0,33.875v1.345h7.787V159.23q0-10.292,0-20.584c0-1.994.579-2.559,2.6-2.561q6,0,12,0c2.051,0,2.621.585,2.622,2.678,0,7.21,0,14.42,0,21.781,1.317,0,2.6.062,3.866-.018a2.87,2.87,0,0,1,2.719,1.178v6.588a3.274,3.274,0,0,1-2.848,1.156q-36.276-.041-72.553-.008a4.632,4.632,0,0,0-1.815.3,32.9,32.9,0,0,1-23.181,1.5c-9.99-2.977-16.831-9.337-19.494-19.7-.178-.693-.376-1.381-.565-2.072v-1.412q.1-1.308.2-2.615l-.2-.915v-.941m50.812,21.171-1.038.92h65.8c.235,0,.529.079.689-.032.192-.133.269-.432.395-.659.189-.924-.5-.677-.945-.677q-31.831-.011-63.663.012a4.043,4.043,0,0,0-1.238.435M102.587,139.9H100.5V160.5h9.521V139.9ZM52.473,128.5c.929,1.493,1.915,2.954,2.779,4.484,4.373,7.744,5.233,15.712,1.382,23.93-.572,1.219-1.307,2.362-1.977,3.558h5.3V112.24H52.51l-2.043-.1a2.376,2.376,0,0,0-.121.455c-.006,4.174-.014,8.348,0,12.522a1.815,1.815,0,0,0,.313.961c.573.831,1.2,1.622,1.811,2.429m25.161-2.11H75.392V160.5H85v-34.11ZM29.592,116.237c-2.352,0-4.705-.022-7.057.02a1.866,1.866,0,0,0-1.228.449A117.3,117.3,0,0,0,8.215,133c-2.428,3.776-4.252,7.791-4.416,12.344-.293,8.155,3.347,14.376,9.937,18.86,7.1,4.831,15.031,5.666,23.2,3.718,7.733-1.844,13.613-6.316,16.8-13.768,2.887-6.758,1.763-13.269-1.853-19.457-3.88-6.643-8.937-12.377-14.1-18.015a1.875,1.875,0,0,0-1.243-.421c-2.312-.04-4.626-.019-6.939-.019m-.774-11.945c2.165,0,3.655.021,5.143-.015a1.667,1.667,0,0,0,1.047-.334q2.906-2.828,5.736-5.736a2.3,2.3,0,0,0,.212-3.1,2.157,2.157,0,0,0-2.945-.519,4.165,4.165,0,0,1-6.281-2.65,2.273,2.273,0,0,0-4.4.027,4.162,4.162,0,0,1-6.292,2.609,2.156,2.156,0,0,0-2.937.556,2.289,2.289,0,0,0,.245,3.1c.773.833,1.681,1.55,2.385,2.434,2.263,2.844,4.9,4.692,8.081,3.634m.769,8.186c2.94,0,5.881.024,8.821-.01a2.208,2.208,0,1,0-.058-4.405c-2.156-.018-4.313,0-6.469,0-3.725,0-7.449-.017-11.173.008a2.2,2.2,0,0,0-2.133,3.286A2.508,2.508,0,0,0,21,112.48h8.586" transform="translate(0 -66.595)" fill="#030303"/>
        <path id="Trazado_641298" data-name="Trazado 641298" d="M.2,274.4q-.1,1.307-.2,2.615v-2.588q.1-.011.2-.026" transform="translate(0 -195.553)" fill="#282828"/>
        <path id="Trazado_641299" data-name="Trazado 641299" d="M.2,272.4q-.1.016-.2.026v-.941l.2.915" transform="translate(0 -193.552)" fill="#4b4b4b"/>
        <path id="Trazado_641300" data-name="Trazado 641300" d="M179.5,69.284a59.61,59.61,0,0,1-19.115-4.544c-14.039-5.961-25.215-15.211-32.346-28.869a80.473,80.473,0,0,1-3.9-10.145,1.841,1.841,0,0,1,1.006-2.537c.969-.39,1.848-.023,2.514,1.134a55.677,55.677,0,0,0,12.659,15.014,66.954,66.954,0,0,0,27,13.354c4.235,1.072,8.57,1.746,13.093,2.648.152-1.981.2-3.649.444-5.287a3.075,3.075,0,0,1,1-1.82,1.72,1.72,0,0,1,2.246.317q7.232,6.1,14.47,12.2c1.286,1.089,1.247,2.337-.106,3.328-5.337,3.912-10.693,7.8-16.034,11.7a2.009,2.009,0,0,1-2.292.293,1.953,1.953,0,0,1-.952-2.1c.113-1.522.2-3.046.311-4.685M134.84,39.95l.343.1L135,39.756l-.233-.167q.035.181.071.361m.427.119-.214.223c.314.434.62.873.942,1.3A57.5,57.5,0,0,0,147.825,53.3,60.257,60.257,0,0,0,181.14,65.6c1.763.09,2.349.813,2.239,2.567-.045.715-.1,1.429-.174,2.372l11.34-8.265-10.179-8.568c-.088,1.074-.176,1.919-.223,2.766-.1,1.833-.729,2.449-2.572,2.373a68.51,68.51,0,0,1-13.792-2.124c-11.873-2.963-22.741-7.908-31.883-16.24a4.689,4.689,0,0,0-.629-.414" transform="translate(-85.086 -23.04)" fill="#040303"/>
        <path id="Trazado_641301" data-name="Trazado 641301" d="M37.87,181.284c2.313,0,4.627-.021,6.939.019a1.875,1.875,0,0,1,1.243.421c5.168,5.638,10.224,11.372,14.105,18.015,3.615,6.188,4.739,12.7,1.853,19.457-3.183,7.452-9.063,11.924-16.8,13.768-8.169,1.948-16.1,1.112-23.2-3.718-6.589-4.484-10.23-10.7-9.937-18.86.163-4.553,1.988-8.568,4.416-12.344a117.322,117.322,0,0,1,13.092-16.29,1.867,1.867,0,0,1,1.228-.449c2.352-.042,4.7-.02,7.057-.02m-2.126,13.691c-.65.242-1.332.436-1.96.741a6.84,6.84,0,0,0-4.262,6.485c.012,3,1.682,4.988,4.367,6.1,1.181.488,2.483.676,3.711,1.063a19.515,19.515,0,0,1,3.935,1.422,2.7,2.7,0,0,1,.6,4.322c-2.378,2.176-8.686,2.01-9.663-2.09a1.8,1.8,0,0,0-2.4-1.3,1.872,1.872,0,0,0-1.146,2.469,7.847,7.847,0,0,0,5.463,5.511c1.006.321,1.591.611,1.5,1.844a1.814,1.814,0,0,0,1.867,1.869,1.9,1.9,0,0,0,1.845-2.021c.016-.386,0-.774,0-1a30.381,30.381,0,0,0,3.993-1.711,6.481,6.481,0,0,0,1.11-10.212,9.689,9.689,0,0,0-4.623-2.426c-1.478-.371-2.994-.618-4.437-1.089-1.662-.543-2.415-1.537-2.377-2.847a3.29,3.29,0,0,1,2.342-3.074,5.227,5.227,0,0,1,6.883,2.5,1.79,1.79,0,0,0,2.515,1.018,1.9,1.9,0,0,0,.844-2.686,8.144,8.144,0,0,0-4.778-4.427c-.473-.172-.952-.326-1.407-.481-.2-2.474-.647-3.23-1.908-3.244-1.239-.015-1.691.713-2.021,3.267" transform="translate(-8.277 -131.641)" fill="#fdc137"/>
        <path id="Trazado_641302" data-name="Trazado 641302" d="M247.495,213.673h7.363v34.11H247.5l0-34.11" transform="translate(-169.86 -153.875)" fill="#fbdd75"/>
        <path id="Trazado_641303" data-name="Trazado 641303" d="M167.319,168.554h7.447v48.235h-5.3c.67-1.2,1.406-2.339,1.977-3.558,3.851-8.218,2.991-16.186-1.382-23.93-.864-1.53-1.85-2.992-2.779-4.484q.018-8.132.037-16.263" transform="translate(-114.809 -122.909)" fill="#6bf3c0"/>
        <path id="Trazado_641304" data-name="Trazado 641304" d="M67.359,112.507c-3.185,1.058-5.818-.79-8.081-3.633-.7-.884-1.612-1.6-2.385-2.434a2.289,2.289,0,0,1-.245-3.1,2.156,2.156,0,0,1,2.937-.556,4.161,4.161,0,0,0,6.292-2.609,2.1,2.1,0,0,1,2.248-1.708,2.082,2.082,0,0,1,2.148,1.68,4.165,4.165,0,0,0,6.281,2.65,2.157,2.157,0,0,1,2.945.519,2.3,2.3,0,0,1-.212,3.1q-2.822,2.913-5.736,5.736a1.667,1.667,0,0,1-1.046.334c-1.488.036-2.978.015-5.144.015" transform="translate(-38.54 -74.81)" fill="#fcc037"/>
        <path id="Trazado_641305" data-name="Trazado 641305" d="M327.032,256.745h7.439v20.594h-7.443q0-10.3,0-20.594" transform="translate(-224.445 -183.436)" fill="#fd636e"/>
        <path id="Trazado_641306" data-name="Trazado 641306" d="M69.54,159.63H60.955a2.508,2.508,0,0,1-2.426-1.129,2.2,2.2,0,0,1,2.133-3.286c3.724-.024,7.449-.008,11.173-.008,2.156,0,4.313-.013,6.469,0a2.208,2.208,0,1,1,.058,4.405c-2.94.035-5.881.01-8.821.011" transform="translate(-39.953 -113.746)" fill="#807380"/>
        <path id="Trazado_641307" data-name="Trazado 641307" d="M242.587,213.673l0,34.11h-2.247v-34.11Z" transform="translate(-164.952 -153.875)" fill="#f6c961"/>
        <path id="Trazado_641308" data-name="Trazado 641308" d="M225.56,336.206c-.126.227-.2.525-.395.658-.16.111-.454.032-.689.032h-65.8l1.038-.921a6.365,6.365,0,0,0,1.21.237c4.387.017,8.775.012,13.162.011l51.473-.018" transform="translate(-108.903 -237.813)" fill="#776b77"/>
        <path id="Trazado_641309" data-name="Trazado 641309" d="M227.832,335.162l-51.473.018c-4.387,0-8.775.007-13.162-.011a6.366,6.366,0,0,1-1.21-.237,4.052,4.052,0,0,1,1.238-.435q31.831-.032,63.663-.013c.442,0,1.134-.247.945.677" transform="translate(-111.175 -236.769)" fill="#9c909c"/>
        <path id="Trazado_641310" data-name="Trazado 641310" d="M322.485,256.745q0,10.3,0,20.594H320.4V256.745Z" transform="translate(-219.898 -183.436)" fill="#fa4755"/>
        <path id="Trazado_641311" data-name="Trazado 641311" d="M162.647,168.327q-.018,8.132-.037,16.263c-.608-.807-1.237-1.6-1.811-2.429a1.815,1.815,0,0,1-.313-.961c-.019-4.174-.01-8.348,0-12.522a2.391,2.391,0,0,1,.121-.455l2.044.1" transform="translate(-110.137 -122.682)" fill="#03dc94"/>
        <path id="Trazado_641312" data-name="Trazado 641312" d="M159.507,77.329a4.689,4.689,0,0,1,.629.414c9.142,8.332,20.01,13.276,31.883,16.24a68.51,68.51,0,0,0,13.792,2.124c1.843.076,2.469-.54,2.572-2.373.047-.847.135-1.691.223-2.766l10.179,8.568-11.34,8.265c.07-.944.129-1.658.174-2.372.111-1.753-.476-2.476-2.239-2.567a60.257,60.257,0,0,1-33.315-12.3,57.5,57.5,0,0,1-11.829-11.707c-.322-.428-.629-.867-.942-1.3l.214-.223" transform="translate(-109.326 -60.299)" fill="#fbdc74"/>
        <path id="Trazado_641313" data-name="Trazado 641313" d="M158.459,76.16l-.071-.361.233.167-.162.194" transform="translate(-108.704 -59.249)" fill="#fbdc74"/>
        <path id="Trazado_641314" data-name="Trazado 641314" d="M158.775,76.33l.181.294-.343-.1.162-.194" transform="translate(-108.859 -59.614)" fill="#fbdc74"/>
        <path id="Trazado_641315" data-name="Trazado 641315" d="M72.413,217.793c.33-2.555.782-3.282,2.021-3.267,1.261.015,1.712.77,1.908,3.244.455.155.934.309,1.407.481a8.144,8.144,0,0,1,4.778,4.427,1.9,1.9,0,0,1-.844,2.686,1.79,1.79,0,0,1-2.515-1.018,5.227,5.227,0,0,0-6.883-2.5,3.29,3.29,0,0,0-2.342,3.074c-.038,1.309.716,2.3,2.377,2.847,1.444.472,2.96.718,4.437,1.089a9.689,9.689,0,0,1,4.623,2.426,6.481,6.481,0,0,1-1.11,10.212,30.385,30.385,0,0,1-3.993,1.711c0,.224.013.611,0,1a1.9,1.9,0,0,1-1.845,2.021,1.814,1.814,0,0,1-1.867-1.869c.088-1.233-.5-1.523-1.5-1.844A7.847,7.847,0,0,1,65.6,237a1.872,1.872,0,0,1,1.146-2.469,1.8,1.8,0,0,1,2.4,1.3c.978,4.1,7.285,4.266,9.663,2.09a2.7,2.7,0,0,0-.6-4.322,19.515,19.515,0,0,0-3.935-1.422c-1.227-.387-2.529-.575-3.711-1.063-2.685-1.109-4.355-3.093-4.367-6.1a6.84,6.84,0,0,1,4.262-6.485c.628-.306,1.311-.5,1.96-.741" transform="translate(-44.947 -154.46)" fill="#040301"/>
      </g>
    </g>
  </g>
</svg>
