<svg id="Grupo_927912" data-name="Grupo 927912" xmlns="http://www.w3.org/2000/svg" xmlns:xlink="http://www.w3.org/1999/xlink" width="349.719" height="308.245" viewBox="0 0 349.719 308.245">
  <defs>
    <clipPath id="clip-path">
      <rect id="Rectángulo_339256" data-name="Rectángulo 339256" width="349.719" height="308.245" fill="none"/>
    </clipPath>
    <clipPath id="clip-path-3">
      <rect id="Rectángulo_339133" data-name="Rectángulo 339133" width="239.087" height="165.187" fill="none"/>
    </clipPath>
    <clipPath id="clip-path-4">
      <rect id="Rectángulo_339166" data-name="Rectángulo 339166" width="24.086" height="24.086" fill="none"/>
    </clipPath>
    <clipPath id="clip-path-5">
      <rect id="Rectángulo_339168" data-name="Rectángulo 339168" width="24.284" height="24.284" fill="none"/>
    </clipPath>
    <clipPath id="clip-path-6">
      <rect id="Rectángulo_339171" data-name="Rectángulo 339171" width="25.548" height="25.549" fill="none"/>
    </clipPath>
    <clipPath id="clip-path-7">
      <rect id="Rectángulo_339174" data-name="Rectángulo 339174" width="25.232" height="25.232" fill="none"/>
    </clipPath>
    <clipPath id="clip-path-8">
      <rect id="Rectángulo_339177" data-name="Rectángulo 339177" width="26.607" height="26.606" fill="none"/>
    </clipPath>
    <clipPath id="clip-path-9">
      <rect id="Rectángulo_339180" data-name="Rectángulo 339180" width="24.107" height="24.108" fill="none"/>
    </clipPath>
    <clipPath id="clip-path-10">
      <rect id="Rectángulo_339183" data-name="Rectángulo 339183" width="24.349" height="24.349" fill="none"/>
    </clipPath>
    <clipPath id="clip-path-11">
      <rect id="Rectángulo_339185" data-name="Rectángulo 339185" width="25.432" height="25.431" fill="none"/>
    </clipPath>
    <clipPath id="clip-path-13">
      <rect id="Rectángulo_339195" data-name="Rectángulo 339195" width="25.429" height="25.429" fill="none"/>
    </clipPath>
    <clipPath id="clip-path-14">
      <rect id="Rectángulo_339205" data-name="Rectángulo 339205" width="27.196" height="27.197" fill="none"/>
    </clipPath>
    <clipPath id="clip-path-15">
      <rect id="Rectángulo_339209" data-name="Rectángulo 339209" width="23.35" height="23.35" fill="none"/>
    </clipPath>
    <clipPath id="clip-path-16">
      <rect id="Rectángulo_339213" data-name="Rectángulo 339213" width="27.413" height="27.412" fill="none"/>
    </clipPath>
    <clipPath id="clip-path-17">
      <rect id="Rectángulo_339226" data-name="Rectángulo 339226" width="23.35" height="23.351" fill="none"/>
    </clipPath>
    <clipPath id="clip-path-18">
      <rect id="Rectángulo_339255" data-name="Rectángulo 339255" width="291.795" height="291.795" fill="none"/>
    </clipPath>
    <clipPath id="clip-path-19">
      <rect id="Rectángulo_339233" data-name="Rectángulo 339233" width="110.711" height="93.976" fill="none"/>
    </clipPath>
    <clipPath id="clip-path-20">
      <rect id="Rectángulo_339234" data-name="Rectángulo 339234" width="53.722" height="19.236" fill="none"/>
    </clipPath>
    <clipPath id="clip-path-21">
      <rect id="Rectángulo_339235" data-name="Rectángulo 339235" width="53.428" height="49.776" fill="none"/>
    </clipPath>
    <clipPath id="clip-path-22">
      <rect id="Rectángulo_339236" data-name="Rectángulo 339236" width="96.541" height="117.645" fill="none"/>
    </clipPath>
    <clipPath id="clip-path-23">
      <rect id="Rectángulo_339237" data-name="Rectángulo 339237" width="54.703" height="66.277" fill="none"/>
    </clipPath>
    <clipPath id="clip-path-24">
      <rect id="Rectángulo_339238" data-name="Rectángulo 339238" width="54.129" height="64.52" fill="none"/>
    </clipPath>
    <clipPath id="clip-path-25">
      <rect id="Rectángulo_339239" data-name="Rectángulo 339239" width="15.693" height="25.323" fill="none"/>
    </clipPath>
    <clipPath id="clip-path-26">
      <rect id="Rectángulo_339240" data-name="Rectángulo 339240" width="43.147" height="129.257" fill="none"/>
    </clipPath>
    <clipPath id="clip-path-27">
      <rect id="Rectángulo_339241" data-name="Rectángulo 339241" width="20.862" height="25.102" fill="none"/>
    </clipPath>
    <clipPath id="clip-path-28">
      <rect id="Rectángulo_339243" data-name="Rectángulo 339243" width="18.265" height="80.334" fill="none"/>
    </clipPath>
    <clipPath id="clip-path-29">
      <rect id="Rectángulo_339244" data-name="Rectángulo 339244" width="20.357" height="48.382" fill="none"/>
    </clipPath>
    <clipPath id="clip-path-30">
      <rect id="Rectángulo_339245" data-name="Rectángulo 339245" width="22.151" height="18.029" fill="none"/>
    </clipPath>
    <clipPath id="clip-path-31">
      <rect id="Rectángulo_339246" data-name="Rectángulo 339246" width="3.482" height="10.467" fill="none"/>
    </clipPath>
    <clipPath id="clip-path-32">
      <rect id="Rectángulo_339247" data-name="Rectángulo 339247" width="58.494" height="152.639" fill="none"/>
    </clipPath>
    <clipPath id="clip-path-33">
      <rect id="Rectángulo_339248" data-name="Rectángulo 339248" width="45.735" height="45.013" fill="none"/>
    </clipPath>
    <clipPath id="clip-path-34">
      <rect id="Rectángulo_339249" data-name="Rectángulo 339249" width="15.83" height="16.118" fill="none"/>
    </clipPath>
    <clipPath id="clip-path-35">
      <rect id="Rectángulo_339250" data-name="Rectángulo 339250" width="25.494" height="93.399" fill="none"/>
    </clipPath>
    <clipPath id="clip-path-36">
      <rect id="Rectángulo_339251" data-name="Rectángulo 339251" width="90.789" height="122.859" fill="none"/>
    </clipPath>
    <clipPath id="clip-path-37">
      <rect id="Rectángulo_339252" data-name="Rectángulo 339252" width="46.328" height="36.054" fill="none"/>
    </clipPath>
    <clipPath id="clip-path-38">
      <rect id="Rectángulo_339253" data-name="Rectángulo 339253" width="21.215" height="12.634" fill="none"/>
    </clipPath>
    <clipPath id="clip-path-39">
      <rect id="Rectángulo_339254" data-name="Rectángulo 339254" width="47.648" height="67.991" fill="none"/>
    </clipPath>
  </defs>
  <g id="Grupo_927911" data-name="Grupo 927911" clip-path="url(#clip-path)">
    <g id="Grupo_927845" data-name="Grupo 927845" transform="translate(29 8.373)">
      <g id="Grupo_927844" data-name="Grupo 927844" clip-path="url(#clip-path)">
        <g id="Grupo_927801" data-name="Grupo 927801" transform="translate(53.176 67.32)" style="mix-blend-mode: multiply;isolation: isolate">
          <g id="Grupo_927800" data-name="Grupo 927800">
            <g id="Grupo_927799" data-name="Grupo 927799" clip-path="url(#clip-path-3)">
              <path id="Trazado_641171" data-name="Trazado 641171" d="M326.319,115.355H95.005a3.886,3.886,0,0,0-3.886,3.887V276.656a3.886,3.886,0,0,0,3.886,3.887H326.319a3.887,3.887,0,0,0,3.887-3.887V119.242a3.887,3.887,0,0,0-3.887-3.887" transform="translate(-91.119 -115.355)" fill="#d0d2d3"/>
            </g>
          </g>
        </g>
        <path id="Trazado_641172" data-name="Trazado 641172" d="M333.2,108.473H101.887A3.886,3.886,0,0,0,98,112.36V269.774a3.886,3.886,0,0,0,3.886,3.887H333.2a3.887,3.887,0,0,0,3.887-3.887V112.36a3.887,3.887,0,0,0-3.887-3.887" transform="translate(-40.809 -45.169)" fill="#726658"/>
        <rect id="Rectángulo_339134" data-name="Rectángulo 339134" width="223.914" height="150.015" transform="translate(64.778 70.89)" fill="#fafaf8"/>
        <path id="Trazado_641173" data-name="Trazado 641173" d="M114.77,125.242H334.914v-3.769H111V271.487h3.769Z" transform="translate(-46.222 -50.583)" fill="#ddd"/>
        <path id="Trazado_641174" data-name="Trazado 641174" d="M138.32,126.358a3.644,3.644,0,1,1-3.644-3.644,3.644,3.644,0,0,1,3.644,3.644" transform="translate(-54.563 -51.099)" fill="#a6a8ab"/>
        <path id="Trazado_641175" data-name="Trazado 641175" d="M129.448,115.1a1.459,1.459,0,1,1,0-2.918,8.548,8.548,0,1,0-8.125-11.21,1.459,1.459,0,1,1-2.773-.909,11.467,11.467,0,1,1,10.9,15.036" transform="translate(-49.335 -38.378)" fill="#594a42"/>
        <path id="Trazado_641176" data-name="Trazado 641176" d="M193.367,126.358a3.644,3.644,0,1,1-3.644-3.644,3.645,3.645,0,0,1,3.644,3.644" transform="translate(-77.485 -51.099)" fill="#a6a8ab"/>
        <path id="Trazado_641177" data-name="Trazado 641177" d="M184.5,115.1a1.459,1.459,0,1,1,0-2.918,8.548,8.548,0,1,0-8.125-11.21,1.459,1.459,0,1,1-2.773-.907A11.467,11.467,0,1,1,184.5,115.1" transform="translate(-72.257 -38.378)" fill="#594a42"/>
        <path id="Trazado_641178" data-name="Trazado 641178" d="M248.415,126.358a3.644,3.644,0,1,1-3.644-3.644,3.644,3.644,0,0,1,3.644,3.644" transform="translate(-100.408 -51.099)" fill="#a6a8ab"/>
        <path id="Trazado_641179" data-name="Trazado 641179" d="M239.543,115.1a1.459,1.459,0,1,1,0-2.918,8.548,8.548,0,1,0-8.125-11.21,1.459,1.459,0,1,1-2.773-.909,11.467,11.467,0,1,1,10.9,15.036" transform="translate(-95.179 -38.378)" fill="#594a42"/>
        <path id="Trazado_641180" data-name="Trazado 641180" d="M303.462,126.358a3.644,3.644,0,1,1-3.644-3.644,3.644,3.644,0,0,1,3.644,3.644" transform="translate(-123.33 -51.099)" fill="#a6a8ab"/>
        <path id="Trazado_641181" data-name="Trazado 641181" d="M294.59,115.1a1.459,1.459,0,1,1,0-2.918,8.548,8.548,0,1,0-8.125-11.21,1.459,1.459,0,1,1-2.773-.907,11.467,11.467,0,1,1,10.9,15.036" transform="translate(-118.102 -38.378)" fill="#594a42"/>
        <path id="Trazado_641182" data-name="Trazado 641182" d="M358.509,126.358a3.644,3.644,0,1,1-3.644-3.644,3.644,3.644,0,0,1,3.644,3.644" transform="translate(-146.252 -51.099)" fill="#a6a8ab"/>
        <path id="Trazado_641183" data-name="Trazado 641183" d="M349.637,115.1a1.459,1.459,0,1,1,0-2.918,8.548,8.548,0,1,0-8.125-11.21,1.459,1.459,0,1,1-2.773-.909,11.467,11.467,0,1,1,10.9,15.036" transform="translate(-141.024 -38.378)" fill="#594a42"/>
        <path id="Trazado_641184" data-name="Trazado 641184" d="M413.556,126.358a3.644,3.644,0,1,1-3.644-3.644,3.644,3.644,0,0,1,3.644,3.644" transform="translate(-169.174 -51.099)" fill="#a6a8ab"/>
        <path id="Trazado_641185" data-name="Trazado 641185" d="M404.684,115.1a1.459,1.459,0,1,1,0-2.918,8.548,8.548,0,1,0-8.125-11.21,1.459,1.459,0,1,1-2.773-.909,11.467,11.467,0,1,1,10.9,15.036" transform="translate(-163.946 -38.378)" fill="#594a42"/>
        <path id="Trazado_641186" data-name="Trazado 641186" d="M468.6,126.358a3.644,3.644,0,1,1-3.644-3.644,3.644,3.644,0,0,1,3.644,3.644" transform="translate(-192.096 -51.099)" fill="#a6a8ab"/>
        <path id="Trazado_641187" data-name="Trazado 641187" d="M459.732,115.1a1.459,1.459,0,0,1,0-2.918,8.548,8.548,0,1,0-8.125-11.21,1.459,1.459,0,1,1-2.773-.907,11.467,11.467,0,1,1,10.9,15.036" transform="translate(-186.868 -38.378)" fill="#594a42"/>
        <path id="Trazado_641188" data-name="Trazado 641188" d="M120.916,163.9l53.067-.35,53.067-.263c17.689-.095,35.378-.29,53.067-.175,17.689.159,35.378.286,53.067.788a.088.088,0,0,1,0,.175c-17.689.5-35.378.628-53.067.788-17.689.114-35.378-.081-53.067-.175l-53.067-.263-53.067-.35a.088.088,0,0,1,0-.175" transform="translate(-50.314 -67.907)" fill="#c1b49a"/>
        <path id="Trazado_641189" data-name="Trazado 641189" d="M162.987,145.42l.35,32.569.263,32.57c.095,10.856.29,21.712.175,32.569-.063,5.428-.126,10.857-.265,16.284l-.211,8.142c-.106,2.714-.178,5.429-.312,8.142a.088.088,0,0,1-.175,0c-.134-2.714-.207-5.428-.312-8.142l-.211-8.142c-.139-5.428-.2-10.857-.265-16.284-.115-10.857.081-21.713.175-32.569l.263-32.57.35-32.569a.088.088,0,0,1,.175,0" transform="translate(-67.454 -60.519)" fill="#c1b49a"/>
        <path id="Trazado_641190" data-name="Trazado 641190" d="M441.572,145.42l.35,32.569.263,32.57c.095,10.856.29,21.712.175,32.569-.063,5.428-.126,10.857-.265,16.284l-.211,8.142c-.106,2.714-.178,5.429-.312,8.142a.088.088,0,0,1-.175,0c-.134-2.714-.207-5.428-.312-8.142l-.211-8.142c-.139-5.428-.2-10.857-.265-16.284-.114-10.857.081-21.713.175-32.569l.263-32.57.35-32.569a.088.088,0,0,1,.175,0" transform="translate(-183.46 -60.519)" fill="#c1b49a"/>
        <path id="Trazado_641191" data-name="Trazado 641191" d="M301.856,145.42l.35,32.569.263,32.57c.095,10.856.289,21.712.175,32.569-.063,5.428-.126,10.857-.265,16.284l-.211,8.142c-.106,2.714-.178,5.429-.312,8.142a.088.088,0,0,1-.175,0c-.134-2.714-.207-5.428-.312-8.142l-.211-8.142c-.139-5.428-.2-10.857-.265-16.284-.114-10.857.081-21.713.175-32.569l.263-32.57.35-32.569a.088.088,0,0,1,.175,0" transform="translate(-125.28 -60.519)" fill="#c1b49a"/>
        <rect id="Rectángulo_339135" data-name="Rectángulo 339135" width="15.201" height="2.918" transform="translate(72.76 109.427)" fill="#8a5e3c"/>
        <rect id="Rectángulo_339136" data-name="Rectángulo 339136" width="31.098" height="2.334" transform="translate(120.418 83.99)" fill="#1c75bb"/>
        <rect id="Rectángulo_339137" data-name="Rectángulo 339137" width="15.361" height="1.751" transform="translate(152.59 104.445)" fill="#ee4136"/>
        <rect id="Rectángulo_339138" data-name="Rectángulo 339138" width="15.361" height="1.751" transform="translate(210.395 114.088)" fill="#c1b49a"/>
        <rect id="Rectángulo_339139" data-name="Rectángulo 339139" width="13.156" height="1.751" transform="translate(211.433 151.442)" fill="#ee4136"/>
        <rect id="Rectángulo_339140" data-name="Rectángulo 339140" width="13.156" height="1.751" transform="translate(187.894 153.314)" fill="#ee4136"/>
        <rect id="Rectángulo_339141" data-name="Rectángulo 339141" width="12.156" height="1.751" transform="translate(269.261 191.46)" fill="#ee4136"/>
        <rect id="Rectángulo_339142" data-name="Rectángulo 339142" width="16.165" height="1.751" transform="translate(267.257 197.186)" fill="#ee4136"/>
        <rect id="Rectángulo_339143" data-name="Rectángulo 339143" width="16.897" height="1.751" transform="translate(186.023 159.28)" fill="#ee4136"/>
        <rect id="Rectángulo_339144" data-name="Rectángulo 339144" width="15.443" height="1.751" transform="translate(210.289 157.388)" fill="#1c75bb"/>
        <rect id="Rectángulo_339145" data-name="Rectángulo 339145" width="15.443" height="1.751" transform="translate(210.289 163.335)" fill="#1c75bb"/>
        <rect id="Rectángulo_339146" data-name="Rectángulo 339146" width="17.648" height="1.751" transform="translate(209.251 120.548)" fill="#c1b49a"/>
        <rect id="Rectángulo_339147" data-name="Rectángulo 339147" width="10.131" height="1.751" transform="translate(105.402 150.954)" fill="#ee4136"/>
        <rect id="Rectángulo_339148" data-name="Rectángulo 339148" width="12.924" height="1.751" transform="translate(104.005 155.866)" fill="#ee4136"/>
        <rect id="Rectángulo_339149" data-name="Rectángulo 339149" width="12.924" height="1.751" transform="translate(104.005 161.646)" fill="#ee4136"/>
        <rect id="Rectángulo_339150" data-name="Rectángulo 339150" width="23.085" height="1.751" transform="translate(148.728 109.497)" fill="#ee4136"/>
        <rect id="Rectángulo_339151" data-name="Rectángulo 339151" width="16.545" height="1.751" transform="translate(151.998 119.542)" fill="#1c75bb"/>
        <rect id="Rectángulo_339152" data-name="Rectángulo 339152" width="19.279" height="1.751" transform="translate(150.631 124.22)" fill="#1c75bb"/>
        <rect id="Rectángulo_339153" data-name="Rectángulo 339153" width="53.136" height="2.334" transform="translate(109.399 90.128)" fill="#ee4136"/>
        <rect id="Rectángulo_339154" data-name="Rectángulo 339154" width="31.098" height="2.334" transform="translate(203.071 83.99)" fill="#1c75bb"/>
        <rect id="Rectángulo_339155" data-name="Rectángulo 339155" width="53.136" height="2.334" transform="translate(192.051 90.128)" fill="#8a5e3c"/>
        <rect id="Rectángulo_339156" data-name="Rectángulo 339156" width="19.518" height="2.918" transform="translate(70.602 118.11)" fill="#8a5e3c"/>
        <rect id="Rectángulo_339157" data-name="Rectángulo 339157" width="16.315" height="2.918" transform="translate(264.953 151.428)" fill="#ee4136"/>
        <rect id="Rectángulo_339158" data-name="Rectángulo 339158" width="19.518" height="2.918" transform="translate(263.351 103.862)" fill="#1c75bb"/>
        <rect id="Rectángulo_339159" data-name="Rectángulo 339159" width="19.518" height="2.918" transform="translate(263.351 160.159)" fill="#ee4136"/>
        <rect id="Rectángulo_339160" data-name="Rectángulo 339160" width="15.201" height="2.918" transform="translate(72.76 148.581)" fill="#1c75bb"/>
        <rect id="Rectángulo_339161" data-name="Rectángulo 339161" width="15.201" height="2.918" transform="translate(72.76 165.947)" fill="#1c75bb"/>
        <rect id="Rectángulo_339162" data-name="Rectángulo 339162" width="19.518" height="2.918" transform="translate(70.602 157.264)" fill="#1c75bb"/>
        <rect id="Rectángulo_339163" data-name="Rectángulo 339163" width="15.201" height="2.918" transform="translate(72.76 187.736)" fill="#8a5e3c"/>
        <rect id="Rectángulo_339164" data-name="Rectángulo 339164" width="19.518" height="2.918" transform="translate(70.602 196.419)" fill="#8a5e3c"/>
        <g id="Grupo_927804" data-name="Grupo 927804" transform="translate(183.418 105.01)" style="mix-blend-mode: multiply;isolation: isolate">
          <g id="Grupo_927803" data-name="Grupo 927803">
            <g id="Grupo_927802" data-name="Grupo 927802" clip-path="url(#clip-path-4)">
              <rect id="Rectángulo_339165" data-name="Rectángulo 339165" width="23.35" height="23.35" transform="translate(0 23.338) rotate(-88.165)" fill="#ddd"/>
            </g>
          </g>
        </g>
        <g id="Grupo_927807" data-name="Grupo 927807" transform="translate(229.263 146.85)" style="mix-blend-mode: multiply;isolation: isolate">
          <g id="Grupo_927806" data-name="Grupo 927806">
            <g id="Grupo_927805" data-name="Grupo 927805" clip-path="url(#clip-path-5)">
              <rect id="Rectángulo_339167" data-name="Rectángulo 339167" width="23.35" height="23.35" transform="translate(0 23.331) rotate(-87.66)" fill="#ddd"/>
            </g>
          </g>
        </g>
        <rect id="Rectángulo_339169" data-name="Rectángulo 339169" width="23.35" height="23.35" transform="translate(228.12 167.11) rotate(-81.319)" fill="#ffdf00"/>
        <g id="Grupo_927810" data-name="Grupo 927810" transform="translate(228.96 105.761)" style="mix-blend-mode: multiply;isolation: isolate">
          <g id="Grupo_927809" data-name="Grupo 927809">
            <g id="Grupo_927808" data-name="Grupo 927808" clip-path="url(#clip-path-6)">
              <rect id="Rectángulo_339170" data-name="Rectángulo 339170" width="23.35" height="23.351" transform="translate(0 2.313) rotate(-5.686)" fill="#ddd"/>
            </g>
          </g>
        </g>
        <rect id="Rectángulo_339172" data-name="Rectángulo 339172" width="23.35" height="23.35" transform="translate(228.647 107.354) rotate(-8.294)" fill="#d9ee00"/>
        <g id="Grupo_927813" data-name="Grupo 927813" transform="translate(101.844 187.089)" style="mix-blend-mode: multiply;isolation: isolate">
          <g id="Grupo_927812" data-name="Grupo 927812">
            <g id="Grupo_927811" data-name="Grupo 927811" clip-path="url(#clip-path-7)">
              <rect id="Rectángulo_339173" data-name="Rectángulo 339173" width="23.35" height="23.35" transform="translate(0 1.965) rotate(-4.827)" fill="#ddd"/>
            </g>
          </g>
        </g>
        <rect id="Rectángulo_339175" data-name="Rectángulo 339175" width="23.35" height="23.35" transform="translate(102.1 188.22) rotate(-6.551)" fill="#f76298"/>
        <g id="Grupo_927816" data-name="Grupo 927816" transform="translate(260.642 115.497)" style="mix-blend-mode: multiply;isolation: isolate">
          <g id="Grupo_927815" data-name="Grupo 927815">
            <g id="Grupo_927814" data-name="Grupo 927814" clip-path="url(#clip-path-8)">
              <rect id="Rectángulo_339176" data-name="Rectángulo 339176" width="23.35" height="23.35" transform="translate(0 23.082) rotate(-81.319)" fill="#ddd"/>
            </g>
          </g>
        </g>
        <rect id="Rectángulo_339178" data-name="Rectángulo 339178" width="23.35" height="23.35" transform="matrix(0.22, -0.975, 0.975, 0.22, 259.151, 136.368)" fill="#d9ee00"/>
        <path id="Trazado_641192" data-name="Trazado 641192" d="M183,246.919a16.572,16.572,0,0,0-8.489,4.275,19.388,19.388,0,0,0-3.158,3.566A12.07,12.07,0,0,0,169.43,259a7.655,7.655,0,0,0-.064,2.274,9.62,9.62,0,0,0,.587,2.215,11.121,11.121,0,0,0,2.632,3.773,10.464,10.464,0,0,0,3.894,2.4,10.075,10.075,0,0,0,4.541.392,12.137,12.137,0,0,0,7.868-4.476,14.01,14.01,0,0,0,2.244-4.081,11.881,11.881,0,0,0,.7-4.584,7.714,7.714,0,0,0-1.53-4.27c-.119-.15-.224-.314-.355-.454l-.417-.4a5.164,5.164,0,0,0-.425-.392l-.463-.341a9.562,9.562,0,0,0-2.127-.976,13.741,13.741,0,0,0-4.718-.617,10.38,10.38,0,0,0-4.631,1.193,9.908,9.908,0,0,1,4.609-1.5,14.176,14.176,0,0,1,4.9.378,9.937,9.937,0,0,1,2.319.956l.53.359a5.631,5.631,0,0,1,.484.411l.474.425c.151.149.275.323.414.485a8.444,8.444,0,0,1,1.841,4.68,12.305,12.305,0,0,1-.644,4.978,15.06,15.06,0,0,1-2.343,4.435,13.243,13.243,0,0,1-8.584,4.95,11.242,11.242,0,0,1-5.056-.467,10.749,10.749,0,0,1-2.306-1.106,11.489,11.489,0,0,1-1.991-1.577,12.192,12.192,0,0,1-2.816-4.19,10.316,10.316,0,0,1-.606-2.484,8.582,8.582,0,0,1,.142-2.562,10.162,10.162,0,0,1,.882-2.375,11.248,11.248,0,0,1,.613-1.09,10.6,10.6,0,0,1,.7-1.029,19.827,19.827,0,0,1,7.569-6.158,13.044,13.044,0,0,1,4.7-1.244" transform="translate(-70.108 -102.82)" fill="#ee4136"/>
        <g id="Grupo_927819" data-name="Grupo 927819" transform="translate(181.68 184.637)" style="mix-blend-mode: multiply;isolation: isolate">
          <g id="Grupo_927818" data-name="Grupo 927818">
            <g id="Grupo_927817" data-name="Grupo 927817" clip-path="url(#clip-path-9)">
              <rect id="Rectángulo_339179" data-name="Rectángulo 339179" width="23.35" height="23.35" transform="translate(0 0.77) rotate(-1.889)" fill="#ddd"/>
            </g>
          </g>
        </g>
        <rect id="Rectángulo_339181" data-name="Rectángulo 339181" width="23.35" height="23.35" transform="translate(181.576 184.316) rotate(-5.366)" fill="#89d7f7"/>
        <g id="Grupo_927822" data-name="Grupo 927822" transform="translate(104.755 105.164)" style="mix-blend-mode: multiply;isolation: isolate">
          <g id="Grupo_927821" data-name="Grupo 927821">
            <g id="Grupo_927820" data-name="Grupo 927820" clip-path="url(#clip-path-10)">
              <rect id="Rectángulo_339182" data-name="Rectángulo 339182" width="23.35" height="23.35" transform="translate(0 1.02) rotate(-2.504)" fill="#ddd"/>
            </g>
          </g>
        </g>
        <g id="Grupo_927825" data-name="Grupo 927825" transform="translate(228.69 187.178)" style="mix-blend-mode: multiply;isolation: isolate">
          <g id="Grupo_927824" data-name="Grupo 927824">
            <g id="Grupo_927823" data-name="Grupo 927823" clip-path="url(#clip-path-11)">
              <rect id="Rectángulo_339184" data-name="Rectángulo 339184" width="23.35" height="23.35" transform="translate(0 2.183) rotate(-5.366)" fill="#ddd"/>
            </g>
          </g>
        </g>
        <rect id="Rectángulo_339186" data-name="Rectángulo 339186" width="23.35" height="23.35" transform="translate(228.24 188.657) rotate(-9.813)" fill="#89d7f7"/>
        <g id="Grupo_927828" data-name="Grupo 927828" transform="translate(131.654 185.086)" style="mix-blend-mode: multiply;isolation: isolate">
          <g id="Grupo_927827" data-name="Grupo 927827">
            <g id="Grupo_927826" data-name="Grupo 927826" clip-path="url(#clip-path-5)">
              <rect id="Rectángulo_339187" data-name="Rectángulo 339187" width="23.35" height="23.35" transform="matrix(0.041, -0.999, 0.999, 0.041, 0, 23.331)" fill="#ddd"/>
            </g>
          </g>
        </g>
        <rect id="Rectángulo_339189" data-name="Rectángulo 339189" width="23.35" height="23.35" transform="matrix(0.097, -0.995, 0.995, 0.097, 131.35, 206.479)" fill="#ffdf00"/>
        <rect id="Rectángulo_339190" data-name="Rectángulo 339190" width="23.35" height="23.35" transform="translate(104.207 104.201)" fill="#d9ee00"/>
        <path id="Trazado_641193" data-name="Trazado 641193" d="M467.523,146.015a4.913,4.913,0,1,1-4.913-4.913,4.913,4.913,0,0,1,4.913,4.913" transform="translate(-190.589 -58.756)" fill="#009344"/>
        <path id="Trazado_641194" data-name="Trazado 641194" d="M139.107,146.015a4.913,4.913,0,1,1-4.913-4.913,4.913,4.913,0,0,1,4.913,4.913" transform="translate(-53.834 -58.756)" fill="#ffdf00"/>
        <rect id="Rectángulo_339191" data-name="Rectángulo 339191" width="23.35" height="23.35" transform="matrix(0.092, -0.996, 0.996, 0.092, 182.046, 125.732)" fill="#ffdf00"/>
        <rect id="Rectángulo_339192" data-name="Rectángulo 339192" width="1.75" height="14.241" transform="translate(188.554 109.028) rotate(-84.717)" fill="#1c75bb"/>
        <path id="Trazado_641195" data-name="Trazado 641195" d="M333.458,196.436a3.734,3.734,0,0,1-2.249-.733,7.79,7.79,0,0,1-.741-.669,2.946,2.946,0,0,0-1.479-.986,3.115,3.115,0,0,0-2.072.818,3.333,3.333,0,0,1-2.567.877,3.291,3.291,0,0,1-1.682-1.261,3.3,3.3,0,0,0-1.248-1.055,2.143,2.143,0,0,0-2.3.979.292.292,0,1,1-.478-.335,2.721,2.721,0,0,1,2.98-1.192,3.769,3.769,0,0,1,1.49,1.221,2.829,2.829,0,0,0,1.37,1.074,2.867,2.867,0,0,0,2.111-.79,3.556,3.556,0,0,1,2.491-.913,3.416,3.416,0,0,1,1.8,1.146,7.209,7.209,0,0,0,.684.62,3.209,3.209,0,0,0,3.663.085.292.292,0,0,1,.33.481,3.707,3.707,0,0,1-2.1.632" transform="translate(-132.662 -80.267)" fill="#1c75bb"/>
        <path id="Trazado_641196" data-name="Trazado 641196" d="M324.78,206.774a1.926,1.926,0,0,1-.429-.048,3.286,3.286,0,0,1-1.682-1.262,3.3,3.3,0,0,0-1.248-1.055,2.145,2.145,0,0,0-2.3.979.292.292,0,1,1-.477-.335,2.72,2.72,0,0,1,2.979-1.192,3.766,3.766,0,0,1,1.491,1.221,2.834,2.834,0,0,0,1.37,1.074,2.875,2.875,0,0,0,2.11-.79,3.55,3.55,0,0,1,2.491-.913,3.42,3.42,0,0,1,1.8,1.146,7.3,7.3,0,0,0,.685.62.292.292,0,1,1-.352.465,7.653,7.653,0,0,1-.742-.67,2.947,2.947,0,0,0-1.479-.985,3.115,3.115,0,0,0-2.072.819,4,4,0,0,1-2.138.925" transform="translate(-132.662 -84.84)" fill="#1c75bb"/>
        <path id="Trazado_641197" data-name="Trazado 641197" d="M189.782,197.013a6,6,0,0,1-2.941-.767c-.2-.112-.393-.236-.588-.36a5.673,5.673,0,0,0-.944-.525,1.165,1.165,0,0,0-1.126.07.584.584,0,1,1-.769-.878,2.227,2.227,0,0,1,2.32-.28,6.608,6.608,0,0,1,1.148.63c.175.111.35.225.53.325a4.819,4.819,0,0,0,4.228.242,10.762,10.762,0,0,0,1.176-.624,8.521,8.521,0,0,1,1.86-.889,4.615,4.615,0,0,1,4.594,1.29.584.584,0,1,1-.846.8,3.441,3.441,0,0,0-3.418-.976,7.543,7.543,0,0,0-1.6.779,11.924,11.924,0,0,1-1.305.689,5.916,5.916,0,0,1-2.316.469" transform="translate(-76.293 -80.693)" fill="#009344"/>
        <path id="Trazado_641198" data-name="Trazado 641198" d="M191.242,207.833a6.008,6.008,0,0,1-2.941-.767c-.2-.111-.392-.235-.585-.359a5.683,5.683,0,0,0-.947-.526,1.158,1.158,0,0,0-1.125.07.584.584,0,1,1-.769-.878,2.229,2.229,0,0,1,2.32-.28,6.619,6.619,0,0,1,1.15.631c.174.111.349.224.528.324a4.821,4.821,0,0,0,4.228.24,10.767,10.767,0,0,0,1.177-.624,8.527,8.527,0,0,1,1.859-.888,4.613,4.613,0,0,1,4.593,1.291.583.583,0,1,1-.845.8,3.44,3.44,0,0,0-3.417-.976,7.535,7.535,0,0,0-1.6.778,11.939,11.939,0,0,1-1.307.689,5.9,5.9,0,0,1-2.316.47" transform="translate(-76.9 -85.199)" fill="#009344"/>
        <path id="Trazado_641199" data-name="Trazado 641199" d="M326.9,248.7a16.573,16.573,0,0,0-8.488,4.275,19.413,19.413,0,0,0-3.158,3.566,12.08,12.08,0,0,0-1.926,4.235,7.652,7.652,0,0,0-.064,2.274,9.649,9.649,0,0,0,.586,2.215,11.124,11.124,0,0,0,2.633,3.773,10.456,10.456,0,0,0,3.894,2.4,10.075,10.075,0,0,0,4.541.392,12.136,12.136,0,0,0,7.867-4.476,14.011,14.011,0,0,0,2.245-4.081,11.883,11.883,0,0,0,.7-4.583,7.713,7.713,0,0,0-1.53-4.27c-.12-.15-.224-.314-.355-.454l-.417-.4a5.066,5.066,0,0,0-.425-.392l-.463-.341a9.565,9.565,0,0,0-2.125-.976,13.747,13.747,0,0,0-4.718-.617,10.381,10.381,0,0,0-4.631,1.193,9.91,9.91,0,0,1,4.609-1.5,14.179,14.179,0,0,1,4.9.378,9.944,9.944,0,0,1,2.319.956l.53.359a5.631,5.631,0,0,1,.484.411l.474.425c.151.149.275.323.414.485a8.443,8.443,0,0,1,1.841,4.68,12.316,12.316,0,0,1-.644,4.978,15.062,15.062,0,0,1-2.343,4.435,13.242,13.242,0,0,1-8.585,4.95,11.24,11.24,0,0,1-5.055-.467,10.755,10.755,0,0,1-2.306-1.106,11.487,11.487,0,0,1-1.991-1.577,12.2,12.2,0,0,1-2.816-4.19,10.334,10.334,0,0,1-.607-2.483,8.585,8.585,0,0,1,.143-2.562,10.151,10.151,0,0,1,.882-2.375,11.251,11.251,0,0,1,.613-1.09,10.489,10.489,0,0,1,.7-1.029,19.827,19.827,0,0,1,7.569-6.158,13.044,13.044,0,0,1,4.7-1.244" transform="translate(-130.026 -103.56)" fill="#ee4136"/>
        <path id="Trazado_641200" data-name="Trazado 641200" d="M464,315.307a16.575,16.575,0,0,0-8.488,4.275,19.415,19.415,0,0,0-3.158,3.566,12.08,12.08,0,0,0-1.926,4.235,7.653,7.653,0,0,0-.064,2.274,9.648,9.648,0,0,0,.586,2.215,11.125,11.125,0,0,0,2.633,3.773,10.457,10.457,0,0,0,3.894,2.4,10.075,10.075,0,0,0,4.541.392,12.136,12.136,0,0,0,7.867-4.476,14.011,14.011,0,0,0,2.245-4.081,11.883,11.883,0,0,0,.7-4.584,7.712,7.712,0,0,0-1.53-4.27c-.12-.15-.224-.314-.355-.454l-.417-.4a5.066,5.066,0,0,0-.425-.392l-.463-.341a9.557,9.557,0,0,0-2.126-.976,13.743,13.743,0,0,0-4.718-.617,10.38,10.38,0,0,0-4.631,1.193,9.91,9.91,0,0,1,4.609-1.5,14.181,14.181,0,0,1,4.9.378,9.944,9.944,0,0,1,2.319.956l.53.359a5.615,5.615,0,0,1,.485.411l.474.425c.151.149.275.323.414.485a8.443,8.443,0,0,1,1.841,4.68,12.326,12.326,0,0,1-.643,4.978,15.076,15.076,0,0,1-2.344,4.435,13.242,13.242,0,0,1-8.585,4.95,11.24,11.24,0,0,1-5.055-.467,10.754,10.754,0,0,1-2.306-1.106,11.487,11.487,0,0,1-1.991-1.577,12.2,12.2,0,0,1-2.816-4.19,10.334,10.334,0,0,1-.607-2.483,8.585,8.585,0,0,1,.143-2.562,10.128,10.128,0,0,1,.883-2.375,11.235,11.235,0,0,1,.612-1.09,10.6,10.6,0,0,1,.7-1.029,19.828,19.828,0,0,1,7.569-6.158,13.045,13.045,0,0,1,4.7-1.244" transform="translate(-187.12 -131.297)" fill="#ee4136"/>
        <rect id="Rectángulo_339193" data-name="Rectángulo 339193" width="9.961" height="1.751" transform="translate(110.902 107.937)" fill="#009344"/>
        <g id="Grupo_927831" data-name="Grupo 927831" transform="translate(122.337 108.616)" style="mix-blend-mode: multiply;isolation: isolate">
          <g id="Grupo_927830" data-name="Grupo 927830">
            <g id="Grupo_927829" data-name="Grupo 927829" clip-path="url(#clip-path-13)">
              <rect id="Rectángulo_339194" data-name="Rectángulo 339194" width="23.35" height="23.35" transform="translate(0 2.181) rotate(-5.359)" fill="#ddd"/>
            </g>
          </g>
        </g>
        <path id="Trazado_641201" data-name="Trazado 641201" d="M275.811,285.184a12.793,12.793,0,0,1,6.553,5.859,16.478,16.478,0,0,1,2.016,8.72,10.747,10.747,0,0,1-1.174,4.464c-.2.333-.389.681-.616,1-.243.3-.458.638-.73.919a11.4,11.4,0,0,1-1.763,1.53,13.158,13.158,0,0,1-8.7,2.046.059.059,0,0,1,0-.117,16.321,16.321,0,0,0,8.018-2.878,10.305,10.305,0,0,0,1.545-1.4c.237-.252.439-.533.663-.8s.377-.579.57-.867a9.37,9.37,0,0,0,1.254-3.973,15.733,15.733,0,0,0-1.6-8.378,12.442,12.442,0,0,0-6.08-6.024.058.058,0,0,1-.03-.076.059.059,0,0,1,.074-.032" transform="translate(-112.992 -118.752)" fill="#1c75bb"/>
        <path id="Trazado_641202" data-name="Trazado 641202" d="M272.532,322.239a10.285,10.285,0,0,1-1.238,1.725c-.228.263-.465.516-.708.763-.34.33-.265.275-.271.35a.106.106,0,0,0,.038.074l.395.337c.259.229.514.465.759.713a10.147,10.147,0,0,1,1.352,1.638,10.192,10.192,0,0,1-1.917-.915c-.3-.177-.589-.368-.875-.563l-.423-.3a1.244,1.244,0,0,1-.273-1.705,2.448,2.448,0,0,1,.479-.449c.271-.215.549-.424.835-.621a10.285,10.285,0,0,1,1.849-1.044" transform="translate(-112.076 -134.184)" fill="#1c75bb"/>
        <path id="Trazado_641203" data-name="Trazado 641203" d="M131.01,214.26a12.659,12.659,0,0,1,4.5,2.9,13.81,13.81,0,0,1,2.983,4.546,14.02,14.02,0,0,1,.99,5.379,20.633,20.633,0,0,1-.33,2.706,25.151,25.151,0,0,1-.821,2.578.058.058,0,0,1-.075.034.059.059,0,0,1-.039-.055v-.006c0-.906.053-1.786.12-2.654-.014-.439,0-.873-.006-1.307a9.353,9.353,0,0,0-.016-1.292c-.076-.855-.053-1.714-.2-2.555a14.269,14.269,0,0,0-.5-2.514,13.062,13.062,0,0,0-2.53-4.462,12.328,12.328,0,0,0-4.116-3.189l-.005,0a.058.058,0,0,1,.045-.107" transform="translate(-54.521 -89.218)" fill="#ee4136"/>
        <path id="Trazado_641204" data-name="Trazado 641204" d="M139.228,241.061a11.3,11.3,0,0,1,1.382,1.745c.2.305.39.617.571.932a.488.488,0,0,0,.4.238.45.45,0,0,0,.224-.044,2.159,2.159,0,0,0,.191-.11l.234-.139c.315-.181.634-.358.962-.52a11.115,11.115,0,0,1,2.071-.816,11.1,11.1,0,0,1-1.566,1.582c-.278.237-.566.46-.857.678l-.221.16a3.125,3.125,0,0,1-.269.181,1.593,1.593,0,0,1-.826.193,1.55,1.55,0,0,1-1.329-.91c-.143-.334-.278-.672-.4-1.017a11.327,11.327,0,0,1-.563-2.153" transform="translate(-57.976 -100.38)" fill="#ee4136"/>
        <rect id="Rectángulo_339196" data-name="Rectángulo 339196" width="23.35" height="23.35" transform="matrix(0.99, -0.144, 0.144, 0.99, 121.558, 109.7)" fill="#89d7f7"/>
        <path id="Trazado_641205" data-name="Trazado 641205" d="M216.691,201.408a.3.3,0,0,1-.071-.009.292.292,0,0,1-.212-.354,3.853,3.853,0,0,1,1.629-2.291,3.365,3.365,0,0,1,2.644-.495,6.735,6.735,0,0,1,.94.335,4.11,4.11,0,0,0,1.227.368c1.027.089,1.893-.678,2.813-1.476,1.013-.877,2.063-1.78,3.383-1.561a4.511,4.511,0,0,1,1.419.591,6.959,6.959,0,0,0,.78.4,1.623,1.623,0,0,0,1.192.034.775.775,0,0,0,.429-.441.292.292,0,0,1,.545.21,1.355,1.355,0,0,1-.741.766,2.182,2.182,0,0,1-1.642-.027,7.443,7.443,0,0,1-.849-.427,4,4,0,0,0-1.231-.524c-1.049-.176-1.952.6-2.9,1.426-.971.841-1.974,1.709-3.238,1.617a4.626,4.626,0,0,1-1.407-.411,6.319,6.319,0,0,0-.858-.308,2.77,2.77,0,0,0-2.182.417,3.317,3.317,0,0,0-1.383,1.945.291.291,0,0,1-.282.221" transform="translate(-90.111 -81.571)" fill="#1c75bb"/>
        <path id="Trazado_641206" data-name="Trazado 641206" d="M217.4,209.49a.291.291,0,0,1-.238-.46,4.321,4.321,0,0,1,4.08-1.82,8.316,8.316,0,0,1,1.9.594,11.255,11.255,0,0,0,1.287.459,5.111,5.111,0,0,0,4.4-.9c.167-.129.329-.268.49-.409a6.435,6.435,0,0,1,1-.757,1.943,1.943,0,0,1,2.033-.067.292.292,0,0,1-.317.49,1.374,1.374,0,0,0-1.427.084,5.864,5.864,0,0,0-.906.69c-.169.146-.339.294-.515.429a5.7,5.7,0,0,1-4.907,1,11.629,11.629,0,0,1-1.356-.481,7.733,7.733,0,0,0-1.767-.557,3.734,3.734,0,0,0-3.521,1.579.29.29,0,0,1-.238.123" transform="translate(-90.408 -85.728)" fill="#1c75bb"/>
        <path id="Trazado_641207" data-name="Trazado 641207" d="M219.638,219.555a.291.291,0,0,1-.219-.484,6.683,6.683,0,0,1,5.144-2.324,12.833,12.833,0,0,1,2.256.314c.517.1,1.051.21,1.573.265a8.244,8.244,0,0,0,4.617-.86.292.292,0,0,1,.265.52,8.823,8.823,0,0,1-4.944.92c-.549-.058-1.1-.167-1.626-.273a12.293,12.293,0,0,0-2.154-.3,6.179,6.179,0,0,0-4.694,2.126.29.29,0,0,1-.219.1" transform="translate(-91.338 -90.125)" fill="#1c75bb"/>
        <rect id="Rectángulo_339197" data-name="Rectángulo 339197" width="13.852" height="1.751" transform="translate(127.042 112.064) rotate(-8.298)" fill="#1c75bb"/>
        <rect id="Rectángulo_339198" data-name="Rectángulo 339198" width="13.692" height="1.751" transform="translate(234.058 111) rotate(-8.298)" fill="#009344"/>
        <path id="Trazado_641208" data-name="Trazado 641208" d="M398.936,200.484h-.029a.292.292,0,0,1-.262-.319,2.9,2.9,0,0,1,1.713-2.213,3.757,3.757,0,0,1,3.425-.141c.353.2.675.413.98.613,1.236.808,2.13,1.393,3.855.684a6.762,6.762,0,0,0,1.794-1.359,5.068,5.068,0,0,1,2.58-1.627,2.184,2.184,0,0,1,1.382.469,3.742,3.742,0,0,0,.593.324,1.588,1.588,0,0,0,1.913-.748.292.292,0,1,1,.524.257,2.164,2.164,0,0,1-2.649,1.034,4.219,4.219,0,0,1-.689-.372,1.653,1.653,0,0,0-1.008-.383,4.712,4.712,0,0,0-2.246,1.473,7.173,7.173,0,0,1-1.971,1.473c-2.01.823-3.116.1-4.4-.736-.3-.194-.609-.4-.952-.6a3.207,3.207,0,0,0-2.865.155,2.339,2.339,0,0,0-1.4,1.75.292.292,0,0,1-.29.264" transform="translate(-165.999 -81.618)" fill="#009344"/>
        <path id="Trazado_641209" data-name="Trazado 641209" d="M401.048,209.16h-.029a.292.292,0,0,1-.262-.319,2.9,2.9,0,0,1,1.713-2.212,3.759,3.759,0,0,1,3.424-.142c.353.2.675.414.98.614,1.237.808,2.13,1.394,3.856.685a6.78,6.78,0,0,0,1.795-1.36,5.068,5.068,0,0,1,2.58-1.627.292.292,0,0,1,.064.581,4.712,4.712,0,0,0-2.246,1.472,7.157,7.157,0,0,1-1.971,1.474c-2.008.825-3.115.1-4.4-.736-.3-.194-.609-.4-.952-.6a3.212,3.212,0,0,0-2.865.156,2.34,2.34,0,0,0-1.4,1.75.292.292,0,0,1-.29.264" transform="translate(-166.879 -85.279)" fill="#009344"/>
        <rect id="Rectángulo_339199" data-name="Rectángulo 339199" width="1.751" height="16.316" transform="translate(266.566 119.497) rotate(-77.278)" fill="#009344"/>
        <rect id="Rectángulo_339200" data-name="Rectángulo 339200" width="1.751" height="13.615" transform="matrix(0.22, -0.975, 0.975, 0.22, 264.593, 134.367)" fill="#009344"/>
        <path id="Trazado_641210" data-name="Trazado 641210" d="M461.764,215.078a5.465,5.465,0,0,1-2.308-1.354c-.125-.111-.249-.226-.374-.341a6.284,6.284,0,0,0-2.194-1.517,2.228,2.228,0,0,0-1.7.169,1.255,1.255,0,0,0-.631.8.291.291,0,0,1-.348.221h0a.292.292,0,0,1-.22-.349,1.81,1.81,0,0,1,.91-1.178,2.781,2.781,0,0,1,2.166-.218,6.7,6.7,0,0,1,2.413,1.644q.183.17.367.336a3.981,3.981,0,0,0,2.715,1.27,4.382,4.382,0,0,0,1.633-.6,7.257,7.257,0,0,1,1.23-.55,3.8,3.8,0,0,1,3.962,1.192c.137.165.259.344.38.522a3.759,3.759,0,0,0,.613.754c.324.277.85.4,1.118.131a.292.292,0,0,1,.412.413,1.438,1.438,0,0,1-1.91-.1,4.307,4.307,0,0,1-.715-.867c-.112-.164-.224-.328-.349-.48a3.209,3.209,0,0,0-3.34-1.006,6.837,6.837,0,0,0-1.13.509,4.871,4.871,0,0,1-1.858.669,2.809,2.809,0,0,1-.843-.064" transform="translate(-189.043 -87.94)" fill="#009344"/>
        <path id="Trazado_641211" data-name="Trazado 641211" d="M466.112,223.918c-.14-.032-.274-.065-.4-.1a20.508,20.508,0,0,1-3.874-1.443l-.13-.064a3.982,3.982,0,0,0-1.267-.469,4.122,4.122,0,0,0-1.776.329.292.292,0,1,1-.189-.551,4.565,4.565,0,0,1,2.038-.357,4.657,4.657,0,0,1,1.454.525l.128.063a19.966,19.966,0,0,0,3.763,1.4,4.474,4.474,0,0,0,3.411-.136.292.292,0,0,1,.312.494,4.616,4.616,0,0,1-3.468.3" transform="translate(-190.831 -92.128)" fill="#009344"/>
        <path id="Trazado_641212" data-name="Trazado 641212" d="M453.343,287.737a7.465,7.465,0,0,0-4.069,2.83,6.708,6.708,0,0,0-.986,2.233,8.261,8.261,0,0,0-.133,2.444l.065.608.135.594a8.285,8.285,0,0,0,.378,1.146,12.653,12.653,0,0,0,1.183,2.095,15.1,15.1,0,0,0,3.587,3.471l0,0a.059.059,0,0,1-.048.1,8.822,8.822,0,0,1-4.467-2.867,7.915,7.915,0,0,1-1.341-2.4,9.65,9.65,0,0,1-.31-1.344l-.1-.678c-.013-.228-.013-.455-.02-.682a9.086,9.086,0,0,1,.332-2.686,7.368,7.368,0,0,1,1.255-2.393,7.806,7.806,0,0,1,4.512-2.592.058.058,0,0,1,.027.113Z" transform="translate(-186.225 -119.768)" fill="#1c75bb"/>
        <path id="Trazado_641213" data-name="Trazado 641213" d="M457.093,309.568a6.877,6.877,0,0,1,.458,1.662c.044.277.073.554.094.831a1.637,1.637,0,0,1,0,.267,1.855,1.855,0,0,1-.054.313,1.623,1.623,0,0,1-.294.564,1.563,1.563,0,0,1-1.1.569,2.755,2.755,0,0,1-.478-.028c-.138-.015-.277-.034-.416-.055a6.8,6.8,0,0,1-1.662-.459,6.773,6.773,0,0,1,1.662-.459c.138-.022.277-.041.416-.055s.317-.025.352-.043a.616.616,0,0,0,.323-.208.542.542,0,0,0,.1-.164.662.662,0,0,0,.029-.093,1.206,1.206,0,0,0,.016-.148c.021-.277.051-.554.1-.831a6.85,6.85,0,0,1,.457-1.662" transform="translate(-188.902 -128.907)" fill="#1c75bb"/>
        <rect id="Rectángulo_339201" data-name="Rectángulo 339201" width="1.75" height="14.963" transform="translate(235.158 150.928) rotate(-81.319)" fill="#1c75bb"/>
        <rect id="Rectángulo_339202" data-name="Rectángulo 339202" width="14.963" height="1.751" transform="translate(186.243 187.241) rotate(-5.358)" fill="#1c75bb"/>
        <rect id="Rectángulo_339203" data-name="Rectángulo 339203" width="1.75" height="14.963" transform="translate(234.474 155.408) rotate(-81.321)" fill="#1c75bb"/>
        <g id="Grupo_927834" data-name="Grupo 927834" transform="translate(120.785 141.233)" style="mix-blend-mode: multiply;isolation: isolate">
          <g id="Grupo_927833" data-name="Grupo 927833">
            <g id="Grupo_927832" data-name="Grupo 927832" clip-path="url(#clip-path-14)">
              <rect id="Rectángulo_339204" data-name="Rectángulo 339204" width="23.35" height="23.35" transform="matrix(0.181, -0.983, 0.983, 0.181, 0, 22.963)" fill="#ddd"/>
            </g>
          </g>
        </g>
        <rect id="Rectángulo_339206" data-name="Rectángulo 339206" width="23.35" height="23.35" transform="translate(119.148 161.53) rotate(-76.014)" fill="#d9ee00"/>
        <path id="Trazado_641214" data-name="Trazado 641214" d="M414.766,277.6l-.042,0a3.2,3.2,0,0,1-1.966-1.525,4.589,4.589,0,0,0-1.139-1.181c-1.284-.781-2.584-.064-3.962.694-1.434.789-2.917,1.608-4.5.8a5.134,5.134,0,0,1-1.565-1.464c-.535-.664-1.041-1.29-1.779-1.392a2.621,2.621,0,0,0-2.108,1.132.292.292,0,0,1-.452-.369,3.1,3.1,0,0,1,2.64-1.34,3.56,3.56,0,0,1,2.153,1.6,4.71,4.71,0,0,0,1.374,1.31c1.31.665,2.595-.043,3.956-.793,1.461-.805,2.972-1.638,4.547-.682a5.034,5.034,0,0,1,1.3,1.326c.473.62.919,1.2,1.586,1.3a.292.292,0,0,1-.041.581" transform="translate(-165.392 -113.653)" fill="#1c75bb"/>
        <rect id="Rectángulo_339207" data-name="Rectángulo 339207" width="1.75" height="14.963" transform="translate(128.11 145.891) rotate(-76.016)" fill="#009344"/>
        <path id="Trazado_641215" data-name="Trazado 641215" d="M228.622,264.338a6.775,6.775,0,0,1-3.056-.659,10.983,10.983,0,0,1-2.9-2.4l-.155-.16a8.537,8.537,0,0,0-2.983-2.273,2.99,2.99,0,0,0-3.279.6.292.292,0,0,1-.446-.376,3.576,3.576,0,0,1,3.931-.766,9.149,9.149,0,0,1,3.2,2.414l.155.162a10.581,10.581,0,0,0,2.743,2.286c2.044,1.019,4.55.537,6.5,0a.292.292,0,1,1,.154.563,14.879,14.879,0,0,1-3.863.616" transform="translate(-89.833 -107.446)" fill="#009344"/>
        <path id="Trazado_641216" data-name="Trazado 641216" d="M229.419,273.415H229.4a15.285,15.285,0,0,1-3.347-.781l-8.5-2.672a20.263,20.263,0,0,0-4.062-.975.292.292,0,0,1,.056-.581,20.664,20.664,0,0,1,4.181,1l8.5,2.672a14.892,14.892,0,0,0,3.219.756.292.292,0,0,1-.023.582" transform="translate(-88.787 -111.766)" fill="#009344"/>
        <g id="Grupo_927837" data-name="Grupo 927837" transform="translate(133.139 148.732)" style="mix-blend-mode: multiply;isolation: isolate">
          <g id="Grupo_927836" data-name="Grupo 927836">
            <g id="Grupo_927835" data-name="Grupo 927835" clip-path="url(#clip-path-15)">
              <rect id="Rectángulo_339208" data-name="Rectángulo 339208" width="23.35" height="23.35" transform="translate(0 0)" fill="#ddd"/>
            </g>
          </g>
        </g>
        <rect id="Rectángulo_339210" data-name="Rectángulo 339210" width="23.35" height="23.35" transform="translate(132.348 147.313)" fill="#89d7f7"/>
        <rect id="Rectángulo_339211" data-name="Rectángulo 339211" width="14.963" height="1.751" transform="translate(136.541 150.954)" fill="#1c75bb"/>
        <path id="Trazado_641217" data-name="Trazado 641217" d="M245.422,272.806a4.838,4.838,0,0,1-2.935-.888,8.1,8.1,0,0,1-.675-.594,2.812,2.812,0,0,0-1.462-.929c-.746-.092-1.417.46-2.153,1.135-.661.606-1.663,1.376-2.722,1.069a3.053,3.053,0,0,1-1.09-.68,3.081,3.081,0,0,0-.763-.529,1.424,1.424,0,0,0-1.853,1.125.3.3,0,0,1-.316.266.292.292,0,0,1-.266-.316,2.005,2.005,0,0,1,2.659-1.614,3.565,3.565,0,0,1,.916.622,2.576,2.576,0,0,0,.877.566c.776.223,1.607-.428,2.165-.939a3.523,3.523,0,0,1,2.62-1.284,3.276,3.276,0,0,1,1.792,1.084,7.612,7.612,0,0,0,.625.553,4.469,4.469,0,0,0,3.073.749,13.949,13.949,0,0,0,3.267-.818.292.292,0,0,1,.187.553,14.414,14.414,0,0,1-3.406.846q-.272.022-.537.022" transform="translate(-96.268 -112.348)" fill="#1c75bb"/>
        <path id="Trazado_641218" data-name="Trazado 641218" d="M245.722,282.378a23.876,23.876,0,0,1-4.83-.49l-.47-.1a9.172,9.172,0,0,0-2.29-.305,7.629,7.629,0,0,0-2.908.841.292.292,0,0,1-.247-.529,8.168,8.168,0,0,1,3.135-.9,10.1,10.1,0,0,1,2.435.319l.464.1a23.487,23.487,0,0,0,9.017.078.292.292,0,1,1,.108.574,23.861,23.861,0,0,1-4.413.409" transform="translate(-97.776 -116.968)" fill="#1c75bb"/>
        <g id="Grupo_927840" data-name="Grupo 927840" transform="translate(147.183 140.506)" style="mix-blend-mode: multiply;isolation: isolate">
          <g id="Grupo_927839" data-name="Grupo 927839">
            <g id="Grupo_927838" data-name="Grupo 927838" clip-path="url(#clip-path-16)">
              <rect id="Rectángulo_339212" data-name="Rectángulo 339212" width="23.35" height="23.35" transform="translate(0 4.5) rotate(-11.112)" fill="#ddd"/>
            </g>
          </g>
        </g>
        <rect id="Rectángulo_339214" data-name="Rectángulo 339214" width="23.35" height="23.35" transform="matrix(0.99, -0.144, 0.144, 0.99, 148.111, 143.147)" fill="#f76298"/>
        <rect id="Rectángulo_339215" data-name="Rectángulo 339215" width="14.963" height="1.751" transform="matrix(0.99, -0.144, 0.144, 0.99, 153.36, 146.689)" fill="#a52033"/>
        <rect id="Rectángulo_339216" data-name="Rectángulo 339216" width="14.963" height="1.751" transform="translate(154.21 152.54) rotate(-8.26)" fill="#a52033"/>
        <rect id="Rectángulo_339217" data-name="Rectángulo 339217" width="10.098" height="1.751" transform="matrix(0.99, -0.144, 0.144, 0.99, 157.468, 158.044)" fill="#a52033"/>
        <path id="Trazado_641219" data-name="Trazado 641219" d="M470.691,291.781a11.006,11.006,0,0,1-2.794-.351c-.482-.127-.958-.29-1.418-.446a8.262,8.262,0,0,0-3.28-.654,7.789,7.789,0,0,0-2.659.816.292.292,0,1,1-.239-.532,8.375,8.375,0,0,1,2.859-.866,8.877,8.877,0,0,1,3.508.683c.45.154.916.313,1.378.435a10.694,10.694,0,0,0,5.9-.176c.232-.078.463-.165.694-.253a6.357,6.357,0,0,1,2.62-.579.292.292,0,0,1,.277.306.288.288,0,0,1-.306.277,5.893,5.893,0,0,0-2.383.543c-.238.09-.476.179-.715.26a10.918,10.918,0,0,1-3.441.538" transform="translate(-191.602 -120.649)" fill="#1c75bb"/>
        <path id="Trazado_641220" data-name="Trazado 641220" d="M474.322,299.55a12.723,12.723,0,0,1-2.952-.47c-.4-.1-.8-.192-1.2-.271a5.918,5.918,0,0,0-4.053.337.292.292,0,0,1-.281-.512,6.447,6.447,0,0,1,4.447-.4c.407.081.812.178,1.22.276a9.1,9.1,0,0,0,3.664.383,4.386,4.386,0,0,0,2.043-.944.292.292,0,1,1,.372.449,4.96,4.96,0,0,1-2.314,1.07,5.52,5.52,0,0,1-.951.08" transform="translate(-193.918 -124.042)" fill="#1c75bb"/>
        <path id="Trazado_641221" data-name="Trazado 641221" d="M124.582,301.33a.292.292,0,0,1-.064-.576,27.809,27.809,0,0,1,6.346-.92,27.815,27.815,0,0,1,3.374.317,18.792,18.792,0,0,0,4.657.244.292.292,0,0,1,.067.581,19.382,19.382,0,0,1-4.8-.246,27.346,27.346,0,0,0-3.3-.312,27.461,27.461,0,0,0-6.21.9.273.273,0,0,1-.065.008" transform="translate(-51.756 -124.854)" fill="#1c75bb"/>
        <path id="Trazado_641222" data-name="Trazado 641222" d="M140.2,308.29h-.01a31.434,31.434,0,0,1-3.392-.369c-.662-.1-1.347-.2-2.019-.268a10.607,10.607,0,0,0-5.21.487.292.292,0,0,1-.221-.54,11.133,11.133,0,0,1,5.493-.527c.684.072,1.374.173,2.042.27a30.724,30.724,0,0,0,3.329.364.292.292,0,0,1-.01.584" transform="translate(-53.787 -127.824)" fill="#1c75bb"/>
        <path id="Trazado_641223" data-name="Trazado 641223" d="M131.292,354.362a1.242,1.242,0,1,1-1.242-1.242,1.242,1.242,0,0,1,1.242,1.242" transform="translate(-53.637 -147.043)" fill="#1c75bb"/>
        <path id="Trazado_641224" data-name="Trazado 641224" d="M131.292,360.584a1.242,1.242,0,1,1-1.242-1.242,1.242,1.242,0,0,1,1.242,1.242" transform="translate(-53.637 -149.634)" fill="#1c75bb"/>
        <path id="Trazado_641225" data-name="Trazado 641225" d="M131.292,366.807a1.242,1.242,0,1,1-1.242-1.242,1.242,1.242,0,0,1,1.242,1.242" transform="translate(-53.637 -152.225)" fill="#1c75bb"/>
        <path id="Trazado_641226" data-name="Trazado 641226" d="M137.812,355.511a.292.292,0,0,1-.036-.581,38.632,38.632,0,0,1,7.545-.218.292.292,0,1,1-.04.582,38.3,38.3,0,0,0-7.431.215l-.037,0" transform="translate(-57.265 -147.667)" fill="#1c75bb"/>
        <path id="Trazado_641227" data-name="Trazado 641227" d="M138.387,361.706a.292.292,0,0,1,0-.584c2.307-.019,4.64-.069,6.931-.151a.309.309,0,0,1,.3.282.292.292,0,0,1-.281.3c-2.3.082-4.635.132-6.948.151Z" transform="translate(-57.504 -150.312)" fill="#1c75bb"/>
        <path id="Trazado_641228" data-name="Trazado 641228" d="M146.254,368.241h-.011l-4.365-.152a20.835,20.835,0,0,0-3.294.059.289.289,0,0,1-.326-.253.293.293,0,0,1,.253-.326,21.5,21.5,0,0,1,3.387-.064l4.365.152a.292.292,0,0,1-.01.584" transform="translate(-57.571 -153.018)" fill="#1c75bb"/>
        <path id="Trazado_641229" data-name="Trazado 641229" d="M182.948,334.834a1.222,1.222,0,1,1-1.353-1.074,1.222,1.222,0,0,1,1.353,1.074" transform="translate(-75.167 -138.977)" fill="#a52033"/>
        <path id="Trazado_641230" data-name="Trazado 641230" d="M234.414,328.692a1.132,1.132,0,1,1-1.017-1.237,1.132,1.132,0,0,1,1.017,1.237" transform="translate(-96.672 -136.353)" fill="#1c75bb"/>
        <path id="Trazado_641231" data-name="Trazado 641231" d="M233.478,338.259a1.132,1.132,0,1,1-1.017-1.237,1.132,1.132,0,0,1,1.017,1.237" transform="translate(-96.282 -140.337)" fill="#1c75bb"/>
        <path id="Trazado_641232" data-name="Trazado 641232" d="M183.957,343.628a1.222,1.222,0,1,1-1.353-1.074,1.221,1.221,0,0,1,1.353,1.074" transform="translate(-75.588 -142.639)" fill="#a52033"/>
        <path id="Trazado_641233" data-name="Trazado 641233" d="M184.967,352.421a1.222,1.222,0,1,1-1.353-1.074,1.221,1.221,0,0,1,1.353,1.074" transform="translate(-76.008 -146.301)" fill="#a52033"/>
        <rect id="Rectángulo_339218" data-name="Rectángulo 339218" width="10.131" height="1.751" transform="translate(108.981 190.206) rotate(-6.547)" fill="#a52033"/>
        <rect id="Rectángulo_339219" data-name="Rectángulo 339219" width="1.751" height="13.082" transform="matrix(0.097, -0.995, 0.995, 0.097, 138.643, 188.468)" fill="#1c75bb"/>
        <rect id="Rectángulo_339220" data-name="Rectángulo 339220" width="12.464" height="1.167" transform="matrix(0.993, -0.115, 0.115, 0.993, 110.379, 194.772)" fill="#a52033"/>
        <rect id="Rectángulo_339221" data-name="Rectángulo 339221" width="1.167" height="12.464" transform="translate(139.259 192.945) rotate(-84.411)" fill="#1c75bb"/>
        <rect id="Rectángulo_339222" data-name="Rectángulo 339222" width="1.167" height="12.464" transform="translate(138.7 198.655) rotate(-84.411)" fill="#1c75bb"/>
        <rect id="Rectángulo_339223" data-name="Rectángulo 339223" width="12.464" height="1.167" transform="matrix(0.993, -0.115, 0.115, 0.993, 110.992, 200.103)" fill="#a52033"/>
        <rect id="Rectángulo_339224" data-name="Rectángulo 339224" width="12.464" height="1.167" transform="matrix(0.993, -0.115, 0.115, 0.993, 111.604, 205.433)" fill="#a52033"/>
        <path id="Trazado_641234" data-name="Trazado 641234" d="M245.214,348.757a34.382,34.382,0,0,1-7.285-1.034l-.086-.019a5.688,5.688,0,0,0-4.177.393.292.292,0,1,1-.3-.5,6.247,6.247,0,0,1,4.6-.463l.086.019c3.524.754,6.567,1.407,10.208.749a.292.292,0,0,1,.1.575,17.645,17.645,0,0,1-3.148.281" transform="translate(-97.117 -144.46)" fill="#1c75bb"/>
        <path id="Trazado_641235" data-name="Trazado 641235" d="M320.188,331.795a.292.292,0,0,1-.216-.488,2.323,2.323,0,0,1,1.2-.6,18.169,18.169,0,0,1,4.9-.546c.487.013.972.045,1.459.078a20.09,20.09,0,0,0,2.494.064,5.538,5.538,0,0,0,3.47-1.282.292.292,0,0,1,.4.423,5.986,5.986,0,0,1-3.839,1.441,20.26,20.26,0,0,1-2.566-.065c-.479-.032-.956-.064-1.436-.076a17.563,17.563,0,0,0-4.736.528,1.823,1.823,0,0,0-.915.43.293.293,0,0,1-.216.1" transform="translate(-133.208 -136.973)" fill="#1c75bb"/>
        <path id="Trazado_641236" data-name="Trazado 641236" d="M324.439,341.479a5.407,5.407,0,0,1-2.954-.773.292.292,0,0,1,.316-.491,5.535,5.535,0,0,0,3.649.613,20.093,20.093,0,0,0,2.435-.527c.473-.123.945-.245,1.422-.348a17.953,17.953,0,0,1,4.91-.376,2.321,2.321,0,0,1,1.3.369.292.292,0,0,1-.351.466,1.806,1.806,0,0,0-.979-.253,17.532,17.532,0,0,0-4.752.364c-.469.1-.934.223-1.4.343a20.7,20.7,0,0,1-2.507.541,8.449,8.449,0,0,1-1.085.072" transform="translate(-133.814 -141.389)" fill="#1c75bb"/>
        <g id="Grupo_927843" data-name="Grupo 927843" transform="translate(196.641 190.364)" style="mix-blend-mode: multiply;isolation: isolate">
          <g id="Grupo_927842" data-name="Grupo 927842">
            <g id="Grupo_927841" data-name="Grupo 927841" clip-path="url(#clip-path-17)">
              <rect id="Rectángulo_339225" data-name="Rectángulo 339225" width="23.35" height="23.35" transform="translate(0 0.001)" fill="#ddd"/>
            </g>
          </g>
        </g>
        <rect id="Rectángulo_339227" data-name="Rectángulo 339227" width="23.35" height="23.35" transform="translate(195.084 210.867) rotate(-84.195)" fill="#f76298"/>
        <rect id="Rectángulo_339228" data-name="Rectángulo 339228" width="1.75" height="14.963" transform="matrix(0.101, -0.995, 0.995, 0.101, 201.095, 193.194)" fill="#a52033"/>
        <rect id="Rectángulo_339229" data-name="Rectángulo 339229" width="1.75" height="12.496" transform="matrix(0.101, -0.995, 0.995, 0.101, 202.011, 196.382)" fill="#a52033"/>
        <path id="Trazado_641237" data-name="Trazado 641237" d="M343.1,346.072a.79.79,0,1,1-.706-.866.791.791,0,0,1,.706.866" transform="translate(-142.214 -143.746)" fill="#a52033"/>
        <path id="Trazado_641238" data-name="Trazado 641238" d="M342.431,352.659a.79.79,0,1,1-.706-.866.79.79,0,0,1,.706.866" transform="translate(-141.935 -146.489)" fill="#a52033"/>
        <path id="Trazado_641239" data-name="Trazado 641239" d="M357.608,348.179a8.3,8.3,0,0,1-1.143-.082,20.617,20.617,0,0,1-2.507-.56c-.462-.124-.925-.247-1.392-.353a17.36,17.36,0,0,0-4.749-.4,1.822,1.822,0,0,0-.981.245.292.292,0,1,1-.348-.469,2.32,2.32,0,0,1,1.3-.359,18.019,18.019,0,0,1,4.907.413c.474.107.945.233,1.415.359a20.228,20.228,0,0,0,2.435.546,5.533,5.533,0,0,0,3.653-.585.292.292,0,0,1,.312.494,5.382,5.382,0,0,1-2.9.751" transform="translate(-144.232 -144.151)" fill="#a52033"/>
        <path id="Trazado_641240" data-name="Trazado 641240" d="M359.994,353.955l-.032,0L349.7,352.837a4.5,4.5,0,0,0-3.119.4.292.292,0,1,1-.337-.477,4.945,4.945,0,0,1,3.52-.5l10.265,1.116a.292.292,0,0,1-.031.582" transform="translate(-144.127 -146.646)" fill="#a52033"/>
        <rect id="Rectángulo_339230" data-name="Rectángulo 339230" width="15.443" height="1.751" transform="translate(232.932 190.884) rotate(-9.824)" fill="#1c75bb"/>
        <rect id="Rectángulo_339231" data-name="Rectángulo 339231" width="15.443" height="1.751" transform="translate(233.642 194.988) rotate(-9.824)" fill="#1c75bb"/>
        <path id="Trazado_641241" data-name="Trazado 641241" d="M401.446,344.193a.292.292,0,0,1-.253-.436,2.921,2.921,0,0,1,1.622-1.162,13.476,13.476,0,0,1,4.883-.851c.8.009,1.618.092,2.406.172a13.835,13.835,0,0,0,4.284,0,14.148,14.148,0,0,0,4.694-2.349.292.292,0,0,1,.324.486,14.6,14.6,0,0,1-4.9,2.434,14.441,14.441,0,0,1-4.464.012c-.774-.078-1.575-.159-2.354-.169a12.893,12.893,0,0,0-4.672.814,2.425,2.425,0,0,0-1.319.9.292.292,0,0,1-.254.148" transform="translate(-167.045 -141.378)" fill="#1c75bb"/>
        <path id="Trazado_641242" data-name="Trazado 641242" d="M407.97,350.935a.289.289,0,0,1-.2-.075.292.292,0,0,1-.022-.412,3.767,3.767,0,0,1,2.819-.936c.658-.011,1.324.012,1.968.034.825.029,1.678.057,2.509.016a7.777,7.777,0,0,0,4.106-1.181.292.292,0,0,1,.33.481,8.322,8.322,0,0,1-4.407,1.283c-.856.043-1.72.012-2.557-.015-.637-.022-1.3-.043-1.94-.034a3.267,3.267,0,0,0-2.394.743.293.293,0,0,1-.217.1" transform="translate(-169.761 -145.048)" fill="#1c75bb"/>
        <path id="Trazado_641243" data-name="Trazado 641243" d="M319.973,226.389a14.905,14.905,0,0,0-1.358,3.192,11.813,11.813,0,0,0-.538,3.35,11.648,11.648,0,0,0,.562,3.238,19.639,19.639,0,0,0,1.266,3.163l0,.006a.061.061,0,0,1-.033.078.06.06,0,0,1-.058-.006c-.246-.176-.473-.375-.706-.578l-.339-.315a3.277,3.277,0,0,1-.288-.358c-.19-.243-.361-.5-.543-.759-.148-.273-.267-.561-.4-.845a7.273,7.273,0,0,1-.393-3.675,12.565,12.565,0,0,1,.922-3.5,13.8,13.8,0,0,1,1.811-3.061.059.059,0,0,1,.082-.009.059.059,0,0,1,.015.075Z" transform="translate(-132.032 -94.233)" fill="#1c75bb"/>
        <path id="Trazado_641244" data-name="Trazado 641244" d="M316.8,246.732a8.315,8.315,0,0,1,1.886-.242c.311-.008.62,0,.928.012l.116.006.057,0,.016,0a.181.181,0,0,0,.047-.015.172.172,0,0,0,.072-.059.232.232,0,0,0,.025-.038.437.437,0,0,0,.022-.109l.084-.454c.062-.3.132-.6.217-.9a8.214,8.214,0,0,1,.7-1.768,8.206,8.206,0,0,1,.208,1.891c0,.31-.01.619-.03.927l-.039.461a1.566,1.566,0,0,1-.07.341,1.271,1.271,0,0,1-.875.816,1.35,1.35,0,0,1-.41.038l-.1-.01-.057-.009-.113-.021c-.3-.057-.606-.121-.906-.2a8.311,8.311,0,0,1-1.781-.667" transform="translate(-131.919 -101.257)" fill="#1c75bb"/>
      </g>
    </g>
    <g id="Grupo_927910" data-name="Grupo 927910" transform="translate(30.838)">
      <g id="Grupo_927909" data-name="Grupo 927909" clip-path="url(#clip-path-18)">
        <g id="Grupo_927848" data-name="Grupo 927848" transform="translate(206.034 100.324)" style="mix-blend-mode: multiply;isolation: isolate">
          <g id="Grupo_927847" data-name="Grupo 927847">
            <g id="Grupo_927846" data-name="Grupo 927846" clip-path="url(#clip-path-19)">
              <path id="Trazado_641245" data-name="Trazado 641245" d="M501.5,263.257l15.1-16.52s-43.87-28.958-52.466-33.325a13.36,13.36,0,0,0-1.383.719c-1.514-1.088-3.018-2.224-4.357-3.33l.162-.181a.3.3,0,0,0-.031-.426l-2.882-2.441a.3.3,0,0,0-.293-.058c-.067.024-.135.055-.2.083-.2-.225-.394-.446-.561-.659-3.883-4.952-4.11-10.7-9.762-15.6s-12.954-12.335-14.938-15.041-5.929-5.968-5.131-3.556c1.294,3.919,6.4,10.045,6.59,12.136,0,0-9.7-7.547-12.809-10.3s-4.586-3.641-4.458-2.1,3.332,5.623,4.945,7.382,7.9,7.7,7.9,7.7c-5.294-3.289-10.253-7.073-15.195-10.86-.856-.655-3.758-3.417-4.776-1.652-.669,1.16.731,3.279,1.506,4.034,1.975,1.926,14.64,13.316,14.64,13.316s-9.955-4.742-14.006-7.6c-2.87-2-4.4.1-2.049,2.529s14.9,12.067,14.9,12.067,5.832,4.594,6.257,7.319-5.2,1.739-7.182.187-6.231-.426-7.066,1.681q.51.193,1.025.371c1.809.633,3.651,1.172,5.459,1.809.591.208,1.178.424,1.759.659a9.977,9.977,0,0,1,1.678.9c.266.173.526.354.784.539.516.37,1.022.756,1.541,1.122.26.183.522.361.791.53a9.3,9.3,0,0,0,1.708.864,16.454,16.454,0,0,0,8.921,1.039,1.491,1.491,0,0,1,.334-.034,6.776,6.776,0,0,1,2.188.556c.592.23,1.248.521,1.962.87,1.08.528,2.281,1.181,3.544,1.913l-.115.226a.3.3,0,0,0,.116.39l3.69,2.181a.3.3,0,0,0,.441-.186c.005-.02.013-.042.019-.062q.676.435,1.349.881.954.632,1.891,1.276.453.313.9.625c-.054.124-.106.246-.155.362-.434,1.034-.643,1.687-.643,1.687l22.977,19.3,22.977,19.3Z" transform="translate(-405.887 -171.909)" fill="#d0d2d3"/>
            </g>
          </g>
        </g>
        <path id="Trazado_641246" data-name="Trazado 641246" d="M471.325,212.535s-14.575-7.445-18.809-12.1-4.881-10.367-10.876-14.84-13.822-11.354-16-13.908-6.349-5.518-5.378-3.171c1.577,3.813,7.117,9.549,7.461,11.621,0,0-10.226-6.818-13.528-9.337s-4.84-3.3-4.6-1.766,3.734,5.364,5.472,7,8.441,7.105,8.441,7.105c-5.521-2.892-10.743-6.3-15.949-9.719-.9-.591-4-3.133-4.884-1.3-.582,1.205.969,3.216,1.8,3.913,2.11,1.776,15.574,12.209,15.574,12.209s-10.275-4-14.524-6.555c-3.008-1.781-4.384.425-1.858,2.672s15.747,10.945,15.747,10.945,6.153,4.155,6.775,6.842-5.054,2.114-7.149.713-6.245.031-6.924,2.193c2.788.823,5.659,1.334,8.428,2.229,2.446.79,4.281,2.743,6.774,3.467a16.459,16.459,0,0,0,8.973.383c3.083-.95,20.473,8.942,25.2,13.038,1.947.257,9.687-2.2,9.835-11.635" transform="translate(-198.381 -69.816)" fill="#ffb782"/>
        <path id="Trazado_641247" data-name="Trazado 641247" d="M486.686,226.952l-3.052-2.223a.3.3,0,0,0-.3-.037c-3.989,1.743-8.168,11.414-8.88,13.121a.3.3,0,0,0,.144.382l3.839,1.905a.3.3,0,0,0,.426-.218c.553-2.952,6.721-11.012,7.881-12.508a.3.3,0,0,0-.062-.423" transform="translate(-228.397 -93.554)" fill="#006e94"/>
        <g id="Grupo_927851" data-name="Grupo 927851" transform="translate(213.736 135.137)" opacity="0.5" style="mix-blend-mode: multiply;isolation: isolate">
          <g id="Grupo_927850" data-name="Grupo 927850">
            <g id="Grupo_927849" data-name="Grupo 927849" clip-path="url(#clip-path-20)">
              <path id="Trazado_641248" data-name="Trazado 641248" d="M460.447,241.561c-1-.445-11.552-9.154-15.716-7.424s-11.413-.5-15.461-1.738-10.185-.738-10.185-.738c2.788.823,5.659,1.334,8.428,2.229,2.446.79,4.281,2.743,6.774,3.467a16.459,16.459,0,0,0,8.973.383c3.083-.95,20.473,8.942,25.2,13.038a8,8,0,0,0,4.348-1.319c-5.459-3.551-11.8-7.648-12.36-7.9" transform="translate(-419.085 -231.561)" fill="#ffb782"/>
            </g>
          </g>
        </g>
        <path id="Trazado_641249" data-name="Trazado 641249" d="M488.371,248.019s2.578-10.677,9.947-14.641c8.892,3.726,54.763,29.4,54.763,29.4l-16.057,20.377Z" transform="translate(-234.201 -97.181)" fill="#164664"/>
        <path id="Trazado_641250" data-name="Trazado 641250" d="M486.389,231.539a5.382,5.382,0,1,1-5.382-5.382,5.382,5.382,0,0,1,5.382,5.382" transform="translate(-228.893 -94.174)" fill="#005b70"/>
        <path id="Trazado_641251" data-name="Trazado 641251" d="M486.061,232.354a4.24,4.24,0,1,1-4.24-4.24,4.24,4.24,0,0,1,4.24,4.24" transform="translate(-229.708 -94.989)" fill="#fff"/>
        <path id="Trazado_641252" data-name="Trazado 641252" d="M483.305,233.5l-1.8-3.034a.292.292,0,1,1,.5-.3l1.565,2.635,2.079-.664a.292.292,0,1,1,.177.556Z" transform="translate(-231.324 -95.783)" fill="#594a42"/>
        <g id="Grupo_927854" data-name="Grupo 927854" transform="translate(254.17 136.197)" opacity="0.5" style="mix-blend-mode: multiply;isolation: isolate">
          <g id="Grupo_927853" data-name="Grupo 927853">
            <g id="Grupo_927852" data-name="Grupo 927852" clip-path="url(#clip-path-21)">
              <path id="Trazado_641253" data-name="Trazado 641253" d="M488.371,248.019l48.653,35.134,4.774-6.059c-11.466-7.561-39.2-25.831-43.48-28.485-5.419-3.36,0-15.232,0-15.232-7.369,3.964-9.947,14.641-9.947,14.641" transform="translate(-488.371 -233.378)" fill="#164664"/>
            </g>
          </g>
        </g>
        <g id="Grupo_927857" data-name="Grupo 927857" transform="translate(207.56 165.101)" style="mix-blend-mode: multiply;isolation: isolate">
          <g id="Grupo_927856" data-name="Grupo 927856">
            <g id="Grupo_927855" data-name="Grupo 927855" clip-path="url(#clip-path-22)">
              <path id="Trazado_641254" data-name="Trazado 641254" d="M505.044,374.644l-42.789-40.439-6.7-11.423s-.542.24-1.418.69c-.151.078-.31.16-.48.25-.21.111-.434.232-.67.362-.156.086-.319.177-.484.271-.21.118-.425.242-.649.374-.4.235-.819.489-1.252.763l-.144.092c-3.284-3.75-5.824-6.723-6.153-7.311-1.016-1.817,2.361-10.431-1.263-15.926s-6.293-6.889-7.818-6.633c-1.427.24-.872,1.845-.8,2.048,0,0-.006,0-.008,0s0,.006,0,.008c-.359-.273-7.072-5.3-7.9-1.255-.009,0-.017-.005-.025,0v.005c-2.6-1.948-7.434-3.688-6.834-.543,0,0-.008,0-.012,0-1.9-2.615-8.634-13.737-10.628-13.042a.522.522,0,0,0-.172.1.58.58,0,0,0-.061.054.793.793,0,0,0-.053.067.918.918,0,0,0-.111.2,5.106,5.106,0,0,0,.275,2.881,44.579,44.579,0,0,0,2.1,5.4c.128.286.259.575.391.864.4.87.815,1.753,1.234,2.629.28.584.561,1.164.839,1.736l.819,1.678c.267.546.526,1.076.772,1.583.414.853.789,1.638,1.111,2.336.2.443.383.847.535,1.209.14.331.255.624.342.876a4.915,4.915,0,0,1,.16.528,13.5,13.5,0,0,1,.312,2.385l0,.086c.013.4.005.765-.013,1.077-.006.107-.014.209-.023.3a6.681,6.681,0,0,1-.161,1.044s-.184-.453-.54-1.136q-.067-.129-.141-.267c-1.146-2.122-3.7-5.922-7.377-6.12a.966.966,0,0,0-.114.039.722.722,0,0,0-.207.11c-.009.008-.022.013-.031.021-.3.272-.2.79.113,1.455.045.095.095.193.148.294.107.2.23.413.365.633.067.11.138.223.211.337.146.229.3.464.466.7s.332.486.5.734l.259.374c.259.375.52.753.768,1.127a16.062,16.062,0,0,1,1.238,2.123,3.662,3.662,0,0,1,.35,1.166,1.567,1.567,0,0,1,0,.245,5.331,5.331,0,0,0,.019,1,6.544,6.544,0,0,0,.224,1.111,7.848,7.848,0,0,0,.782,1.787,9.264,9.264,0,0,0,.861,1.217,11.308,11.308,0,0,0,1.875,1.77,15.949,15.949,0,0,0,3.741,2.055,53.63,53.63,0,0,1,16.063,10.405q.362.329.716.661c1.092,1.022,2.132,2.063,3.125,3.105-.2.3-.39.594-.563.872-.2.315-.38.619-.538.9q-.16.28-.3.529c-.215.4-.376.721-.5.98-.065.137-.119.252-.16.345-.079.174-.121.279-.121.279a14.722,14.722,0,0,0,1.928,2.432q.25.263.514.521.214.212.436.421c.194.184.391.366.591.546q.415.372.838.728c.985.831,1.982,1.59,2.862,2.226l.369.264c.56.4,1.057.735,1.46,1l.443.291c.372.242.593.377.593.377l1.05,1.3.711.879c1.213,1.5,2.557,3.151,4,4.922l.877,1.076c2.072,2.541,4.321,5.293,6.651,8.139l1,1.225c2.687,3.282,5.464,6.665,8.185,9.979l3.032,3.689,1.973,2.4,2.854,3.47,1.813,2.2,3.351,4.07,1.511,1.834c3.865,4.691,6.369,7.726,6.369,7.726l3.274-6.485Z" transform="translate(-408.503 -282.906)" fill="#d0d2d3"/>
            </g>
          </g>
        </g>
        <path id="Trazado_641255" data-name="Trazado 641255" d="M470.48,339.829s-23.954-22.758-25.109-24.49,1.54-10.583-2.5-15.779-6.813-6.378-8.312-6-.624,2.124-.624,2.124-7.5-4.872-8-.624c-2.748-1.749-7.746-3.123-6.871,0-2.249-2.624-10.994-14.868-11.994-11.744s9.37,18.116,10.245,20.989a11.206,11.206,0,0,1,.5,4.872s-3.5-7-8.621-6.871c-2.373.749,4.79,6.516,4.79,9.015s1.986,6.415,8.177,8.328c21.083,6.514,35.57,29.478,35.57,29.478s7.762.848,12.747-9.3" transform="translate(-200.319 -117.763)" fill="#ffb782"/>
        <path id="Trazado_641256" data-name="Trazado 641256" d="M439.444,303.755c1.134.764,2.253,1.549,3.342,2.382l.822.627a2.98,2.98,0,0,1,.74.8,2.6,2.6,0,0,1,.309,2.106.03.03,0,0,1-.037.019.03.03,0,0,1-.02-.023v0a3.909,3.909,0,0,0-.735-1.772,5.393,5.393,0,0,0-.639-.7c-.237-.238-.485-.471-.736-.7-1.015-.9-2.049-1.8-3.08-2.694a.029.029,0,0,1,.036-.047" transform="translate(-213.808 -126.484)" fill="#ff9750"/>
        <path id="Trazado_641257" data-name="Trazado 641257" d="M453.149,304.827q1.3,1.072,2.564,2.18c.217.191.419.34.656.573a1.93,1.93,0,0,1,.456.833,1.977,1.977,0,0,1,.01.936,1.083,1.083,0,0,1-.5.759.029.029,0,0,1-.039-.013.03.03,0,0,1,0-.028l0-.007a1.319,1.319,0,0,0,.128-.752,2.32,2.32,0,0,0-.159-.723,2.867,2.867,0,0,0-.341-.634c-.134-.186-.354-.407-.536-.608q-1.157-1.219-2.281-2.474a.029.029,0,0,1,0-.041.03.03,0,0,1,.039,0" transform="translate(-219.514 -126.93)" fill="#ff9750"/>
        <path id="Trazado_641258" data-name="Trazado 641258" d="M427.673,303.757a38.239,38.239,0,0,1,2.962,2.785,11.419,11.419,0,0,1,1.341,1.546,5.08,5.08,0,0,1,.85,1.886.03.03,0,0,1-.024.034.033.033,0,0,1-.03-.012c-.41-.549-.835-1.047-1.264-1.559s-.8-1.067-1.224-1.586c-.849-1.041-1.738-2.057-2.651-3.052a.029.029,0,0,1,.04-.043" transform="translate(-208.905 -126.485)" fill="#ff9750"/>
        <g id="Grupo_927860" data-name="Grupo 927860" transform="translate(206.685 165.101)" opacity="0.5" style="mix-blend-mode: multiply;isolation: isolate">
          <g id="Grupo_927859" data-name="Grupo 927859">
            <g id="Grupo_927858" data-name="Grupo 927858" clip-path="url(#clip-path-23)">
              <path id="Trazado_641259" data-name="Trazado 641259" d="M443.379,327.268c-3.2-2.933-11.466-9.6-14.963-9.569s-7.035-2.83-7.435-5.36.631-6.914-3.053-11.033c-3.147-3.52-8.887-15.1-10.493-18.4a.674.674,0,0,0-.363.448c-1,3.123,9.37,18.116,10.245,20.989a11.209,11.209,0,0,1,.5,4.873s-3.5-7-8.62-6.872c-2.374.75,4.79,6.516,4.79,9.015s1.986,6.416,8.177,8.328c21.083,6.514,35.57,29.478,35.57,29.478a9.8,9.8,0,0,0,3.975-.641,206.489,206.489,0,0,0-18.328-21.258" transform="translate(-407.004 -282.906)" fill="#ffb782"/>
            </g>
          </g>
        </g>
        <path id="Trazado_641260" data-name="Trazado 641260" d="M489.189,357.1s-11.831,7.308-12.036,13.843c7.637,8.365,51.372,53.642,51.372,53.642l11.015-26.849Z" transform="translate(-229.529 -148.698)" fill="#f951a3"/>
        <g id="Grupo_927863" data-name="Grupo 927863" transform="translate(247.624 211.362)" opacity="0.5" style="mix-blend-mode: multiply;isolation: isolate">
          <g id="Grupo_927862" data-name="Grupo 927862">
            <g id="Grupo_927861" data-name="Grupo 927861" clip-path="url(#clip-path-24)">
              <path id="Trazado_641261" data-name="Trazado 641261" d="M531.282,419.974c-8.917-8.694-41.1-40.09-43.9-43.072-1.527-3.834,6.341-14.031,6.341-14.031h0c-3.5-2.828-11.412,3.6-16.084,7.951a6.873,6.873,0,0,0-.487,2.232c7.637,8.365,51.372,53.641,51.372,53.641Z" transform="translate(-477.153 -362.175)" fill="#f951a3"/>
            </g>
          </g>
        </g>
        <path id="Trazado_641262" data-name="Trazado 641262" d="M471.194,352.819a41.09,41.09,0,0,1,10.177-8.068l7.576,10.864s-10.613,6.534-12.579,14.459c0,0-7.792-3.978-10.69-8a29.067,29.067,0,0,1,5.517-9.257" transform="translate(-224.751 -143.558)" fill="#ffbbe2"/>
        <g id="Grupo_927866" data-name="Grupo 927866" transform="translate(240.926 201.193)" opacity="0.5" style="mix-blend-mode: multiply;isolation: isolate">
          <g id="Grupo_927865" data-name="Grupo 927865">
            <g id="Grupo_927864" data-name="Grupo 927864" clip-path="url(#clip-path-25)">
              <path id="Trazado_641263" data-name="Trazado 641263" d="M471.194,352.819a29.067,29.067,0,0,0-5.517,9.257c2.9,4.021,10.69,8,10.69,8a14.571,14.571,0,0,1,1.7-3.952,39.9,39.9,0,0,1-3.648-4.548c-2.214-3.3,6.955-16.823,6.955-16.823a41.09,41.09,0,0,0-10.177,8.068" transform="translate(-465.677 -344.751)" fill="#ffbbe2"/>
            </g>
          </g>
        </g>
        <path id="Trazado_641264" data-name="Trazado 641264" d="M475.223,371.865a2,2,0,1,1-2-2,2,2,0,0,1,2,2" transform="translate(-227.058 -154.014)" fill="#fff"/>
        <g id="Grupo_927869" data-name="Grupo 927869" transform="translate(164.498 170.703)" style="mix-blend-mode: multiply;isolation: isolate">
          <g id="Grupo_927868" data-name="Grupo 927868">
            <g id="Grupo_927867" data-name="Grupo 927867" clip-path="url(#clip-path-26)">
              <path id="Trazado_641265" data-name="Trazado 641265" d="M377.447,323.862l-1.192-.913.425-.556L366.4,314.511c-.065-.309-.135-.609-.207-.9-.006-.025-.012-.05-.019-.074q-.052-.2-.105-.4l-.01-.041a27.2,27.2,0,0,0-.9-2.754c-.123-.318-2.377-5.411-2.377-5.411l-1.8-4.293A106.008,106.008,0,0,0,346.9,297.17c-.379-.059-.756-.114-1.129-.163h-.006c-.634.03-.856.3-.767.738a1.88,1.88,0,0,0,.207.516l-5.043-3.867-4.981-1.865a.344.344,0,0,0-.4.522l.68.952,2.413,3.374,5.155,3.953a6.916,6.916,0,0,0-.455,2.607l-.4.046c-4.661.518-4.229,1.792-3.364,2.448a8.675,8.675,0,0,0,3.7.909l0,.344v.008c0,1,.007,1.9.022,2.73a53.522,53.522,0,0,1-.034,5.4c-.034.383-.081.757-.144,1.13a12.762,12.762,0,0,1-.4,1.687c-.178.573-.4,1.249-.637,2-.155.5-.313,1.034-.46,1.591s-.287,1.14-.4,1.737-.21,1.211-.27,1.832a10.449,10.449,0,0,0,1.177,6.412,12.936,12.936,0,0,1,1.13,2.725q.1.329.2.678a59.371,59.371,0,0,1,1.52,8.6q.057.494.111,1c.18,1.676.333,3.422.463,5.194.26,3.545.431,7.2.549,10.61q.021.616.041,1.24.006.188.012.377c-.807.249-1.513.486-2.076.685l-.316.112a2.213,2.213,0,0,0-1.469,1.888c-.147,1.868.706,3.211.652,6.069,0,.221-.009.454-.015.7s-.012.495-.017.755c-.02.908-.036,1.9-.025,2.877.009.7.032,1.381.08,2.016q.014.19.031.375c.161,1.717.526,2.979,1.3,2.923a.794.794,0,0,0,.173-.033c.243-.09.483-.172.724-.254l-.137,40.56,23.4.469L362.591,379.5a1.492,1.492,0,0,0,.913-.365,1.951,1.951,0,0,0,.264-.361c.02-.035.037-.075.055-.111a2.693,2.693,0,0,0,.148-.336c.014-.039.026-.08.039-.121a3.93,3.93,0,0,0,.106-.417c.006-.029.012-.058.017-.088.032-.178.055-.364.071-.557v0a11.3,11.3,0,0,0-.113-2.385v0c-.019-.14-.042-.281-.065-.422-.008-.05-.015-.1-.023-.148-.023-.132-.047-.263-.072-.4-.011-.059-.022-.118-.033-.177-.025-.125-.051-.249-.077-.373-.014-.066-.028-.131-.043-.2q-.038-.175-.079-.347c-.017-.072-.034-.144-.052-.216-.026-.106-.051-.212-.078-.316-.02-.081-.041-.161-.062-.24s-.048-.183-.072-.273-.053-.191-.079-.285c-.019-.068-.038-.138-.057-.2-.046-.159-.09-.314-.135-.462a3.965,3.965,0,0,1-.124-.619c-.008-.064-.014-.13-.02-.2-.016-.165-.025-.334-.027-.508,0-.066,0-.13,0-.2q0-.342.028-.7c0-.068.012-.139.019-.208.015-.178.032-.358.052-.539.015-.129.029-.259.046-.388.011-.086.021-.171.032-.256.084-.658.174-1.315.228-1.937,0-.034.005-.069.008-.1.1-1.259.026-2.359-.643-2.968a10.141,10.141,0,0,0-3.659-1.222c-.706-8.579-1.274-17.029-.92-18.533.739-3.14,6.806-17.123,8.2-21.456.034-.1.065-.2.093-.295l.008-.025c.044-.148.082-.3.117-.453.01-.045.019-.09.028-.136q.036-.172.064-.348c.006-.041.014-.082.02-.124l7.681,5.89.426-.556,1.192.914a1.183,1.183,0,0,0,1.436-1.873m-21.773-8.2c-1.98,2.556-6.107,2.066-6.944-1.178-.4-1.544-.92-4.382-1.568-7.056l.137-.005c1.12-.052,2.293-.107,3.457-.17l6.031,4.624a9.62,9.62,0,0,1-.428,2.421,4.605,4.605,0,0,1-.686,1.364" transform="translate(-334.715 -292.505)" fill="#d0d2d3"/>
            </g>
          </g>
        </g>
        <path id="Trazado_641266" data-name="Trazado 641266" d="M357.106,306.888s-11.493,1.491-16.172,1.789-4.309,1.591-3.475,2.286,3.985,1.392,8.433,1.392,9.731,0,12.048-.5,2.873-3.579-.834-4.971" transform="translate(-171.147 -127.791)" fill="#efa16c"/>
        <path id="Trazado_641267" data-name="Trazado 641267" d="M356.613,382.517s-1.818-35.183-.909-38.364,7.954-17.5,9.317-21.361-.735-9.932-.843-10.256-2.12-5.517-2.12-5.517l-1.593-4.373a101.724,101.724,0,0,0-15.033-4.344c-3.416,0,4.743,7.624,9.386,8.854,1.09,1.23,1.733,7.789-.365,10.249s-6.2,1.776-6.88-1.5-1.64-12.3-3.553-13.529-2.071,1.121-2.344,6.45.021,7.9-1.072,10.9-3.69,8.883-1.23,13.529,2.75,18.024,2.613,28.956-.6,23.705-.6,23.705,8.958,1.6,15.222-3.4" transform="translate(-171.729 -124.216)" fill="#ffb782"/>
        <g id="Grupo_927872" data-name="Grupo 927872" transform="translate(172.889 174.085)" opacity="0.5" style="mix-blend-mode: multiply;isolation: isolate">
          <g id="Grupo_927871" data-name="Grupo 927871">
            <g id="Grupo_927870" data-name="Grupo 927870" clip-path="url(#clip-path-27)">
              <path id="Trazado_641268" data-name="Trazado 641268" d="M359.6,306.046c-2.24-1.321-7.06-6.033-8.565-7.528-.378-.078-.755-.151-1.126-.218-3.416,0,4.742,7.624,9.386,8.854.93,1.049,1.528,5.967.384,8.919,2.722,2.194,7.014,5.455,9.59,7.329.086-.223.166-.432.229-.612.911-2.582.276-6.148-.278-8.326-2.981-3.088-7.687-7.279-9.621-8.419" transform="translate(-349.093 -298.3)" fill="#ffb782"/>
            </g>
          </g>
        </g>
        <rect id="Rectángulo_339242" data-name="Rectángulo 339242" width="3.76" height="46.017" transform="translate(165.803 174.085) rotate(-49.83)" fill="#bd1e2d"/>
        <path id="Trazado_641269" data-name="Trazado 641269" d="M332.387,289.765a.343.343,0,0,0-.424.5l2.887,4.467,2.425-2.873Z" transform="translate(-169.047 -120.649)" fill="#dcdcdc"/>
        <path id="Trazado_641270" data-name="Trazado 641270" d="M333.463,290.226l-1.076-.461a.343.343,0,0,0-.424.5l.635.983Z" transform="translate(-169.047 -120.649)" fill="#ee4136"/>
        <path id="Trazado_641271" data-name="Trazado 641271" d="M394.266,340.781l-9.782-8.257a.944.944,0,0,0-1.325.157l-.266.315a.944.944,0,0,0,.068,1.332l9.782,8.257a1.183,1.183,0,0,0,1.523-1.8" transform="translate(-190.178 -138.381)" fill="#dcdcdc"/>
        <g id="Grupo_927875" data-name="Grupo 927875" transform="translate(166.618 180.245)" opacity="0.5" style="mix-blend-mode: multiply;isolation: isolate">
          <g id="Grupo_927874" data-name="Grupo 927874">
            <g id="Grupo_927873" data-name="Grupo 927873" clip-path="url(#clip-path-28)">
              <path id="Trazado_641272" data-name="Trazado 641272" d="M341.506,386.861a77.145,77.145,0,0,0,11.1,2.329,15.261,15.261,0,0,0,4.005-2.278s-.4-7.835-.736-16.444a9.438,9.438,0,0,0-2.535-2.411c-4.267-2.54-7.043-6.7-7.379-10.4s.336-13.678-1.835-17.355-1.538-13.14-.295-16.169c1.236-3.012-1.811-15.149-1.845-15.282-.139,1.1-.22,2.555-.313,4.362-.273,5.329.021,7.9-1.072,10.9s-3.69,8.883-1.23,13.529,2.75,18.024,2.613,28.956c-.093,7.433-.335,15.713-.48,20.255" transform="translate(-338.348 -308.855)" fill="#ffb782"/>
            </g>
          </g>
        </g>
        <path id="Trazado_641273" data-name="Trazado 641273" d="M340.294,430.225s13.33-3.112,17.494,0l3.512,48.083-23.351-1.568Z" transform="translate(-171.563 -178.574)" fill="#cc975e"/>
        <g id="Grupo_927878" data-name="Grupo 927878" transform="translate(166.386 250.268)" opacity="0.5" style="mix-blend-mode: multiply;isolation: isolate">
          <g id="Grupo_927877" data-name="Grupo 927877">
            <g id="Grupo_927876" data-name="Grupo 927876" clip-path="url(#clip-path-29)">
              <path id="Trazado_641274" data-name="Trazado 641274" d="M345.231,440.52c.433-3.667,9.3-3.454,13.076-3.2l-.519-7.1c-4.164-3.112-17.494,0-17.494,0L337.95,476.74l7.211.484c-.128-10.505-.35-33.142.071-36.7" transform="translate(-337.95 -428.842)" fill="#cc975e"/>
            </g>
          </g>
        </g>
        <path id="Trazado_641275" data-name="Trazado 641275" d="M359.057,418.444c-.639-2.556,1.6-7.03,0-8.628-5.414-3.565-16.224-.692-19.813.413a2.211,2.211,0,0,0-1.556,1.816c-.235,1.859.554,3.241.366,6.093-.232,3.529-.857,10.15,1.075,9.671,10.56-3.355,18.36.521,19.872-.926s.7-5.883.056-8.439" transform="translate(-171.436 -169.931)" fill="#8a5e3c"/>
        <g id="Grupo_927881" data-name="Grupo 927881" transform="translate(166.207 239.874)" opacity="0.5" style="mix-blend-mode: multiply;isolation: isolate">
          <g id="Grupo_927880" data-name="Grupo 927880">
            <g id="Grupo_927879" data-name="Grupo 927879" clip-path="url(#clip-path-30)">
              <path id="Trazado_641276" data-name="Trazado 641276" d="M359,428.109a3.225,3.225,0,0,0,.793-1.957c-5.1,1.745-19.088-.962-18.348-4.727.362-1.848,1.153-3.492-.747-5.156s0-5.238,0-5.238c-.563.156-1.056.3-1.456.424a2.212,2.212,0,0,0-1.555,1.817c-.235,1.859.554,3.241.367,6.092-.233,3.529-.857,10.15,1.074,9.671,10.56-3.356,18.36.521,19.872-.926" transform="translate(-337.643 -411.031)" fill="#8a5e3c"/>
            </g>
          </g>
        </g>
        <g id="Grupo_927884" data-name="Grupo 927884" transform="translate(184.875 242.141)" opacity="0.5" style="mix-blend-mode: multiply;isolation: isolate">
          <g id="Grupo_927883" data-name="Grupo 927883">
            <g id="Grupo_927882" data-name="Grupo 927882" clip-path="url(#clip-path-31)">
              <path id="Trazado_641277" data-name="Trazado 641277" d="M372.377,421.289c-.435-1.74.46-4.366.574-6.372a8.56,8.56,0,0,1-2,2.207,2.455,2.455,0,0,0-.756,3.681,14.028,14.028,0,0,1,2.922,4.579,28.335,28.335,0,0,0-.736-4.1" transform="translate(-369.631 -414.916)" fill="#8a5e3c"/>
            </g>
          </g>
        </g>
        <g id="Grupo_927887" data-name="Grupo 927887" transform="translate(74.749 155.606)" style="mix-blend-mode: multiply;isolation: isolate">
          <g id="Grupo_927886" data-name="Grupo 927886">
            <g id="Grupo_927885" data-name="Grupo 927885" clip-path="url(#clip-path-32)">
              <path id="Trazado_641278" data-name="Trazado 641278" d="M239.281,295.639l.006-1.146a.6.6,0,0,0-.023-.168.576.576,0,0,0-.165-.265.59.59,0,0,0-.27-.141.562.562,0,0,0-.459.1,10.223,10.223,0,0,0-2.029,1.958c-1.351,1.736.057,4.459-1.255,5.307a33.809,33.809,0,0,1-5.049,2.092,24.689,24.689,0,0,1-5.387-3.611,3.413,3.413,0,0,1-.771-1.038,4.429,4.429,0,0,1-.259-.638c-.041-.129-.076-.26-.107-.393a6.5,6.5,0,0,1-.133-.815,8.467,8.467,0,0,1-.03-1.239,10.627,10.627,0,0,1,.255-1.866,3.446,3.446,0,0,1,.386-.972,3.471,3.471,0,0,1,.658-.814l2.956-2.71a14.087,14.087,0,0,1,4.191,1.036,3.664,3.664,0,0,1,1.866,1.626,2.4,2.4,0,0,0,1.876,1.479,3.633,3.633,0,0,0,1.674-.166s-.54-4.167-2.044-5.44a22.576,22.576,0,0,0-7.986-3.435c-2.2-.348-6.328,3.934-6.328,3.934s1.622-7.947,2.124-9.066,5.441-6.288,6.213-8.217.965-4.051-1.2-2.585a76.365,76.365,0,0,0-9.107,8.8c-1.27,1.569-3.126,9.456-3.242,9.954l0,0,.487-8.186a32.767,32.767,0,0,1,4.349-8.171,3.806,3.806,0,0,0,1.062-3.461,1,1,0,0,0-1.772-.337l-5.7,7.592a3.864,3.864,0,0,0-.613,1.217l-2.87,9.657c-.005,0-.007,0-.012.006-.049-.2-1.178-4.9,1.992-10.813,2.632-4.91-.074-6.522-1.215-3.9s-5.5,13.235-5.5,13.235-.55,1.622.041,7.018a55.711,55.711,0,0,1-1.911,21.546c-.623,2-1.518,4.656-2.5,7.51-1.482-.141-2.424-.184-2.424-.184l-18.134,55.148,1.49,15.414,2.785,28.794L205.409,414l4.8-1.251-8.845-36.731L216.933,324.2c-.193-.125-.393-.245-.6-.363-.068-.039-.14-.076-.21-.114-.141-.077-.282-.154-.429-.229-.086-.043-.174-.085-.261-.127l-.11-.054c1.9-3.729,3.8-6.525,5.14-7.1,2.012-.87,4.839-1.127,7.484-2.239a10.434,10.434,0,0,0,4.347-3.24c2.48-3.2,4.924-4.508,6.156-5.827a3.191,3.191,0,0,0,.679-1.02,2.177,2.177,0,0,0,.106-.371,12.907,12.907,0,0,0,.172-1.913c.033-1.09,0-2.292-.042-3.223s-.09-1.589-.09-1.589Z" transform="translate(-180.927 -266.636)" fill="#d0d2d3"/>
            </g>
          </g>
        </g>
        <path id="Trazado_641279" data-name="Trazado 641279" d="M245.109,295.457a37.677,37.677,0,0,1-.5,6.706c-.53,2.013-3.828,2.7-7.418,6.726s-8.871,3.49-12.177,4.658S214.27,328.46,211.73,337.529c0,0-7.413.668-12.906-4.417,1.367-4.048,7.452-17.756,9.993-24.295a55.707,55.707,0,0,0,3.377-21.365c-.221-5.424.439-7,.439-7s5.076-10.3,6.393-12.829,3.906-.741.945,3.978c-3.644,5.806-2.724,10.671-2.724,10.671l3.532-9.462a3.855,3.855,0,0,1,.694-1.173l6.2-7.185a1,1,0,0,1,1.745.458,3.8,3.8,0,0,1-1.295,3.381,32.744,32.744,0,0,0-4.9,7.855l-1.048,8.156s2.5-8.206,3.922-9.734a76.281,76.281,0,0,1,9.686-8.153c2.256-1.315,1.918.789,1.016,2.661s-6.183,6.691-6.759,7.773-2.738,8.9-2.738,8.9,4.411-3.99,6.582-3.493a22.584,22.584,0,0,1,7.733,3.972c1.414,1.373,1.667,5.567,1.667,5.567s-2.568.791-3.451-1.552-5.86-3.07-5.86-3.07l-3.135,2.5a3.476,3.476,0,0,0-1.164,1.71c-.515,1.7-.862,4.508.633,6.047a24.711,24.711,0,0,0,5.128,3.971,33.8,33.8,0,0,0,5.18-1.741c1.367-.757.149-3.57,1.615-5.209a10.2,10.2,0,0,1,2.158-1.816.58.58,0,0,1,.883.539Z" transform="translate(-113.63 -109.973)" fill="#ffb782"/>
        <path id="Trazado_641280" data-name="Trazado 641280" d="M229.831,295.221c-.116.733-.191,1.469-.236,2.2a10.67,10.67,0,0,1-.037,1.088,5.854,5.854,0,0,1-.243,1.1.031.031,0,0,1-.04.02.035.035,0,0,1-.019-.015,2.734,2.734,0,0,1-.282-1.125,4.28,4.28,0,0,1,.157-1.124,12.37,12.37,0,0,1,.643-2.154.029.029,0,0,1,.038-.016.03.03,0,0,1,.018.033" transform="translate(-126.184 -122.919)" fill="#ff9750"/>
        <path id="Trazado_641281" data-name="Trazado 641281" d="M238.315,298.7c-.071.752-.134,1.5-.179,2.246a10.121,10.121,0,0,1-.052,1.11,8.015,8.015,0,0,1-.254,1.105.031.031,0,0,1-.039.022.033.033,0,0,1-.019-.015,2.531,2.531,0,0,1-.27-1.147,4.592,4.592,0,0,1,.171-1.134,19.139,19.139,0,0,1,.585-2.2.029.029,0,0,1,.037-.019.03.03,0,0,1,.02.031" transform="translate(-129.736 -124.366)" fill="#ff9750"/>
        <g id="Grupo_927890" data-name="Grupo 927890" transform="translate(85.912 182.57)" opacity="0.5" style="mix-blend-mode: multiply;isolation: isolate">
          <g id="Grupo_927889" data-name="Grupo 927889">
            <g id="Grupo_927888" data-name="Grupo 927888" clip-path="url(#clip-path-33)">
              <path id="Trazado_641282" data-name="Trazado 641282" d="M243.084,320.923c-1.789,1.523-5.251,5.43-7.182,5.765s-9.615-.006-12.222,2.7-7.388,10.049-17.7,8.722c-.122-.016-.232-.02-.35-.033-2.083,4.93-4.326,10.174-5.58,13.388.351,1.013,1.441,2.291,4,3.819a22.991,22.991,0,0,0,6.719,2.556,13.342,13.342,0,0,0,1.464-.019c2.54-9.068,9.979-22.813,13.285-23.981s8.588-.631,12.178-4.658,6.888-4.714,7.417-6.726a37.681,37.681,0,0,0,.5-6.707l.167-2.285a.58.58,0,0,0-.882-.539s-.033,6.473-1.823,8" transform="translate(-200.055 -312.84)" fill="#ffb782"/>
            </g>
          </g>
        </g>
        <path id="Trazado_641283" data-name="Trazado 641283" d="M191.084,352.674s12.031,1.364,17.538,5.487L189.545,408.8l6.317,37.249-25.388,4.8-1.247-44.4Z" transform="translate(-101.305 -146.857)" fill="#164664"/>
        <path id="Trazado_641284" data-name="Trazado 641284" d="M178.845,438.494c.551-4.808-2.584-11.019-4.656-14.517l-4.963,12.169.435,15.48c3.813-1.374,8.548-7.577,9.185-13.131" transform="translate(-101.305 -176.548)" fill="#0a2f42"/>
        <g id="Grupo_927893" data-name="Grupo 927893" transform="translate(113.83 175.673)" opacity="0.5" style="mix-blend-mode: multiply;isolation: isolate">
          <g id="Grupo_927892" data-name="Grupo 927892">
            <g id="Grupo_927891" data-name="Grupo 927891" clip-path="url(#clip-path-34)">
              <path id="Trazado_641285" data-name="Trazado 641285" d="M260.3,304.162c-.662-1.6-4.263-3.216-5.853-3.137s-5.038,2.316-5.7,3.955-1.38,5.366-.28,7.094.164,2.5,1.491,3.639,4.421,1.924,5.919,1.06a24.7,24.7,0,0,1-5.127-3.971c-1.495-1.54-1.147-4.35-.633-6.047a3.476,3.476,0,0,1,1.164-1.71l3.134-2.5s4.977.728,5.861,3.07,3.451,1.552,3.451,1.552-2.764-1.4-3.426-3" transform="translate(-247.894 -301.022)" fill="#ffb782"/>
            </g>
          </g>
        </g>
        <g id="Grupo_927896" data-name="Grupo 927896" transform="translate(81.823 206.717)" opacity="0.5" style="mix-blend-mode: multiply;isolation: isolate">
          <g id="Grupo_927895" data-name="Grupo 927895">
            <g id="Grupo_927894" data-name="Grupo 927894" clip-path="url(#clip-path-35)">
              <path id="Trazado_641286" data-name="Trazado 641286" d="M206.359,354.216c2.234,3.322,5.394,9.019,4.111,13.138-1.918,6.156-11.51,31.507-12.833,35.051a13.072,13.072,0,0,1-4.588,5.673l3.37,1.914s2.263,27.961,4.493,37.623l4.869-.92-6.317-37.249L218.543,358.8c-3.1-2.319-8.26-3.765-12.184-4.587" transform="translate(-193.049 -354.216)" fill="#164664"/>
            </g>
          </g>
        </g>
        <g id="Grupo_927899" data-name="Grupo 927899" transform="translate(-26.715 151.286)" style="mix-blend-mode: multiply;isolation: isolate">
          <g id="Grupo_927898" data-name="Grupo 927898" transform="translate(0)">
            <g id="Grupo_927897" data-name="Grupo 927897" clip-path="url(#clip-path-36)">
              <path id="Trazado_641287" data-name="Trazado 641287" d="M97.384,271.6c1.438-3.059-.7-4.546-2.76-1.725-2.9,4.021-10.772,11.742-10.772,11.742s8.272-14.89,9.513-17.353c.487-.966,1.122-3.426.113-4.3-1.537-1.338-3.384,2.217-3.979,3.115-3.442,5.189-6.9,10.38-10.837,15.212,0,0,4.01-7.665,4.964-9.854s2.656-7.087,2.275-8.589-1.489-.182-3.533,3.434-8.762,13.908-8.762,13.908c-.5-2.04,2.336-9.493,2.285-13.62-.031-2.54-2.7,1.828-3.7,5.032s-5.482,12.611-9.234,19.082-2.1,11.976-4.159,17.922a17.294,17.294,0,0,1-.944,2.141c-.532-.242-.847-.374-.847-.374l-4.443,6.15A11.8,11.8,0,0,0,51,313.266c-6.708,6.924-43.932,56.413-43.932,56.413l22.78,12.414,38.428-57.361s-.49-.586-1.34-1.489l4.776-5.788c-.185-.271-.393-.54-.611-.807-.032-.04-.063-.079-.1-.118-.174-.208-.356-.415-.547-.62.129-.154.258-.309.386-.46,2.549-3,4.925-5.407,6.385-6.159a2.073,2.073,0,0,1,.7-.24,15.625,15.625,0,0,0,7.213-3.19q.453-.338.885-.693c1.756-1.441,2.679-3.549,4.18-5.184a8.5,8.5,0,0,1,.683-.669c1.1-.956,2.255-1.834,3.418-2.7s2.333-1.734,3.453-2.661c-1.475-1.722-5.855-1.405-7.228.708s-6.367,4.874-6.853,2.159,3.536-8.956,3.536-8.956,8.732-13.2,10.17-16.259" transform="translate(-7.065 -259.234)" fill="#d0d2d3"/>
            </g>
          </g>
        </g>
        <path id="Trazado_641288" data-name="Trazado 641288" d="M70.047,319.8s10.93-12.181,13.211-18.046.834-11.428,4.824-17.755,8.824-15.56,9.939-18.725,3.945-7.43,3.881-4.89c-.1,4.126-3.215,11.468-2.792,13.525,0,0,7.1-10.034,9.274-13.571s3.335-4.813,3.659-3.3-1.559,6.347-2.594,8.5-5.328,9.662-5.328,9.662c4.115-4.682,7.764-9.74,11.4-14.8.629-.875,2.606-4.359,4.093-2.965.976.916.25,3.35-.273,4.3-1.332,2.415-10.153,16.987-10.153,16.987s8.153-7.423,11.2-11.333c2.168-2.742,4.244-1.177,2.694,1.827s-10.769,15.868-10.769,15.868-4.251,6.087-3.867,8.818,5.477.159,6.928-1.9,5.84-2.214,7.249-.438c-2.307,1.768-4.8,3.276-7.066,5.106-2,1.615-3.011,4.1-5.078,5.668a16.455,16.455,0,0,1-8.237,3.579c-3.218.22-15.9,15.7-18.838,21.215-1.725.939-9.832,1.423-13.357-7.329" transform="translate(-60.006 -106.772)" fill="#ffb782"/>
        <g id="Grupo_927902" data-name="Grupo 927902" transform="translate(16.289 184.788)" opacity="0.5" style="mix-blend-mode: multiply;isolation: isolate">
          <g id="Grupo_927901" data-name="Grupo 927901">
            <g id="Grupo_927900" data-name="Grupo 927900" clip-path="url(#clip-path-37)">
              <path id="Trazado_641289" data-name="Trazado 641289" d="M119.642,319.908c-2.218,2.13-7.464,6.628-10.844,6.793s-6.9-.064-9.644,3.639-6.826,2.365-8.5,2.969-9.9,14.367-9.9,14.367l1.9,4.72a8.477,8.477,0,0,0,5.207-.188c2.938-5.519,15.619-20.995,18.837-21.215a16.452,16.452,0,0,0,8.237-3.579c2.067-1.571,3.079-4.052,5.078-5.668,2.264-1.83,4.76-3.337,7.067-5.106,0,0-5.221,1.137-7.44,3.267" transform="translate(-80.753 -316.641)" fill="#ffb782"/>
            </g>
          </g>
        </g>
        <path id="Trazado_641290" data-name="Trazado 641290" d="M77.676,345.858l6.9-8.841s10.775,5,14.311,10.629l-7.577,8.515s-10.944-5.761-13.638-10.3" transform="translate(-63.183 -140.337)" fill="#e5e6e7"/>
        <g id="Grupo_927905" data-name="Grupo 927905" transform="translate(14.493 203.19)" style="mix-blend-mode: multiply;isolation: isolate">
          <g id="Grupo_927904" data-name="Grupo 927904">
            <g id="Grupo_927903" data-name="Grupo 927903" clip-path="url(#clip-path-38)">
              <path id="Trazado_641291" data-name="Trazado 641291" d="M95.768,348.778c-.965,1.289-2.745,3.371-4.05,3.158-1.68-.275-8.556-1.492-12.222-3.762l-1.82,2.33c2.694,4.542,13.638,10.3,13.638,10.3l7.577-8.515a16.924,16.924,0,0,0-3.124-3.514" transform="translate(-77.677 -348.173)" fill="#e5e6e7"/>
            </g>
          </g>
        </g>
        <path id="Trazado_641292" data-name="Trazado 641292" d="M62.842,358.835S54.305,347.787,46,346.732C39.043,353.4,0,401.469,0,401.469l22.3,13.254Z" transform="translate(-30.838 -144.383)" fill="#363a3b"/>
        <g id="Grupo_927908" data-name="Grupo 927908" transform="translate(-15.644 202.349)" opacity="0.5" style="mix-blend-mode: multiply;isolation: isolate">
          <g id="Grupo_927907" data-name="Grupo 927907">
            <g id="Grupo_927906" data-name="Grupo 927906" clip-path="url(#clip-path-39)">
              <path id="Trazado_641293" data-name="Trazado 641293" d="M26.035,410.5l7.108,4.225,40.54-55.889s-8.536-11.048-16.837-12.1c0,0,6.116,10.8,6.116,15.667,0,4.113-26.723,36.188-36.927,48.1" transform="translate(-26.035 -346.732)" fill="#363a3b"/>
            </g>
          </g>
        </g>
        <path id="Trazado_641294" data-name="Trazado 641294" d="M98.158,368.294a1.553,1.553,0,1,1-1.553-1.553,1.553,1.553,0,0,1,1.553,1.553" transform="translate(-70.419 -152.715)" fill="#e5e6e7"/>
      </g>
    </g>
  </g>
</svg>
