<svg xmlns="http://www.w3.org/2000/svg" xmlns:xlink="http://www.w3.org/1999/xlink" width="149.685" height="129.014" viewBox="0 0 149.685 129.014"><defs><clipPath id="a"><rect width="125.829" height="89.892" fill="none"/></clipPath><clipPath id="c"><rect width="25.063" height="75.763" fill="none"/></clipPath><clipPath id="d"><rect width="31.458" height="77.538" fill="none"/></clipPath></defs><g transform="translate(0 45.093) rotate(-21)"><g clip-path="url(#a)"><path d="M22.715,0V81.16l31.458,8.733V8.731Z" transform="translate(8.741 0)" fill="#e8e8e8"/><path d="M68.146,0V81.16L99.6,89.892V8.731Z" transform="translate(26.225 0)" fill="#e8e8e8"/><path d="M76.888,0,45.431,8.731V89.892L76.888,81.16Z" transform="translate(17.483 0)" fill="#c9c7c1"/><path d="M31.457,0,0,8.731V89.892L31.457,81.16Z" transform="translate(0 0)" fill="#cacaca"/><path d="M22.715,4.46V73.266L54.173,82V13.193Z" transform="translate(8.742 1.717)" fill="#3fb7c8"/><path d="M45.431,13.193V82l31.458-8.733V4.46Z" transform="translate(17.483 1.716)" fill="#3fb7c8"/><path d="M68.238,4.486l-.091-.025v68.8l25.063,6.957v-68.8Z" transform="translate(26.225 1.717)" fill="#3fb7c8"/><path d="M4.617,11.418V80.223L29.68,73.266V4.46Z" transform="translate(1.777 1.717)" fill="#3fb7c8"/><g transform="translate(0 0)"><g clip-path="url(#a)"><path d="M25.269,32.715c.018.08-.328.1-.382.105a.334.334,0,0,0,.071.1c.222,0,.35-.055.312-.2" transform="translate(9.577 12.59)" fill="#fff"/><path d="M22.971,32.247c-.043,0-.032.012.007.043.01-.028.01-.043-.007-.043" transform="translate(8.829 12.41)" fill="#fff"/><path d="M20.38,33.427a2.563,2.563,0,0,0,.335.126c-.007-.043-.015-.079-.019-.119-.018-.115-.145-.087-.316-.007" transform="translate(7.843 12.837)" fill="#fff"/><path d="M18.963,32.562h0" transform="translate(7.292 12.53)" fill="#fff"/><path d="M10.183,17.508h0" transform="translate(3.912 6.738)" fill="#fff"/><path d="M37.892,21.546a.313.313,0,0,0,.238-.107c.01-.022-.234-.247-.2-.283-1.647.09.2-1.547-.866-2.141.025.014-1.638,1.325-1.558.721,0,.029-.179-.692.053-.875-.169-.024-.458-.129-.481-.129.476-.27-.813-.557-1.151-.461-1.07-.151-1.2,2.4-2.069,2.8-.913.4-.918,1.267-1.516,1.63-.817.481,0-1.581.048-1.505a7.456,7.456,0,0,0-2.644-.8,2.433,2.433,0,0,0,.271-.661c-.109-.111-.291.053-.41-.043-.22-.165,2.374-1.944,2.477-1.773-.122-.194-.548-.018-.67-.231,1.234.378,1.739-.353,2.8-.713-.364.323-.723.658-1.025.922.209-.033,1.728.188,2.043-.072-.21.165-.577-.911-.776-.911-.069,0-.048.271-.161.3.078-.122.15-.249-.026-.269a.162.162,0,0,0,0-.125c.382-.055.306.328.591.328.155,0-.1-.253-.114-.269.28-.278,1.825-.446,1.447-1.23-.026-.044,1.374.181,1.2-.348.137.169.345.486.541.429.014.188-.388-.054-.368.206.007.083.492.061.548.037,0,.172-.246.269-.24.309.084.413.355-.21.357-.224.043.114.071.05.163.083-.133.468-.816.583-.816.956-.319.18-1.453-.173-1.565.357.115-.565,2.441,1.133,2.918,1.133.31,0-.389-.709-.4-.751.349-.007.638.543.9.543.245,0-.011-.463.13-.521.006,0,.014-.007.022-.008.039.082.032.144.152.144-.172,0,.035-.415.1-.446-.087-.137-.579-.512-.558-.521.068-.161,1.433.316,2.08-.361-.119-.043-1.457-.685-1.457-.7-.021-.145.643-.14.644-.244,0-.039-.242-.073-.3-.093a.223.223,0,0,0,.008-.048c.06.01.2.069.249-.011.122-.238-.3-.163-.374-.13.086-.238-.625-.838-.953-.4-.127-.3-.349-.33-.46-.512.075-.471-.91-.424-.9-.233.039.456.5.058.669.192a7.989,7.989,0,0,1-1.011.242c0-.087.353-.332.343-.51-.008-.227-1.731.209-1.8.572-.019.107.258.057.249.144,0-.006-.144.078-.141.078-.691-.138.757-.889.764-.861-.093-.309-2.133.36-2.133.878a3.339,3.339,0,0,1,.6.087c-.066,0-.676-.087-.641.073.066.323,1.548.292,1.548.292l-.126.1a6.55,6.55,0,0,1-1.46.651c-.028,0,.114-.111.1-.14a6.59,6.59,0,0,1-.583.395.434.434,0,0,0-.123-.19c-.007.008.8-.619.23-.619a.39.39,0,0,0-.159.057c.017-.265-.562-.119-.583-.144.2-.143.763-.507.219-.774.31-.076,1.662-.357,1.817-.649-.066.125-2.745.522-3.033,1.217-.12.26.391.216.442.226-.011.054.05.068.083.083-.179.071-1.039.451-1.039.72-.012.015-.15.048-.136.053-.032-.008-.054-.048-.093-.057a2.372,2.372,0,0,1,.343-.295c-.007-.05-.295-.01-.343-.072a4.193,4.193,0,0,0,.895-.349c.107-.216-1.447-.1-1.377.18.033.13.288-.022.353.05a2.026,2.026,0,0,1-1.991.219c.543-.172-.967-.489-1.111-.087.007-.018.21.368-.071.539a.372.372,0,0,1-.12-.039.221.221,0,0,0-.228-.295c.025-.03.245-.1.244-.118-.007-.044-1.509.287-1.749.1,0-.158.681-.018.564-.245-.313-.565-1.919-.235-2.383-.321a.275.275,0,0,1,.075-.033,1.052,1.052,0,0,0,.206-.2c-.048-.242-.818.331-.818.213-.012-.006.115-.332.089-.375a.344.344,0,0,0-.143-.057c.047,0-.519.464-.587.292a.943.943,0,0,0,.114-.073c-.721.348-11.274-.958-11.108.656.012.125.291.658.543.428,0,.368-.7.4-.87.35.037-.025.223-.134.215-.183,0,.04-1.785.216-1.788.407,0,.1.27.1.313.1-.04.006-.382.144-.373.251.028.213,1.064.115,1.532-.008-1.005.413-3.679.98-3.234,1.908.148.278.8-.36.944-.366a6.918,6.918,0,0,0-.967.782,5.777,5.777,0,0,0,1.342-.166c-.3.271-.03.194.215.12-.262.152-1.368.564-2.408.946h0a1.3,1.3,0,0,1,.228.209c1.2-.352,2.5-.745,2.784-.842-.053.043-.737.278-.6.436-.021-.022.162.1.127.1a4.453,4.453,0,0,0,1.32-.64c.03-.108-.037-.025,0-.108.014-.025-.756.18-.823.2.215-.122.864-.251.554-.474.631-.183,1.048-.561,1.583-.67-.2.152-.922.493-.974.643.055-.173,1.424-.162,2.058-.373a.06.06,0,0,0,0,.061c.03.064.33-.166.4-.2,0,.24.064.082.1.367,2.461-.623.915,1.256,1.486,2.041.192.278.5-.489.565-.643a9.2,9.2,0,0,0,.006,2.237c-.129-.039-.514-.328-.557-.065-.155.667.649.8.148,1.8-.789,1.2-2.44,3.134-1.608,4.454.45.7,1.818,3.162.979,3.162.424,0,.839,2.346,1.332,2.387H15.3c.276,0-1.011-3.786-.728-3.786.895,0,.112.889.392,1.278,1.088,1.475,1.581,4.222,3.688,5.11,1.188.463,3,1.4,4.279,1.4.517,0,.748,2.381,1.634,2.381.015,0,.249-.435.458-.116,0,.2-.148.09-.176.143s.071.186.091.186a7.261,7.261,0,0,0,.921-.523,3.1,3.1,0,0,1-1.5-1.527c-.787-1.843.644-.836-1.714-1.653a9.514,9.514,0,0,0,.728-1.685c.83-1.612-1.411-.294-1.27.158.215.658-1.893.443-2.289-.752.514-.654,1.67-5.483,3.333-3.465a.135.135,0,0,1,.136.068c.112-.212.69-.526.763-.605.072-.532,1.493,1.23,1.544,1.3a5.089,5.089,0,0,0,.474,1.158c.788,0,.136-3.389,1.669-3.721.817-.174.939-.82,1.208-1.021.119-.086.021-1.365.515-1.413-.037.082-.4.9-.319,1,.169.186.511-.89.517-.969a2.4,2.4,0,0,1,.084.234c-.025-.114.558-.694.968-.925-.018,0-.03,0-.035-.011a.814.814,0,0,0,.145-.047c-.033.021-.071.035-.111.058.087-.008.319-.107.35-.054a.128.128,0,0,0-.133-.033c.42-.14.536-.217.561-.022-.006-.078.559-.08.451-.33-.062-.143-.133.048-.233.1,0-.1-.09-.19-.089-.24.054-.335.812-.627,1.1-.878,0,.1-.132.082-.12.177-.006-.068,1.6-.644,1.741-.753-.033.065-.245.156-.244.181.007.108.306-.007.335-.025,0,.309-1.16.116-.9.776.1.249,2.943-1.439,2.31-1.439-.691,0-.852.176-.884.262a1.733,1.733,0,0,0-.246-.619A3.488,3.488,0,0,1,34,24.1a.029.029,0,0,1,0-.019c.431.1.6-.242.928-.334.21-.63-2.224.59-2.512.763,1.611-1.246,3.027-.884,4.628-1.681,1.137,0,1.31-1.16.843-1.285m-5.848-5.728a.811.811,0,0,0-.276.321c-.179-.316.111-.294.276-.321M30.78,17a.923.923,0,0,1,.64.186c-.242.011-.548-.2-.641-.186Z" transform="translate(2.363 5.421)" fill="#fff"/><path d="M28.874,19.508a.719.719,0,0,0-.13.076.25.25,0,0,1,.13-.076" transform="translate(11.062 7.508)" fill="#fff"/><path d="M28.463,19.661l-.028.011a.191.191,0,0,0,.028-.011" transform="translate(10.943 7.567)" fill="#fff"/><path d="M27.5,16.833c-.223.18.123-.173,0,0" transform="translate(10.552 6.459)" fill="#fff"/><path d="M22.986,15.669c.27.119-.089.033,0,0" transform="translate(8.84 6.03)" fill="#fff"/><path d="M18.445,26.775c.168-.2-.037.05,0,0" transform="translate(7.097 10.275)" fill="#fff"/><path d="M9.979,16.058h0" transform="translate(3.84 6.18)" fill="#fff"/><path d="M9.8,16.056a.226.226,0,0,0-.05,0,.22.22,0,0,1,.05,0" transform="translate(3.751 6.178)" fill="#fff"/><path d="M10.25,17.509c-.643.12.132-.029,0,0" transform="translate(3.845 6.737)" fill="#fff"/><path d="M12.249,18.871c.007,0-.01.015-.012.021.062-.108.184-.235.012-.021" transform="translate(4.709 7.218)" fill="#fff"/><path d="M12.593,19.221c-.026.048,0,0,0,0" transform="translate(4.842 7.397)" fill="#fff"/><path d="M19.01,32.568c-.5.343.19-.136,0,0" transform="translate(7.245 12.524)" fill="#fff"/><path d="M18.637,27.2c-.047-.014-.065-.114-.111-.184-.043.083-.024.15.111.184" transform="translate(7.122 10.395)" fill="#fff"/><path d="M27.5,17.517,27.5,17.5a.2.2,0,0,0-.115.042c.075.011.132.008.122-.029" transform="translate(10.538 6.737)" fill="#fff"/><path d="M17.483,15.046c0,.007-.018.026-.046.044.029-.012.05-.029.046-.044" transform="translate(6.71 5.791)" fill="#fff"/><path d="M33.493,38.63c.01.006.039-.615-.148-.615-.629,0-1.188-.559-1.7.44.019-.386-2.16-5.514-3.383-3.77.184-.764-1.079-1.148-1.444-1.551a9.244,9.244,0,0,1-2.727-.807c-.072.15-.637.667-.618.569,0-.1-.084-.163-.084-.251s.472-.134.317-.353c-.562-.771-2.385,1.821-2.259,1.821a2.329,2.329,0,0,1-.607-.1c.1.6.411,1.9.361,1.9-1.073,0-1.336,3.015-1.03,2.619-.249,1.918.638,2.854,1.648,4.955.622,1.295,3.826,2.029,2.646,4.113-.432.848.071,7.28.818,7.662-.19.04-.108.7.111.7s.05-.6.072-.789c.006.011.078,0,.091,0a2.4,2.4,0,0,1,.21,1.263c-.108,0-.147-.288-.276-.288.115,0-.053,1.3.036,1.3-.05,0,.551-.1.551-.262.064.09.2.368.14.472-.812.794.875,2.04.881,2.034a.532.532,0,0,1,.015.109c-.133-.022-.237-.136-.237.069a8.6,8.6,0,0,0,3.048,1.221c0-.006,0-.007.008-.006-.4,0,.375-.5.4-.546-2-.515-2.508-4.123-1.94-4.919.141-.3.277.346.463.087.118-.173-.99-.482-.8-.8.144-.04,1.673-.987.759-.886,2.7-.7.885-.42.9-1.915,0,1.235,1.662-.391,2.253-1.251,0,.044,0,.072.04.072.4,0,.994-3.319,2.086-3.643,1.005-.36,3.666-6.93,2.785-7.643s-2.554-.69-3.393-1.023M23.632,33.5c-.422.568.55-.773,0,0m2.336,23.514c-.219-.206,0-.295,0,0" transform="translate(7.717 12.373)" fill="#fff"/><path d="M22.641,33.128h0" transform="translate(8.707 12.745)" fill="#fff"/><path d="M29.029,16.6c.008.017.018.029.017.037.007-.037,0-.044-.017-.037" transform="translate(11.171 6.386)" fill="#fff"/><path d="M41.424,16.257a7.779,7.779,0,0,0-1.12-.05c.553-.021.589,0,1.328,0,.319,0-.151-.475-.476-.78.151.094.806.277.687-.155-.026-.09-.307-.076-.373-.137.373-.13.5.037.841-.176-.015.032-.125-.033-.148-.054a.933.933,0,0,0,.619-.137c.1-.089-.259-.108-.3-.144.58-.258.036-.356-.008-.555-.071-.278.4,0,.514.143a1.1,1.1,0,0,1,.246-.3c-.051-.294-.356.024-.481-.174.028,0,.341.1.334-.017,0-.417-.645.007-.69,0,.184-.82,2.635-.532,2.731-1.162a8.066,8.066,0,0,1-1.925-.163c-.043.028-.033.342-.4.238.356-.324-.641-.075-.683-.158a4.1,4.1,0,0,0,.985-.163c0-.4-2.745-.065-2.8-.079.053-.029.327-.042.327-.143-.044-.36-3.22.411-3.382.173.007,0-.151-.156-.151-.046,0,.32.594.057.645.27-.255.076-1.159-.431-1.368-.144-.076.1.174.144.234.161-.091.017-.835,0-.928.025a13.53,13.53,0,0,0-3.6.431c.026.137.485-.053.515.044.133.442-2.486.2-2.509.593a4.235,4.235,0,0,0,.608.217c-.176,0-.533-.1-.576.087-.138.791,2.79-.048,2.817.465,0,.274-.109-.018.145.285-.3.3-.12.571.082.479-.008.076-.684.507-.166.265-.043.043-.37.316-.3.392.2.2.5-.014.656-.132-.053.231.089.4.382.338a.511.511,0,0,1-.037.109c-.425.071-.457-.234-.469-.245-.17-.2-.7.525-.733.589-.094.174.367.152.649.093-.44.357-1.106.9-.708.925-.813,1.029.392,1.75.974,2.331.19.192,4.618-2.365,5.021-2.968.356.331,1.208.183,1.7-.006.181-.06,1.3-.565,1.3-.565m-.1-1.073c-.051.025-.28.087-.233.187-.116-.105-.2-.181-.208-.186a.979.979,0,0,1,.44,0M30.793,13.809c.035-.022.147-.011,0,0m2.558,2.562c-.066-.039-.24-.1-.281-.141a2.222,2.222,0,0,1,.418,0c.028,0-.035.058-.137.14" transform="translate(11.576 4.616)" fill="#fff"/><path d="M39.4,13.658c.044,0,.036-.022,0-.065-.019.043-.028.065,0,.065" transform="translate(15.158 5.231)" fill="#fff"/><path d="M40.758,19.224c.044.065.235-.251.3-.281,0,.1-.192.283-.115.389.087-.03.174-.208.252-.2-.008.13-.382.274-.341.364.08.129.245-.144.274-.145-.014.055-.136.255-.091.334s.313-.241.324-.241c.029.021-.134.314-.129.366.011.1.449-.014.518-.044-.032.2-.532.89-.532.7,0,.174.087.155.262.2-.053.093-.4.343-.381.4.035.118.583.137.737.111-.043.036-1.052.392-.987.555-.006-.024,2.451-.269,2.408-.511-.01-.037-.242-.073-.252-.073.15-.249.692-.82-.115-.579a10.078,10.078,0,0,1-.5-1.878c-.086-.262-.591.112-.69-.033.026.033.67-.555.539-.641-.006,0-.129-.055-.129-.055a10.352,10.352,0,0,0-.849.631.7.7,0,0,1-.468.176c.064.136-.062.421-.039.456" transform="translate(15.684 6.912)" fill="#fff"/><path d="M73.691,24.471H73.67c.037.015.037.011.021,0" transform="translate(28.351 9.418)" fill="#fff"/><path d="M67.736,30.918c.015-.018-.061.064,0,0" transform="translate(26.058 11.898)" fill="#fff"/><path d="M76.733,21.827c.037.044.064.065.071.053s-.025-.026-.071-.053" transform="translate(29.529 8.4)" fill="#fff"/><path d="M56.725,14.4c-.008.015,0,.04.022.065.014-.093.008-.143-.022-.065" transform="translate(21.828 5.526)" fill="#fff"/><path d="M79.072,19.783l.018.022c0-.01,0-.018-.018-.022" transform="translate(30.429 7.614)" fill="#fff"/><path d="M85.327,35.3c.01.283,3.619-2.176,2.527-3.472.082.087-.615-.006-.607.006.8-.136-.177-1.1-.474-1.381-1.273-1.147.125-.774.125-1.426a1.006,1.006,0,0,0-.039-.217c-.078-.082-2.331-.1-2.034-.625a.659.659,0,0,1,.043-.1c.435,0,.7-.863,1.058-.713.143.04.083.519.093.759a9.2,9.2,0,0,1,1.7.619c.9.015.357.676.841,1.437-.012-.019,1.45-.316.893-.91-.346-.357-1.785-2.465-.863-2.465,2.106,0,1.321-2.6,1-4.077.9.156,1.278,2.509,1.96,2.509.108,0-.019-.228-.015-.283a1.39,1.39,0,0,1,.409.126c-.217-.224-.875-1.152-.938-1.241.136-.043.672.235.677.215a26.525,26.525,0,0,0-2.507-2.363h-.021c-.208.055.267.36.312.4-.2.259.086.017.058.541-.575-.55-1.345-1.065-1.854-.814-.006-.191-.379-.535-.429-.386-.018.094.31.213.256.3s-.357-.292-.374-.292c0,0-.055.24-.468.112.7-1,2.184-2.99,3.562-1.821a.555.555,0,0,0-.229.1c0,.269,1.233-.054,1.234-.068a1.114,1.114,0,0,0-.036-.553,1.5,1.5,0,0,0,.431-.4c-.177.219,1.119.656,1.03.05-.019-.122-.3-.209-.377-.313a1.62,1.62,0,0,1,.744.611c-.051-.007-.633,1.087-.72,1.192.039-.033,2.315,3.214,2.27,3.137.166.263.442-.838.213-1.2a1.51,1.51,0,0,1,.4-.037c-.083-.1-.44-.324-.4-.411.015-.028.493-.587.227-.785.012-.021.012-.043-.012-.091-.191-.374-1.763-.86-1.519-1.377.266-.468,1.392-.021,1.978-.021-.611,0,1.689-1.611,1.479-.958.177-.5-1.395-.608-1.563-.886.152.032.558.066.558-.2,0-.094-.465-.368-.428-.368s.122.114.122-.007a6.6,6.6,0,0,0,2.75.641c.019-.055-.42-.341-.465-.375.061-.043.341.039.3-.114-.192-.094-1.7-.893-1.892-.55a1.171,1.171,0,0,0,.3.216,37.31,37.31,0,0,0-6.043-1.309,5.088,5.088,0,0,0,.713.461c-.321.483-7.254-1.1-8.6-1.187,0-.065.2-.026.228-.054v-.033a8.241,8.241,0,0,0-1.5-.1c-.01.037.137.094.165.105-.054.01-.382-.011-.4.05.018-.109.548.319.555.325-.562.044-1.187-.173-2.03-.173-.093,0,.073.357.094.443-.289-.091-3.066-1.653-3.272-1.021-.033.1.294.222.343.3-1.01-.5-2.86.123-3.479-.379.073-.017.388-.017.388-.144,0-.295-.852.181-.849.2,0,.112.229.054.294.047-.065.192-1.015.044-1.015.289,0-.339,1.336-.533,1.274-.828-.163-.928-3.844-.476-3.691-.429-.658-.129-.911.224-1.572.083-.177.037-1.839.41-1.845.6,0,.055.577.089.663.125-.284.226-1.479-.062-1.521.285-.015.208,1.018.413,1.018.49a3.7,3.7,0,0,1-1.3-.246c.047-.025.256-.012.274-.054.138-.331-.708.235-.63.2.176.076.292-.021.457.062-.083.036-.515-.083-.544.06a.091.091,0,0,0,0,.039,1.7,1.7,0,0,1-.528-.319c-.022.181-.1.53-.155.474.008.014.018.035.029.051-.623-.823-1.594-1.372-1.7.037,0-.012.407.316.425.327-.274.543.769.036.6.651a18.424,18.424,0,0,0-3.1-.684,8.053,8.053,0,0,0,.895.388c.028.541-.514-.047-.622-.126a4.189,4.189,0,0,1-1.2.417c-.111-.253.127-.076.127-.238s-2.31,1.083-2.447.55c.105-.169.331.011.424-.136-.253-.12-.813-.206-.968-.314-.075.087.456.755.469.68-.022.084-.1.166-.062.259-.89-.64-.892.391-.943.517-.219.328-.92-.418-1.129-.075-.069.107.476.277.526.337-.631.316-1.324-.758-1.676-1.033.523-.168,3.6.5,1.72-.49a5.986,5.986,0,0,0-2.821-.608c.033-.015.4-.125.395-.181-.069-.341-.807-.047-.848-.06,0-.006.151-.188.15-.191-.21-.237-.4.13-.526.186a.429.429,0,0,1-.037-.054c0,.072-.072.156-.367.174.022-.065.277-.266.212-.342a6.175,6.175,0,0,1-1.144.174c.04.026.191.086.217.15a.677.677,0,0,0-.67.2c.047-.577-.407.036-.492.231-.209-.391-.231-.037-.327.114-.141-.439-.684.1-1.059.253a.222.222,0,0,0,0,.116c.054.071.508-.184.616-.2.036,1.2-2.26,1.669-2.282,2.072.015-.166-1.292,1.005-.522,1.267-.27.5,1.275.908,1.558.028.451,1.364.255,1.073.17,1.846-.006.051.15.114.186.114,1.131,0,1.508-1.363,2.217-2.073.05-.044-1.07-.871-.274-1.223.4-.2,1.055-.464,1.486-.631-.472.3-1.04.933-.591,1.392.464.461,1.743.23,2.561.327-.429.1-2.317.152-2.371.662.007-.03.116.208.1.2.09-.012.845-.323.728-.184-.025.162.039.317-.006.46-.788.245-2.667,1.96-4.085,1.253-.45.323.018-1.371-.08-1.48-.7-.737-.55,1.451-.547,1.467A32.711,32.711,0,0,1,43.482,23.6c.688,0-.913.785-1.037.619.119.469,2.6,2-.294,2-1.738,0-1.451,1.293-1.482,2.842.584.13,3.653.449,3.137-1.007-.3-.882,3.559-2.94,3.559-1.5,0,.078,1.658.787,1.665,1.054.05.863-.825.866-.825,1,0,1.653,2.033-.71,1.685-1.028.136.069.287.238.368.245.249-.281-2.131-1.469-2.131-2.056,0-.77.933.076.933.162,0,.159,2.99,3.2,3.274,2.836a2.312,2.312,0,0,1,.174-.234c-.134-.093-.96-1-.792-1,.144,0,1.354-.4,1.39.014.01.071-.3.435-.258.537.152.348.348-.176.345-.176a1.4,1.4,0,0,1-.285.573,2.461,2.461,0,0,0,.468.1c.006.062-.321.165.112.332-.055,0-.23.291-.224.332.213-.148.2-.179.409-.248,0,.079-.169.035-.206.159a1.074,1.074,0,0,1,.252.278c.079-.093.12-.3.173-.335,0,.32,2.572.287,2.572-.032.453,2.36-1.3,2.624-3.3,2.261-.288-.054-3.606-.37-2.667.439a8.616,8.616,0,0,0-2.76-1.357c-.626-.172.3-1.051.033-1.455-.69-1.086-6.409,1.246-7.025,1.649a16.971,16.971,0,0,0-3.016,4.3c-.156.454-.753,3.88-.406,4.281.623.68,1.23,1.814,2.043,2.684,1.418,1.865,3.587.407,5.325.194.446-.053,3.422,1.126,2.435,2.068-.566.627,1.059,3.678,1.36,4.492.685,1.781-1.156,3.116.158,5.091.92,1.328.914,4.094,1.659,5.255.571.881,1.874.2,2.867.2,2.263,0,2.946-4.616,3.488-5.476-.2-1.16,2.094-2.151,2.1-4.124.018-.337-1.183-3.785.18-3.785,1.288,0,3.912-4.83,3.807-5.726-.025-.24-2.638-.2-3.187-.2.7-.6-4.364-6.163-4.064-7.808.107.191.414.9.676.9.1,0,.151-.5.176-.62.06.86,4.236,6.748,4.024,6.982,1.365-1.53,5.513-1.563,5.406-4.082,0,.137-1.919-1.6-1.537-1.6-.481,0-.762.925-1.471.925-.467,0,.087-.968-.424-.968-.118,0-.082.379-.105.4.037-.008-1.864-2.218-.651-2.037.235.026,1.642,2.092,2.242,1.415.479-.583,4.783,1.814,5.7,1.62-.114.215-.514.172-.548.244-.069.176.884,1.029,1.2.5.21,1.648,2.937,6.848,3.2,5.085.04-.364-.181-2.741.461-2.99a6.349,6.349,0,0,0,2.23-2.493c0,.367.649.169.685-.1.114.3.492.04.492-.108.269,1.065,1.708,3.1,2.225,2.563.848-.9,1.1,3.8.92,3.8.058,0,.09-.224.107-.262.048.069.187.431.209.451,0,0,1.7,3.263,2.218,2.716.231-.235-3.412-5.426-1.824-5.426.45,0,1.939,2.122,1.885,2.151,2.84-1.622-1.583-5.57,1.123-5.57a4.918,4.918,0,0,0,.062.589c-.173-.364,1.054-.6,1.155-.817M65.348,15.319a.45.45,0,0,1-.137-.015c.2.014.342-.007.137.015m-1.2,1.712c.723,0,.58-.738.156-1.413a1.9,1.9,0,0,0,1.156.474c-.014,0-.445.044-.476.125-.051.109.368,1.473-.836.814M65.5,16.1c.31.04.557.505.586.505-.173,0-.356-.406-.586-.505m17.464-1.005c.388-.174.176-.069,0,0" transform="translate(14.322 5.145)" fill="#fff"/><path d="M72.5,24.16a.284.284,0,0,1-.028-.136c-.072,0-.076.043.028.136" transform="translate(27.869 9.246)" fill="#fff"/><path d="M47.747,14.948c0-.076-.083-.13,0,0" transform="translate(18.361 5.723)" fill="#fff"/><path d="M48.531,24.284c.007,0,.014,0,.026-.012-.022,0-.033,0-.026.012" transform="translate(18.675 9.34)" fill="#fff"/><path d="M49.164,24.961a.1.1,0,0,1-.111.05c.109.032.13,0,.111-.05" transform="translate(18.877 9.606)" fill="#fff"/><path d="M40.995,21.22a.115.115,0,0,1,0-.065.063.063,0,0,0,0,.065" transform="translate(15.772 8.142)" fill="#fff"/><path d="M48.259,24.312c.01.01.018.012.019.01.007-.025,0-.021-.019-.01" transform="translate(18.572 9.353)" fill="#fff"/><path d="M81.729,37.842h0c.029.011.018.006,0,0" transform="translate(31.452 14.563)" fill="#fff"/><path d="M83.3,38.822c-.037.065.818-.035.145-.345-.046-.019-.019-.01,0,0-.284-.134-3.922-2.952-4.106-1.584-.058.481-1.354-.928-2.011-.665-.026-.017-.043.08-.062.129.248.143.616.647.989.626-.187.029-.451.039-.5.12.054-.083.331.591.37.591.161,0,.231-.294.3-.4,0,.735,1.281.961,1.281,2.162,0,.454,2.85-.024,2.088-.024,1.072-.716,1.509,1.1,2.638,1.1a.813.813,0,0,0,.217-.234c.01-.285-1.671-.942-1.347-1.48" transform="translate(29.735 13.929)" fill="#fff"/><path d="M77.275,36.316l-.03-.018c.01.068.021.055.03.018" transform="translate(29.726 13.969)" fill="#fff"/><path d="M85.486,44.294A3.644,3.644,0,0,1,85.4,43.4c-.018-.379-1.522-2.288-1.468-2.446-.068-.133-.158-1.746-.26-1.746-.343,0-1,3.479-1.414,3.066-.46-.449-1.108-.656-1.5-1.2-.138-.22.888-.956.7-1.116a2.2,2.2,0,0,1-.14-.216c-.213,0-.066.294-.208.294-.028-.008-.084-.266-.036-.266-.587,0-1.007-.312-1.458-.312-.162,0,.3.328.224.427.012-.011-2.037,1.015-1.206,1.077-.152.3-.415-.116-.559.212-.1-1.382-1.425.253-1.541.547-.1,0-.194-.141-.256-.141-.217,0,.037.41.032.457-.226-.075-.053-.015-.159.2-.071-.123-.036-.388-.1-.463a10.833,10.833,0,0,1-3.684,2.563c0-.037.069-.314-.012-.309-.129.569-.087,1.353-.2,1.816-.017.037-.076.071-.111.091-.011-.047-.039-.227-.1-.242-.258-.055.089.361-.078.361-.028-.06-.09-.476-.188-.476a10.419,10.419,0,0,1,.24,2.914c-.422,1.509-.309.969,1.239.77,1.375-.2,2.554-1,4.024-1a1.293,1.293,0,0,1,.965.363c.255,1.334.476,2.588,1.8,3.426a1.007,1.007,0,0,0,1.233-.158c.14-.168.273-.334.406-.505,1.012-.01,5.066-4.595,4.924-6.048.042.427-1.03-1.615-1.03-1.044" transform="translate(27.585 15.089)" fill="#fff"/><g transform="translate(6.394 6.177)" style="mix-blend-mode:multiply;isolation:isolate"><g clip-path="url(#c)"><path d="M4.617,11.418V80.223L29.68,73.266V4.46Z" transform="translate(-4.617 -4.461)" fill="#cecece"/></g></g><g transform="translate(62.914 6.177)" style="mix-blend-mode:multiply;isolation:isolate"><g clip-path="url(#d)"><path d="M45.431,13.193V82l31.458-8.733V4.46Z" transform="translate(-45.431 -4.461)" fill="#cecece"/></g></g></g></g></g></g></svg>