<svg xmlns="http://www.w3.org/2000/svg" xmlns:xlink="http://www.w3.org/1999/xlink" width="55" height="41" viewBox="0 0 55 41"><defs><clipPath id="a"><rect width="34.324" height="33.404" transform="translate(0 0)" fill="none"/></clipPath></defs><g transform="translate(-370 -2584)"><rect width="55" height="41" transform="translate(370 2584)" fill="#fff"/><g transform="translate(380 2588)"><g clip-path="url(#a)"><path d="M5.847,9.723a.242.242,0,0,0-.271-.215q-.33.039-.535.074c-.182.03-.287.053-.294.054a.245.245,0,0,0,.053.484.231.231,0,0,0,.052-.006s.294-.064.78-.12c.009,0,.015-.006.023-.007a.243.243,0,0,0,.192-.264" fill="#272525"/><path d="M27.99,21.26q-.142.125-.288.237a.244.244,0,0,0,.288.393L28,21.883c.106-.082.21-.168.314-.258a9.35,9.35,0,0,0,.935-.933.244.244,0,0,0-.368-.322c-.184.211-.374.408-.567.594-.108.1-.216.2-.326.3" fill="#272525"/><path d="M14.748,12.787a.241.241,0,0,0,.174.073.245.245,0,0,0,.174-.417c-.164-.166-.339-.321-.515-.475-.106-.093-.215-.181-.326-.269-.156-.125-.312-.252-.476-.366a.245.245,0,0,0-.28.4,8.817,8.817,0,0,1,.756.6c.112.1.22.2.326.3.055.053.114.1.167.154" fill="#272525"/><path d="M16.623,15.463a.244.244,0,0,0,.439-.215,11.207,11.207,0,0,0-.567-1.009c-.1-.159-.2-.32-.3-.471-.007-.011-.017-.016-.025-.025a.243.243,0,0,0-.316-.037.246.246,0,0,0-.061.341c.131.188.255.387.377.589s.221.39.325.591c.042.079.088.155.128.236" fill="#272525"/><path d="M20.172,21.3a.244.244,0,0,0,.1.027.24.24,0,0,0,.175-.074.243.243,0,0,0,0-.345c-.093-.091-.185-.185-.276-.283-.11-.117-.219-.241-.326-.367-.16-.188-.318-.385-.47-.592a.245.245,0,0,0-.393.292,11.036,11.036,0,0,0,.863,1.034c.086.091.173.18.26.266a.245.245,0,0,0,.066.042" fill="#272525"/><path d="M18.269,18.643a.274.274,0,0,0,.077-.02.23.23,0,0,0,.043-.012.243.243,0,0,0,.092-.333c-.046-.082-.09-.171-.135-.255-.112-.2-.221-.413-.326-.63-.1-.2-.192-.393-.283-.6a.245.245,0,1,0-.447.2c.228.51.474,1,.73,1.454.012.022.023.047.036.068a.244.244,0,0,0,.213.124" fill="#272525"/><path d="M8.928,10.022a.183.183,0,0,0,.033,0,.245.245,0,0,0,.031-.487c-.219-.029-.443-.049-.668-.068C8.216,9.46,8.107,9.452,8,9.446c-.237-.014-.475-.026-.714-.028h0a.245.245,0,0,0,0,.489c.24,0,.479.013.717.028.11.007.217.016.326.026.2.017.406.035.6.061" fill="#272525"/><path d="M29.952,19.375a.25.25,0,0,0,.132.039.259.259,0,0,0,.082-.02.236.236,0,0,0,.124-.092c.148-.229.292-.468.429-.71a.244.244,0,0,0-.425-.241c-.041.072-.086.14-.128.212-.1.16-.188.321-.287.474a.245.245,0,0,0,.073.338" fill="#272525"/><path d="M10.17.071A.487.487,0,0,0,9.691.055L.263,4.964A.49.49,0,0,0,0,5.4V32.512a.49.49,0,0,0,.715.434l9.427-4.909a.491.491,0,0,0,.264-.434V10.252a.239.239,0,0,0,.134.1,10.356,10.356,0,0,1,1.47.538V28.006a.49.49,0,0,0,.264.434L21.7,33.349a.49.49,0,0,0,.226.055.489.489,0,0,0,.489-.489v-10.1a5.707,5.707,0,0,0,.644.222.241.241,0,0,0,.064.009.245.245,0,0,0,.064-.481,5.19,5.19,0,0,1-.772-.279V5.8a.489.489,0,0,0-.263-.434L12.725.458a.49.49,0,0,0-.715.434v9.469a10.861,10.861,0,0,0-1.337-.479.239.239,0,0,0-.267.1V.489A.49.49,0,0,0,10.17.071M9.427,27.306l-1.1.575L8,28.051l-1.588.827-.326.169-1.533.8-.2.1L2.719,30.8l-.178.092-1.563.815V5.7L4.264,3.984,4.4,3.912,9.427,1.295ZM12.989,1.7l1.266.66.326.169,1.588.827.326.17,1.524.793.326.17L21.438,6.1V21.935a.266.266,0,0,0-.054.057.245.245,0,0,0,.054.314v9.8l-1.266-.66-.326-.169-1.5-.782-.325-.17L16.5,29.535l-.326-.17-1.588-.827-.326-.17-1.266-.659Z" fill="#272525"/><path d="M23.918,5.4V32.513a.49.49,0,0,0,.715.433l5.386-2.8.106-.056,1.664-.866.291-.152,1.981-1.031a.491.491,0,0,0,.263-.434V.489a.488.488,0,0,0-.715-.433L24.182,4.964a.491.491,0,0,0-.264.434m9.428,21.908-1.266.66-.326.169-1.588.827-.326.17-1.524.793-.326.17-1.5.781-.326.17-1.266.66V23.19a5.314,5.314,0,0,0,1.266-.283c.109-.038.218-.078.326-.124l.02-.008a.242.242,0,0,0-.02-.455.249.249,0,0,0-.172.005c-.051.022-.1.039-.154.059A4.889,4.889,0,0,1,24.9,22.7V5.7l1.266-.659L26.42,4.9l1.57-.818.326-.17,1.524-.793.326-.17,1.588-.826.326-.17,1.266-.66Z" fill="#272525"/></g></g></g></svg>