<svg xmlns="http://www.w3.org/2000/svg" xmlns:xlink="http://www.w3.org/1999/xlink" width="55" height="41" viewBox="0 0 55 41"><defs><clipPath id="a"><rect width="34.25" height="36.495" transform="translate(0 0)" fill="none"/></clipPath></defs><g transform="translate(-750 -2584)"><rect width="55" height="41" transform="translate(750 2584)" fill="#fff"/><g transform="translate(760 2586)"><g clip-path="url(#a)"><path d="M.7,31.96a13.78,13.78,0,0,1,2.806.484l.233.086a.736.736,0,0,0,.071.022c2.61.643,7.9,1.978,15.287,3.859l.052.014.042.01a3.231,3.231,0,0,0,.613.06,3.089,3.089,0,0,0,1.027-.182l.03-.012.086-.033a.684.684,0,0,0,.2-.1L32.8,27.725a2.837,2.837,0,0,0,.616-.454l.029-.03a2.737,2.737,0,0,0-1.67-4.667,2.479,2.479,0,0,0-.854-.012,2.314,2.314,0,0,0-.766.248,2.42,2.42,0,0,0-.213.118.423.423,0,0,0-.069.044l-1.28.925-7.012,4.546a2.062,2.062,0,0,1-.338.013c-.416-.1-1.909-.492-4.443-1.163l-.113-.029c-.57-.164-1.15-.319-1.71-.453l-1.655-.439a1.223,1.223,0,0,1,.408-2.236H18.2a1.972,1.972,0,1,0,0-3.944H13.368c-.624-.017-1.4-.027-2.363-.027A8.6,8.6,0,0,0,5.87,21.94c-.308.216-.608.438-.9.659C3.6,23.609,2.426,24.483.693,24.483a.693.693,0,0,0-.684.809L0,30.721a.656.656,0,0,0,.009.126v.421A.693.693,0,0,0,.7,31.96M1.4,30V25.83a8.955,8.955,0,0,0,4.4-2.118c.285-.212.574-.427.871-.634a7.22,7.22,0,0,1,4.342-1.526c.947,0,1.713.009,2.343.027H18.2a.585.585,0,1,1,0,1.171H13.664a.708.708,0,0,0-.113.009,2.61,2.61,0,0,0-.838,4.865.72.72,0,0,0,.155.063l1.766.468c.555.134,1.116.283,1.679.445l.127.034c2.731.722,4.217,1.11,4.543,1.186a.642.642,0,0,0,.122.018,3.035,3.035,0,0,0,.9-.068.69.69,0,0,0,.21-.091l7.14-4.628.029-.021,1.257-.908.016-.012c.037-.024.077-.043.117-.064a1.09,1.09,0,0,1,.189-.08.91.91,0,0,1,.155-.033,1.17,1.17,0,0,1,.409.007.566.566,0,0,0,.081.012,1.356,1.356,0,0,1,1.251,1.354,1.338,1.338,0,0,1-.406.958l-.013.013a1.391,1.391,0,0,1-.331.24.664.664,0,0,0-.092.056l-.492.359L20.418,34.986l-.053.021a1.64,1.64,0,0,1-.884.07l-.035-.009c-7.362-1.874-12.637-3.206-15.264-3.853l-.227-.084c-.023-.009-.048-.016-.072-.023a20.021,20.021,0,0,0-2.495-.491Z" fill="#272525"/><path d="M13.293,18.748h9.551A2.157,2.157,0,0,0,25,16.593V11.876l.322.323a.694.694,0,0,0,.981,0l.855-.855a2.256,2.256,0,0,0,0-3.186l-6.59-6.589a.641.641,0,0,0-.049-.055L19.663.66a2.258,2.258,0,0,0-3.191,0l-.854.854c-.016.016-.031.033-.045.05L8.979,8.158a2.257,2.257,0,0,0,0,3.186l.855.855a.694.694,0,0,0,.981,0l.322-.323v4.717a2.158,2.158,0,0,0,2.157,2.155m6.46-2.4h-3.37V12.011h3.37Zm3.86.25a.77.77,0,0,1-.769.769H21.059a.682.682,0,0,0,.08-.324v-5.72a.693.693,0,0,0-.693-.693H15.69a.694.694,0,0,0-.694.693v5.72a.683.683,0,0,0,.081.324H13.293a.77.77,0,0,1-.77-.769v-6.1l5.545-5.545,3.541,3.541,2,2ZM10.324,10.728l-.364-.364a.868.868,0,0,1,0-1.226L16.6,2.5c.017-.016.032-.033.046-.049l.807-.808a.894.894,0,0,1,1.23,0l.8.8a.628.628,0,0,0,.049.054l6.642,6.641a.87.87,0,0,1,0,1.226l-.365.364L18.558,3.474a.694.694,0,0,0-.981,0Z" fill="#272525"/></g></g></g></svg>