<svg xmlns="http://www.w3.org/2000/svg" width="139" height="129" viewBox="0 0 139 129">
  <g id="Grupo_929831" data-name="Grupo 929831" transform="translate(-540 -3820)">
    <rect id="Rectángulo_340122" data-name="Rectángulo 340122" width="139" height="129" transform="translate(540 3820)" fill="none"/>
    <g id="Grupo_929828" data-name="Grupo 929828" transform="translate(536.943 3832)">
      <g id="Grupo_927918" data-name="Grupo 927918" transform="translate(25.057)">
        <path id="Trazado_641317" data-name="Trazado 641317" d="M108.977,71.669c1.346.464,1.553.753,1.554,2.283q.006,11.736,0,23.472v1.125A26.825,26.825,0,0,1,114,97.143a7.077,7.077,0,0,1,8.222,3.594,6.917,6.917,0,0,1-1.312,8.856c-1.93,1.812-4.042,3.432-6.087,5.121-2.869,2.369-5.846,4.617-8.6,7.109A28.765,28.765,0,0,1,92.9,128.415c-10.151,2.327-20.242,4.913-30.358,7.393a.933.933,0,0,0-.166.056A30.78,30.78,0,0,1,62,140.1a8.7,8.7,0,0,1-6.439,6.862c-3.6,1-7.292,1.692-10.941,2.526-.076.017-.133.122-.2.187h-3.31c-.925-.4-1.888-.725-2.769-1.2a9.372,9.372,0,0,1-4.665-6.015c-.661-2.416-1.243-4.854-1.9-7.272a1.757,1.757,0,0,1,.907-2.246c1.369-.042,1.8.281,2.17,1.66.707,2.619,1.3,5.276,2.141,7.85a6.073,6.073,0,0,0,6.894,3.986q5.057-.982,10.064-2.217a6.9,6.9,0,0,0,4.9-8.435c-.629-2.028-1.492-3.984-2.25-5.972q-3.761-10.063-7.527-20.123c-.018-.047-.108-.067-.238-.142l-9.8,2.893a41.162,41.162,0,0,0-4.022,1.234,6.361,6.361,0,0,0-3.7,7.011c.43,2.083.963,4.148,1.539,6.2a1.968,1.968,0,0,1-.9,2.541c-1.41-.071-1.752-.308-2.09-1.646-.574-2.264-1.2-4.522-1.633-6.814a9.359,9.359,0,0,1,5.7-10.172c4.015-1.407,8.117-2.592,12.237-3.661a32.206,32.206,0,0,0,7.71-3.366,1.5,1.5,0,0,0,.579-1.122c.041-4.309.007-8.618.032-12.926.02-3.4,1.79-5.971,4.913-6.457a22.7,22.7,0,0,1,6.978.016c3.063.491,4.852,3.1,4.9,6.39.021,1.576,0,3.152,0,4.9.937-.5,1.776-.884,2.529-1.393.22-.149.273-.656.274-1q.025-7.135.007-14.271c-.011-3.085,1.156-5.479,3.972-6.92,3.5-1.791,9.094-.789,11.329,2a7.678,7.678,0,0,1,1.512,5.03q0,15.357,0,30.714V110l2.8-.527v-1.216q0-22.648,0-45.3c0-3.074,1.145-5.488,3.965-6.929,3.414-1.745,9.077-.78,11.28,1.891a7.191,7.191,0,0,1,1.57,4.693c.011,1.275.016,2.551,0,3.826-.018,1.329-.294,1.672-1.561,2.051a1.789,1.789,0,0,1-1.56-2.064c.016-1.515.037-3.036-.064-4.546a3.362,3.362,0,0,0-2.809-3.267,16.056,16.056,0,0,0-4.809,0c-1.944.322-2.9,1.946-2.9,4.3q-.006,16.906,0,33.812c0,.274.029.549.045.823v10.572a3.63,3.63,0,0,0,.622-.263q4.785-3.309,9.553-6.645a.959.959,0,0,0,.365-.674c0-3.366-.039-6.732-.067-10.1.023-.41.066-.821.066-1.231q.007-7.639.005-15.279c0-1.53.209-1.814,1.56-2.273M83.491,103.961l-5.96,6.013H87.748v-7.487c.02-.239.057-.478.057-.717q0-11.992,0-23.985a7.04,7.04,0,0,0-.065-.926,3.849,3.849,0,0,0-3.723-3.492c-.721-.046-1.447-.018-2.171-.017-3.141,0-4.616,1.472-4.621,4.617q-.008,5.893,0,11.786v1.6c.276-.055.437-.078.593-.121a6.073,6.073,0,0,1,7.759,7.39,42.01,42.01,0,0,1-2.085,5.343M55.6,106.471l-3.662,1.885,9.217,24.586c4.208-1.033,8.307-2.033,12.4-3.049,3.4-.842,6.786-1.7,10.179-2.554,1.307-.291,2.618-.563,3.919-.878,2.406-.582,4.8-1.215,7.21-1.779a17.526,17.526,0,0,0,7.249-3.556q7.944-6.532,15.891-13.063c2.135-1.763,2.647-4.11,1.381-6.01a4.34,4.34,0,0,0-6.471-1.155q-6.1,4.247-12.171,8.55a17.816,17.816,0,0,1-7.5,3.279c-5.307.828-10.662.513-15.988.263-2.457-.115-3.581-3.586-1.9-5.459a21.339,21.339,0,0,1,2.725-2.367,12.34,12.34,0,0,0,4.407-6.795,3.188,3.188,0,0,0-.938-3.644,3.134,3.134,0,0,0-3.754-.1c-3.2,1.735-6.435,3.423-9.651,5.137q-6.278,3.347-12.55,6.706m2.01-4.818a1.29,1.29,0,0,0,.388-.032c3.251-1.718,6.5-3.436,9.737-5.183a.966.966,0,0,0,.431-.7c.029-2.169.075-4.341-.012-6.507a3.135,3.135,0,0,0-3.322-3.093c-1.2-.021-2.411-.011-3.616,0-2.391.014-3.589,1.22-3.6,3.64-.012,2.1,0,4.2,0,6.3v5.576" transform="translate(-27.472 -43.746)" fill="#050505"/>
        <path id="Trazado_641318" data-name="Trazado 641318" d="M84.424,0c1.777.584,3.19,1.546,3.588,3.525a6.9,6.9,0,0,1,.137,1.332c.01,4.1.032,8.207,0,12.31a4.759,4.759,0,0,1-5.826,4.776c-2.038-.381-2.971-1.841-3.449-3.681a21.2,21.2,0,0,1-.328-2.116c-.259.224-.514.423-.746.645q-5.481,5.27-10.957,10.543c-2.174,2.089-3.963,2.345-6.638.965-1.464-.756-2.925-1.518-4.588-2.382a9.156,9.156,0,0,1-.74.964Q44.243,37.607,33.6,48.324c-1.5,1.512-3.161,2.3-5.291,1.544a4.735,4.735,0,0,1-2.11-7.59c.217-.267.455-.517.7-.762q11.983-12.081,23.97-24.159c2.28-2.3,4-2.57,6.857-1.1l4.461,2.295,9.288-8.941c-.546-.056-.962-.075-1.37-.146a4.35,4.35,0,0,1-3.877-4.272,4.772,4.772,0,0,1,3.485-5A3.157,3.157,0,0,0,70.148,0Zm.626,10.964h0c0-2.068.018-4.136-.007-6.2-.014-1.155-.495-1.643-1.648-1.649q-6.1-.028-12.2,0a1.683,1.683,0,0,0-1.86,1.657,1.666,1.666,0,0,0,1.85,1.657c1.275.024,2.551.015,3.826,0a1.684,1.684,0,0,1,1.823,1.05,1.654,1.654,0,0,1-.643,1.909Q70,15.339,63.831,21.3a1.87,1.87,0,0,1-2.427.364c-1.762-.933-3.535-1.846-5.31-2.756-1.452-.744-1.692-.7-2.866.484Q41.208,31.5,29.192,43.61a5.68,5.68,0,0,0-.741.856A1.639,1.639,0,0,0,30.9,46.595c.284-.249.547-.523.814-.792L53.789,23.568c1.219-1.227,1.555-1.282,3.057-.509q2.384,1.227,4.767,2.457c1.523.784,1.857.741,3.086-.44Q71.743,18.3,78.781,11.527a1.633,1.633,0,0,1,2.951,1.234q-.021,2.068,0,4.136c.01,1.286.654,2.06,1.678,2.046s1.634-.779,1.639-2.084c.009-1.964,0-3.929,0-5.894" transform="translate(-25.057)" fill="#030403"/>
        <path id="Trazado_641319" data-name="Trazado 641319" d="M372.425,84.263c-1.351.46-1.558.743-1.56,2.273q-.009,7.639-.005,15.279c0,.41-.043.821-.066,1.232-.825.6-1.634,1.215-2.479,1.782-2.658,1.785-5.328,3.551-7.994,5.325-.016-.274-.045-.549-.045-.823q0-16.906,0-33.812c0-2.351.953-3.975,2.9-4.3a16.056,16.056,0,0,1,4.809,0,3.362,3.362,0,0,1,2.809,3.267c.1,1.51.079,3.03.064,4.546a1.789,1.789,0,0,0,1.56,2.064q0,1.585.01,3.17" transform="translate(-290.92 -56.34)" fill="#fedd55"/>
        <path id="Trazado_641320" data-name="Trazado 641320" d="M68.493,349.4c.758,1.988,1.621,3.944,2.25,5.972a6.9,6.9,0,0,1-4.9,8.435q-5,1.239-10.064,2.217a6.073,6.073,0,0,1-6.894-3.986c-.844-2.574-1.435-5.231-2.141-7.85-.372-1.379-.8-1.7-2.17-1.66q-.361-1.759-.723-3.517a1.969,1.969,0,0,0,.9-2.541c-.576-2.048-1.109-4.113-1.538-6.2a6.36,6.36,0,0,1,3.7-7.011,41.154,41.154,0,0,1,4.022-1.234c-.277,2.787-.635,5.569-.81,8.362-.262,4.168,3.87,7.882,7.8,7.8a48.875,48.875,0,0,1,6.246.4c1.453.158,2.882.533,4.322.811m-9.849,12.872a6.131,6.131,0,0,0,6.132-6.095,6.1,6.1,0,0,0-12.207-.033,6.08,6.08,0,0,0,6.075,6.128" transform="translate(-39.357 -263.331)" fill="#79bfdb"/>
        <path id="Trazado_641321" data-name="Trazado 641321" d="M161.013,255.572q6.275-3.354,12.55-6.706c3.216-1.714,6.446-3.4,9.651-5.137a3.133,3.133,0,0,1,3.754.1,3.188,3.188,0,0,1,.938,3.644,12.342,12.342,0,0,1-4.407,6.795,21.309,21.309,0,0,0-2.725,2.367c-1.684,1.872-.56,5.344,1.9,5.459,5.326.249,10.681.565,15.988-.263a17.821,17.821,0,0,0,7.5-3.279q6.077-4.287,12.171-8.55a4.34,4.34,0,0,1,6.471,1.155c1.267,1.9.754,4.247-1.381,6.01q-7.931,6.549-15.891,13.062a17.528,17.528,0,0,1-7.249,3.556c-2.41.564-4.8,1.2-7.21,1.779-1.3.314-2.612.586-3.919.877a3.776,3.776,0,0,0-.63-.312q-8.663-2.454-17.329-4.9a11.666,11.666,0,0,1-5.645-3.243c-3.169-3.51-4.2-7.847-4.533-12.418" transform="translate(-132.885 -192.847)" fill="#fde0d7"/>
        <path id="Trazado_641322" data-name="Trazado 641322" d="M95.413,338.306c-1.44-.278-2.869-.653-4.322-.811a48.881,48.881,0,0,0-6.246-.4c-3.933.079-8.065-3.635-7.8-7.8.175-2.793.534-5.575.81-8.362l9.8-2.893c.13.075.22.095.238.141q3.768,10.06,7.527,20.123" transform="translate(-66.277 -252.241)" fill="#8dd5e6"/>
        <path id="Trazado_641323" data-name="Trazado 641323" d="M271.792,173.662a42.012,42.012,0,0,0,2.085-5.344,6.073,6.073,0,0,0-7.758-7.39c-.156.042-.317.065-.593.121v-1.6q0-5.893,0-11.786c0-3.145,1.48-4.615,4.621-4.617.724,0,1.449-.028,2.17.017a3.849,3.849,0,0,1,3.723,3.492,6.97,6.97,0,0,1,.065.926q.005,11.992,0,23.985c0,.239-.037.478-.057.717Z" transform="translate(-215.773 -113.448)" fill="#aae9f2"/>
        <path id="Trazado_641324" data-name="Trazado 641324" d="M146.976,303.174c.332,4.571,1.365,8.908,4.533,12.418a11.665,11.665,0,0,0,5.645,3.243q8.661,2.46,17.329,4.9a3.777,3.777,0,0,1,.63.312c-3.393.852-6.783,1.712-10.179,2.554-4.1,1.016-8.2,2.015-12.4,3.049l-9.217-24.586,3.662-1.885" transform="translate(-118.848 -240.449)" fill="#fccdc0"/>
        <path id="Trazado_641325" data-name="Trazado 641325" d="M170.714,220.369v-5.576c0-2.1-.01-4.2,0-6.3.014-2.42,1.213-3.626,3.6-3.64,1.205-.007,2.411-.017,3.616,0a3.135,3.135,0,0,1,3.322,3.093c.087,2.166.041,4.338.012,6.507a.966.966,0,0,1-.431.7c-3.235,1.747-6.487,3.464-9.737,5.183a1.29,1.29,0,0,1-.388.032" transform="translate(-140.576 -162.462)" fill="#b0e39a"/>
        <path id="Trazado_641326" data-name="Trazado 641326" d="M360.5,232.857c2.666-1.773,5.337-3.539,7.994-5.325.844-.567,1.654-1.186,2.479-1.782.028,3.366.063,6.731.067,10.1a.959.959,0,0,1-.365.674q-4.761,3.344-9.553,6.645a3.638,3.638,0,0,1-.622.263Z" transform="translate(-291.101 -179.044)" fill="#f6c704"/>
        <path id="Trazado_641327" data-name="Trazado 641327" d="M272.974,285.39l4.258-1.474V291.4H267.014l5.96-6.013" transform="translate(-216.955 -225.176)" fill="#88ccdb"/>
        <path id="Trazado_641328" data-name="Trazado 641328" d="M96.88,22.841c0,1.964.006,3.929,0,5.894-.006,1.306-.618,2.07-1.639,2.084s-1.668-.759-1.678-2.046q-.016-2.068,0-4.136A1.633,1.633,0,0,0,90.611,23.4q-7.038,6.778-14.082,13.549c-1.229,1.181-1.564,1.225-3.086.44q-2.384-1.228-4.767-2.457c-1.5-.773-1.839-.719-3.057.509L43.547,57.679c-.267.269-.53.543-.814.792a1.639,1.639,0,0,1-2.452-2.129,5.68,5.68,0,0,1,.741-.856Q53.036,43.374,65.057,31.269c1.175-1.183,1.415-1.229,2.866-.484,1.775.91,3.547,1.823,5.31,2.756a1.87,1.87,0,0,0,2.427-.364Q81.822,27.2,88.017,21.265a1.654,1.654,0,0,0,.643-1.909,1.684,1.684,0,0,0-1.823-1.05c-1.275.011-2.551.021-3.826,0a1.666,1.666,0,0,1-1.85-1.657,1.683,1.683,0,0,1,1.86-1.657q6.1-.027,12.2,0c1.153.005,1.635.494,1.648,1.649.025,2.068.007,4.136.007,6.2Z" transform="translate(-36.887 -11.877)" fill="#95f3e2"/>
        <path id="Trazado_641329" data-name="Trazado 641329" d="M94.993,431.418a6.081,6.081,0,0,1-6.075-6.128,6.1,6.1,0,1,1,6.075,6.128m.029-3.1a3,3,0,0,0,3-3.02,3.057,3.057,0,0,0-3.068-2.977,3.01,3.01,0,0,0-2.931,2.992,2.971,2.971,0,0,0,3,3" transform="translate(-75.705 -332.481)" fill="#030303"/>
        <path id="Trazado_641330" data-name="Trazado 641330" d="M106.923,440.217a2.971,2.971,0,0,1-3-3,3.01,3.01,0,0,1,2.931-2.992,3.057,3.057,0,0,1,3.068,2.977,3,3,0,0,1-3,3.02" transform="translate(-87.607 -344.383)" fill="#fae796"/>
      </g>
    </g>
  </g>
</svg>
