<svg xmlns="http://www.w3.org/2000/svg" width="111" height="111" viewBox="0 0 111 111"><g transform="translate(-191 -951)"><rect width="111" height="111" transform="translate(191 951)" fill="none"/><g transform="translate(187.957 947.279)"><g transform="translate(12.043 12.721)"><path d="M105,59.236A46.479,46.479,0,1,1,58.67,12.721,46.363,46.363,0,0,1,105,59.236M90.47,29.963c-.27-.317-.525-.648-.813-.948A43.374,43.374,0,0,0,19.606,78.383a39.741,39.741,0,0,0,9.458,12.594,3.866,3.866,0,0,0,.372.431C40.314,100.836,52.874,104.462,67,101.714a43.252,43.252,0,0,0,34.844-40.448,42.642,42.642,0,0,0-4.874-22.114,37.823,37.823,0,0,0-6.5-9.19" transform="translate(-12.043 -12.721)" fill="#040303"/><path d="M37.891,99.858a39.739,39.739,0,0,1-9.458-12.594A43.374,43.374,0,0,1,98.484,37.9c.287.3.542.631.813.948a4.208,4.208,0,0,0,.225.824,45.879,45.879,0,0,1,4.35,13.023c.189,1.114.213,2.256.313,3.385-.6-1.492-1.138-3.012-1.807-4.472a38.846,38.846,0,0,0-40.91-21.819,38.87,38.87,0,0,0-32.86,38.061,1.562,1.562,0,0,0,1.776,1.79q5.955.017,11.91,0c1.207,0,1.748-.572,1.808-1.773.052-1.03.083-2.067.226-3.086A23.255,23.255,0,0,1,77.913,47.416c1.432.74,2.752,1.7,4.222,2.612-3.36,2.742-6.5,5.322-9.673,7.861a1.316,1.316,0,0,1-1.087.129,11.6,11.6,0,0,0-6.082-.592,10.91,10.91,0,1,0,12.127,6.656,1.477,1.477,0,0,1,.168-1.169c.541-.8,1.2-1.518,1.81-2.268,1.954-2.389,3.909-4.778,5.91-7.223.241.283.437.488.606.714a23.058,23.058,0,0,1,4.662,13.476c.04,1.528.525,2.023,2.041,2.028q5.47.018,10.939.033c-.716,2.375-1.417,4.755-2.155,7.124-.274.877-.634,1.726-.955,2.588-.212-.071-.424-.145-.637-.212a4.644,4.644,0,0,0-6.047,3.613,4.723,4.723,0,0,0,1.667,4.476C94,88.98,92.671,90.8,91.106,92.389A34.739,34.739,0,0,1,86.25,96.48c-2.073,1.444-4.315,2.646-6.484,3.953q-.016-3.479-.031-6.957c-.006-1.657-.477-2.141-2.108-2.142q-10.246,0-20.491,0c-1.756,0-2.19.449-2.194,2.247q-.015,5.75-.034,11.5c-.314-.061-.626-.143-.943-.18a42.651,42.651,0,0,1-12.573-3.489c-1.165-.521-2.334-1.036-3.5-1.554m3.1-16.275a4.645,4.645,0,1,0-4.7,4.644,4.657,4.657,0,0,0,4.7-4.644m7.731,4.644A4.645,4.645,0,1,0,44.1,83.515a4.663,4.663,0,0,0,4.623,4.713m41.855-4.7a4.645,4.645,0,1,0-4.636,4.7,4.659,4.659,0,0,0,4.636-4.7M70.415,82.093H62.748v2.986h7.667ZM56.531,85.062h3.019V82.077H56.531Zm17.066.014h2.979V82.062H73.6Z" transform="translate(-20.87 -21.602)" fill="#e9e3db"/><path d="M144.117,96.586c-.1-1.129-.125-2.271-.313-3.385a45.886,45.886,0,0,0-4.35-13.023,4.2,4.2,0,0,1-.224-.823,37.819,37.819,0,0,1,6.5,9.19,42.644,42.644,0,0,1,4.874,22.114,43.251,43.251,0,0,1-34.844,40.448c-14.13,2.747-26.689-.879-37.568-10.307a3.836,3.836,0,0,1-.372-.43c1.167.518,2.335,1.033,3.5,1.554A42.65,42.65,0,0,0,93.9,145.41c.317.037.629.119.943.18.209,1.33.659,1.745,1.953,1.746q10.481.007,20.964,0c1.371,0,1.9-.552,1.91-1.952q.018-2.221.032-4.442c2.169-1.307,4.41-2.509,6.484-3.953a34.764,34.764,0,0,0,4.855-4.091c1.565-1.587,2.891-3.409,4.322-5.128a4.688,4.688,0,0,0,7.268-2.094c.769-2.2.012-4.187-2.25-5.783.321-.862.681-1.711.955-2.588.739-2.368,1.44-4.748,2.156-7.124,2.318-.122,2.566-.374,2.5-2.718a40.219,40.219,0,0,0-1.872-10.878" transform="translate(-60.802 -62.112)" fill="#d7caba"/><path d="M117.522,69.263a40.207,40.207,0,0,1,1.872,10.878c.065,2.344-.183,2.6-2.5,2.718q-5.47-.016-10.939-.033c-1.516-.005-2-.5-2.041-2.028a23.059,23.059,0,0,0-4.662-13.476c-.168-.226-.365-.432-.606-.714-2,2.445-3.956,4.834-5.91,7.223-.613.749-1.268,1.47-1.81,2.268a1.477,1.477,0,0,0-.168,1.169A10.925,10.925,0,1,1,78.63,70.612a11.6,11.6,0,0,1,6.082.592,1.316,1.316,0,0,0,1.087-.129c3.173-2.539,6.313-5.119,9.673-7.861C94,62.3,92.683,61.342,91.251,60.6A23.255,23.255,0,0,0,57.666,77.963c-.143,1.02-.174,2.056-.226,3.087-.061,1.2-.6,1.77-1.808,1.773q-5.955.016-11.91,0a1.562,1.562,0,0,1-1.776-1.79,38.871,38.871,0,0,1,32.86-38.061,38.845,38.845,0,0,1,40.91,21.82c.669,1.46,1.208,2.98,1.807,4.472m-20.4-19.578A35.085,35.085,0,0,0,82.262,45.68v9.344a26.592,26.592,0,0,1,10.213,2.7l4.645-8.038m-32.886,0,4.66,8.055A26.837,26.837,0,0,1,79.053,55V45.673a35.6,35.6,0,0,0-14.818,4.012M49.079,64.832a35.5,35.5,0,0,0-4,14.851h9.294a27.167,27.167,0,0,1,2.759-10.211l-8.056-4.639m67.2,14.847a35.352,35.352,0,0,0-4.011-14.843L104.2,69.5A27.292,27.292,0,0,1,107,79.679ZM66.188,59.285l-4.649-8.044A35.774,35.774,0,0,0,50.648,62.147L58.7,66.8a27.3,27.3,0,0,1,7.486-7.512m28.992-.014,2.65,2.017c1.152-.938,2.247-1.838,3.353-2.724a1.576,1.576,0,0,1,2.257-.1c.651.625.634,1.449-.072,2.33-.885,1.106-1.783,2.2-2.69,3.32l2,2.673,8.032-4.654A35.927,35.927,0,0,0,99.808,51.242L95.18,59.271M82.435,73.852a7.468,7.468,0,0,0-8.417,3.481,7.737,7.737,0,0,0,11.209,10.2c2.566-1.861,3.9-5.557,2.84-7.95-.216.255-.424.5-.626.743-1.1,1.348-2.173,2.726-3.318,4.037a4.64,4.64,0,0,1-8.179-2.641A4.476,4.476,0,0,1,77.7,77.729c1.56-1.287,3.128-2.563,4.734-3.877m7.747-1.942-.123-.12a2.368,2.368,0,0,0-.46.232q-4.945,4.017-9.877,8.052a1.511,1.511,0,0,0-.137,2.295,1.554,1.554,0,0,0,2.368-.216Q85.9,77.336,89.818,72.5a5.223,5.223,0,0,0,.364-.587" transform="translate(-34.208 -34.789)" fill="#020202"/><path d="M168.444,291.3q-.016,2.221-.032,4.442c-.012,1.4-.538,1.951-1.91,1.951q-10.482.008-20.964,0c-1.294,0-1.744-.416-1.952-1.746q.017-5.75.034-11.5c0-1.8.438-2.247,2.194-2.247q10.245,0,20.491,0c1.631,0,2.1.484,2.108,2.142q.013,3.479.031,6.957m-21.693,3.244h18.507v-9.191H146.751Z" transform="translate(-109.547 -212.467)"/><path d="M63.205,238.942a4.645,4.645,0,1,1-4.594-4.645,4.663,4.663,0,0,1,4.594,4.645m-4.637,1.549a1.549,1.549,0,1,0-1.558-1.513,1.564,1.564,0,0,0,1.558,1.513" transform="translate(-43.081 -176.961)" fill="#030303"/><path d="M106.446,243.587a4.645,4.645,0,1,1,4.666-4.674,4.661,4.661,0,0,1-4.666,4.674m.043-3.095a1.55,1.55,0,1,0-1.572-1.5,1.564,1.564,0,0,0,1.572,1.5" transform="translate(-78.591 -176.962)" fill="#030303"/><path d="M254.828,238.883a4.645,4.645,0,1,1-4.653-4.586,4.663,4.663,0,0,1,4.653,4.586M250.2,237.4a1.549,1.549,0,1,0,1.528,1.543A1.562,1.562,0,0,0,250.2,237.4" transform="translate(-185.118 -176.962)" fill="#030303"/><path d="M300.178,234.756c2.262,1.6,3.019,3.587,2.25,5.783a4.642,4.642,0,1,1-2.888-5.994c.214.067.425.141.637.211m-2.1,2.653a1.549,1.549,0,1,0,1.528,1.543,1.556,1.556,0,0,0-1.528-1.543" transform="translate(-220.602 -176.974)" fill="#030202"/><rect width="7.667" height="2.986" transform="translate(41.879 60.49)"/><rect width="3.019" height="2.985" transform="translate(35.662 60.474)"/><rect width="2.979" height="3.014" transform="translate(52.728 60.46)"/><path d="M212.61,58.813l-4.645,8.039a26.583,26.583,0,0,0-10.213-2.7V54.807a35.089,35.089,0,0,1,14.859,4.006" transform="translate(-149.696 -43.917)" fill="#fcdc54"/><path d="M128.082,58.8A35.6,35.6,0,0,1,142.9,54.783v9.329a26.835,26.835,0,0,0-10.158,2.739L128.082,58.8" transform="translate(-98.055 -43.899)" fill="#fcdc54"/><path d="M58.065,128.822l8.056,4.639a27.163,27.163,0,0,0-2.759,10.212H54.068a35.5,35.5,0,0,1,4-14.851" transform="translate(-43.193 -98.779)" fill="#00b4bb"/><path d="M294.616,143.68H285.34a27.291,27.291,0,0,0-2.794-10.184l8.059-4.659a35.356,35.356,0,0,1,4.011,14.843" transform="translate(-212.55 -98.79)" fill="#cb2a00"/><path d="M91.117,84.345a27.3,27.3,0,0,0-7.486,7.512l-8.054-4.65A35.772,35.772,0,0,1,86.468,76.3l4.649,8.044" transform="translate(-59.137 -59.849)" fill="#00b4bb"/><path d="M247.672,84.332,252.3,76.3A35.928,35.928,0,0,1,263.207,87.2l-8.032,4.654-2-2.673c.907-1.118,1.8-2.214,2.69-3.32.705-.881.723-1.7.071-2.33a1.576,1.576,0,0,0-2.257.1c-1.106.886-2.2,1.787-3.353,2.724l-2.65-2.017" transform="translate(-186.7 -59.85)" fill="#fb2f50"/><path d="M171.191,162.8c-1.606,1.314-3.175,2.59-4.734,3.877a4.475,4.475,0,0,0-1.758,3.992,4.64,4.64,0,0,0,8.179,2.641c1.145-1.311,2.214-2.69,3.318-4.037.2-.247.411-.488.626-.743,1.059,2.393-.274,6.089-2.84,7.95a7.737,7.737,0,0,1-11.209-10.2,7.468,7.468,0,0,1,8.417-3.481" transform="translate(-122.963 -123.74)" fill="#55a0f9"/><path d="M196.669,155.831a5.223,5.223,0,0,1-.364.587q-3.926,4.834-7.865,9.656a1.554,1.554,0,0,1-2.368.216,1.511,1.511,0,0,1,.137-2.295q4.922-4.047,9.877-8.052a2.368,2.368,0,0,1,.46-.232l.123.12" transform="translate(-140.695 -118.71)" fill="#85848b"/><rect width="18.507" height="9.191" transform="translate(37.205 72.884)" fill="#57a3fe"/><path d="M67.431,249.359a1.549,1.549,0,1,1,1.537-1.537,1.556,1.556,0,0,1-1.537,1.537" transform="translate(-51.943 -185.829)" fill="#f3d351"/><path d="M115.351,249.358a1.55,1.55,0,1,1,1.523-1.551,1.557,1.557,0,0,1-1.523,1.551" transform="translate(-87.452 -185.827)" fill="#f3d351"/><path d="M259.064,246.268a1.549,1.549,0,1,1-1.567,1.5,1.558,1.558,0,0,1,1.567-1.5" transform="translate(-193.982 -185.834)" fill="#f32e4d"/><path d="M306.972,246.272a1.549,1.549,0,1,1-1.567,1.5,1.552,1.552,0,0,1,1.567-1.5" transform="translate(-229.493 -185.837)" fill="#c32800"/></g></g></g></svg>