<svg xmlns="http://www.w3.org/2000/svg" width="111" height="111" viewBox="0 0 111 111"><g transform="translate(-191 -1341)"><rect width="111" height="111" transform="translate(191 1341)" fill="none"/><g transform="translate(194.858 1344.507)"><g transform="translate(6.142 6.493)"><path d="M88.515,85.909v11.7H62.1V66.768c-.267.2-.426.293-.564.416A9.652,9.652,0,0,1,45.7,62.674c-1.319-4.449-2.552-8.924-3.855-13.377a6.03,6.03,0,0,0-.828-1.7c-.764-1.107-1.612-2.156-2.407-3.242a4.356,4.356,0,0,1-.815-1.315c-.3-1.152-.985-1.488-2.145-1.153v8.672H6.262V24.23h29.3v8.753h1q9.781,0,19.562.005a4.414,4.414,0,0,1,4.216,2.968,4.213,4.213,0,0,1-1.525,4.9,7.309,7.309,0,0,1-2.62.919,11.979,11.979,0,0,1-2.3.03,8.276,8.276,0,0,0-.181,4.847c.879,2.953,1.526,5.975,2.313,9.142a23.452,23.452,0,0,1,13.337-9.259V43.257c-.395-.091-.783-.162-1.161-.27a6.409,6.409,0,0,1-4.69-6.1,1.91,1.91,0,0,1,0-.275c.2-1.6,0-2.731-1.91-3.4-2-.694-2.88-3.118-2.344-5.238.6-2.362,1.3-4.7,1.975-7.115-.269-.121-.572-.25-.868-.391A7.321,7.321,0,0,1,63.341,6.535c3.857-.041,7.716-.072,11.571.01a18.73,18.73,0,0,1,17.825,16.35A18.53,18.53,0,0,1,82.209,42.151a1.571,1.571,0,0,0-1.079,1.793,23.432,23.432,0,0,1,.017,2.427,19.211,19.211,0,0,1,7.548,2.95,18.714,18.714,0,0,1,8.587,15.591c.136,4.436.037,8.88.029,13.321a7.356,7.356,0,0,1-7.682,7.676c-.336,0-.671,0-1.112,0m5.852-11.79c0-3.058.036-6.026-.009-8.992a15.9,15.9,0,0,0-3.717-10.133,15.7,15.7,0,0,0-6.974-4.89L82.247,62.793l-2.6-2.875a1.381,1.381,0,0,0-.12.851c.517,2.827,1.025,5.655,1.573,8.476a1.623,1.623,0,0,1-.517,1.694c-1.363,1.276-2.668,2.614-3.967,3.955a18.72,18.72,0,0,0-1.2,1.511c-2.01-2.019-3.741-3.8-5.521-5.52a1.491,1.491,0,0,1-.494-1.529c.368-1.828.7-3.664,1.032-5.5.228-1.259.436-2.522.653-3.783l-.234-.11-2.589,2.666L66.917,50.6a20.045,20.045,0,0,0-8.739,7.22c-.786,1.153-1.434,2.272-.729,3.7a2.19,2.19,0,0,1,.091.52l-2.8.7-4.033-16.1-5.961,2.006c1.275,4.481,2.49,8.836,3.757,13.176A6.7,6.7,0,0,0,55.3,66.78a6.245,6.245,0,0,0,4.548-2.086c1.191-1.35,2.625-2.639,2.2-4.761a1.6,1.6,0,0,1,.035-.432h2.936V77.02H85.582V59.493h2.932V74.119ZM9.156,47.631h23.47v-5.57l-7.05-4.67,7.018-4.644V27.157H9.156ZM81.147,39.4c.412-.212.691-.33.945-.489,5.784-3.641,8.462-8.867,7.694-15.672A15.65,15.65,0,0,0,74.371,9.467q-5.418-.035-10.837,0a4.4,4.4,0,1,0-.023,8.809c2.357.023,4.714.012,7.071,0,1.089,0,1.735-.561,1.739-1.461s-.645-1.461-1.728-1.473c-.874-.01-1.748,0-2.622,0V12.4c1.023,0,2-.017,2.968,0a4.2,4.2,0,0,1,2.968,1.247,4.514,4.514,0,0,1,1.177,4.58,6.067,6.067,0,0,1,5.292,3.031,6.763,6.763,0,0,1,.762,3.994,1.546,1.546,0,0,0,.654,1.47,6.036,6.036,0,0,1,.443,9.129,3.1,3.1,0,0,0-1.09,2.845c.013.181,0,.364,0,.694M75.264,51.11c.892-1.184,1.742-2.257,2.521-3.38a2.347,2.347,0,0,0,.4-1.242c.031-3.52.038-7.04,0-10.56a1.358,1.358,0,0,1,.777-1.337,5.4,5.4,0,0,0,1.9-1.865,3.12,3.12,0,0,0-1.751-4.24,1.323,1.323,0,0,1-.92-1.52c.075-.789.018-1.59.016-2.386-.006-2.2-1.146-3.354-3.322-3.357-3.213,0-6.426.035-9.638-.026a1.147,1.147,0,0,0-1.33.993c-.557,2.031-1.15,4.053-1.715,6.082a1.956,1.956,0,0,0,1.422,2.7c.94.329,1.885.642,2.828.962,0,1.549,0,3.017,0,4.485a3.585,3.585,0,0,0,3.941,3.912c1.61,0,3.22,0,4.82,0v2.978H72.329c0,1.209-.015,2.339.012,3.468a1.4,1.4,0,0,0,.252.745c.842,1.163,1.713,2.306,2.671,3.585M73.42,81.95a28.121,28.121,0,0,0,2.168,2.161,3.157,3.157,0,0,1,1.178,2.861c-.091,2.558-.028,5.121-.028,7.705H85.5V80.087H65.043V94.661H73.8c0-2.606.013-5.144-.018-7.682a1.381,1.381,0,0,0-.4-.852c-.685-.692-1.421-1.333-2.119-1.978l2.157-2.2m2.014-26.231-.323-.018a5.178,5.178,0,0,0-.378.951q-1.1,5.942-2.167,11.892a1.173,1.173,0,0,0,.08.85c.833.916,1.727,1.777,2.63,2.687.865-.876,1.667-1.632,2.391-2.457a1.413,1.413,0,0,0,.3-1.034c-.7-4-1.43-7.993-2.171-11.985a4.643,4.643,0,0,0-.362-.887M30.942,37.4a5.919,5.919,0,0,0,3.74,1.508c4.365-.127,8.737-.044,13.106-.044h.965V35.925c-4.731,0-9.4.077-14.072-.043a5.815,5.815,0,0,0-3.74,1.52m57.6,39.71v5.8c4.325.618,6.418-2.6,5.706-5.8ZM50.812,41.885H40.432c.906,1.212,1.753,2.289,2.533,3.414a.916.916,0,0,0,1.271.421q2.743-1,5.539-1.847a1.039,1.039,0,0,0,.866-.992c.032-.331.112-.657.172-1m.976-3.02h4.127c.092,0,.184,0,.275,0a1.48,1.48,0,0,0,1.436-1.395A1.385,1.385,0,0,0,56.42,35.97c-1.541-.068-3.087-.021-4.633-.021ZM73.241,53.319c-.9-1.2-1.8-2.423-2.724-3.63-.1-.136-.333-.179-.5-.264-.073.177-.225.362-.207.528.218,2.039.462,4.075.7,6.126l2.735-2.761m7.546-3.98c-.681.134-2.387,2.179-3.393,3.92l2.663,2.673c.234-2.112.481-4.338.731-6.592" transform="translate(-6.233 -6.493)" fill="#020201"/><path d="M26.675,219.091H6.206V198.583H26.675Zm-2.931-17.576H9.137v14.626H23.743Z" transform="translate(-6.19 -151.458)"/><path d="M26.611,314.908H6.142V294.4H26.611ZM9.067,311.95h14.62v-14.6H9.067Z" transform="translate(-6.142 -223.767)"/><rect width="23.421" height="2.868" transform="translate(23.523 70.64)"/><rect width="23.44" height="2.836" transform="translate(23.53 76.527)"/><rect width="23.439" height="2.834" transform="translate(23.498 88.289)"/><rect width="17.555" height="2.829" transform="translate(29.379 82.411)"/><rect width="11.645" height="2.862" transform="translate(23.533 47.095)"/><rect width="11.637" height="2.854" transform="translate(23.537 53.012)"/><rect width="11.683" height="2.836" transform="translate(23.53 58.886)"/><rect width="11.683" height="2.836" transform="translate(23.497 64.766)"/><rect width="2.866" height="2.857" transform="translate(23.519 82.397)"/><path d="M212.744,197.623H206.89V183h-2.931v17.527H183.394V183.006h-2.936a1.585,1.585,0,0,0-.035.432c.424,2.122-1.011,3.411-2.2,4.761a6.245,6.245,0,0,1-4.548,2.086,6.7,6.7,0,0,1-6.8-4.957c-1.267-4.339-2.482-8.694-3.757-13.176l5.961-2.006,4.033,16.1,2.8-.7a2.193,2.193,0,0,0-.091-.52c-.7-1.424-.056-2.544.729-3.7a20.046,20.046,0,0,1,8.739-7.221c.447,3.978.891,7.927,1.352,12.035l2.589-2.666.234.11c-.217,1.261-.424,2.524-.653,3.783-.333,1.835-.664,3.671-1.032,5.5a1.491,1.491,0,0,0,.494,1.529c1.78,1.725,3.511,3.5,5.521,5.52A18.716,18.716,0,0,1,195,198.4c1.3-1.341,2.6-2.68,3.967-3.955a1.623,1.623,0,0,0,.517-1.694c-.548-2.821-1.056-5.65-1.573-8.477a1.38,1.38,0,0,1,.12-.851l2.6,2.875,1.421-12.688a15.7,15.7,0,0,1,6.974,4.889,15.9,15.9,0,0,1,3.716,10.133c.045,2.966.009,5.934.009,8.992" transform="translate(-124.609 -129.997)" fill="#b2db7e"/><path d="M18.059,111.2V90.723H41.5v5.591l-7.017,4.644,7.05,4.67v5.57Zm4.127-6.758L20.2,106.415l3.738,3.775,15.6-15.606-2.081-2.058-13.686,13.7-1.584-1.783" transform="translate(-15.135 -70.059)" fill="#e5e8ec"/><path d="M243.7,48.5c0-.33.011-.513,0-.694a3.1,3.1,0,0,1,1.09-2.845,6.036,6.036,0,0,0-.444-9.129,1.546,1.546,0,0,1-.654-1.47,6.764,6.764,0,0,0-.761-3.994,6.067,6.067,0,0,0-5.292-3.031,4.513,4.513,0,0,0-1.177-4.58,4.206,4.206,0,0,0-2.968-1.247c-.972-.021-1.944,0-2.968,0v2.94c.874,0,1.748-.008,2.622,0,1.082.012,1.732.573,1.728,1.473s-.65,1.458-1.739,1.462c-2.357.008-4.714.02-7.071,0a4.4,4.4,0,1,1,.023-8.809q5.418-.029,10.837,0a15.651,15.651,0,0,1,15.414,13.769c.769,6.8-1.91,12.03-7.694,15.672-.253.159-.532.278-.945.489" transform="translate(-168.782 -15.593)" fill="#646c77"/><path d="M246.938,96.343c-.959-1.28-1.829-2.422-2.672-3.585a1.406,1.406,0,0,1-.252-.744c-.026-1.129-.012-2.259-.012-3.468h2.884V85.566c-1.6,0-3.21,0-4.82,0a3.585,3.585,0,0,1-3.941-3.912c0-1.468,0-2.936,0-4.485-.943-.32-1.889-.633-2.828-.962a1.956,1.956,0,0,1-1.421-2.7c.565-2.029,1.158-4.05,1.715-6.081a1.147,1.147,0,0,1,1.33-.993c3.211.061,6.425.022,9.638.026,2.177,0,3.316,1.157,3.322,3.357,0,.8.058,1.6-.016,2.386a1.323,1.323,0,0,0,.92,1.52,3.12,3.12,0,0,1,1.751,4.24,5.4,5.4,0,0,1-1.9,1.865,1.357,1.357,0,0,0-.777,1.337c.037,3.52.031,7.04,0,10.56a2.342,2.342,0,0,1-.4,1.242c-.779,1.122-1.629,2.2-2.521,3.38" transform="translate(-177.906 -51.726)" fill="#eecfb3"/><path d="M254.238,308.334l-2.157,2.2c.7.645,1.434,1.286,2.119,1.978a1.38,1.38,0,0,1,.4.852c.031,2.538.018,5.076.018,7.682h-8.754V306.47h20.456v14.59h-8.76c0-2.584-.063-5.148.028-7.705a3.156,3.156,0,0,0-1.178-2.861,28.129,28.129,0,0,1-2.168-2.161" transform="translate(-187.051 -232.877)" fill="#d29f6c"/><path d="M279.276,207.09a4.631,4.631,0,0,1,.362.887c.741,3.992,1.475,7.985,2.171,11.985a1.412,1.412,0,0,1-.3,1.034c-.724.825-1.526,1.581-2.391,2.457-.9-.91-1.8-1.771-2.63-2.687a1.174,1.174,0,0,1-.081-.851q1.063-5.95,2.168-11.892a5.2,5.2,0,0,1,.378-.951l.323.018" transform="translate(-210.075 -157.864)" fill="#e2e5e8"/><path d="M106.863,127.8a5.814,5.814,0,0,1,3.74-1.52c4.668.12,9.341.043,14.072.043v2.939h-.966c-4.369,0-8.741-.083-13.106.044a5.915,5.915,0,0,1-3.74-1.507" transform="translate(-82.153 -96.889)" fill="#fe816d"/><path d="M341.658,294.34h5.706c.712,3.2-1.381,6.416-5.706,5.8Z" transform="translate(-259.346 -223.723)" fill="#eeceb2"/><path d="M155.923,150.752c-.06.339-.14.665-.172,1a1.039,1.039,0,0,1-.866.992q-2.791.854-5.539,1.847a.916.916,0,0,1-1.271-.421c-.78-1.124-1.627-2.2-2.533-3.414Z" transform="translate(-111.343 -115.361)" fill="#edcdb2"/><path d="M191.831,129.424v-2.915c1.546,0,3.092-.047,4.633.021a1.386,1.386,0,0,1,1.205,1.495,1.48,1.48,0,0,1-1.436,1.395c-.091.008-.183,0-.275,0h-4.127" transform="translate(-146.276 -97.053)" fill="#a8b0ba"/><path d="M268.709,185.385l-2.735,2.761c-.238-2.051-.482-4.087-.7-6.126-.018-.167.134-.352.207-.529.171.086.4.128.5.264.925,1.206,1.828,2.43,2.724,3.629" transform="translate(-201.7 -138.559)" fill="#9bce65"/><path d="M299.6,181.141c-.25,2.254-.5,4.48-.731,6.592l-2.663-2.673c1.006-1.741,2.712-3.785,3.393-3.92" transform="translate(-225.045 -138.295)" fill="#9cce65"/><rect width="14.606" height="14.626" transform="translate(2.947 50.058)" fill="#fee9a6"/><rect width="14.62" height="14.595" transform="translate(2.925 73.588)" fill="#fee9a6"/><path d="M28.761,109.985l1.584,1.783,13.686-13.7,2.081,2.058-15.6,15.606-3.738-3.775,1.989-1.976" transform="translate(-21.711 -75.606)" fill="#060606"/></g></g></g></svg>