<svg xmlns="http://www.w3.org/2000/svg" xmlns:xlink="http://www.w3.org/1999/xlink" width="55" height="41" viewBox="0 0 55 41"><defs><clipPath id="a"><rect width="46.96" height="32.742" transform="translate(0 0)" fill="none"/></clipPath></defs><g transform="translate(-198 -2584)"><rect width="55" height="41" transform="translate(198 2584)" fill="#fff"/><g transform="translate(202 2589)"><g clip-path="url(#a)"><path d="M46.145,13.273H31.933V.815A.816.816,0,0,0,31.117,0H15.853a.815.815,0,0,0-.815.815V6.223H.815A.815.815,0,0,0,0,7.038V31.927a.815.815,0,0,0,.815.815h45.33a.815.815,0,0,0,.815-.815V14.088a.815.815,0,0,0-.815-.815M37.268,24.34h2.717v7.1H37.268Zm8.062,6.772H40.963V23.851a.489.489,0,0,0-.489-.489h-3.7a.489.489,0,0,0-.489.489v7.261H31.922V14.9H45.33ZM1.63,7.854H15.038V31.112H10.671V23.851a.489.489,0,0,0-.489-.489h-3.7A.489.489,0,0,0,6,23.851v7.261H1.63ZM6.975,24.34H9.692v7.1H6.975ZM30.292,14.088V31.112H25.606V23.851a.489.489,0,0,0-.489-.489h-3.7a.49.49,0,0,0-.489.489v7.261H16.668V1.63H30.3V13.99a.793.793,0,0,0-.01.1M21.91,24.34h2.718v7.1H21.91Z" fill="#272525"/><path d="M22.595,4.724H18.943a.488.488,0,0,0-.488.489V8.864a.488.488,0,0,0,.488.489h3.652a.489.489,0,0,0,.489-.489V5.213a.489.489,0,0,0-.489-.489M22.1,8.375H19.432V5.7H22.1Z" fill="#272525"/><path d="M28.139,4.724H24.487A.489.489,0,0,0,24,5.213V8.864a.489.489,0,0,0,.489.489h3.652a.488.488,0,0,0,.488-.489V5.213a.488.488,0,0,0-.488-.489m-.49,3.651H24.976V5.7h2.673Z" fill="#272525"/><path d="M22.595,10.7H18.943a.488.488,0,0,0-.488.489v3.652a.488.488,0,0,0,.488.489h3.652a.489.489,0,0,0,.489-.489V11.191a.489.489,0,0,0-.489-.489m-.49,3.651H19.432V11.68H22.1Z" fill="#272525"/><path d="M28.139,10.7H24.487a.489.489,0,0,0-.489.489v3.652a.489.489,0,0,0,.489.489h3.652a.488.488,0,0,0,.488-.489V11.191a.488.488,0,0,0-.488-.489m-.49,3.651H24.976V11.68h2.673Z" fill="#272525"/><path d="M22.595,16.68H18.943a.489.489,0,0,0-.488.49v3.651a.488.488,0,0,0,.488.489h3.652a.489.489,0,0,0,.489-.489V17.17a.49.49,0,0,0-.489-.49m-.49,3.652H19.432V17.659H22.1Z" fill="#272525"/><path d="M28.139,16.68H24.487a.49.49,0,0,0-.489.49v3.651a.489.489,0,0,0,.489.489h3.652a.488.488,0,0,0,.488-.489V17.17a.489.489,0,0,0-.488-.49m-.49,3.652H24.976V17.659h2.673Z" fill="#272525"/><path d="M3.737,15.332H7.388a.488.488,0,0,0,.488-.489V11.191a.488.488,0,0,0-.488-.489H3.737a.488.488,0,0,0-.489.489v3.652a.488.488,0,0,0,.489.489m.489-3.652H6.9v2.673H4.226Z" fill="#272525"/><path d="M9.28,15.332h3.651a.489.489,0,0,0,.489-.489V11.191a.489.489,0,0,0-.489-.489H9.28a.489.489,0,0,0-.489.489v3.652a.489.489,0,0,0,.489.489m.49-3.652h2.672v2.673H9.77Z" fill="#272525"/><path d="M7.388,21.31a.488.488,0,0,0,.488-.489V17.17a.489.489,0,0,0-.488-.49H3.737a.489.489,0,0,0-.489.49v3.651a.488.488,0,0,0,.489.489ZM4.226,17.659H6.9v2.673H4.226Z" fill="#272525"/><path d="M9.28,21.31h3.651a.489.489,0,0,0,.489-.489V17.17a.49.49,0,0,0-.489-.49H9.28a.49.49,0,0,0-.489.49v3.651a.489.489,0,0,0,.489.489m.49-3.651h2.672v2.673H9.77Z" fill="#272525"/><path d="M34.028,21.31H37.68a.489.489,0,0,0,.489-.489V17.17a.49.49,0,0,0-.489-.49H34.028a.49.49,0,0,0-.489.49v3.651a.489.489,0,0,0,.489.489m.49-3.651h2.673v2.673H34.518Z" fill="#272525"/><path d="M39.572,21.31h3.652a.49.49,0,0,0,.489-.489V17.17a.491.491,0,0,0-.489-.49H39.572a.49.49,0,0,0-.489.49v3.651a.489.489,0,0,0,.489.489m.49-3.651h2.673v2.673H40.062Z" fill="#272525"/></g></g></g></svg>