<svg xmlns="http://www.w3.org/2000/svg" width="111" height="111" viewBox="0 0 111 111"><g transform="translate(-778 -1354)"><rect width="111" height="111" transform="translate(778 1354)" fill="none"/><g transform="translate(788 1363.258)"><g transform="translate(0 0.742)"><path d="M0,15.312a7.513,7.513,0,0,0,.369-.748,6.4,6.4,0,0,1,5.905-4.218c2.309-.029,4.619-.018,6.928,0a1.776,1.776,0,1,1,.008,3.543c-2.191.017-4.382,0-6.573.007A2.851,2.851,0,0,0,3.555,17q0,22.828,0,45.656a2.847,2.847,0,0,0,3.072,3.113q38.86,0,77.721,0a2.828,2.828,0,0,0,3.057-3.038q.007-22.872,0-45.745a2.857,2.857,0,0,0-3.184-3.09q-27.891,0-55.782,0c-.267,0-.534.009-.8,0A1.811,1.811,0,0,1,25.816,12.1a1.791,1.791,0,0,1,1.855-1.754c2.25-.021,4.5-.007,6.751-.007h3.6c0-2.49,0-4.91,0-7.33,0-1.654.6-2.262,2.234-2.263q5.241,0,10.481,0c1.593,0,2.2.612,2.207,2.2,0,2.426,0,4.851,0,7.391H84.015c4.324,0,6.946,2.633,6.947,6.975q0,22.517,0,45.034c0,4.339-2.626,6.973-6.95,6.974H65.445c.572,1.139,1.08,2.16,1.6,3.178q4.088,8.053,8.18,16.1c.772,1.521.6,2.182-.782,3.1H62a8.931,8.931,0,0,1-1.33-1.564c-2.435-4.711-4.819-9.45-7.221-14.178-.122-.24-.27-.467-.51-.879,0,4.891-.025,9.557.019,14.222a2.388,2.388,0,0,1-1.262,2.4H39.263A2.384,2.384,0,0,1,38,89.308c.046-4.433.019-8.866.018-13.3,0-.242-.02-.485-.04-.934-.24.462-.375.716-.505.972-2.388,4.7-4.761,9.411-7.184,14.095a8.957,8.957,0,0,1-1.33,1.564H16.522c-1.387-.92-1.555-1.58-.784-3.1l9.367-18.467c.124-.245.244-.491.408-.818h-.691q-9.1,0-18.2,0A6.366,6.366,0,0,1,.3,64.837a2.867,2.867,0,0,0-.3-.492V15.312M49.337,69.374H41.624V88.126h7.713ZM36.893,69.32c-2.339,0-4.5.023-6.658-.016a1.018,1.018,0,0,0-1.07.67q-4.411,8.74-8.854,17.464c-.1.2-.169.417-.286.714,2.244,0,4.4-.028,6.548.018a1.067,1.067,0,0,0,1.134-.713q3.819-7.6,7.684-15.177l1.5-2.961m17.242,0a4.027,4.027,0,0,0,.145.417Q58.831,78.7,63.4,87.66a1.086,1.086,0,0,0,.791.47c1.211.051,2.426.022,3.639.022h3.053a1.309,1.309,0,0,0-.033-.3q-4.59-9.046-9.2-18.084a.83.83,0,0,0-.557-.429c-2.295-.03-4.59-.019-6.966-.019M41.6,10.283h7.738V4.351H41.6Z" transform="translate(0 -0.742)" fill="#010101"/><path d="M188.112,148.469c0-2.24,0-4.394,0-6.548,0-1.527.631-2.158,2.149-2.162,2.1-.005,4.191,0,6.378,0,0-1.315-.007-2.578,0-3.84a1.789,1.789,0,0,1,2-2.035c2.129-.014,4.258,0,6.521,0,0-.835,0-1.649,0-2.462,0-1.647.613-2.276,2.231-2.279q3.818-.008,7.635,0c1.573,0,2.212.642,2.213,2.207q0,8.08,0,16.159v.919H220.8v-.945q0-10.077,0-20.154c0-1.486,1.07-2.38,2.323-1.969a1.814,1.814,0,0,1,1.226,1.938q.009,5.194,0,10.388,0,6.082,0,12.164c0,1.528-.637,2.176-2.144,2.176q-17.934,0-35.869,0c-1.273,0-2.106-.707-2.116-1.764s.825-1.776,2.089-1.786c.561,0,1.121,0,1.8,0m25.537-15.722h-4.884v15.686h4.884ZM200.218,148.41h4.9V137.495h-4.9Zm-3.628-5.048h-4.874v5.076h4.874Z" transform="translate(-140.5 -95.702)" fill="#010101"/><path d="M47.408,92.1c.021-.147.042-.232.044-.317.058-2.294.556-2.769,2.8-2.672a19.21,19.21,0,0,1,18.112,18.44c.037,1.922-.508,2.474-2.456,2.486h-.524a16.219,16.219,0,0,1-7.937,12.154,15.687,15.687,0,0,1-10.838,2.045A16.229,16.229,0,0,1,47.408,92.1M61.7,110.035h-.97c-3.642,0-7.284-.016-10.926.011a2.859,2.859,0,0,1-2.2-.919c-2.576-2.616-5.183-5.2-7.781-7.8-.216-.216-.449-.416-.677-.627A12.606,12.606,0,1,0,61.7,110.035M51.057,92.856v13.568H64.633c-.448-7.176-7.176-13.257-13.576-13.568M41.84,98l5.562,5.558V95.771A11.615,11.615,0,0,0,41.84,98" transform="translate(-25.191 -68.126)" fill="#020202"/><path d="M196.134,91.9q-4.884,0-9.769,0c-1.3,0-2.115-.668-2.144-1.73-.029-1.081.834-1.82,2.152-1.821q9.9,0,19.8,0a1.819,1.819,0,0,1,2,1.6,1.783,1.783,0,0,1-1.3,1.882,4.1,4.1,0,0,1-.97.063q-4.884.006-9.769,0" transform="translate(-140.497 -67.555)" fill="#020202"/><path d="M191.634,127.825c-1.776,0-3.552.005-5.328,0-1.268,0-2.1-.725-2.084-1.79a1.842,1.842,0,0,1,2.033-1.76q5.417-.012,10.834,0a1.814,1.814,0,0,1,2.031,1.753c.016,1.083-.79,1.791-2.069,1.8-1.806.008-3.611,0-5.417,0" transform="translate(-140.498 -94.95)" fill="#020202"/><path d="M82.237,43.018a1.76,1.76,0,0,1-1.781,1.708,1.774,1.774,0,1,1,.043-3.547,1.76,1.76,0,0,1,1.739,1.839" transform="translate(-60.015 -31.581)" fill="#060606"/><path d="M301.969,91.916a1.777,1.777,0,0,1-1.794-1.792,1.774,1.774,0,1,1,3.547.048,1.778,1.778,0,0,1-1.753,1.744" transform="translate(-228.931 -67.572)" fill="#060606"/><rect width="7.713" height="18.751" transform="translate(41.624 68.632)" fill="#feb854"/><path d="M101.238,289.633l-1.5,2.961q-3.848,7.585-7.684,15.177a1.067,1.067,0,0,1-1.134.713c-2.152-.045-4.3-.018-6.548-.018.117-.3.184-.514.286-.714q4.428-8.731,8.854-17.464a1.018,1.018,0,0,1,1.07-.67c2.159.039,4.319.016,6.658.016" transform="translate(-64.346 -221.055)" fill="#fcb753"/><path d="M228.088,289.679c2.376,0,4.671-.01,6.966.019a.829.829,0,0,1,.557.428q4.615,9.033,9.2,18.084a1.3,1.3,0,0,1,.033.3h-3.053c-1.214,0-2.428.029-3.639-.022a1.086,1.086,0,0,1-.791-.47q-4.59-8.948-9.125-17.923a4.046,4.046,0,0,1-.145-.417" transform="translate(-173.953 -221.101)" fill="#fcb753"/><rect width="7.738" height="5.932" transform="translate(41.596 3.609)" fill="#feb854"/><rect width="4.884" height="15.686" transform="translate(68.266 37.043)" fill="#fd5c5c"/><rect width="4.895" height="10.915" transform="translate(59.718 41.792)" fill="#2e9ce2"/><rect width="4.874" height="5.076" transform="translate(51.216 47.66)" fill="#9fe457"/><path d="M73.188,147.334A12.6,12.6,0,1,1,50.631,138c.228.211.46.411.676.627,2.6,2.594,5.205,5.179,7.781,7.8a2.859,2.859,0,0,0,2.2.919c3.642-.027,7.284-.011,10.926-.011h.971" transform="translate(-36.677 -105.426)" fill="#9fe356"/><path d="M108.979,104.938c6.4.311,13.129,6.392,13.576,13.569H108.979Z" transform="translate(-83.114 -80.208)" fill="#fb5b5b"/><path d="M70.144,119.445a11.615,11.615,0,0,1,5.562-2.224V125l-5.562-5.558" transform="translate(-53.496 -89.576)" fill="#2d9ade"/></g></g></g></svg>