<svg xmlns="http://www.w3.org/2000/svg" width="55" height="41" viewBox="0 0 55 41"><g transform="translate(-562 -2584)"><rect width="55" height="41" transform="translate(562 2584)" fill="#fff"/><g transform="translate(564 2586)"><path d="M29.635,18.481H41.747V34.353H29.635ZM11.158,1.3H28.126V34.352H11.158ZM9.854,0V34.912H0v1.305H50.328V34.912H43.051V17.176H29.43V0Z" fill="#272525"/><path d="M18.73,4.937H14.538v3.6H18.73ZM18.078,7.88H15.191V5.589h2.887Z" fill="#272525"/><path d="M24.746,4.937H20.555v3.6h4.191ZM24.093,7.88H21.206V5.589h2.887Z" fill="#272525"/><path d="M24.746,9.612H20.555v3.595h4.191Zm-.653,2.943H21.206v-2.29h2.887Z" fill="#272525"/><path d="M24.746,17.882H20.555v3.6h4.191Zm-.653,2.943H21.206V18.534h2.887Z" fill="#272525"/><path d="M24.746,26.09H20.555v3.595h4.191Zm-.653,2.942H21.206v-2.29h2.887Z" fill="#272525"/><path d="M18.73,26.09H14.538v3.595H18.73Zm-.652,2.942H15.191v-2.29h2.887Z" fill="#272525"/><path d="M35.441,19.893H31.249v3.6h4.192Zm-.652,2.943H31.9V20.545h2.888Z" fill="#272525"/><path d="M40.7,25.7H36.507V29.3H40.7Zm-.653,2.944H37.159V26.354h2.887Z" fill="#272525"/></g></g></svg>