<svg xmlns="http://www.w3.org/2000/svg" width="111" height="111" viewBox="0 0 111 111"><g transform="translate(-152 -1141)"><rect width="111" height="111" transform="translate(152 1141)" fill="none"/><g transform="translate(159 1128.047)"><g transform="translate(0 23.953)"><path d="M0,112.114V31.3a3.157,3.157,0,0,1,3.206-1.749c4.864.062,9.73.027,14.595.016a2.194,2.194,0,0,0,1-.173c2.71-1.469,5.362-3.054,8.122-4.421A8.929,8.929,0,0,1,30.7,24c15.69-.065,31.38-.045,47.071-.038A3.076,3.076,0,0,1,81,27.175c.011.792,0,1.584,0,2.4,1.088,0,2.052,0,3.016,0,1.263.005,1.607.273,1.965,1.518A1.7,1.7,0,0,1,84,32.49c-.982-.054-1.969-.011-3-.011,0,.86,0,1.6,0,2.335a3.122,3.122,0,0,1-3.465,3.455q-23.239,0-46.478-.024a7.694,7.694,0,0,1-3.282-.6c-3-1.471-5.891-3.144-8.836-4.717A2.976,2.976,0,0,0,17.65,32.5c-4.606-.031-9.212-.019-13.818-.019H2.95v78.346c3.653,0,7.256,0,10.859,0,1.293,0,1.636.27,1.99,1.493a1.673,1.673,0,0,1-1.943,1.416c-3.461-.033-6.923-.066-10.382.013A3.449,3.449,0,0,1,0,112.114M68.577,26.906H32.89v2.715H68.577Zm0,5.731H32.9V35.3H68.582Zm9.471-5.713H71.585v8.395h6.467ZM29.9,35.433V26.787c-1.132.553-2.132,1.016-3.1,1.541-.152.082-.211.441-.215.674q-.028,2.124,0,4.248c0,.234.065.6.218.678.971.516,1.976.97,3.1,1.505M23.635,32.2V30.006L21.594,31.13,23.635,32.2" transform="translate(0 -23.953)" fill="#020201"/><path d="M172.234,54.512c.347-1.274.688-1.536,2.016-1.539,1.406,0,2.814.048,4.218-.014a2.753,2.753,0,0,1,3,1.933v80.617a3.17,3.17,0,0,1-2.816,1.629q-37.22-.038-74.44-.007c-1.055,0-1.736-.346-1.953-1.417.367-1.271.688-1.495,2.184-1.495h74.073V55.874c-1.462,0-2.875-.041-4.284.014a1.723,1.723,0,0,1-2-1.376" transform="translate(-82.493 -47.347)" fill="#030303"/><path d="M32.081,142.129h-3.97c-.354-1.223-.7-1.491-1.99-1.493-3.6-.006-7.206,0-10.859,0V62.289h.882c4.606,0,9.212-.012,13.818.019a2.976,2.976,0,0,1,1.291.426c2.946,1.573,5.841,3.246,8.836,4.717a7.7,7.7,0,0,0,3.282.6q23.239.056,46.478.024a3.122,3.122,0,0,0,3.465-3.455c0-.738,0-1.475,0-2.335,1.026,0,2.014-.042,3,.012a1.7,1.7,0,0,0,1.986-1.394l3.758.021a1.723,1.723,0,0,0,2,1.376c1.409-.055,2.822-.014,4.284-.014v78.344H34.264c-1.5,0-1.817.223-2.184,1.495m40.456-20.965c1.109-.675,1.273-1.172.792-2.393a12.52,12.52,0,1,0,.193,8.749c.4-1.18.2-1.661-.917-2.263l-.068-4.092M34.18,135.932a12.533,12.533,0,1,0-12.365-12.587A12.524,12.524,0,0,0,34.18,135.932m55.182,0a12.534,12.534,0,1,0-12.428-12.523,12.533,12.533,0,0,0,12.428,12.523M28.9,73.064c-1.608,0-3.217-.015-4.825,0a2.042,2.042,0,0,0-2.258,2.283q-.026,4.777,0,9.554a2.089,2.089,0,0,0,2.353,2.3q4.68.012,9.36,0c1.662,0,2.386-.739,2.392-2.431.008-2.284.016-4.568-.006-6.852A2.123,2.123,0,0,1,36.5,76.2a1.37,1.37,0,0,0-.3-2.217,6.262,6.262,0,0,0-3.446-.944,37.607,37.607,0,0,1-3.857.029m42.547,0c-1.609,0-3.218-.015-4.827,0a2.024,2.024,0,0,0-2.248,2.2q-.044,4.875,0,9.752A2.04,2.04,0,0,0,66.641,87.2q4.779.018,9.558,0a2.023,2.023,0,0,0,2.272-2.257q.026-4.828,0-9.655c-.009-1.494-.763-2.209-2.292-2.224-1.577-.015-3.154,0-4.731,0m7.028,25.5c0-1.609.014-3.219,0-4.828a2.024,2.024,0,0,0-2.264-2.265q-4.779-.019-9.558,0a2.036,2.036,0,0,0-2.275,2.178q-.049,4.875,0,9.751a2.018,2.018,0,0,0,2.239,2.2q4.827.019,9.655,0a1.979,1.979,0,0,0,2.2-2.211c.021-1.609,0-3.218,0-4.827M28.937,105.6c1.609,0,3.218.015,4.827,0a1.965,1.965,0,0,0,2.155-2.163q.026-4.875,0-9.751A2.007,2.007,0,0,0,33.7,91.47q-4.827-.023-9.654,0a2.023,2.023,0,0,0-2.224,2.13q-.048,4.923,0,9.847a2.01,2.01,0,0,0,2.191,2.15c1.641.017,3.282,0,4.924,0M91.691,76.317c-2.8,0-5.6-.008-8.4,0-1.056,0-1.7.566-1.7,1.428s.644,1.421,1.685,1.474c.224.011.45,0,.675,0H99.4c.29,0,.581.015.868-.012a1.514,1.514,0,0,0,1.511-1.452,1.462,1.462,0,0,0-1.6-1.436c-2.831-.017-5.662-.006-8.493-.007m-42.574,0q-4.1,0-8.2,0c-1.2,0-1.888.545-1.874,1.452.013.874.691,1.448,1.809,1.45q8.3.016,16.6,0c1.105,0,1.784-.6,1.776-1.48s-.673-1.416-1.808-1.42c-2.767-.008-5.533,0-8.3,0m42.6,18.419q-4.15,0-8.3,0c-1.143,0-1.793.515-1.81,1.406s.66,1.488,1.758,1.49q8.348.013,16.7,0a1.526,1.526,0,0,0,1.724-1.436c.019-.889-.656-1.456-1.768-1.459-2.767-.006-5.534,0-8.3,0m-42.567,0q-4.15,0-8.3,0c-1.128,0-1.8.536-1.8,1.42s.676,1.475,1.779,1.476q8.3.012,16.6,0c1.111,0,1.8-.573,1.805-1.451s-.656-1.443-1.779-1.445q-4.15-.008-8.3,0m38.794,7.624c1.543,0,3.086.011,4.629,0,1.157-.011,1.754-.529,1.741-1.463-.012-.89-.607-1.429-1.69-1.435q-4.677-.026-9.355,0A1.489,1.489,0,0,0,81.6,100.94c.013.861.646,1.405,1.711,1.417,1.543.017,3.086,0,4.629,0m-42.574,0c1.576,0,3.151.014,4.727-.005,1.083-.013,1.672-.543,1.672-1.439s-.6-1.45-1.671-1.456q-4.678-.028-9.357,0a1.511,1.511,0,0,0-1.7,1.456c0,.851.651,1.427,1.7,1.44,1.543.018,3.087,0,4.63,0m.039-18.419c1.576,0,3.152.01,4.727,0,1-.009,1.6-.532,1.63-1.382a1.442,1.442,0,0,0-1.615-1.509q-4.727-.026-9.455,0a1.492,1.492,0,0,0-1.651,1.5,1.47,1.47,0,0,0,1.636,1.395c1.576.015,3.151,0,4.727,0m42.593,0c1.543,0,3.087.008,4.63,0,1.077-.008,1.676-.528,1.683-1.422s-.606-1.466-1.653-1.471q-4.678-.021-9.355,0A1.508,1.508,0,0,0,81.6,82.487c-.01.867.636,1.442,1.675,1.451,1.575.013,3.151,0,4.726,0" transform="translate(-12.312 -53.762)" fill="#e4e7eb"/><rect width="35.687" height="2.715" transform="translate(32.89 2.953)" fill="#f6be02"/><rect width="35.679" height="2.663" transform="translate(32.903 8.684)" fill="#fec402"/><rect width="6.467" height="8.395" transform="translate(71.585 2.971)" fill="#fa8176"/><path d="M140.76,47.261c-1.121-.535-2.126-.989-3.1-1.505-.153-.081-.214-.444-.218-.678q-.029-2.124,0-4.248c0-.232.063-.591.215-.674.968-.525,1.968-.988,3.1-1.541Z" transform="translate(-110.863 -35.781)" fill="#f3cbaa"/><path d="M113.745,57.458,111.7,56.39l2.041-1.123Z" transform="translate(-90.11 -49.213)" fill="#694a2f"/><path d="M227.06,341.8q.034,2.046.069,4.092c-1.116-.1-1.569.563-1.915,1.506a9.426,9.426,0,0,1-11.722,5.837,9.673,9.673,0,0,1-6.347-11.686,9.461,9.461,0,0,1,17.944-1.188c.382.922.857,1.584,1.972,1.439m-10.774,7.275c1.03,0,2.06.017,3.09,0a1.426,1.426,0,0,0,1.594-1.423,1.4,1.4,0,0,0-1.477-1.456q-3.185-.059-6.372,0a1.438,1.438,0,1,0,.075,2.874c1.029.028,2.06.006,3.089.007m-3.2-7.042c0-1.727-.745-2.506-1.857-2.141-.847.278-1.042.945-1.051,1.742-.01.859-.006,1.709.952,2.108a1.409,1.409,0,0,0,1.913-1.053,3.885,3.885,0,0,0,.043-.656m9.368-.137c.011-1.338-.5-2.073-1.447-2.092-1.038-.021-1.528.8-1.456,2.434.047,1.07.671,1.683,1.607,1.58.864-.1,1.286-.721,1.3-1.923" transform="translate(-166.835 -274.399)" fill="#fbc202"/><path d="M61.524,344.405A12.533,12.533,0,1,1,74.013,331.94a12.528,12.528,0,0,1-12.488,12.465m-.081-22.127a9.614,9.614,0,1,0,9.667,9.484,9.577,9.577,0,0,0-9.667-9.484" transform="translate(-39.656 -262.236)" fill="#030403"/><path d="M346.7,344.4a12.534,12.534,0,1,1,12.425-12.529A12.525,12.525,0,0,1,346.7,344.4m-.145-22.131a9.616,9.616,0,1,0,9.668,9.486,9.593,9.593,0,0,0-9.668-9.486" transform="translate(-269.655 -262.228)" fill="#040303"/><path d="M215,329.584c-1.115.146-1.59-.517-1.972-1.439a9.461,9.461,0,0,0-17.944,1.188,9.673,9.673,0,0,0,6.347,11.687,9.426,9.426,0,0,0,11.722-5.837c.347-.943.8-1.61,1.915-1.506,1.119.6,1.314,1.083.917,2.263a12.508,12.508,0,1,1-.193-8.748c.481,1.222.317,1.719-.792,2.393" transform="translate(-154.777 -262.183)" fill="#040402"/><path d="M56.2,123.59a37.5,37.5,0,0,0,3.857-.029,6.262,6.262,0,0,1,3.446.944,1.37,1.37,0,0,1,.3,2.217,2.123,2.123,0,0,0-.587,1.726c.022,2.284.014,4.568.006,6.851-.006,1.692-.73,2.428-2.392,2.431q-4.68.009-9.36,0a2.089,2.089,0,0,1-2.353-2.3q-.026-4.777,0-9.554a2.042,2.042,0,0,1,2.258-2.283c1.608-.02,3.217,0,4.825,0m4.091,6.648c-.91.937-1.623,1.719-2.388,2.447a1.965,1.965,0,0,1-2.93-.005c-.566-.526-1.106-1.08-1.636-1.643a1.429,1.429,0,0,1-.123-2.142,1.414,1.414,0,0,1,2.132.091,7.044,7.044,0,0,1,.778,1.073l3.644-3.517H52.064v8.238h8.231Z" transform="translate(-39.615 -104.288)" fill="#030302"/><path d="M276.288,123.773c1.577,0,3.154-.012,4.731,0,1.529.014,2.283.73,2.292,2.224q.028,4.828,0,9.655a2.023,2.023,0,0,1-2.272,2.257q-4.779.017-9.558,0a2.04,2.04,0,0,1-2.267-2.186q-.048-4.875,0-9.752a2.024,2.024,0,0,1,2.247-2.2c1.609-.019,3.218,0,4.827,0m4.08,2.958h-8.212v8.231h8.212Z" transform="translate(-217.151 -104.472)" fill="#040403"/><path d="M283.317,226.055c0,1.609.017,3.219,0,4.828a1.979,1.979,0,0,1-2.2,2.211q-4.827.02-9.654,0a2.018,2.018,0,0,1-2.239-2.2q-.043-4.875,0-9.751a2.036,2.036,0,0,1,2.275-2.178q4.779-.019,9.558,0a2.024,2.024,0,0,1,2.264,2.265c.018,1.609,0,3.218,0,4.827m-2.966-4.123h-8.176v8.224h8.176Z" transform="translate(-217.152 -181.256)" fill="#040303"/><path d="M56.224,233.094c-1.641,0-3.283.013-4.924,0a2.01,2.01,0,0,1-2.191-2.15q-.042-4.924,0-9.848a2.023,2.023,0,0,1,2.224-2.13q4.827-.023,9.654,0a2.007,2.007,0,0,1,2.217,2.214q.023,4.875,0,9.751a1.965,1.965,0,0,1-2.155,2.164c-1.609.019-3.218,0-4.827,0m4.042-11.16H52.041v8.2h8.224Z" transform="translate(-39.598 -181.254)" fill="#030202"/><path d="M368.506,140.616c2.831,0,5.662-.01,8.493.007a1.462,1.462,0,0,1,1.6,1.436,1.514,1.514,0,0,1-1.511,1.452c-.287.027-.579.012-.868.012H360.775c-.225,0-.451.009-.675,0-1.042-.053-1.686-.619-1.685-1.474s.64-1.423,1.7-1.428c2.8-.012,5.6,0,8.4,0" transform="translate(-289.126 -118.06)" fill="#060606"/><path d="M148.336,140.619c2.767,0,5.533-.005,8.3,0,1.135,0,1.8.539,1.808,1.42s-.671,1.478-1.776,1.48q-8.3.019-16.6,0c-1.118,0-1.8-.576-1.809-1.45-.014-.906.675-1.449,1.874-1.452q4.1-.008,8.2,0" transform="translate(-111.531 -118.064)" fill="#060606"/><path d="M368.538,235.9c2.767,0,5.534,0,8.3,0,1.112,0,1.787.57,1.768,1.459a1.526,1.526,0,0,1-1.724,1.436q-8.348.016-16.7,0c-1.1,0-1.775-.6-1.758-1.49s.668-1.4,1.81-1.406q4.15-.006,8.3,0" transform="translate(-289.137 -194.925)" fill="#030303"/><path d="M148.37,235.9q4.15,0,8.3,0c1.123,0,1.788.552,1.779,1.445s-.694,1.45-1.805,1.451q-8.3.011-16.6,0c-1.1,0-1.786-.593-1.779-1.476s.677-1.418,1.8-1.42q4.15-.007,8.3,0" transform="translate(-111.536 -194.927)" fill="#030303"/><path d="M364.759,263.181c-1.543,0-3.086.012-4.629,0-1.064-.012-1.7-.556-1.711-1.417a1.489,1.489,0,0,1,1.666-1.479q4.677-.029,9.355,0c1.083.006,1.677.545,1.69,1.435.013.935-.584,1.452-1.741,1.463-1.543.015-3.086,0-4.629,0" transform="translate(-289.13 -214.582)" fill="#060606"/><path d="M144.589,263.18c-1.543,0-3.087.013-4.63,0-1.044-.012-1.7-.589-1.7-1.44a1.511,1.511,0,0,1,1.7-1.457q4.678-.027,9.357,0c1.073.007,1.67.565,1.671,1.456s-.589,1.427-1.672,1.44c-1.575.019-3.151,0-4.727,0" transform="translate(-111.535 -214.582)" fill="#060606"/><path d="M144.632,167.932c-1.576,0-3.152.011-4.727,0a1.469,1.469,0,0,1-1.636-1.395,1.492,1.492,0,0,1,1.651-1.5q4.727-.024,9.455,0a1.442,1.442,0,0,1,1.615,1.509c-.029.849-.626,1.373-1.63,1.382-1.576.014-3.151,0-4.727,0" transform="translate(-111.538 -137.753)" fill="#030303"/><path d="M364.8,167.937c-1.575,0-3.151.01-4.726,0-1.039-.008-1.685-.583-1.675-1.451a1.508,1.508,0,0,1,1.705-1.443q4.678-.018,9.355,0c1.047.005,1.66.58,1.653,1.471s-.606,1.414-1.683,1.422c-1.543.011-3.086,0-4.63,0" transform="translate(-289.117 -137.757)" fill="#030303"/><path d="M236.565,398.081c-1.03,0-2.06.021-3.089-.007a1.438,1.438,0,1,1-.075-2.874q3.185-.065,6.372,0a1.4,1.4,0,0,1,1.477,1.456,1.426,1.426,0,0,1-1.594,1.423c-1.029.022-2.06,0-3.089,0" transform="translate(-187.113 -323.405)" fill="#060500"/><path d="M227.126,364.511a3.869,3.869,0,0,1-.043.656,1.409,1.409,0,0,1-1.913,1.053c-.958-.4-.961-1.25-.952-2.108.009-.8.2-1.465,1.051-1.742,1.112-.364,1.857.414,1.857,2.141" transform="translate(-180.872 -296.877)" fill="#060500"/><path d="M275.586,364.372c-.01,1.2-.431,1.828-1.3,1.923-.936.1-1.56-.511-1.607-1.58-.072-1.636.418-2.456,1.456-2.434.949.019,1.457.755,1.447,2.092" transform="translate(-219.964 -296.875)" fill="#060500"/><path d="M73.554,334.535a9.612,9.612,0,1,1-9.38,9.768,9.57,9.57,0,0,1,9.38-9.768m.159,16.86c2.61-.012,4.925-2.111,4.921-4.461a1.451,1.451,0,0,0-2.887-.3,1.983,1.983,0,0,1-2.065,1.852c-1.111-.011-1.742-.594-2.034-1.879a1.491,1.491,0,0,0-1.573-1.264,1.43,1.43,0,0,0-1.3,1.525,3.791,3.791,0,0,0,.12.949,4.92,4.92,0,0,0,4.814,3.578m6.193-9.481c-.13-.475-.117-1.126-.431-1.4a2.067,2.067,0,0,0-1.585-.467c-1.137.28-.982,1.325-.986,2.221,0,.791.3,1.489,1.1,1.565a2.355,2.355,0,0,0,1.549-.623c.27-.234.238-.817.355-1.3m-12.476-.007a6.277,6.277,0,0,0,.575,1.542,1.351,1.351,0,0,0,2.037.064,2.839,2.839,0,0,0,.041-3.14,1.358,1.358,0,0,0-2.037-.031,6.169,6.169,0,0,0-.616,1.564" transform="translate(-51.767 -274.492)" fill="#87c646"/><path d="M358.662,334.509a9.615,9.615,0,1,1-9.382,9.679,9.583,9.583,0,0,1,9.382-9.679m.165,10.171c-2.66-.015-5.035,2.152-4.958,4.532a1.37,1.37,0,0,0,1.241,1.472,1.415,1.415,0,0,0,1.634-1.159c.317-1.361.954-1.953,2.084-1.939,1.112.014,1.728.589,2.028,1.889a1.439,1.439,0,0,0,1.6,1.219,1.386,1.386,0,0,0,1.272-1.533,3.632,3.632,0,0,0-.105-.858,4.89,4.89,0,0,0-4.793-3.623m-3.23-2.573c0-1.722-.77-2.506-1.889-2.14a1.494,1.494,0,0,0-1.021,1.651c0,.878-.082,1.783.943,2.2a1.433,1.433,0,0,0,1.921-1.069,3.111,3.111,0,0,0,.046-.641m9.312-.048c0-1.4-.3-2.053-1.148-2.094-.487-.024-1.363.3-1.423.6a6.3,6.3,0,0,0,.046,2.734c.074.293,1.056.593,1.542.494.891-.182,1.063-1,.984-1.732" transform="translate(-281.757 -274.471)" fill="#eb4f4f"/><path d="M72.629,142.764v4.542H64.4v-8.238h7.709l-3.644,3.517a7.045,7.045,0,0,0-.778-1.073,1.414,1.414,0,0,0-2.132-.091,1.429,1.429,0,0,0,.123,2.142c.53.563,1.07,1.117,1.636,1.643a1.965,1.965,0,0,0,2.93.005c.765-.727,1.478-1.51,2.388-2.447" transform="translate(-51.949 -116.814)" fill="#f5d564"/><rect width="8.212" height="8.231" transform="translate(55.005 22.259)" fill="#f9d866"/><rect width="8.176" height="8.224" transform="translate(55.022 40.676)" fill="#f9d866"/><rect width="8.224" height="8.205" transform="translate(12.443 40.681)" fill="#fad966"/><path d="M92.936,396.463a4.92,4.92,0,0,1-4.814-3.578,3.8,3.8,0,0,1-.12-.949,1.43,1.43,0,0,1,1.3-1.525,1.491,1.491,0,0,1,1.573,1.264c.292,1.285.923,1.868,2.034,1.879a1.984,1.984,0,0,0,2.065-1.852,1.451,1.451,0,0,1,2.887.3c0,2.351-2.312,4.45-4.922,4.461" transform="translate(-70.99 -319.56)" fill="#030401"/><path d="M133.015,364.815c-.117.483-.085,1.066-.355,1.3a2.356,2.356,0,0,1-1.549.623c-.795-.076-1.1-.774-1.1-1.565,0-.9-.151-1.941.986-2.221a2.069,2.069,0,0,1,1.585.467c.314.27.3.921.431,1.4" transform="translate(-104.876 -297.394)" fill="#030401"/><path d="M81.025,364.291a6.168,6.168,0,0,1,.616-1.564,1.358,1.358,0,0,1,2.037.031,2.839,2.839,0,0,1-.041,3.14,1.351,1.351,0,0,1-2.037-.064,6.277,6.277,0,0,1-.575-1.542" transform="translate(-65.361 -296.878)" fill="#030401"/><path d="M377.973,387.133a4.89,4.89,0,0,1,4.793,3.623,3.629,3.629,0,0,1,.105.858,1.386,1.386,0,0,1-1.272,1.533,1.439,1.439,0,0,1-1.6-1.219c-.3-1.3-.916-1.875-2.028-1.889-1.13-.015-1.767.578-2.084,1.939a1.415,1.415,0,0,1-1.634,1.159,1.37,1.37,0,0,1-1.241-1.472c-.077-2.38,2.3-4.547,4.958-4.532" transform="translate(-300.904 -316.924)" fill="#040101"/><path d="M369.814,364.522a3.1,3.1,0,0,1-.045.642,1.433,1.433,0,0,1-1.921,1.069c-1.025-.416-.941-1.321-.943-2.2a1.494,1.494,0,0,1,1.021-1.651c1.119-.366,1.888.418,1.889,2.14" transform="translate(-295.975 -296.887)" fill="#070202"/><path d="M418.866,364.828c.079.733-.093,1.55-.984,1.732-.486.1-1.467-.2-1.542-.494a6.3,6.3,0,0,1-.046-2.734c.06-.3.936-.621,1.423-.6.851.041,1.152.693,1.148,2.094" transform="translate(-335.714 -297.241)" fill="#070202"/></g></g></g></svg>