<svg xmlns="http://www.w3.org/2000/svg" xmlns:xlink="http://www.w3.org/1999/xlink" width="55" height="41" viewBox="0 0 55 41"><defs><clipPath id="a"><rect width="20.338" height="37.962" fill="none"/></clipPath></defs><g transform="translate(-1283 -2582)"><rect width="55" height="41" transform="translate(1283 2582)" fill="#fff"/><g transform="translate(1299 2584)"><g transform="translate(0 0)" clip-path="url(#a)"><path d="M.308,35.209h.14c.907,1.891,5.617,2.754,9.64,2.754s8.733-.863,9.64-2.754h.154V22.43a1.6,1.6,0,0,0,.456-1.077c0-.849-.774-1.549-2-2.088V1.371A1.373,1.373,0,0,0,16.965,0H11.582a1.372,1.372,0,0,0-1.37,1.371V17.943h-.042c-.442,0-.886.01-1.329.029L7.883,9.445a.6.6,0,0,0-.3-.465L5.443,4.271a.511.511,0,0,0-.5-.347.511.511,0,0,0-.412.449L3.491,9.432a.5.5,0,0,0-.1.115l-.011.018a.584.584,0,0,0-.084.394l.965,8.591C1.791,19.114,0,20.058,0,21.353a1.508,1.508,0,0,0,.295.874V34.7ZM18.337,20.377c.7.367.976.72.976.976s-.279.609-.976.976ZM11,1.371a.584.584,0,0,1,.583-.583h5.383a.584.584,0,0,1,.584.583V5.4H15.378a.316.316,0,0,0-.249.109.353.353,0,0,0-.083.232.327.327,0,0,0,.332.341h2.171V7.469H15.378a.316.316,0,0,0-.249.109.355.355,0,0,0-.083.232.325.325,0,0,0,.332.34h2.171V9.534H15.378a.315.315,0,0,0-.249.111.352.352,0,0,0-.083.23.326.326,0,0,0,.332.341h2.171V11.6H13.811a.316.316,0,0,0-.249.109.357.357,0,0,0-.083.232.325.325,0,0,0,.332.341h3.738v1.385H15.378a.316.316,0,0,0-.249.109.358.358,0,0,0-.083.232.326.326,0,0,0,.332.341h2.171v1.385H15.378a.316.316,0,0,0-.249.109.353.353,0,0,0-.083.232.326.326,0,0,0,.332.34h2.171V17.8H15.378a.316.316,0,0,0-.249.109.355.355,0,0,0-.083.232.326.326,0,0,0,.332.341h2.171v1.385H13.811a.314.314,0,0,0-.249.11.353.353,0,0,0-.083.231.325.325,0,0,0,.332.34h3.738V21.93H15.378a.314.314,0,0,0-.249.11.353.353,0,0,0-.083.231.325.325,0,0,0,.332.34h2.171v.081c-.188.053-.374.111-.561.168a9.509,9.509,0,0,1-1.548.383,1.564,1.564,0,0,0-.416.114A29.146,29.146,0,0,1,11,23.7Zm-.829,17.6h.042v4.767h-.042c-.23,0-.456-.005-.683-.01l-.531-4.732c.4-.016.8-.026,1.214-.026m0,5.794c3.589,0,6.9-.6,8.688-1.563L18.85,34.616c-.082.531-1.039,1.113-2.56,1.555a23.064,23.064,0,0,1-6.2.766,23.068,23.068,0,0,1-6.2-.766c-1.521-.442-2.478-1.024-2.561-1.556l0-11.509c1.731,1.008,5.177,1.656,8.848,1.656M4.912,7.33l.814-.091.726,1.6-1.894.213ZM7,10.114l1.52,13.543c-.549-.027-1.151-.071-1.873-.135a1.332,1.332,0,0,0-.312-.038c-.022,0-.046,0-.067,0l-.217-.021c-.094-.007-.189-.016-.276-.024L4.309,10.416ZM3.44,19.809c.294-.09.609-.17.934-.246l.412,3.672c-.478-.1-.931-.212-1.347-.339-1.781-.544-2.415-1.155-2.415-1.544s.634-1,2.415-1.544" transform="translate(0 0)" fill="#272525"/><path d="M15.758,4.473a1.133,1.133,0,1,0-.439-.09,1.12,1.12,0,0,0,.439.09m0-1.474a.343.343,0,1,1-.342.343A.343.343,0,0,1,15.758,3" transform="translate(-1.485 -0.224)" fill="#272525"/></g></g></g></svg>