<svg xmlns="http://www.w3.org/2000/svg" width="139" height="129" viewBox="0 0 139 129">
  <g id="Grupo_929832" data-name="Grupo 929832" transform="translate(-858 -3820)">
    <rect id="Rectángulo_340123" data-name="Rectángulo 340123" width="139" height="129" transform="translate(858 3820)" fill="none"/>
    <g id="Grupo_929829" data-name="Grupo 929829" transform="translate(869.067 3825.875)">
      <g id="Grupo_927921" data-name="Grupo 927921" transform="translate(5.933 6.126)">
        <path id="Trazado_641332" data-name="Trazado 641332" d="M65.431,93.511c-.133-.256-.429-.56-.37-.759.256-.871.616-1.712.963-2.629,10.309,3.576,20.365,3.071,30.081-1.9A36.243,36.243,0,0,0,112.529,71.33a37.251,37.251,0,1,0-68.5-3.2c-.9.34-1.8.71-2.729.994-.163.05-.435-.257-.657-.4A38.986,38.986,0,0,1,39.22,46.862C43.11,30.423,53.327,19.987,69.641,15.614c2.457-.659,5.037-.862,7.566-1.276V9.407c-13.3.843-24.477,5.967-33,16.139-10.5,12.524-13.2,26.886-9.124,42.65l-1.012.476-2.02.529c-5.1-14.9-2.021-38.19,16.855-52.733a49.076,49.076,0,0,1,71.186,65.6c-13.43,20.574-37.6,25.838-55.073,20.163q.23-.972.46-1.943l.509-1.147c14.609,3.875,28.031,1.531,40.532-7.365-1.078-1.015-2.054-1.832-2.9-2.766-.623-.685-1.062-.7-1.832-.181A40.079,40.079,0,0,1,78.9,95.822a41.863,41.863,0,0,1-13.47-2.311M109,89.476a45.547,45.547,0,0,0,11.67-52.92,45.717,45.717,0,0,0-39.924-27.1V14.5c17.282.951,30.807,11.672,36,25.8,6.469,17.594,2.072,32.8-11.122,45.753L109,89.476" transform="translate(-23.106 -6.126)" fill="#030303"/>
        <path id="Trazado_641333" data-name="Trazado 641333" d="M5.934,264.586q0-8.2,0-16.4c0-1.67.552-2.23,2.2-2.231q16.447,0,32.893,0c1.58,0,2.153.58,2.153,2.175q0,16.448,0,32.9c0,1.6-.573,2.179-2.151,2.179q-16.5,0-33,0c-1.509,0-2.1-.6-2.1-2.123q-.008-8.251,0-16.5m3.424,15.172H39.723V249.427H29.638c0,2.727.007,5.372,0,8.017-.006,1.45-.611,2.051-2.062,2.059-1.9.01-3.809,0-5.714,0-1.877,0-2.379-.5-2.381-2.378,0-2.565,0-5.13,0-7.726H9.358Zm13.57-23.7H26.19v-6.685H22.927Z" transform="translate(-5.933 -178.289)"/>
        <path id="Trazado_641334" data-name="Trazado 641334" d="M42.756,77.019l1.012-.476c-4.075-15.764-1.373-30.126,9.124-42.65,8.525-10.172,19.707-15.3,33-16.139v4.931c-2.529.415-5.109.618-7.566,1.276C62.014,28.334,51.8,38.77,47.907,55.209a38.986,38.986,0,0,0,1.423,21.859l-6.574-.049" transform="translate(-31.793 -14.473)" fill="#59b15f"/>
        <path id="Trazado_641335" data-name="Trazado 641335" d="M228.686,120.282h-3.345v-18.6c-.629,0-1.182.031-1.731-.006a1.641,1.641,0,0,1-1.337-2.659c2.239-2.9,4.542-5.756,6.866-8.589a1.555,1.555,0,0,1,2.5,0c2.326,2.833,4.628,5.686,6.866,8.588a1.641,1.641,0,0,1-1.335,2.661c-.523.036-1.051.006-1.658.006v18.6h-3.417c0-6.488.011-12.976-.028-19.464-.007-1.192.179-2.168,1.512-2.6l-3.192-3.977-3.195,4.007a1.976,1.976,0,0,1,1.516,2.146c-.024,6.629-.018,13.258-.021,19.888" transform="translate(-160.968 -66.19)" fill="#010101"/>
        <path id="Trazado_641336" data-name="Trazado 641336" d="M155.942,303a41.854,41.854,0,0,0,13.47,2.31,40.077,40.077,0,0,0,22.883-6.991c.769-.52,1.209-.5,1.832.181.848.934,1.825,1.752,2.9,2.766-12.5,8.9-25.923,11.239-40.532,7.365l-.509,1.147q-.023-3.389-.046-6.778" transform="translate(-113.617 -215.615)" fill="#59b05f"/>
        <rect id="Rectángulo_339259" data-name="Rectángulo 339259" width="43.938" height="3.266" transform="translate(33.889 57.57)"/>
        <path id="Trazado_641337" data-name="Trazado 641337" d="M189.338,159.125h-3.376v-3.26q0-4.921,0-9.841c0-1.515.594-2.1,2.114-2.106,2.045-.007,4.091-.015,6.137,0a1.672,1.672,0,0,1,1.9,1.786c.021,4.441.009,8.881.009,13.419h-3.374V147.362h-3.408Z" transform="translate(-135.166 -105.033)"/>
        <path id="Trazado_641338" data-name="Trazado 641338" d="M242.137,131.583c0-6.629,0-13.258.021-19.888a1.976,1.976,0,0,0-1.516-2.146l3.195-4.007,3.192,3.977c-1.333.433-1.519,1.408-1.512,2.6.038,6.488.024,12.976.028,19.464h-3.408" transform="translate(-174.419 -77.491)" fill="#59b25f"/>
        <path id="Trazado_641339" data-name="Trazado 641339" d="M141.331,176.345h-3.36c0-2.334-.053-4.65.027-6.962a1.512,1.512,0,0,1,1.65-1.463c2.257-.027,4.514-.034,6.771,0A1.632,1.632,0,0,1,148.1,169.7c.026,2.183.008,4.366.008,6.646h-3.374v-4.99h-3.408Z" transform="translate(-100.703 -122.253)" fill="#010101"/>
        <path id="Trazado_641340" data-name="Trazado 641340" d="M197.931,167.91V156.148h3.408V167.91h-3.408" transform="translate(-143.758 -113.819)" fill="#5ab260"/>
        <path id="Trazado_641341" data-name="Trazado 641341" d="M149.923,185.142v-4.99h3.408v4.99h-3.408" transform="translate(-109.296 -131.05)" fill="#5ab260"/>
        <path id="Trazado_641342" data-name="Trazado 641342" d="M238.474,97.952,235.1,94.533c13.194-12.951,17.591-28.159,11.122-45.753-5.195-14.129-18.719-24.85-36-25.8V17.934a45.717,45.717,0,0,1,39.924,27.1,45.547,45.547,0,0,1-11.67,52.92" transform="translate(-152.58 -14.602)" fill="#fbd958"/>
        <path id="Trazado_641343" data-name="Trazado 641343" d="M18.071,288.518V258.161H28.192c0,2.6,0,5.162,0,7.726,0,1.875.5,2.376,2.381,2.378,1.9,0,3.809.008,5.714,0,1.451-.008,2.056-.609,2.061-2.059.01-2.645,0-5.291,0-8.017H48.436v30.331Z" transform="translate(-14.646 -187.049)" fill="#f1b25f"/>
        <rect id="Rectángulo_339260" data-name="Rectángulo 339260" width="3.263" height="6.685" transform="translate(16.995 71.082)" fill="#f1dcc1"/>
      </g>
    </g>
  </g>
</svg>
