<svg xmlns="http://www.w3.org/2000/svg" width="113" height="113" viewBox="0 0 113 113"><rect width="113" height="113" fill="none"/><g transform="translate(9.698 8.816)"><g transform="translate(0 0)"><path d="M28.3,95.323l-1.2,1.335C14.909,85.525,9.551,71.994,12.725,55.819,15.894,39.668,25.955,29.138,41.41,23.45L38.67,21.92l-2.476-1.384c1.705-1.8,3.3-3.714,5.139-5.355,1.34-1.2,3.056-1.09,4.721-.415,3.893,1.577,7.808,3.1,11.692,4.7a1.065,1.065,0,0,0,1.409-.31c2.115-2.233,4.3-4.38,7.214-5.6a18.212,18.212,0,0,1,8.107-1.35,16.614,16.614,0,0,1-3.961,12.534c1.877,1,3.75,2.016,5.639,3a.735.735,0,0,0,.6-.117,113.008,113.008,0,0,1,16.624-9.5c.047-.022.066-.1.129-.21L87.3,14.783l1.423-2.824,10.542,5.274L93.991,27.788l-2.817-1.407,2.373-4.8a99.9,99.9,0,0,0-14.291,8.186L83.049,32.9a6.413,6.413,0,0,1,4.476-3.35A6.238,6.238,0,0,1,94.97,35.61c.031,5.49.008,10.98.009,16.47v.886h5.493c3.665,0,5.487,1.814,5.487,5.462q0,18.137,0,36.274c0,3.477-1.836,5.327-5.3,5.329-7.776,0-15.552-.008-23.328.02a3.543,3.543,0,0,0-1.64.442c-11.943,6.67-24.311,7.661-37.126,2.835-.152-.057-.3-.122-.449-.19a1,1,0,0,1-.16-.119l.544-1.452.638-1.3,5.562,1.8c.195-2.568.441-4.8-1.8-6.536-.738-.571-1.025-1.92-1.2-2.966a10.813,10.813,0,0,1,0-3.611,7.69,7.69,0,0,1,1.2-3,4.13,4.13,0,0,1,3.9-1.611,3.969,3.969,0,0,0,3.493-1.455c2-2.151,4.134-4.182,6.215-6.259a5.4,5.4,0,0,1,3.724-1.72c1.077-.033,2.156-.027,3.234,0a4.776,4.776,0,0,1,4.846,4.937c0,1.34-.07,2.684.015,4.019a4.772,4.772,0,0,1-4.564,5.183c-1.171.04-1.627.756-1.745,1.949a3.635,3.635,0,0,0,1.442,3.51,18.875,18.875,0,0,1,1.6,1.582,5.075,5.075,0,0,1,1.685,4.017,8.586,8.586,0,0,0,.093,1.055l5.576-2.388a13.469,13.469,0,0,1-.931-3.305c-.061-12.646-.045-25.292-.034-37.938A4.451,4.451,0,0,1,75.2,53.137c2-.223,4.034-.147,6.053-.2.374-.011.749-.034,1.082-.05a2.1,2.1,0,0,0,.08-.326c.006-5.1.019-10.2-.008-15.293a1.5,1.5,0,0,0-.481-.991c-1.641-1.438-3.307-2.849-5.008-4.215a1.09,1.09,0,0,0-.983.059c-.759.481-1.456,1.061-2.225,1.639-.509-.622-.959-1.176-1.414-1.726-.41-.5-.281-.867.222-1.209.336-.229.629-.521,1.148-.959-1.741-.818-3.275-1.586-4.853-2.244a1.763,1.763,0,0,0-1.3.169c-.553.286-.367.791-.168,1.283q2.364,5.85,4.691,11.714c.643,1.615.743,3.327-.423,4.636-1.636,1.836-3.541,3.431-5.378,5.174L58.431,36.57a10.679,10.679,0,0,1-.776,1.028c-2.811,2.826-5.618,5.657-8.47,8.442a2.435,2.435,0,0,1-1.435.592c-1.213.084-2.436.027-3.782.027.64,1.607,1.2,3.029,1.773,4.442.906,2.216.913,2.213-.793,3.921l-5.4,5.4c-.182-.368-.327-.616-.433-.881-.955-2.392-1.943-4.772-2.835-7.187a2.861,2.861,0,0,0-1.9-1.855c-2.681-.987-5.312-2.11-8.073-3.223.284-.314.487-.557.709-.78a49.057,49.057,0,0,0,4.186-4.261c1.469-1.892,2.933-2.241,5-1.013a26.163,26.163,0,0,0,3.873,1.547c0-1.294.045-2.4-.015-3.508a2.262,2.262,0,0,1,.763-1.89c2.822-2.769,5.6-5.579,8.4-8.377.239-.24.454-.5.729-.808a12.914,12.914,0,0,1-1.655-.923,5.264,5.264,0,0,0-5.9-.709,4.361,4.361,0,0,1-.465.152A38.94,38.94,0,0,0,22.8,40.527c-1.231,1.66-2.277,3.457-3.428,5.223.921.89,1.689,1.6,2.419,2.346,1.073,1.1,2.193,2.157,3.157,3.343a4.434,4.434,0,0,1,.542,4.965,4.546,4.546,0,0,1-4.246,2.8c-1.339.032-2.679.009-4.019.01-1.835,0-1.834,0-2.077,1.832a3.231,3.231,0,0,0-.083.381c-.006,1.324,0,2.648,0,4.06,1.908,0,3.732-.028,5.555.011a3.44,3.44,0,0,0,2.482-.926c2.877-2.527,5.813-2.57,8.711-.152.6.5,1.113,1.1,1.679,1.646,2.714,2.6,2.494,7.855-.176,10.047-1.131.929-2.092,2.064-3.134,3.1a3.491,3.491,0,0,0-1.09,2.525,6.015,6.015,0,0,1-4.729,5.654c-.424.084-.862.1-1.293.14l-.162.291,6.087,6.4-.693,1.1M85.6,37.968V52.84h6.206V47.962c.01-4.1.051-8.21.017-12.314a3.123,3.123,0,0,0-6.245-.024c-.035.779.012,1.562.022,2.344M63.618,28.4a1.317,1.317,0,0,1,.451-1.678c1.342-1.289,2.659-2.608,3.925-3.972a12.717,12.717,0,0,0,3.325-7.307,12.285,12.285,0,0,0-6.509,2.693c-1.687,1.436-3.253,3.02-4.8,4.608a1.294,1.294,0,0,1-1.681.343C53.866,21.263,49.4,19.463,44.9,17.722a2.386,2.386,0,0,0-1.813.066,12.763,12.763,0,0,0-2.063,1.843l14.356,7.986a8.252,8.252,0,0,0-.972.706q-5.311,5.29-10.6,10.6c-.239.24-.55.553-.566.846-.063,1.23-.027,2.466-.027,3.78,1.087,0,2.093-.047,3.092.016a2.049,2.049,0,0,0,1.706-.726q5.2-5.257,10.453-10.471c.241-.241.5-.465.812-.756l7.86,14.135c.576-.609,1.049-1.141,1.556-1.638a1.734,1.734,0,0,0,.421-2.131C68.684,41,68.286,40,67.871,39.007L63.618,28.4M98.093,56.15c-.293-.015-.585-.043-.878-.043q-10.191,0-20.383,0c-1.784,0-2.244.47-2.244,2.279q0,18.133,0,36.266c0,.229-.012.458,0,.686a1.49,1.49,0,0,0,1.563,1.537c2.023.016,4.047-.03,6.071-.051.258.023.517.064.775.064q8.862.006,17.723,0c1.608,0,2.093-.493,2.094-2.1q0-8.325,0-16.649,0-9.99,0-19.979c0-1.47-.544-2.035-1.988-2.048-.912-.008-1.825.028-2.738.045m-50.17,46.53a39.68,39.68,0,0,0,15.583-.629c.388-1.9.046-3.455-1.542-4.583-.289-.205-.493-.526-.77-.751a6.255,6.255,0,0,1-2.324-5.526c.132-3.156,1.586-4.908,4.721-5.285a1.555,1.555,0,0,0,1.58-1.732q.029-2.156,0-4.313a1.6,1.6,0,0,0-1.747-1.786,15.318,15.318,0,0,0-2.739.025,3.646,3.646,0,0,0-1.888.786c-1.884,1.761-3.753,3.553-5.478,5.468-1.862,2.068-3.872,3.6-6.852,3.131a.371.371,0,0,0-.1,0,1.589,1.589,0,0,0-1.578,1.658c-.025.62.059,1.249-.019,1.86a3.723,3.723,0,0,0,1.469,3.6,4.8,4.8,0,0,1,1.69,4.1c-.046,1.3-.009,2.6-.009,3.973m-32.6-34.026c.047.508.062.865.116,1.215a39.8,39.8,0,0,0,4.115,12.482c1.078,2.061,1.074,2.063,3.4,1.989a2.838,2.838,0,0,0,3.005-2.921,6.152,6.152,0,0,1,1.874-4.281c1.114-1.1,2.146-2.3,3.341-3.309,1.407-1.186,1.48-4.473-.048-5.647a17.83,17.83,0,0,1-1.4-1.374,2.848,2.848,0,0,0-4.341-.037,6.4,6.4,0,0,1-4.864,1.892c-1.693-.043-3.387-.009-5.205-.009m25.3-13.841c.677-.652,1.3-1.181,1.826-1.8a1.19,1.19,0,0,0,.2-.989c-.628-1.744-1.312-3.469-2.015-5.184A1.311,1.311,0,0,0,40,46.188c-1.77-.742-3.555-1.448-5.346-2.141a.819.819,0,0,0-.684.032c-.716.6-1.387,1.259-2.193,2.007,1.955.779,3.66,1.485,5.386,2.132a2.075,2.075,0,0,1,1.377,1.349c.623,1.74,1.357,3.44,2.081,5.245M17.911,48.786l-2.241,7.3c2,0,3.768.081,5.518-.05a1.715,1.715,0,0,0,1.141-2.827c-1.324-1.477-2.794-2.824-4.418-4.425" transform="translate(-11.828 -11.959)" fill="#020202"/><path d="M37.4,134.78l.693-1.1-6.087-6.4.162-.291c.432-.045.87-.056,1.294-.14a6.015,6.015,0,0,0,4.728-5.654,3.493,3.493,0,0,1,1.09-2.525c1.043-1.037,2-2.172,3.134-3.1,2.67-2.193,2.89-7.443.176-10.047-.566-.543-1.079-1.145-1.679-1.646-2.9-2.418-5.834-2.375-8.711.152a3.439,3.439,0,0,1-2.482.926c-1.823-.039-3.648-.011-5.555-.011,0-1.412,0-2.736,0-4.06a3.285,3.285,0,0,1,.083-.381c.244-1.832.243-1.832,2.078-1.832,1.34,0,2.68.022,4.018-.01a4.546,4.546,0,0,0,4.246-2.8,4.434,4.434,0,0,0-.541-4.965c-.964-1.186-2.085-2.247-3.157-3.343-.731-.746-1.5-1.456-2.419-2.346,1.151-1.765,2.2-3.563,3.428-5.223a38.939,38.939,0,0,1,19.129-13.82,4.36,4.36,0,0,0,.465-.152,5.264,5.264,0,0,1,5.905.709,12.9,12.9,0,0,0,1.655.923c-.275.306-.49.569-.729.808-2.792,2.8-5.574,5.609-8.4,8.377a2.263,2.263,0,0,0-.763,1.89c.06,1.1.015,2.214.015,3.507a26.157,26.157,0,0,1-3.873-1.547c-2.063-1.228-3.527-.878-5,1.013a49.09,49.09,0,0,1-4.186,4.261c-.222.223-.425.466-.709.78,2.76,1.113,5.392,2.236,8.073,3.223a2.862,2.862,0,0,1,1.9,1.855c.892,2.415,1.879,4.8,2.835,7.187.106.264.251.513.433.881l5.4-5.4c1.706-1.707,1.7-1.7.793-3.921-.578-1.413-1.133-2.835-1.773-4.442,1.346,0,2.569.056,3.782-.027A2.434,2.434,0,0,0,58.29,85.5c2.852-2.785,5.659-5.616,8.47-8.442a10.673,10.673,0,0,0,.777-1.028l7.806,14.022c1.837-1.743,3.742-3.338,5.378-5.174,1.167-1.309,1.066-3.021.423-4.636q-2.333-5.862-4.691-11.714c-.2-.492-.385-1,.168-1.283a1.763,1.763,0,0,1,1.3-.169c1.579.658,3.112,1.426,4.853,2.244-.519.439-.812.73-1.148.959-.5.343-.631.714-.221,1.209.455.549.9,1.1,1.414,1.726.769-.577,1.465-1.157,2.225-1.639a1.091,1.091,0,0,1,.983-.059c1.7,1.366,3.367,2.777,5.008,4.215a1.5,1.5,0,0,1,.481.991c.026,5.1.014,10.2.008,15.293a2.09,2.09,0,0,1-.08.327c-.333.016-.707.039-1.082.05-2.019.058-4.053-.018-6.053.2a4.451,4.451,0,0,0-3.745,4.386c-.012,12.646-.028,25.292.034,37.938a13.468,13.468,0,0,0,.931,3.305l-5.576,2.388a8.6,8.6,0,0,1-.094-1.055,5.075,5.075,0,0,0-1.685-4.017,18.872,18.872,0,0,0-1.6-1.582,3.636,3.636,0,0,1-1.442-3.51c.118-1.193.573-1.909,1.745-1.949a4.772,4.772,0,0,0,4.564-5.183c-.086-1.334-.012-2.679-.015-4.019a4.777,4.777,0,0,0-4.846-4.937c-1.078-.024-2.157-.03-3.234,0a5.4,5.4,0,0,0-3.724,1.72c-2.082,2.077-4.213,4.108-6.215,6.259a3.969,3.969,0,0,1-3.493,1.455,4.13,4.13,0,0,0-3.9,1.611,7.69,7.69,0,0,0-1.2,3,10.82,10.82,0,0,0,0,3.611c.179,1.047.466,2.4,1.2,2.966,2.24,1.733,1.993,3.968,1.8,6.536l-5.563-1.8-.638,1.3-3.686-1.745a2.023,2.023,0,0,1-.007-.488c1.045-4.491,1.915-9.033,3.191-13.458a97.34,97.34,0,0,1,8.459-20.057A103.261,103.261,0,0,1,66.111,89.66c.965-1.177,1.946-2.34,2.986-3.591l-2.313-2.023c-1.69,2.059-3.36,3.975-4.9,5.989a107.69,107.69,0,0,0-19.359,40.431c-.565,2.324-1.04,4.67-1.556,7.005L37.4,134.78M71.133,97.1c-.947,0-1.894-.008-2.842,0a3.257,3.257,0,0,0-3.442,3.343,2.034,2.034,0,0,1-.5,1.183c-.973,1.056-2.019,2.044-3.03,3.066a4.243,4.243,0,0,0-.928,4.538,2.954,2.954,0,0,0,2.765,1.982c1.176.018,2.357-.065,3.526.024a3.653,3.653,0,0,0,3.435-1.457,4.193,4.193,0,0,1,4.041-1.74,2.971,2.971,0,0,0,3.259-3.209c.012-1.47.009-2.94,0-4.41A3.207,3.207,0,0,0,74.17,97.1c-1.012-.025-2.025,0-3.038,0" transform="translate(-20.933 -51.416)" fill="#1f3755"/><path d="M84.967,189.985c.516-2.336.991-4.682,1.556-7.005a107.684,107.684,0,0,1,19.358-40.431c1.542-2.014,3.211-3.93,4.9-5.989l2.313,2.023c-1.041,1.25-2.022,2.414-2.986,3.591A103.263,103.263,0,0,0,99.559,157.79,97.344,97.344,0,0,0,91.1,177.847c-1.276,4.425-2.146,8.967-3.191,13.458a2.022,2.022,0,0,0,.006.488l-1.029,6.715-3.113-.449,1.194-8.074" transform="translate(-64.932 -103.929)" fill="#010101"/><rect width="4.584" height="3.088" transform="translate(65.947 91.218)" fill="#030303"/><rect width="4.602" height="3.041" transform="translate(84.745 91.258)" fill="#030303"/><path d="M259.112,221.248c-2.024.021-4.048.068-6.071.051a1.49,1.49,0,0,1-1.562-1.537c-.017-.228-.005-.457-.005-.686q0-18.133,0-36.266c0-1.809.46-2.278,2.244-2.279q10.191,0,20.383,0c.293,0,.585.028.878.043l0,3.115h-3.117v1.023c0,3.33.006,6.66,0,9.99-.009,3.689-.031,7.377-.047,11.066-.227.3-.479.578-.677.894q-1.983,3.176-3.947,6.364c-.011-.391-.031-.783-.031-1.174q0-13.529,0-27.057V183.75h-3.137v1.145q0,15.146,0,30.292c0,.587-.025,1.175-.038,1.762-1.024.877-2.055,1.744-3.069,2.633-.615.539-1.2,1.11-1.8,1.666m-2.884-3.126h3.018v-34.4h-3.018Z" transform="translate(-188.713 -136.386)" fill="#a7b2b9"/><path d="M150.165,48.833c.414.992.813,1.991,1.248,2.974a1.734,1.734,0,0,1-.421,2.132c-.507.5-.98,1.029-1.556,1.638l-7.86-14.135c-.313.291-.571.515-.812.756q-5.233,5.229-10.453,10.471a2.048,2.048,0,0,1-1.706.726c-1-.062-2.006-.015-3.093-.015,0-1.314-.037-2.55.027-3.78.015-.293.327-.605.566-.846q5.287-5.314,10.6-10.6a8.251,8.251,0,0,1,.972-.706l-14.356-7.987a12.777,12.777,0,0,1,2.064-1.843,2.386,2.386,0,0,1,1.813-.066c4.494,1.741,8.965,3.541,13.425,5.367a1.3,1.3,0,0,0,1.681-.343c1.549-1.588,3.115-3.172,4.8-4.608a12.287,12.287,0,0,1,6.509-2.693,12.718,12.718,0,0,1-3.325,7.307c-1.266,1.364-2.583,2.682-3.925,3.972a1.318,1.318,0,0,0-.451,1.678,4.206,4.206,0,0,0,.494,3.52c1.019,2.143,2.1,4.254,3.181,6.368a4.366,4.366,0,0,0,.578.717" transform="translate(-94.121 -21.785)" fill="#cdd2d5"/><path d="M140.67,288.894c0-1.371-.037-2.674.009-3.973a4.8,4.8,0,0,0-1.69-4.1,3.723,3.723,0,0,1-1.469-3.6c.078-.611-.006-1.241.019-1.86a1.589,1.589,0,0,1,1.578-1.658.384.384,0,0,1,.1,0c2.98.474,4.989-1.063,6.852-3.131,1.725-1.915,3.593-3.707,5.478-5.468a3.648,3.648,0,0,1,1.888-.786,15.318,15.318,0,0,1,2.739-.025,1.6,1.6,0,0,1,1.747,1.786q.028,2.156,0,4.313a1.555,1.555,0,0,1-1.58,1.732c-3.135.377-4.589,2.129-4.721,5.285a6.255,6.255,0,0,0,2.324,5.526c.278.225.482.546.77.751,1.587,1.127,1.93,2.681,1.542,4.583a39.675,39.675,0,0,1-15.583.629" transform="translate(-104.575 -198.173)" fill="#a6b1b8"/><path d="M280.654,221.248c.6-.556,1.185-1.128,1.8-1.666,1.013-.889,2.045-1.756,3.069-2.633.029.379.058.758.09,1.17h3.12v-5.09q1.972-3.183,3.947-6.364c.2-.316.45-.6.676-.894v12.342h3.137c.02-.187.045-.313.045-.439q-.006-16.991-.016-33.981,0-1.558,0-3.115c.912-.016,1.825-.053,2.738-.045,1.443.013,1.987.578,1.988,2.048q.005,9.99,0,19.979,0,8.325,0,16.65c0,1.612-.486,2.1-2.094,2.1q-8.862.006-17.723,0c-.258,0-.517-.042-.775-.064" transform="translate(-210.255 -136.385)" fill="#858e94"/><path d="M25.156,220.37c1.818,0,3.513-.034,5.205.009a6.4,6.4,0,0,0,4.864-1.892,2.848,2.848,0,0,1,4.341.037,17.788,17.788,0,0,0,1.4,1.374c1.528,1.174,1.455,4.462.048,5.647-1.194,1.007-2.227,2.2-3.341,3.309a6.15,6.15,0,0,0-1.874,4.281,2.838,2.838,0,0,1-3.005,2.921c-2.329.074-2.325.072-3.4-1.989a39.8,39.8,0,0,1-4.115-12.482c-.054-.35-.069-.707-.116-1.215" transform="translate(-21.666 -163.675)" fill="#a6b1b8"/><path d="M299.742,121.269v4.879h-6.206V111.275c.175.189.361.37.523.569a45.436,45.436,0,0,1,5.683,9.425" transform="translate(-219.763 -85.266)" fill="#203956"/><path d="M96.857,145.095c-.725-1.805-1.458-3.5-2.081-5.245A2.074,2.074,0,0,0,93.4,138.5c-1.726-.647-3.431-1.353-5.386-2.132.805-.747,1.477-1.4,2.193-2.007a.819.819,0,0,1,.684-.032c1.79.692,3.575,1.4,5.345,2.141a1.309,1.309,0,0,1,.632.654c.7,1.716,1.387,3.441,2.015,5.184a1.19,1.19,0,0,1-.2.989c-.524.615-1.149,1.145-1.826,1.8" transform="translate(-68.062 -102.241)" fill="#cacfd2"/><path d="M28.743,152.587c1.624,1.6,3.094,2.948,4.418,4.425a1.715,1.715,0,0,1-1.141,2.828c-1.749.131-3.515.05-5.518.05l2.241-7.3" transform="translate(-22.659 -115.76)" fill="#a5b0b7"/><path d="M213.229,85.354a4.366,4.366,0,0,1-.578-.717c-1.077-2.115-2.162-4.226-3.181-6.368a4.206,4.206,0,0,1-.494-3.52l4.253,10.605" transform="translate(-157.186 -58.305)" fill="#a2a6a9"/><path d="M172.474,186.374c1.013,0,2.026-.02,3.038,0a3.207,3.207,0,0,1,3.248,3.318c.008,1.47.011,2.94,0,4.41a2.97,2.97,0,0,1-3.258,3.209,4.193,4.193,0,0,0-4.041,1.74,3.653,3.653,0,0,1-3.435,1.457c-1.169-.089-2.35-.007-3.526-.024a2.955,2.955,0,0,1-2.765-1.982,4.243,4.243,0,0,1,.928-4.539c1.011-1.022,2.057-2.01,3.03-3.066a2.034,2.034,0,0,0,.5-1.183,3.257,3.257,0,0,1,3.442-3.343c.947-.009,1.894,0,2.841,0m-8.105,11.017a14.341,14.341,0,0,1,1.83.011,4.15,4.15,0,0,0,4.295-1.767,3.557,3.557,0,0,1,3.274-1.387c.6.036,1.207.006,1.785.006v-4.637h-6.239a4.1,4.1,0,0,1-1.685,3.895c-.868.787-1.694,1.626-2.486,2.489a7.665,7.665,0,0,0-.774,1.391" transform="translate(-122.275 -140.693)" fill="#010102"/><rect width="3.018" height="34.397" transform="translate(67.515 47.339)"/><path d="M302.455,222.1v5.09h-3.12c-.032-.411-.061-.79-.09-1.169.013-.587.038-1.175.038-1.762q0-15.146,0-30.292v-1.145h3.137v1.047q0,13.529,0,27.057c0,.391.02.783.031,1.174" transform="translate(-223.977 -145.458)"/><path d="M332.325,192.6q.009,16.991.016,33.981c0,.126-.025.251-.045.439h-3.137V214.678c.016-3.689.038-7.377.047-11.066.008-3.33,0-6.66,0-9.99V192.6Z" transform="translate(-246.057 -145.294)"/><path d="M172.567,206.551a7.663,7.663,0,0,1,.774-1.391c.793-.863,1.618-1.7,2.486-2.489a4.1,4.1,0,0,0,1.685-3.895h6.239v4.637c-.578,0-1.184.03-1.785-.006a3.557,3.557,0,0,0-3.274,1.387,4.15,4.15,0,0,1-4.295,1.767,14.344,14.344,0,0,0-1.83-.011" transform="translate(-130.473 -149.853)" fill="#cbd0d3"/></g></g></svg>