<svg xmlns="http://www.w3.org/2000/svg" xmlns:xlink="http://www.w3.org/1999/xlink" width="55" height="41" viewBox="0 0 55 41"><defs><clipPath id="a"><rect width="43.106" height="28.6" fill="none"/></clipPath></defs><g transform="translate(-1097 -2584)"><rect width="55" height="41" transform="translate(1097 2584)" fill="#fff"/><g transform="translate(1103 2590)"><g transform="translate(0 0)" clip-path="url(#a)"><path d="M12.48,26.235a.747.747,0,0,0,.747.757l16.518,0a.748.748,0,0,0,.745-.722,15.67,15.67,0,0,0-.191-2.608l12.06,0a.743.743,0,0,0,.744-.721c.009-.256.164-6.306-3.629-9.78a.747.747,0,0,0-.959-.042c-.044.034-4.455,3.347-8.56,0a.748.748,0,0,0-.961.016,11.157,11.157,0,0,0-2.341,3.223.745.745,0,0,0-.75.09c-.182.137-4.478,3.331-8.565,0a.741.741,0,0,0-.695-.13,9.959,9.959,0,0,0-2.265-3.165.745.745,0,0,0-.958-.042c-.045.034-4.455,3.347-8.561,0a.748.748,0,0,0-.961.016A13.5,13.5,0,0,0,0,22.9a.747.747,0,0,0,.747.757l11.985,0a15.948,15.948,0,0,0-.251,2.579M29.559,14.687c3.9,2.723,7.886.831,9.314-.029,2.218,2.382,2.644,5.982,2.724,7.507H30a12.093,12.093,0,0,0-2.218-4.689,11.484,11.484,0,0,1,1.776-2.789M16.945,18.02c3.9,2.722,7.884.831,9.313-.029,2.219,2.382,2.644,5.982,2.724,7.506L14,25.5a12.562,12.562,0,0,1,2.942-7.479M1.522,22.167a12.557,12.557,0,0,1,2.941-7.48c3.9,2.723,7.887.831,9.314-.029a9.058,9.058,0,0,1,1.712,2.767,13.462,13.462,0,0,0-2.418,4.74Z" transform="translate(0 1.609)" fill="#272525"/><path d="M1.728,7.065a7.07,7.07,0,0,0,7.063,7.059h0a7.008,7.008,0,0,0,4.991-2.071,7.351,7.351,0,0,0,.516-.58,7.07,7.07,0,0,0,6.973,5.984h0a7.059,7.059,0,0,0,6.993-6.136,7.05,7.05,0,0,0,5.62,2.8h0A7.062,7.062,0,1,0,33.885,0a7.058,7.058,0,0,0-6.994,6.137,7.043,7.043,0,0,0-10.614-.732,7.4,7.4,0,0,0-.516.58A7.058,7.058,0,0,0,1.728,7.065M29.947,3.127a5.568,5.568,0,1,1,3.941,9.506h0a5.567,5.567,0,0,1-3.938-9.506M17.334,6.46a5.566,5.566,0,1,1,3.938,9.506h0A5.566,5.566,0,0,1,17.334,6.46M8.791,1.492a5.57,5.57,0,0,1,0,11.14h0a5.57,5.57,0,0,1,0-11.14" transform="translate(0.215 0)" fill="#272525"/></g></g></g></svg>