<svg xmlns="http://www.w3.org/2000/svg" width="113" height="113" viewBox="0 0 113 113"><g transform="translate(-0.283)"><rect width="113" height="113" transform="translate(0.283)" fill="none"/><g transform="translate(8.816 8.816)"><g transform="translate(0 0)"><path d="M51.748,96.789c-.307-.278-.569-.667-.929-.816A15.222,15.222,0,1,1,61.941,96c-.353.148-.605.535-.9.811l.182.235c4.765,0,9.53.03,14.294-.021A2.305,2.305,0,0,1,77.9,98.462q11.1,22.3,22.256,44.567a6.683,6.683,0,0,1,.355.778,1.5,1.5,0,0,1-1.247,2.032,5.459,5.459,0,0,1-.762.017H8.223a6.331,6.331,0,0,1-.762-.014,1.5,1.5,0,0,1-1.272-2.084,7.85,7.85,0,0,1,.362-.774q11.108-22.23,22.2-44.467a2.369,2.369,0,0,1,2.447-1.5c6.45.052,12.9.024,19.352.024h1.026l.17-.256M26.613,116.9l7.626,7.609c.5.526.989,1.059,1.5,1.577,1.131,1.155,1.13,1.8-.023,2.96L29.1,135.708,22.136,142.8c1.491,0,2.909.014,4.326-.015a1.073,1.073,0,0,0,.639-.33c1.462-1.452,2.908-2.922,4.358-4.385l6.67-6.623c1.161-1.152,1.8-1.153,2.959-.008l6.881,6.812q2.1,2.134,4.212,4.264a.817.817,0,0,0,.475.27c1.466.02,2.933.012,4.322.012l-4.359-4.573c-.522-.549-1.039-1.1-1.568-1.647-1.046-1.073-1.043-1.74.029-2.825.223-.226.449-.448.672-.673l8.494-8.574c.729-.7,1.5-1.372,2.175-2.122a2.782,2.782,0,0,1,2.262-.951c6.7.031,13.4.016,20.1.016H85.94c-.451-.911-.8-1.727-1.256-2.472a1.306,1.306,0,0,0-.931-.552q-10.764-.047-21.528-.01a1.434,1.434,0,0,0-.924.327c-1.92,1.894-3.808,3.821-5.705,5.738l-6.877,6.808c-1.156,1.145-1.8,1.145-2.959,0l-6.876-6.81-1.643-1.706c-.926-.959-.935-1.676-.018-2.62,1.058-1.089,2.124-2.169,3.186-3.253,1.664-1.644,3.335-3.281,4.983-4.942a1.158,1.158,0,0,0,.306-.738c.011-3.2-.006-6.392-.016-9.588v-1.468H42.694v1.468c-.01,2.287-.064,4.575-.009,6.86a3.045,3.045,0,0,1-1.027,2.427c-2,1.952-3.934,3.964-5.894,5.952q-.52.48-1.041.96a1.547,1.547,0,0,1-2.419,0q-.521-.48-1.04-.962L25.7,111.555c-1.678,3.027-1.678,3.027.83,5.3a.363.363,0,0,0,.085.044m16.848,21.317-3.829-3.608-3.863,3.608-4.307,4.544H47.773l-4.312-4.544m-.065-13.7,3.845,3.611,3.846-3.61,7.625-7.618c1.065-1.416,2.511-1.635,4.193-1.583,3.292.1,6.59.012,9.885,0h10a1.4,1.4,0,0,0-.064-.308c-2.4-4.819-4.8-9.641-7.242-14.443a1.165,1.165,0,0,0-.889-.451c-4.569-.028-9.139-.02-13.708-.016a3.754,3.754,0,0,0-.48.063l-.276,1.425c-.724,3.05-1.464,6.1-2.163,9.152-.2.867-.582,1.481-1.527,1.546-.825.057-1.348-.461-1.608-1.549q-1.094-4.573-2.175-9.149l-.293-1.434H48.8v1.471c-.01,3.424.014,6.849-.063,10.272a3.037,3.037,0,0,1-.722,1.746c-.963,1.129-2.052,2.15-3.09,3.215l-4.354,4.547,2.83,3.109m-3.815-22.89V100.1c-2.257,0-4.433.093-6.6-.035-1.291-.076-2.022.316-2.3,1.559l-3.359,6.609,6.34,6.347c1.854-1.86,3.781-3.782,5.687-5.724a1.042,1.042,0,0,0,.247-.669c.008-2.186-.009-4.372-.019-6.559M28.951,131.4l3.662-3.888L30.3,125.043l-7.652-7.433L10.054,142.8c1.842,0,3.506-.129,5.141.035a4.688,4.688,0,0,0,4.194-1.746c3.113-3.3,6.365-6.472,9.561-9.694m31.985,6.825c.024-.493.049-.987.076-1.52,1.025,0,1.976-.035,2.922.013a1.057,1.057,0,0,0,1.1-.654c1.662-2.957,3.356-5.9,5.045-8.838.879-1.531,2.236-1.539,3.115-.022.7,1.2,1.388,2.407,2.154,3.736.89-.926,1.691-1.783,2.518-2.613,1.138-1.142,2.03-1.049,2.934.3,1.659,2.477,3.323,4.952,4.95,7.451a1.251,1.251,0,0,0,1.23.642c1.9-.037,3.81-.012,5.716-.017.26,0,.519-.036.851-.061-1.978-3.953-3.891-7.812-5.861-11.642a1.377,1.377,0,0,0-1.056-.475q-10.574-.042-21.149,0a2.185,2.185,0,0,0-1.382.568c-3.2,3.135-6.352,6.312-9.516,9.48-.193.194-.364.41-.43.484l2.969,3.194c1.289,1.311,2.594,2.607,3.856,3.943a1.856,1.856,0,0,0,1.49.621q16.571-.027,33.141-.013h1.011c-.409-.822-.8-1.478-1.065-2.181a1.265,1.265,0,0,0-1.434-.886q-16,.04-32,.018H60.936v-1.532M62.5,71.3a10.438,10.438,0,0,0-5.467-1.683A12.137,12.137,0,0,0,44.413,83.948a11.38,11.38,0,0,0,6.641,8.71,14.191,14.191,0,0,0,1.719.749,2.034,2.034,0,0,1,1.565,1.7c.464,2.2.994,4.385,1.507,6.574.143.611.318,1.215.478,1.822.832-2.807,1.508-5.573,2.112-8.355A2.12,2.12,0,0,1,60.063,93.4a11.846,11.846,0,0,0,5.986-4.179c4.5-5.8,2.747-14.666-3.551-17.923M75.089,136.66l-3.446-6.02-3.437,6.02ZM79,131.426c-.664.7-1.224,1.254-1.744,1.847-.138.157-.274.487-.2.63.447.871.944,1.716,1.453,2.553a.63.63,0,0,0,.461.235c1.127.02,2.254.011,3.549.011L79,131.426" transform="translate(-6.057 -51.282)" fill="#020202"/><path d="M18.167,28.082v-3.05H11.882c-1.4,0-2.8.02-4.193-.006a1.523,1.523,0,0,1-1.339-2.5c.662-1.044,1.4-2.044,2.032-3.1a1.128,1.128,0,0,0,.005-.97c-.6-1.007-1.274-1.969-1.935-2.939a1.65,1.65,0,0,1-.271-1.858,1.7,1.7,0,0,1,1.688-.829c3.4.012,6.8.005,10.326.005,0-1.366,0-2.717,0-4.067,0-1.553.487-2.031,2.056-2.033,1.747,0,3.495-.007,5.242,0,1.3.007,1.844.549,1.852,1.855.009,1.389,0,2.779,0,4.244,2.416,0,4.758.033,7.1-.016a2.2,2.2,0,0,1,2.113,1.149c.821,1.318,1.7,2.6,2.584,3.879a1.743,1.743,0,0,1-.01,2.195q-1.378,2-2.693,4.036a1.96,1.96,0,0,1-1.823.97c-2.38-.028-4.761-.01-7.206-.01v3.05H28.47c3.05,0,6.1.008,9.149-.005a1.722,1.722,0,0,1,1.761.864,1.7,1.7,0,0,1-.312,1.857c-.641.945-1.3,1.877-1.879,2.862a1.23,1.23,0,0,0,0,1.047c.574.984,1.235,1.919,1.88,2.861.418.61.781,1.324.239,1.912a2.613,2.613,0,0,1-1.687.771c-3.391.071-6.785.035-10.273.035v.975q0,6.147,0,12.294c0,1.482-.511,1.981-2.013,1.984-1.779,0-3.558.009-5.337,0-1.239-.008-1.8-.565-1.8-1.811-.008-4.443,0-8.887,0-13.44-2.155,0-4.277-.1-6.385.032a3.056,3.056,0,0,1-3.234-1.757,37.857,37.857,0,0,0-2.2-3.333,1.633,1.633,0,0,1-.04-2.027c.961-1.417,1.844-2.893,2.889-4.245a2.459,2.459,0,0,1,1.651-.836c2.4-.091,4.815-.039,7.289-.039m4.6-3.019H21.3v2.988h2.933V25.063Zm0-15.253H21.3V12.8h2.933V9.81ZM21.278,49.431v2.988h2.959v-12.1H21.278ZM11.457,20.449,10.373,21.98h1.244c6.817,0,13.634-.049,20.449.038A3.105,3.105,0,0,0,35.318,20.3c.95-1.768.922-.977.024-2.7a2.8,2.8,0,0,0-3.426-1.683Q21.292,15.9,10.668,15.9c-.043,0-.086.066-.18.143.447.677.9,1.36,1.348,2.042.6.907.016,1.621-.379,2.367M34.088,35.7a2.281,2.281,0,0,1,.192-3.245,11.482,11.482,0,0,0,.846-1.293h-21.5a13.377,13.377,0,0,1-1.424-.04,1.233,1.233,0,0,0-1.3.706c-1.563,2.369-1.559,2.348.021,4.745a1.361,1.361,0,0,0,1.317.672q11.033-.029,22.067-.012h.881l-1.1-1.532" transform="translate(-5.995 -6.724)" fill="#010101"/><path d="M162.636,101.7A11.38,11.38,0,0,1,156,92.989a12.137,12.137,0,0,1,12.619-14.336,10.439,10.439,0,0,1,5.467,1.683q-.1,1.724-.209,3.448a9.173,9.173,0,0,0-5.836-2.08v2.988c3.73.492,5.772,2.575,6.052,6.118l-.231,2.518c-.134.054-.319.069-.394.168-.569.747-1.115,1.51-1.73,2.351.438.592.922,1.291,1.465,1.939.109.13.446.07.678.1.067.581.182,1.161.191,1.742.022,1.382-.5,1.883-1.881,1.884-2.854,0-5.709,0-8.562.009a5.632,5.632,0,0,0-.988.179" transform="translate(-117.64 -60.324)" fill="#7add44"/><path d="M186.439,217.953c-3.3.01-6.593.1-9.885,0-1.682-.051-3.128.167-4.193,1.583l-13.791-.039c1.038-1.064,2.127-2.085,3.09-3.215a3.039,3.039,0,0,0,.722-1.746c.077-3.423.053-6.848.063-10.272l3.858-.037q1.087,4.575,2.175,9.149c.26,1.088.784,1.606,1.608,1.549.945-.065,1.329-.679,1.527-1.546.7-3.056,1.438-6.1,2.163-9.152l9.71.032a3.03,3.03,0,0,1,3.331,3.293c.005,2.888.022,5.776-.016,8.664a9.03,9.03,0,0,1-.363,1.741" transform="translate(-119.706 -153.917)" fill="#79acf8"/><path d="M197.795,307.925l-2.968-3.194c.066-.074.236-.291.43-.484,3.164-3.168,6.32-6.345,9.516-9.48a2.183,2.183,0,0,1,1.382-.568q10.574-.053,21.149,0a1.378,1.378,0,0,1,1.057.475c1.97,3.83,3.883,7.688,5.861,11.642-.332.025-.592.061-.851.061-1.905,0-3.811-.021-5.716.017a1.251,1.251,0,0,1-1.23-.642c-1.627-2.5-3.291-4.973-4.95-7.451-.9-1.35-1.8-1.443-2.934-.3-.827.831-1.628,1.688-2.518,2.613-.766-1.329-1.457-2.534-2.154-3.736-.879-1.516-2.236-1.508-3.115.022-1.689,2.942-3.383,5.881-5.045,8.838a1.057,1.057,0,0,1-1.1.654c-.947-.048-1.9-.013-2.922-.013-.027.534-.051,1.027-.076,1.521l-3.812.029" transform="translate(-146.727 -220.955)" fill="#79acf7"/><path d="M40.585,280.907c-3.2,3.223-6.449,6.393-9.562,9.695a4.688,4.688,0,0,1-4.194,1.746c-1.634-.164-3.3-.035-5.14-.035l12.593-25.2,7.652,7.433a2.955,2.955,0,0,0-1.369,2.746c.023,1.2.015,2.407.02,3.611" transform="translate(-17.691 -200.791)" fill="#3278e8"/><path d="M115.316,307.855l-6.881-6.812c-1.156-1.145-1.8-1.144-2.959.008l-6.67,6.623a2.451,2.451,0,0,1-2.364-2.363q3.308-3.332,6.616-6.665c1.153-1.162,1.154-1.805.023-2.96-.507-.518-1-1.051-1.5-1.577l4.646-.028,6.875,6.81c1.156,1.145,1.8,1.145,2.959,0l6.877-6.808,4.65.027-8.494,8.574c-.223.225-.449.447-.672.673-1.071,1.085-1.075,1.753-.029,2.825.529.543,1.046,1.1,1.568,1.646l-4.65.027" transform="translate(-73.403 -220.886)" fill="#8288b1"/><path d="M206.48,348.078l3.812-.029v1.532h1.189q16,0,32-.018a1.265,1.265,0,0,1,1.434.886c.263.7.656,1.358,1.065,2.181h-1.011q-16.571,0-33.141.013a1.856,1.856,0,0,1-1.49-.621c-1.262-1.336-2.568-2.632-3.856-3.943" transform="translate(-155.412 -261.107)" fill="#3278e9"/><path d="M230.932,213.586a9.03,9.03,0,0,0,.363-1.741c.038-2.887.021-5.776.016-8.664a3.03,3.03,0,0,0-3.331-3.293l-9.71-.032.276-1.425a3.761,3.761,0,0,1,.48-.063c4.569,0,9.139-.012,13.708.016a1.165,1.165,0,0,1,.889.451c2.439,4.8,4.838,9.624,7.243,14.443a1.4,1.4,0,0,1,.064.308Z" transform="translate(-164.199 -149.549)" fill="#3278e8"/><path d="M101.749,204.356c.01,2.186.028,4.372.019,6.559a1.039,1.039,0,0,1-.247.668c-1.907,1.941-3.833,3.864-5.687,5.724l-6.34-6.347,3.359-6.609,8.9.006" transform="translate(-68.225 -154.011)" fill="#79acf7"/><path d="M193.88,88.741q.1-1.724.209-3.449c6.3,3.257,8.055,12.121,3.551,17.923a11.843,11.843,0,0,1-5.986,4.179,2.12,2.12,0,0,0-1.628,1.748c-.6,2.782-1.28,5.548-2.112,8.355-.16-.607-.335-1.211-.478-1.822-.512-2.189-1.042-4.375-1.507-6.574a2.034,2.034,0,0,0-1.564-1.7,14.191,14.191,0,0,1-1.719-.749,5.594,5.594,0,0,1,.988-.179c2.854-.015,5.708-.006,8.562-.009,1.386,0,1.9-.5,1.881-1.884-.009-.582-.124-1.162-.191-1.742l2.674-3.267-2.693-1.289q.115-1.259.231-2.518h3.034a9.436,9.436,0,0,0-3.25-7.026" transform="translate(-137.649 -65.279)" fill="#69bd3a"/><path d="M145.829,264.176l13.792.039L152,271.833H144.3l-2.83-3.109,4.354-4.547" transform="translate(-106.966 -198.598)" fill="#3278e9"/><path d="M205.13,276.333l-4.65-.027c1.9-1.917,3.785-3.844,5.705-5.737a1.43,1.43,0,0,1,.924-.327q10.764-.027,21.528.01a1.306,1.306,0,0,1,.931.552c.46.745.8,1.561,1.256,2.472h-1.158c-6.7,0-13.4.014-20.1-.016a2.781,2.781,0,0,0-2.262.951c-.679.749-1.446,1.418-2.175,2.122" transform="translate(-150.941 -203.109)" fill="#60658b"/><path d="M132.54,204.39c.01,3.2.027,6.392.016,9.587a1.158,1.158,0,0,1-.306.738c-1.648,1.66-3.319,3.3-4.983,4.942l-4.647-.028c1.961-1.988,3.9-4,5.894-5.953a3.044,3.044,0,0,0,1.027-2.427c-.055-2.285,0-4.573.009-6.86h2.989" transform="translate(-92.913 -154.041)" fill="#8288b1"/><path d="M117.73,348.008l4.312,4.544H105.73l4.308-4.544h7.692" transform="translate(-80.326 -261.076)" fill="#3278e9"/><path d="M95.846,264.208l4.647.028c-1.062,1.084-2.128,2.164-3.186,3.252-.918.944-.908,1.661.018,2.62q.822.852,1.643,1.706l-4.646.028-7.626-7.609,4.651-.029q.52.481,1.04.962a1.548,1.548,0,0,0,2.419,0q.522-.479,1.041-.959" transform="translate(-66.139 -198.619)" fill="#60658b"/><path d="M76.081,338.169a2.451,2.451,0,0,0,2.364,2.363c-1.45,1.464-2.9,2.933-4.358,4.386a1.072,1.072,0,0,1-.639.33c-1.417.03-2.835.015-4.326.015l6.959-7.094" transform="translate(-53.042 -253.743)" fill="#60658b"/><path d="M170.539,348.079l4.65-.027,4.359,4.573c-1.388,0-2.855.008-4.322-.012a.815.815,0,0,1-.475-.27q-2.115-2.124-4.213-4.264" transform="translate(-128.626 -261.109)" fill="#60658b"/><path d="M256.866,324.295h-6.883l3.437-6.02,3.446,6.02" transform="translate(-187.834 -238.917)" fill="#69be3a"/><path d="M85.246,248.661l-4.651.029a.361.361,0,0,1-.085-.043c-2.508-2.271-2.508-2.271-.83-5.3l5.566,5.312" transform="translate(-60.04 -183.076)" fill="#8288b0"/><path d="M152.585,294.235h7.692l-3.846,3.61-3.845-3.611" transform="translate(-115.246 -221)" fill="#79acf7"/><path d="M130.333,337.453h-7.692l3.863-3.608,3.829,3.607" transform="translate(-92.929 -250.522)" fill="#79acf7"/><path d="M286.618,321.361l3.518,5.277c-1.3,0-2.422.009-3.549-.011a.63.63,0,0,1-.461-.235c-.509-.837-1.006-1.683-1.453-2.553-.073-.143.063-.473.2-.63.52-.594,1.081-1.152,1.744-1.847" transform="translate(-213.673 -241.217)" fill="#79db44"/><path d="M95.812,302.655c-.005-1.2,0-2.407-.02-3.611a2.955,2.955,0,0,1,1.369-2.746l2.313,2.468-3.662,3.888" transform="translate(-72.919 -222.539)" fill="#79abf7"/><path d="M111.577,199.767l-8.9-.006c.279-1.243,1.01-1.635,2.3-1.559,2.163.127,4.339.035,6.6.035Z" transform="translate(-78.053 -149.422)" fill="#3278e8"/><path d="M177.642,200.033l-3.858.037V198.6h3.566l.293,1.434" transform="translate(-131.044 -149.725)" fill="#3278e7"/><path d="M152.817,200.1h-2.989v-1.468h2.989Z" transform="translate(-113.191 -149.746)" fill="#60658b"/><path d="M35.961,102.67h21.5a11.492,11.492,0,0,1-.846,1.293,2.281,2.281,0,0,0-.192,3.245l-12.858,0v-2.981H40.545v2.981H37.461v-3.077h-1.5V102.67" transform="translate(-28.327 -78.231)" fill="#6ac03b"/><path d="M24.6,47.288c.4-.746.982-1.46.38-2.367-.453-.681-.9-1.365-1.349-2.042.094-.077.137-.143.18-.143q10.624,0,21.248.013,0,.732,0,1.464l-1.5.08v3H40.477V44.31H37.459v2.981l-12.857,0" transform="translate(-19.14 -33.563)" fill="#6ac03b"/><path d="M40.14,47.038H46.2v-3.01l-1.471-.068V42.5a2.8,2.8,0,0,1,3.426,1.683c.9,1.726.927.936-.024,2.7A3.106,3.106,0,0,1,44.874,48.6c-6.815-.087-13.633-.038-20.449-.038H23.181l1.084-1.532,12.857,0Z" transform="translate(-18.803 -33.31)" fill="#549a2d"/><path d="M32.186,107.054l12.858,0,1.105,1.532h-.881q-11.034,0-22.067.012a1.361,1.361,0,0,1-1.317-.672c-1.581-2.4-1.584-2.376-.022-4.745a1.233,1.233,0,0,1,1.3-.706,13.441,13.441,0,0,0,1.424.04v1.464l-1.478.082v3h9.081Z" transform="translate(-16.95 -78.073)" fill="#549a2d"/><path d="M67.484,138.6h1.471v12.1H66v-2.988c1.111-.212,1.487-.622,1.49-1.7.009-2.471,0-4.942,0-7.413" transform="translate(-50.713 -105.011)" fill="#8288b1"/><path d="M67.484,138.6c0,2.471.011,4.942,0,7.413,0,1.08-.38,1.489-1.49,1.7V138.6Z" transform="translate(-50.713 -105.011)" fill="#a2a6c5"/><path d="M67.555,21.825H66.092V18.837h1.463v2.988" transform="translate(-50.784 -15.752)" fill="#a2a6c5"/><path d="M71.836,21.825V18.837h1.47v2.988Z" transform="translate(-55.065 -15.752)" fill="#8288b1"/><path d="M67.555,81.708H66.092V78.72h1.463v2.988" transform="translate(-50.784 -60.381)" fill="#a2a6c5"/><path d="M71.836,81.708V78.72h1.47v2.988Z" transform="translate(-55.065 -60.381)" fill="#8288b1"/><path d="M209.678,92.737a9.436,9.436,0,0,1,3.25,7.026h-3.034c-.28-3.543-2.322-5.626-6.052-6.118V90.657a9.171,9.171,0,0,1,5.836,2.08" transform="translate(-153.446 -69.275)" fill="#020301"/><path d="M220.482,136.3l2.692,1.289-2.674,3.267c-.232-.027-.569.033-.678-.1-.543-.649-1.027-1.347-1.465-1.939.615-.842,1.162-1.6,1.73-2.351.075-.1.26-.114.394-.168" transform="translate(-164.265 -103.293)" fill="#030501"/><path d="M56.978,111.778H53.96V108.8h3.018Z" transform="translate(-41.742 -82.797)"/><path d="M33.136,111.5H30.157v-3l1.478-.082h1.5Z" transform="translate(-24.002 -82.515)"/><path d="M80.931,51.895H77.913V48.914h3.018Z" transform="translate(-59.594 -38.167)"/><path d="M103.367,48.536l1.471.068v3.01h-2.972v-3l1.5-.08" transform="translate(-77.446 -37.886)"/></g></g></g></svg>