<svg xmlns="http://www.w3.org/2000/svg" xmlns:xlink="http://www.w3.org/1999/xlink" width="113" height="113" viewBox="0 0 113 113"><defs><clipPath id="a"><rect width="95" height="95" transform="translate(0.034 0.184)" fill="none"/></clipPath></defs><g transform="translate(0.15)"><rect width="113" height="113" transform="translate(-0.15)" fill="none"/><g transform="translate(8.816 8.816)"><g transform="translate(0)" clip-path="url(#a)"><path d="M16.642,253.485a2.82,2.82,0,0,1-1.42-2.841c.068-1.821,0-3.647.02-5.47a6.542,6.542,0,0,1,6.875-6.867c.618,0,1.235,0,2.1,0-.445-.277-.708-.437-.967-.6a7.321,7.321,0,0,1,6.29-13.1,5.457,5.457,0,0,0,1.849.13c1.2-.042,2.4-.147,3.748-.236a7.527,7.527,0,0,1-3.815-4.2,7.145,7.145,0,0,1,.262-5.586,7.315,7.315,0,0,1,13.777,1.6c.685,3.245-.772,6.223-3.98,8.28a16.808,16.808,0,0,1,2.4.021,8.367,8.367,0,0,0,4.05-.2,6.09,6.09,0,0,1,4.082.341,1.883,1.883,0,0,0,.791.174c1.431-.142,2.858-.323,4.325-.494a7.455,7.455,0,0,1-3.641-4,7.157,7.157,0,0,1,.082-5.417,7.305,7.305,0,0,1,13.906,1.352c.7,3.167-.79,6.193-4.076,8.114.289.046.47.086.652.1,1.224.114,2.448.236,3.674.327a2.014,2.014,0,0,0,.8-.123,7.317,7.317,0,0,1,6.19,13.244c-.07.041-.134.093-.3.212,1.2.067,2.3.052,3.369.2a6.206,6.206,0,0,1,5.393,5.634c.163,2.462.075,4.941.083,7.412a2.432,2.432,0,0,1-1.394,2Zm64.65-1.882c0-2.4.091-4.715-.024-7.019a4.487,4.487,0,0,0-4.591-4.4q-5.466-.09-10.934,0a4.424,4.424,0,0,0-4.5,3.883c-.177,2.48-.041,4.981-.041,7.518h2.586v-1.039c0-1.637-.006-3.274.006-4.911,0-.6.284-1.036.929-1.042s.92.412.921,1.029q0,1.668,0,3.335c0,.882,0,1.764,0,2.6H76.782v-1.83c0-1.3,0-2.594,0-3.891,0-.652.16-1.219.92-1.242s.958.527.941,1.192c-.011.432,0,.865,0,1.3V251.6Zm-37.641-.037H54.793V250.5q0-2.41,0-4.82c0-.593.2-1.064.867-1.088.713-.026.953.464.983,1.088.018.37.006.741.006,1.112,0,1.592,0,3.184,0,4.76h2.633c0-2.236.005-4.394,0-6.553a4.622,4.622,0,0,0-4.677-4.821c-3.615-.051-7.231-.056-10.846,0a4.6,4.6,0,0,0-4.625,4.773c-.008,1.916,0,3.831,0,5.747,0,.295.037.589.056.879h2.573c0-1.524,0-3,0-4.475a5.775,5.775,0,0,1,.069-1.655c.108-.348.579-.811.882-.806s.671.482.877.831c.138.233.054.6.054.911,0,1.7,0,3.4,0,5.18m-6.413.028c0-2.229,0-4.358,0-6.486a4.626,4.626,0,0,0-4.912-4.94q-5.144-.026-10.288,0a4.657,4.657,0,0,0-4.93,4.947c-.019,1.915-.006,3.83,0,5.745a6.951,6.951,0,0,0,.076.719h2.587v-.956c0-1.637.005-3.274,0-4.912,0-.642.214-1.127.925-1.118s.928.5.934,1.135c0,.278,0,.556,0,.834v4.993H32.766c0-1.958.008-3.842,0-5.725,0-.656.131-1.225.9-1.234.756-.009.964.534.958,1.2-.006.649,0,1.3,0,1.946v3.854Zm15.174-13.347c3.092-.175,5.921.29,7.81,3.213,1.946-2.972,4.781-3.357,7.858-3.209a7.64,7.64,0,0,1-4.018-5.307,7.5,7.5,0,0,1,1.813-6.453H54.623c3.065,4.947,2.3,8.955-2.212,11.756m-6.4.016c-4.57-3.046-5.225-6.411-2.263-11.758H32.58a7.5,7.5,0,0,1-2.09,11.658,18.471,18.471,0,0,1,4.237.584,19.191,19.191,0,0,1,3.681,2.4c1.7-2.624,4.521-3.057,7.6-2.88m3.192-1.276a5.454,5.454,0,1,0-5.461-5.489,5.46,5.46,0,0,0,5.461,5.489m22.044,0a5.454,5.454,0,1,0-5.459-5.372,5.461,5.461,0,0,0,5.459,5.372m-5.6-19.153a5.444,5.444,0,1,0-5.5,5.425,5.462,5.462,0,0,0,5.5-5.425M27.193,236.987a5.454,5.454,0,0,0-.019-10.907,5.454,5.454,0,1,0,.019,10.907M38.218,223.26a5.454,5.454,0,1,0-5.459-5.464,5.448,5.448,0,0,0,5.459,5.464" transform="translate(-11.552 -158.336)" fill="#040404"/><path d="M184.922,36.048c3.945-.23,7.8.427,11.555-.689a8.59,8.59,0,0,0,2.306-.92,3.581,3.581,0,0,0,1.147-1.551,1.139,1.139,0,0,0-.564-1.465,9.214,9.214,0,0,1-3.82-5.989c-3.784-.608-4.758-3.946-3.865-6.1a1.675,1.675,0,0,1,.332-.653c1.355-1.128,1.122-2.66,1.127-4.151a10.008,10.008,0,0,1,5.03-9.023,13.9,13.9,0,0,1,8.782-1.573,12.141,12.141,0,0,1,3.709,1.025,4.658,4.658,0,0,1,2.781,3.686,1.007,1.007,0,0,0,.73.885c1.635.671,1.982,2.188,2.164,3.71.139,1.161.073,2.346.15,3.517a1.7,1.7,0,0,0,.357.974,4.364,4.364,0,0,1,1.071,4.7,4.262,4.262,0,0,1-3.526,2.92c-.883,1.613-1.637,3.108-2.514,4.528a6.014,6.014,0,0,1-1.464,1.4,1.751,1.751,0,0,0,.313,3.142c1.888.807,3.872,1.4,5.829,2.033.907.3,1.852.472,2.774.725a4.044,4.044,0,0,1,3.2,3.74c.283,3.7.466,7.4.685,11.1q.142,2.406.263,4.814a1.883,1.883,0,0,1-2.065,2.24q-13.4.014-26.805,0a2.056,2.056,0,0,1-2.259-2.329c-.018-3.338,0-6.677-.007-10.015,0-1.918-.61-2.547-2.549-2.583-2.132-.04-4.266-.027-6.4-.068a6.519,6.519,0,0,1-6.61-6.48c-.1-3.181-.011-6.367-.05-9.551a6.189,6.189,0,0,0-.379-1.472,8.127,8.127,0,0,1-.421-1.587c-.066-1.109-.024-2.224-.019-3.337a2.958,2.958,0,0,1,1.5-2.7.993.993,0,0,0,.548-1.024q-.022-7.141,0-14.282a2.788,2.788,0,0,1,3.83-2.775,2.953,2.953,0,0,1,1.63,1.789,2.08,2.08,0,0,0,.88,1.013c2.017,1.065,4.061,2.078,6.112,3.078a2.071,2.071,0,0,1,1.429,1.865,2.046,2.046,0,0,1-1.4,1.886c-2.076,1.017-4.125,2.091-6.216,3.078a1.047,1.047,0,0,0-.715,1.193c.053.676.024,1.36.009,2.039-.021,1-.095,1.9,1.025,2.579a3.1,3.1,0,0,1,.972,2.076,26.73,26.73,0,0,1,.04,3.611,1.2,1.2,0,0,1-.064.547c-.894,1.617-.519,3.374-.562,5.079-.044,1.724-.01,3.45-.01,5.338m9.287,21.122h20.873c0-3.946,0-7.837,0-11.728,0-.278-.092-.638.045-.815.249-.323.626-.714.974-.739.257-.018.6.469.81.792.113.176.028.482.028.729q0,5.379,0,10.759v1.006h4.655c0-.263.01-.475,0-.685q-.223-4.166-.452-8.333c-.125-2.222-.261-4.443-.394-6.664a2.39,2.39,0,0,0-1.735-2.459c-2.538-.705-5.086-1.37-7.669-2.062-.539,2.051-1.094,4.136-1.633,6.226-.194.753-.549,1.512.191,2.224.179.172.177.582.179.883.013,2.38.02,4.761,0,7.142a1.854,1.854,0,0,1-2,2.054q-3.292.065-6.586,0a1.884,1.884,0,0,1-2.03-2.123c-.011-2.319-.017-4.638.01-6.956a2.005,2.005,0,0,1,.307-1.217,1.3,1.3,0,0,0,.226-1.427c-.146-.471-.251-.954-.377-1.432-.487-1.841-.974-3.682-1.471-5.556-4.435,1.612-8.953.977-13.413,1.054-1.071.018-1.614-.63-1.685-1.707-.033-.493-.013-.989-.014-1.483,0-1.118,0-2.236,0-3.267a8.283,8.283,0,0,1-2.225.761,7.587,7.587,0,0,1-2.165-.562.661.661,0,0,0-.038.189c0,1.886-.04,3.772,0,5.657a4.724,4.724,0,0,0,4.924,4.8c2.133.029,4.267.025,6.4.06,2.782.045,4.248,1.554,4.254,4.362.006,3.154,0,6.307,0,9.46V57.17M212.144,20.5h.133c0-1.205.046-2.413-.02-3.614a4.839,4.839,0,0,0-.435-1.769c-.48-1.012-.817-1.035-1.774-.433a9.234,9.234,0,0,1-10.309.134c-1.277-.76-1.764-.623-2.247.809a3.54,3.54,0,0,0-.2,1.086c-.015,2.472-.077,4.947.017,7.416a7.436,7.436,0,0,0,6.742,7.154,7.317,7.317,0,0,0,8.06-6.164,30.2,30.2,0,0,0,.038-4.618m2.11-3.973a7.475,7.475,0,0,0,.056-3.987c-.2-.721-.507-1.278-1.376-1.405a1.376,1.376,0,0,1-1.219-1.318c-.26-2.243-1.151-3.382-3.394-3.751a23.149,23.149,0,0,0-5.133-.188,8.4,8.4,0,0,0-7.847,6.126,10.612,10.612,0,0,0-.2,4.385c.44-.829.7-1.72,1.168-2.483,1.075-1.751,2.414-1.957,4.141-.865a8.74,8.74,0,0,0,2.415,1.121,7.387,7.387,0,0,0,6.409-1.208,2.351,2.351,0,0,1,3.582.441,9.564,9.564,0,0,1,1.086,2.007,7.1,7.1,0,0,1,.312,1.125M200.339,37.666c.559,2.175,1.06,4.2,1.625,6.2.055.2.5.393.765.4,1.356.041,2.716-.014,4.072.034.6.021.78-.209.908-.754.4-1.707.877-3.4,1.315-5.1.055-.212.066-.435.111-.75a9.731,9.731,0,0,1-8.8-.037M183.7,23.255c0-.556.028-1.114-.007-1.667a1.2,1.2,0,0,0-1.233-1.244c-1.141-.043-2.286-.039-3.428,0a1.189,1.189,0,0,0-1.245,1.231c-.044,1.141-.041,2.286,0,3.427a1.19,1.19,0,0,0,1.232,1.245c1.141.043,2.287.046,3.428,0a1.223,1.223,0,0,0,1.254-1.322c.019-.555,0-1.112,0-1.668m-2.093-4.82a2.812,2.812,0,0,0,.05-.341q0-7.177,0-14.355c0-.154.051-.371-.029-.451-.282-.279-.6-.679-.927-.707-.267-.023-.625.387-.843.679-.122.163-.05.477-.05.724q0,6.853,0,13.707c0,.238.021.476.034.745ZM201.39,53.6h6.782V50.041H201.39Zm-.672-17.931c2.6,1.68,6.351,1.621,8.072-.051l-1.169-2.639h-5.662l-1.242,2.689M183.581,5.432v6.424l6.387-3.209-6.387-3.215M201.355,48.11h6.825V46.227h-6.825ZM214.19,18.473V23.45a2.584,2.584,0,0,0,2.145-2.551,2.5,2.5,0,0,0-2.145-2.426m-18.774,0a2.5,2.5,0,0,0-.035,4.951c.012-.152.033-.3.033-.447,0-1.477,0-2.955,0-4.5m-15.839,9.69a19.185,19.185,0,0,0,.76,2.034.983.983,0,0,0,.806,0,19.152,19.152,0,0,0,.753-2.035Z" transform="translate(-132.419 -0.492)" fill="#050403"/><path d="M315.492,298.77c-.038.884,0,1.8-1.135,1.942-.755.093-1.148-.474-1.417-1.964-.845-.061-1.88-.1-1.877-1.248,0-1.128.968-1.259,1.92-1.242.105-.919.1-1.987,1.329-1.972,1.2.014,1.172,1.029,1.149,1.939.906.132,1.992-.051,2.016,1.27.015.824-.42,1.1-1.985,1.276" transform="translate(-234.091 -221.366)" fill="#73d6f8"/><path d="M122.2,30.9a4.544,4.544,0,0,0-3.544-3.44,4.541,4.541,0,0,0,3.536-3.473,4.676,4.676,0,0,0,3.37,3.465A4.6,4.6,0,0,0,122.2,30.9" transform="translate(-89.358 -18.044)" fill="#f4c951"/><path d="M48.409,214.883l2.077,1.955L48.5,218.765l-2.032-2.017a6.416,6.416,0,0,0,1.151-.755,6.1,6.1,0,0,0,.792-1.11" transform="translate(-35.058 -161.639)" fill="#8cd24f"/><path d="M155.154,1.991a1.267,1.267,0,0,1-1.234,1.248,1.3,1.3,0,0,1-1.225-1.265A1.231,1.231,0,0,1,153.985.7a1.205,1.205,0,0,1,1.17,1.286" transform="translate(-114.965 -0.529)" fill="#fb6a82"/><path d="M306.651,343.586a1.206,1.206,0,0,1,1.254,1.2,1.258,1.258,0,0,1-1.238,1.336,1.308,1.308,0,0,1-1.218-1.273,1.229,1.229,0,0,1,1.2-1.265" transform="translate(-229.869 -258.451)" fill="#f4c951"/><path d="M220.732,341.6h-2.651v-4.519c0-.432-.009-.865,0-1.3.017-.666-.167-1.215-.941-1.192-.76.023-.923.59-.92,1.242.006,1.3,0,2.594,0,3.891v1.83H205.086c0-.838,0-1.72,0-2.6q0-1.668,0-3.335c0-.617-.273-1.034-.921-1.029s-.924.442-.929,1.042c-.012,1.637-.005,3.274-.006,4.911,0,.333,0,.666,0,1.039h-2.586c0-2.537-.137-5.038.041-7.518a4.424,4.424,0,0,1,4.5-3.883q5.466-.086,10.934,0a4.486,4.486,0,0,1,4.591,4.4c.115,2.3.025,4.618.025,7.019" transform="translate(-150.993 -248.335)" fill="#f2c54b"/><path d="M116.241,341.561c0-1.785,0-3.483,0-5.18,0-.308.084-.678-.054-.911-.207-.349-.573-.827-.878-.832s-.774.459-.882.807a5.792,5.792,0,0,0-.069,1.655c0,1.476,0,2.952,0,4.475h-2.573c-.019-.29-.055-.585-.056-.879-.005-1.916-.009-3.831,0-5.747a4.6,4.6,0,0,1,4.625-4.773q5.422-.089,10.846,0a4.621,4.621,0,0,1,4.677,4.821c.007,2.159,0,4.318,0,6.553h-2.633c0-1.576,0-3.168,0-4.76,0-.371.012-.742-.006-1.112-.031-.624-.271-1.114-.984-1.088-.663.024-.867.495-.867,1.088q0,2.41,0,4.82v1.067Z" transform="translate(-84.143 -248.331)" fill="#518dd7"/><path d="M42.942,341.639H40.328v-3.854c0-.649,0-1.3,0-1.946.006-.665-.2-1.208-.958-1.2-.774.009-.909.578-.9,1.234.013,1.883,0,3.767,0,5.725H27.333v-4.993c0-.278,0-.556,0-.834-.005-.631-.233-1.125-.934-1.135s-.928.476-.925,1.118c.007,1.637,0,3.274,0,4.912v.956H22.888a6.875,6.875,0,0,1-.076-.719c-.006-1.915-.019-3.83,0-5.745a4.656,4.656,0,0,1,4.93-4.947q5.144-.028,10.288,0a4.626,4.626,0,0,1,4.912,4.941c0,2.129,0,4.257,0,6.486" transform="translate(-17.257 -248.381)" fill="#6ed3f5"/><path d="M165.321,286.814c4.508-2.8,5.277-6.81,2.212-11.756h11.251a7.5,7.5,0,0,0-1.813,6.453,7.641,7.641,0,0,0,4.019,5.307c-3.077-.148-5.913.237-7.859,3.209-1.889-2.924-4.718-3.388-7.81-3.213" transform="translate(-124.462 -206.903)" fill="#85ce46"/><path d="M92.376,286.875c-3.083-.178-5.9.256-7.6,2.879a19.209,19.209,0,0,0-3.681-2.4,18.468,18.468,0,0,0-4.237-.583,7.5,7.5,0,0,0,2.09-11.658h11.17c-2.961,5.347-2.307,8.712,2.263,11.758" transform="translate(-57.916 -206.948)" fill="#f58da3"/><path d="M135.8,284.307a5.453,5.453,0,1,1,5.46-5.394,5.462,5.462,0,0,1-5.46,5.394" transform="translate(-98.152 -205.656)" fill="#f6cdb2"/><path d="M224.772,284.307a5.454,5.454,0,0,1-.044-10.907,5.454,5.454,0,1,1,.044,10.907" transform="translate(-165.076 -205.656)" fill="#f6cdb2"/><path d="M185.708,223.48a5.444,5.444,0,0,1-10.887-.031,5.444,5.444,0,1,1,10.887.031" transform="translate(-131.608 -163.982)" fill="#f6ceb2"/><path d="M46.949,284.306a5.454,5.454,0,1,1,5.428-5.4,5.454,5.454,0,0,1-5.428,5.4" transform="translate(-31.308 -205.655)" fill="#f6ceb2"/><path d="M91.465,228.906A5.454,5.454,0,0,1,91.419,218a5.454,5.454,0,1,1,.046,10.907" transform="translate(-64.8 -163.982)" fill="#f6ceb2"/><path d="M202.435,150.463v-1.055c0-3.153,0-6.307,0-9.46-.006-2.809-1.472-4.318-4.254-4.362-2.133-.034-4.267-.031-6.4-.06a4.724,4.724,0,0,1-4.924-4.8c-.044-1.885-.008-3.771,0-5.657a.661.661,0,0,1,.038-.189,7.588,7.588,0,0,0,2.165.562,8.283,8.283,0,0,0,2.225-.761c0,1.031,0,2.149,0,3.267,0,.495-.019.991.014,1.483.071,1.077.614,1.725,1.685,1.707,4.46-.076,8.977.558,13.413-1.054.5,1.874.984,3.715,1.471,5.556.126.477.231.961.377,1.431a1.305,1.305,0,0,1-.226,1.427,2,2,0,0,0-.307,1.217c-.028,2.319-.021,4.637-.01,6.956a1.884,1.884,0,0,0,2.03,2.123q3.292.064,6.586,0a1.853,1.853,0,0,0,2-2.053c.018-2.38.011-4.761,0-7.142,0-.3,0-.71-.179-.883-.741-.712-.385-1.471-.191-2.224.538-2.09,1.093-4.175,1.633-6.226,2.583.692,5.131,1.357,7.669,2.062a2.391,2.391,0,0,1,1.735,2.459c.133,2.221.269,4.443.394,6.664q.235,4.166.452,8.333c.011.211,0,.423,0,.685h-4.655v-1.007q0-5.38,0-10.759c0-.247.085-.553-.029-.729-.209-.324-.553-.811-.81-.792-.348.025-.725.416-.974.739-.137.178-.045.538-.045.815,0,3.89,0,7.781,0,11.728Z" transform="translate(-140.645 -93.785)" fill="#f8a064"/><path d="M276.972,61.888a30.2,30.2,0,0,1-.038,4.618,7.316,7.316,0,0,1-8.06,6.164,7.436,7.436,0,0,1-6.742-7.154c-.094-2.469-.031-4.944-.017-7.415a3.541,3.541,0,0,1,.2-1.087c.483-1.432.97-1.569,2.247-.809a9.234,9.234,0,0,0,10.309-.134c.957-.6,1.295-.579,1.774.433a4.84,4.84,0,0,1,.435,1.769c.066,1.2.02,2.409.02,3.614h-.132m-7.251,7.452a3.94,3.94,0,0,0,2.843-1.119.929.929,0,0,0,.1-1.393.889.889,0,0,0-1.32-.026c-1.272.946-1.961.95-3.224.009a.933.933,0,1,0-1.238,1.392,3.8,3.8,0,0,0,2.835,1.137m-3.839-5.5a1.169,1.169,0,0,0,1.187-1.09,1.151,1.151,0,0,0-1.167-1.164,1.129,1.129,0,0,0-.02,2.254m7.607,0a1.129,1.129,0,1,0,.043-2.258,1.054,1.054,0,0,0-1.105,1.107,1.07,1.07,0,0,0,1.062,1.151" transform="translate(-197.247 -41.876)" fill="#f6cdb2"/><path d="M272.27,32.219a7.091,7.091,0,0,0-.312-1.125,9.575,9.575,0,0,0-1.086-2.008,2.351,2.351,0,0,0-3.582-.441,7.387,7.387,0,0,1-6.409,1.208,8.74,8.74,0,0,1-2.415-1.122c-1.727-1.092-3.066-.886-4.141.865-.468.763-.727,1.654-1.168,2.483a10.618,10.618,0,0,1,.2-4.385,8.4,8.4,0,0,1,7.847-6.126,23.164,23.164,0,0,1,5.133.188c2.243.369,3.134,1.508,3.394,3.751a1.376,1.376,0,0,0,1.219,1.319c.869.127,1.179.685,1.376,1.405a7.472,7.472,0,0,1-.056,3.987" transform="translate(-190.435 -16.18)" fill="#5a5c5e"/><path d="M274.536,150.025a9.731,9.731,0,0,0,8.8.037c-.045.315-.056.538-.111.75-.439,1.7-.913,3.389-1.315,5.1-.129.545-.311.774-.908.754-1.356-.048-2.715.007-4.072-.034-.268-.008-.71-.2-.765-.4-.564-2-1.065-4.027-1.625-6.2" transform="translate(-206.616 -112.851)" fill="#f89f63"/><path d="M189.345,82.933c0,.556.016,1.113,0,1.668a1.223,1.223,0,0,1-1.254,1.322c-1.141.046-2.287.043-3.428,0a1.19,1.19,0,0,1-1.232-1.245c-.039-1.141-.042-2.286,0-3.427a1.189,1.189,0,0,1,1.245-1.231c1.142-.037,2.287-.041,3.428,0a1.2,1.2,0,0,1,1.233,1.244c.035.554.007,1.111.008,1.667" transform="translate(-138.06 -60.17)" fill="#f7ceb2"/><path d="M193.432,24.281H191.67c-.013-.269-.034-.507-.034-.745q0-6.853,0-13.707c0-.246-.072-.56.05-.724.218-.292.576-.7.843-.679.33.028.645.428.927.707.08.08.029.3.029.451q0,7.177,0,14.355a2.875,2.875,0,0,1-.051.341" transform="translate(-144.241 -6.338)" fill="#d6a27f"/><rect width="6.782" height="3.555" transform="translate(68.971 49.549)" fill="#e7eef6"/><path d="M276.063,133.79,277.3,131.1h5.662l1.169,2.639c-1.721,1.671-5.472,1.731-8.072.051" transform="translate(-207.764 -98.616)" fill="#f3cbb0"/><path d="M206.906,19.936l6.387,3.215-6.387,3.209Z" transform="translate(-155.743 -14.996)" fill="#f7637b"/><rect width="6.825" height="1.883" transform="translate(68.936 45.735)" fill="#6ccff1"/><path d="M330.437,72.568a2.5,2.5,0,0,1,2.145,2.426,2.584,2.584,0,0,1-2.145,2.55Z" transform="translate(-248.665 -54.587)" fill="#f3cbb0"/><path d="M248.023,72.558c0,1.55,0,3.027,0,4.5,0,.147-.022.295-.033.447a2.5,2.5,0,0,1,.035-4.951" transform="translate(-185.025 -54.579)" fill="#f4ccb0"/><path d="M190.748,111.665h2.319a19.156,19.156,0,0,1-.753,2.035.983.983,0,0,1-.806,0,19.188,19.188,0,0,1-.76-2.034" transform="translate(-143.589 -83.996)" fill="#d39f7d"/><path d="M283.168,102.286a3.8,3.8,0,0,1-2.834-1.138.933.933,0,1,1,1.238-1.392c1.263.941,1.953.937,3.224-.009a.889.889,0,0,1,1.32.026.929.929,0,0,1-.1,1.393,3.946,3.946,0,0,1-2.844,1.12" transform="translate(-210.694 -74.82)" fill="#070605"/><path d="M274.215,81.787a1.129,1.129,0,0,1,.02-2.254A1.151,1.151,0,0,1,275.4,80.7a1.169,1.169,0,0,1-1.187,1.089" transform="translate(-205.58 -59.823)" fill="#0b0908"/><path d="M304.9,81.8a1.07,1.07,0,0,1-1.062-1.151,1.053,1.053,0,0,1,1.1-1.107A1.129,1.129,0,1,1,304.9,81.8" transform="translate(-228.655 -59.83)" fill="#0c0a08"/></g></g></g></svg>